G75*
G70*
%OFA0B0*%
%FSLAX24Y24*%
%IPPOS*%
%LPD*%
%AMOC8*
5,1,8,0,0,1.08239X$1,22.5*
%
%ADD10C,0.0080*%
%ADD11C,0.0060*%
%ADD12C,0.0100*%
%ADD13C,0.0040*%
%ADD14C,0.0050*%
%ADD15R,0.0340X0.0240*%
%ADD16R,0.0240X0.0340*%
%ADD17C,0.0200*%
D10*
X006765Y014640D02*
X006905Y014780D01*
X007045Y014640D01*
X007045Y015060D01*
X007225Y014920D02*
X007225Y014640D01*
X007225Y014850D02*
X007505Y014850D01*
X007505Y014920D02*
X007505Y014640D01*
X007685Y014640D02*
X007825Y014640D01*
X007755Y014640D02*
X007755Y015060D01*
X007685Y015060D02*
X007825Y015060D01*
X007992Y015060D02*
X008273Y015060D01*
X008132Y015060D02*
X008132Y014640D01*
X007505Y014920D02*
X007365Y015060D01*
X007225Y014920D01*
X006765Y015060D02*
X006765Y014640D01*
X008913Y014710D02*
X008983Y014640D01*
X009123Y014640D01*
X009193Y014710D01*
X009193Y014990D01*
X009123Y015060D01*
X008983Y015060D01*
X008913Y014990D01*
X008913Y014710D01*
X009373Y014640D02*
X009373Y015060D01*
X009654Y014640D01*
X009654Y015060D01*
X010254Y015220D02*
X011635Y015220D01*
X011495Y015060D02*
X011215Y014640D01*
X011035Y014710D02*
X010965Y014640D01*
X010825Y014640D01*
X010755Y014710D01*
X010825Y014850D02*
X010965Y014850D01*
X011035Y014780D01*
X011035Y014710D01*
X010825Y014850D02*
X010755Y014920D01*
X010755Y014990D01*
X010825Y015060D01*
X010965Y015060D01*
X011035Y014990D01*
X011215Y015060D02*
X011495Y014640D01*
X010574Y014710D02*
X010504Y014640D01*
X010364Y014640D01*
X010294Y014710D01*
X010294Y014990D01*
X010364Y015060D01*
X010504Y015060D01*
X010574Y014990D01*
X033030Y017325D02*
X033030Y019625D01*
X033032Y019684D01*
X033038Y019742D01*
X033047Y019801D01*
X033061Y019858D01*
X033078Y019914D01*
X033099Y019969D01*
X033123Y020023D01*
X033151Y020075D01*
X033182Y020125D01*
X033216Y020173D01*
X033253Y020218D01*
X033294Y020261D01*
X033337Y020302D01*
X033382Y020339D01*
X033430Y020373D01*
X033480Y020404D01*
X033532Y020432D01*
X033586Y020456D01*
X033641Y020477D01*
X033697Y020494D01*
X033754Y020508D01*
X033813Y020517D01*
X033871Y020523D01*
X033930Y020525D01*
X033989Y020523D01*
X034047Y020517D01*
X034106Y020508D01*
X034163Y020494D01*
X034219Y020477D01*
X034274Y020456D01*
X034328Y020432D01*
X034380Y020404D01*
X034430Y020373D01*
X034478Y020339D01*
X034523Y020302D01*
X034566Y020261D01*
X034607Y020218D01*
X034644Y020173D01*
X034678Y020125D01*
X034709Y020075D01*
X034737Y020023D01*
X034761Y019969D01*
X034782Y019914D01*
X034799Y019858D01*
X034813Y019801D01*
X034822Y019742D01*
X034828Y019684D01*
X034830Y019625D01*
X034830Y017325D01*
X034828Y017266D01*
X034822Y017208D01*
X034813Y017149D01*
X034799Y017092D01*
X034782Y017036D01*
X034761Y016981D01*
X034737Y016927D01*
X034709Y016875D01*
X034678Y016825D01*
X034644Y016777D01*
X034607Y016732D01*
X034566Y016689D01*
X034523Y016648D01*
X034478Y016611D01*
X034430Y016577D01*
X034380Y016546D01*
X034328Y016518D01*
X034274Y016494D01*
X034219Y016473D01*
X034163Y016456D01*
X034106Y016442D01*
X034047Y016433D01*
X033989Y016427D01*
X033930Y016425D01*
X033871Y016427D01*
X033813Y016433D01*
X033754Y016442D01*
X033697Y016456D01*
X033641Y016473D01*
X033586Y016494D01*
X033532Y016518D01*
X033480Y016546D01*
X033430Y016577D01*
X033382Y016611D01*
X033337Y016648D01*
X033294Y016689D01*
X033253Y016732D01*
X033216Y016777D01*
X033182Y016825D01*
X033151Y016875D01*
X033123Y016927D01*
X033099Y016981D01*
X033078Y017036D01*
X033061Y017092D01*
X033047Y017149D01*
X033038Y017208D01*
X033032Y017266D01*
X033030Y017325D01*
X047220Y012464D02*
X047220Y012324D01*
X047290Y012254D01*
X047360Y012254D01*
X047430Y012324D01*
X047430Y012464D01*
X047500Y012534D01*
X047570Y012534D01*
X047640Y012464D01*
X047640Y012324D01*
X047570Y012254D01*
X047640Y011934D02*
X047220Y011934D01*
X047220Y012074D02*
X047220Y011793D01*
X047220Y011627D02*
X047220Y011487D01*
X047220Y011557D02*
X047640Y011557D01*
X047640Y011487D02*
X047640Y011627D01*
X047640Y011306D02*
X047360Y011306D01*
X047220Y011166D01*
X047360Y011026D01*
X047640Y011026D01*
X047640Y010846D02*
X047220Y010846D01*
X047430Y011026D02*
X047430Y011306D01*
X047640Y010846D02*
X047500Y010706D01*
X047640Y010566D01*
X047220Y010566D01*
X047220Y012464D02*
X047290Y012534D01*
X051464Y023390D02*
X051464Y023810D01*
X051674Y023810D01*
X051744Y023740D01*
X051744Y023600D01*
X051674Y023530D01*
X051464Y023530D01*
X051924Y023600D02*
X052204Y023600D01*
X052204Y023670D02*
X052204Y023390D01*
X052385Y023390D02*
X052665Y023390D01*
X052385Y023390D02*
X052385Y023810D01*
X052204Y023670D02*
X052064Y023810D01*
X051924Y023670D01*
X051924Y023390D01*
X048296Y024835D02*
X048296Y025115D01*
X048226Y025185D01*
X048016Y025185D01*
X048016Y024765D01*
X048226Y024765D01*
X048296Y024835D01*
X047836Y024765D02*
X047836Y025185D01*
X047555Y025185D02*
X047836Y024765D01*
X047555Y024765D02*
X047555Y025185D01*
X047375Y025115D02*
X047305Y025185D01*
X047165Y025185D01*
X047095Y025115D01*
X047095Y024835D01*
X047165Y024765D01*
X047305Y024765D01*
X047375Y024835D01*
X047375Y024975D01*
X047235Y024975D01*
X047305Y025765D02*
X047375Y025835D01*
X047375Y026115D01*
X047305Y026185D01*
X047095Y026185D01*
X047095Y025765D01*
X047305Y025765D01*
X047555Y025765D02*
X047836Y025765D01*
X047555Y025765D02*
X047555Y026185D01*
X047976Y026345D02*
X047055Y026345D01*
X047165Y026765D02*
X047305Y026765D01*
X047375Y026835D01*
X047555Y026835D02*
X047555Y026765D01*
X047555Y026835D02*
X047836Y027115D01*
X047836Y027185D01*
X047555Y027185D01*
X047375Y027115D02*
X047305Y027185D01*
X047165Y027185D01*
X047095Y027115D01*
X047095Y026835D01*
X047165Y026765D01*
X047165Y027765D02*
X047305Y027765D01*
X047375Y027835D01*
X047555Y027835D02*
X047625Y027765D01*
X047766Y027765D01*
X047836Y027835D01*
X047836Y027975D01*
X047766Y028045D01*
X047696Y028045D01*
X047555Y027975D01*
X047555Y028185D01*
X047836Y028185D01*
X047375Y028115D02*
X047305Y028185D01*
X047165Y028185D01*
X047095Y028115D01*
X047095Y027835D01*
X047165Y027765D01*
X047165Y028765D02*
X047305Y028765D01*
X047375Y028835D01*
X047555Y028835D02*
X047625Y028765D01*
X047766Y028765D01*
X047836Y028835D01*
X047836Y028905D01*
X047766Y028975D01*
X047696Y028975D01*
X047766Y028975D02*
X047836Y029045D01*
X047836Y029115D01*
X047766Y029185D01*
X047625Y029185D01*
X047555Y029115D01*
X047375Y029115D02*
X047305Y029185D01*
X047165Y029185D01*
X047095Y029115D01*
X047095Y028835D01*
X047165Y028765D01*
X047165Y029765D02*
X047305Y029765D01*
X047375Y029835D01*
X047555Y029765D02*
X047836Y029765D01*
X047696Y029765D02*
X047696Y030185D01*
X047555Y030045D01*
X047375Y030115D02*
X047305Y030185D01*
X047165Y030185D01*
X047095Y030115D01*
X047095Y029835D01*
X047165Y029765D01*
X044665Y029835D02*
X044595Y029765D01*
X044455Y029765D01*
X044385Y029835D01*
X044665Y030115D01*
X044665Y029835D01*
X044665Y030115D02*
X044595Y030185D01*
X044455Y030185D01*
X044385Y030115D01*
X044385Y029835D01*
X044204Y029835D02*
X044134Y029765D01*
X043994Y029765D01*
X043924Y029835D01*
X043924Y030115D01*
X043994Y030185D01*
X044134Y030185D01*
X044204Y030115D01*
X044134Y029185D02*
X043994Y029185D01*
X043924Y029115D01*
X043924Y028835D01*
X043994Y028765D01*
X044134Y028765D01*
X044204Y028835D01*
X044385Y028765D02*
X044665Y029045D01*
X044665Y029115D01*
X044595Y029185D01*
X044455Y029185D01*
X044385Y029115D01*
X044204Y029115D02*
X044134Y029185D01*
X044385Y028765D02*
X044665Y028765D01*
X044595Y028185D02*
X044385Y027975D01*
X044665Y027975D01*
X044595Y027765D02*
X044595Y028185D01*
X044204Y028115D02*
X044134Y028185D01*
X043994Y028185D01*
X043924Y028115D01*
X043924Y027835D01*
X043994Y027765D01*
X044134Y027765D01*
X044204Y027835D01*
X044134Y027185D02*
X043994Y027185D01*
X043924Y027115D01*
X043924Y026835D01*
X043994Y026765D01*
X044134Y026765D01*
X044204Y026835D01*
X044385Y026835D02*
X044455Y026765D01*
X044595Y026765D01*
X044665Y026835D01*
X044665Y026905D01*
X044595Y026975D01*
X044385Y026975D01*
X044385Y026835D01*
X044385Y026975D02*
X044525Y027115D01*
X044665Y027185D01*
X044204Y027115D02*
X044134Y027185D01*
X044134Y026185D02*
X043924Y026185D01*
X043924Y025765D01*
X044134Y025765D01*
X044204Y025835D01*
X044204Y026115D01*
X044134Y026185D01*
X044385Y026185D02*
X044385Y025765D01*
X044385Y025905D02*
X044595Y025905D01*
X044665Y025975D01*
X044665Y026115D01*
X044595Y026185D01*
X044385Y026185D01*
X044525Y025905D02*
X044665Y025765D01*
X044805Y025345D02*
X043884Y025345D01*
X043924Y025185D02*
X044134Y025185D01*
X044204Y025115D01*
X044204Y024835D01*
X044134Y024765D01*
X043924Y024765D01*
X043924Y025185D01*
X044385Y025185D02*
X044385Y024765D01*
X044385Y024975D02*
X044665Y024975D01*
X044665Y025185D02*
X044665Y024765D01*
X050095Y026835D02*
X050165Y026765D01*
X050305Y026765D01*
X050375Y026835D01*
X050555Y026835D02*
X050625Y026765D01*
X050766Y026765D01*
X050836Y026835D01*
X050836Y026905D01*
X050766Y026975D01*
X050625Y026975D01*
X050555Y027045D01*
X050555Y027115D01*
X050625Y027185D01*
X050766Y027185D01*
X050836Y027115D01*
X051016Y027115D02*
X051156Y026975D01*
X051156Y026765D01*
X051156Y026975D02*
X051296Y027115D01*
X051296Y027185D01*
X051476Y027185D02*
X051756Y026765D01*
X051756Y027185D01*
X051937Y027115D02*
X051937Y026835D01*
X052007Y026765D01*
X052147Y026765D01*
X052217Y026835D01*
X052217Y027115D02*
X052147Y027185D01*
X052007Y027185D01*
X051937Y027115D01*
X051476Y027185D02*
X051476Y026765D01*
X051016Y027115D02*
X051016Y027185D01*
X050766Y027765D02*
X050836Y027835D01*
X050766Y027765D02*
X050625Y027765D01*
X050555Y027835D01*
X050555Y028115D01*
X050625Y028185D01*
X050766Y028185D01*
X050836Y028115D01*
X050375Y028115D02*
X050305Y028185D01*
X050165Y028185D01*
X050095Y028115D01*
X050095Y028045D01*
X050165Y027975D01*
X050305Y027975D01*
X050375Y027905D01*
X050375Y027835D01*
X050305Y027765D01*
X050165Y027765D01*
X050095Y027835D01*
X050055Y027345D02*
X052357Y027345D01*
X050375Y027115D02*
X050305Y027185D01*
X050165Y027185D01*
X050095Y027115D01*
X050095Y026835D01*
X051003Y025810D02*
X051284Y025390D01*
X051284Y025810D01*
X051464Y025810D02*
X051744Y025810D01*
X051604Y025810D02*
X051604Y025390D01*
X051924Y025460D02*
X051994Y025390D01*
X052134Y025390D01*
X052204Y025460D01*
X052204Y025530D01*
X052134Y025600D01*
X051994Y025600D01*
X051924Y025670D01*
X051924Y025740D01*
X051994Y025810D01*
X052134Y025810D01*
X052204Y025740D01*
X052385Y025740D02*
X052385Y025460D01*
X052455Y025390D01*
X052595Y025390D01*
X052665Y025460D01*
X052665Y025740D02*
X052595Y025810D01*
X052455Y025810D01*
X052385Y025740D01*
X051003Y025810D02*
X051003Y025390D01*
X051016Y028765D02*
X051226Y028765D01*
X051296Y028835D01*
X051296Y029115D01*
X051226Y029185D01*
X051016Y029185D01*
X051016Y028765D01*
X050836Y028765D02*
X050836Y029185D01*
X050555Y029185D02*
X050836Y028765D01*
X050555Y028765D02*
X050555Y029185D01*
X050375Y029115D02*
X050305Y029185D01*
X050165Y029185D01*
X050095Y029115D01*
X050095Y028835D01*
X050165Y028765D01*
X050305Y028765D01*
X050375Y028835D01*
X050375Y028975D01*
X050235Y028975D01*
X050165Y029765D02*
X050305Y029765D01*
X050375Y029835D01*
X050375Y029975D01*
X050235Y029975D01*
X050095Y030115D02*
X050095Y029835D01*
X050165Y029765D01*
X050095Y030115D02*
X050165Y030185D01*
X050305Y030185D01*
X050375Y030115D01*
X050555Y030185D02*
X050836Y029765D01*
X050836Y030185D01*
X051016Y030185D02*
X051226Y030185D01*
X051296Y030115D01*
X051296Y029835D01*
X051226Y029765D01*
X051016Y029765D01*
X051016Y030185D01*
X050555Y030185D02*
X050555Y029765D01*
X050625Y030765D02*
X050555Y030835D01*
X050625Y030765D02*
X050766Y030765D01*
X050836Y030835D01*
X050836Y030975D01*
X050766Y031045D01*
X050696Y031045D01*
X050555Y030975D01*
X050555Y031185D01*
X050836Y031185D01*
X051016Y031185D02*
X051016Y030905D01*
X051156Y030765D01*
X051296Y030905D01*
X051296Y031185D01*
X050375Y030975D02*
X050095Y030975D01*
X050235Y031115D02*
X050235Y030835D01*
X050165Y031765D02*
X050305Y031765D01*
X050375Y031835D01*
X050375Y031975D01*
X050235Y031975D01*
X050095Y031835D02*
X050165Y031765D01*
X050095Y031835D02*
X050095Y032115D01*
X050165Y032185D01*
X050305Y032185D01*
X050375Y032115D01*
X050375Y032765D02*
X050235Y032905D01*
X050305Y032905D02*
X050095Y032905D01*
X050095Y032765D02*
X050095Y033185D01*
X050305Y033185D01*
X050375Y033115D01*
X050375Y032975D01*
X050305Y032905D01*
X050305Y033765D02*
X050095Y033765D01*
X050095Y034185D01*
X050305Y034185D01*
X050375Y034115D01*
X050375Y034045D01*
X050305Y033975D01*
X050095Y033975D01*
X050305Y033975D02*
X050375Y033905D01*
X050375Y033835D01*
X050305Y033765D01*
X062137Y029053D02*
X064223Y029053D01*
X064223Y023147D01*
X062137Y023147D01*
X062137Y029053D01*
X019240Y042225D02*
X019170Y042155D01*
X018960Y042155D01*
X018960Y042015D02*
X018960Y042435D01*
X019170Y042435D01*
X019240Y042365D01*
X019240Y042225D01*
X018780Y042085D02*
X018780Y042365D01*
X018710Y042435D01*
X018500Y042435D01*
X018500Y042015D01*
X018710Y042015D01*
X018780Y042085D01*
X018320Y042155D02*
X018320Y042435D01*
X018320Y042155D02*
X018179Y042015D01*
X018039Y042155D01*
X018039Y042435D01*
X017859Y042225D02*
X017579Y042225D01*
X017399Y042085D02*
X017399Y042365D01*
X017329Y042435D01*
X017189Y042435D01*
X017118Y042365D01*
X017118Y042085D01*
X017189Y042015D01*
X017329Y042015D01*
X017399Y042085D01*
X017232Y041685D02*
X017022Y041475D01*
X017302Y041475D01*
X017482Y041475D02*
X017693Y041475D01*
X017763Y041405D01*
X017763Y041335D01*
X017693Y041265D01*
X017552Y041265D01*
X017482Y041335D01*
X017482Y041475D01*
X017622Y041615D01*
X017763Y041685D01*
X017232Y041685D02*
X017232Y041265D01*
X016842Y041335D02*
X016842Y041615D01*
X016772Y041685D01*
X016632Y041685D01*
X016562Y041615D01*
X016562Y041545D01*
X016632Y041475D01*
X016842Y041475D01*
X016842Y041335D02*
X016772Y041265D01*
X016632Y041265D01*
X016562Y041335D01*
X016381Y041265D02*
X016101Y041265D01*
X016241Y041265D02*
X016241Y041685D01*
X016101Y041545D01*
X016031Y042015D02*
X015891Y042015D01*
X015961Y042015D02*
X015961Y042435D01*
X015891Y042435D02*
X016031Y042435D01*
X016198Y042365D02*
X016198Y042085D01*
X016268Y042015D01*
X016408Y042015D01*
X016478Y042085D01*
X016658Y042015D02*
X016658Y042435D01*
X016868Y042435D01*
X016938Y042365D01*
X016938Y042225D01*
X016868Y042155D01*
X016658Y042155D01*
X016798Y042155D02*
X016938Y042015D01*
X016478Y042365D02*
X016408Y042435D01*
X016268Y042435D01*
X016198Y042365D01*
X015711Y042435D02*
X015711Y042015D01*
X015430Y042015D02*
X015430Y042435D01*
X015571Y042295D01*
X015711Y042435D01*
X015250Y042435D02*
X014970Y042015D01*
X015250Y042015D02*
X014970Y042435D01*
X015000Y041685D02*
X015000Y041405D01*
X014860Y041265D01*
X014720Y041405D01*
X014720Y041685D01*
X015180Y041545D02*
X015321Y041685D01*
X015321Y041265D01*
X015461Y041265D02*
X015180Y041265D01*
X070595Y005398D02*
X071015Y005118D01*
X071015Y004938D02*
X070875Y004797D01*
X070945Y004657D02*
X070665Y004657D01*
X070595Y004727D01*
X070595Y004868D01*
X070665Y004938D01*
X070945Y004938D01*
X071015Y004868D01*
X071015Y004727D01*
X070945Y004657D01*
X071015Y004477D02*
X070875Y004337D01*
X070875Y004407D02*
X070875Y004197D01*
X071015Y004197D02*
X070595Y004197D01*
X070595Y004407D01*
X070665Y004477D01*
X070805Y004477D01*
X070875Y004407D01*
X071015Y004030D02*
X071015Y003890D01*
X071015Y003960D02*
X070595Y003960D01*
X070595Y003890D02*
X070595Y004030D01*
X070595Y005118D02*
X071015Y005398D01*
X074345Y004951D02*
X074345Y004811D01*
X074345Y004881D02*
X074765Y004881D01*
X074765Y004811D02*
X074765Y004951D01*
X074765Y004631D02*
X074345Y004631D01*
X074485Y004491D01*
X074345Y004350D01*
X074765Y004350D01*
X074765Y004170D02*
X074345Y004170D01*
X074345Y003890D02*
X074765Y004170D01*
X074765Y003890D02*
X074345Y003890D01*
D11*
X003783Y003630D02*
X003710Y003703D01*
X003710Y003997D01*
X003783Y004070D01*
X003930Y004070D01*
X004004Y003997D01*
X004170Y004070D02*
X004170Y003630D01*
X004004Y003703D02*
X003930Y003630D01*
X003783Y003630D01*
X004170Y003850D02*
X004464Y003850D01*
X004631Y003777D02*
X004851Y003777D01*
X004924Y003850D01*
X004924Y003997D01*
X004851Y004070D01*
X004631Y004070D01*
X004631Y003630D01*
X004464Y003630D02*
X004464Y004070D01*
X004778Y003777D02*
X004924Y003630D01*
X005091Y003630D02*
X005238Y003630D01*
X005165Y003630D02*
X005165Y004070D01*
X005238Y004070D02*
X005091Y004070D01*
X005398Y003997D02*
X005398Y003924D01*
X005472Y003850D01*
X005618Y003850D01*
X005692Y003777D01*
X005692Y003703D01*
X005618Y003630D01*
X005472Y003630D01*
X005398Y003703D01*
X005398Y003997D02*
X005472Y004070D01*
X005618Y004070D01*
X005692Y003997D01*
X006319Y004070D02*
X006319Y003630D01*
X006466Y003777D01*
X006612Y003630D01*
X006612Y004070D01*
X006779Y004070D02*
X006779Y003630D01*
X007073Y003630D01*
X007240Y003630D02*
X007386Y003630D01*
X007313Y003630D02*
X007313Y004070D01*
X007240Y004070D02*
X007386Y004070D01*
X007547Y004070D02*
X007767Y004070D01*
X007840Y003997D01*
X007840Y003850D01*
X007767Y003777D01*
X007547Y003777D01*
X007693Y003777D02*
X007840Y003630D01*
X007547Y003630D02*
X007547Y004070D01*
X007073Y004070D02*
X006779Y004070D01*
X006779Y003850D02*
X006926Y003850D01*
X008467Y003997D02*
X008541Y004070D01*
X008688Y004070D01*
X008761Y003997D01*
X008761Y003924D01*
X008467Y003630D01*
X008761Y003630D01*
X008928Y003703D02*
X009221Y003997D01*
X009221Y003703D01*
X009148Y003630D01*
X009001Y003630D01*
X008928Y003703D01*
X008928Y003997D01*
X009001Y004070D01*
X009148Y004070D01*
X009221Y003997D01*
X009388Y003924D02*
X009535Y004070D01*
X009535Y003630D01*
X009388Y003630D02*
X009682Y003630D01*
X009849Y003703D02*
X009922Y003630D01*
X010069Y003630D01*
X010142Y003703D01*
X010142Y003997D01*
X010069Y004070D01*
X009922Y004070D01*
X009849Y003997D01*
X009849Y003924D01*
X009922Y003850D01*
X010142Y003850D01*
X013283Y008380D02*
X013210Y008453D01*
X013210Y008820D01*
X013504Y008820D02*
X013504Y008453D01*
X013430Y008380D01*
X013283Y008380D01*
X013670Y008380D02*
X013964Y008380D01*
X013817Y008380D02*
X013817Y008820D01*
X013670Y008674D01*
X014131Y008747D02*
X014131Y008453D01*
X014424Y008747D01*
X014424Y008453D01*
X014351Y008380D01*
X014204Y008380D01*
X014131Y008453D01*
X014131Y008747D02*
X014204Y008820D01*
X014351Y008820D01*
X014424Y008747D01*
X012430Y009700D02*
X012430Y010450D01*
X012469Y010452D01*
X012508Y010458D01*
X012546Y010467D01*
X012583Y010480D01*
X012619Y010497D01*
X012652Y010517D01*
X012684Y010541D01*
X012713Y010567D01*
X012739Y010596D01*
X012763Y010628D01*
X012783Y010661D01*
X012800Y010697D01*
X012813Y010734D01*
X012822Y010772D01*
X012828Y010811D01*
X012830Y010850D01*
X012828Y010889D01*
X012822Y010928D01*
X012813Y010966D01*
X012800Y011003D01*
X012783Y011039D01*
X012763Y011072D01*
X012739Y011104D01*
X012713Y011133D01*
X012684Y011159D01*
X012652Y011183D01*
X012619Y011203D01*
X012583Y011220D01*
X012546Y011233D01*
X012508Y011242D01*
X012469Y011248D01*
X012430Y011250D01*
X012430Y012000D01*
X019430Y012000D01*
X019430Y009700D01*
X012430Y009700D01*
X011880Y010200D02*
X011880Y011500D01*
X011878Y011526D01*
X011873Y011552D01*
X011865Y011577D01*
X011853Y011600D01*
X011839Y011622D01*
X011821Y011641D01*
X011802Y011659D01*
X011780Y011673D01*
X011757Y011685D01*
X011732Y011693D01*
X011706Y011698D01*
X011680Y011700D01*
X011180Y011700D01*
X011154Y011698D01*
X011128Y011693D01*
X011103Y011685D01*
X011080Y011673D01*
X011058Y011659D01*
X011039Y011641D01*
X011021Y011622D01*
X011007Y011600D01*
X010995Y011577D01*
X010987Y011552D01*
X010982Y011526D01*
X010980Y011500D01*
X010980Y010200D01*
X010982Y010174D01*
X010987Y010148D01*
X010995Y010123D01*
X011007Y010100D01*
X011021Y010078D01*
X011039Y010059D01*
X011058Y010041D01*
X011080Y010027D01*
X011103Y010015D01*
X011128Y010007D01*
X011154Y010002D01*
X011180Y010000D01*
X011680Y010000D01*
X011706Y010002D01*
X011732Y010007D01*
X011757Y010015D01*
X011780Y010027D01*
X011802Y010041D01*
X011821Y010059D01*
X011839Y010078D01*
X011853Y010100D01*
X011865Y010123D01*
X011873Y010148D01*
X011878Y010174D01*
X011880Y010200D01*
X010430Y009700D02*
X010430Y012000D01*
X003430Y012000D01*
X003430Y011250D01*
X003469Y011248D01*
X003508Y011242D01*
X003546Y011233D01*
X003583Y011220D01*
X003619Y011203D01*
X003652Y011183D01*
X003684Y011159D01*
X003713Y011133D01*
X003739Y011104D01*
X003763Y011072D01*
X003783Y011039D01*
X003800Y011003D01*
X003813Y010966D01*
X003822Y010928D01*
X003828Y010889D01*
X003830Y010850D01*
X003828Y010811D01*
X003822Y010772D01*
X003813Y010734D01*
X003800Y010697D01*
X003783Y010661D01*
X003763Y010628D01*
X003739Y010596D01*
X003713Y010567D01*
X003684Y010541D01*
X003652Y010517D01*
X003619Y010497D01*
X003583Y010480D01*
X003546Y010467D01*
X003508Y010458D01*
X003469Y010452D01*
X003430Y010450D01*
X003430Y009700D01*
X010430Y009700D01*
X007641Y010630D02*
X007641Y011070D01*
X007420Y010850D01*
X007714Y010850D01*
X007254Y010997D02*
X006960Y010703D01*
X006960Y010630D01*
X006720Y010630D02*
X006720Y011070D01*
X006500Y010850D01*
X006793Y010850D01*
X006960Y011070D02*
X007254Y011070D01*
X007254Y010997D01*
X006333Y010997D02*
X006039Y010703D01*
X006039Y010630D01*
X006039Y011070D02*
X006333Y011070D01*
X006333Y010997D01*
X006930Y012900D02*
X006880Y012950D01*
X004980Y012950D01*
X004930Y012900D01*
X004780Y012900D01*
X004763Y012902D01*
X004746Y012906D01*
X004730Y012913D01*
X004716Y012923D01*
X004703Y012936D01*
X004693Y012950D01*
X004686Y012966D01*
X004682Y012983D01*
X004680Y013000D01*
X004680Y013700D01*
X004682Y013717D01*
X004686Y013734D01*
X004693Y013750D01*
X004703Y013764D01*
X004716Y013777D01*
X004730Y013787D01*
X004746Y013794D01*
X004763Y013798D01*
X004780Y013800D01*
X004930Y013800D01*
X004980Y013750D01*
X006880Y013750D01*
X006930Y013800D01*
X007080Y013800D01*
X007097Y013798D01*
X007114Y013794D01*
X007130Y013787D01*
X007144Y013777D01*
X007157Y013764D01*
X007167Y013750D01*
X007174Y013734D01*
X007178Y013717D01*
X007180Y013700D01*
X007180Y013000D01*
X007178Y012983D01*
X007174Y012966D01*
X007167Y012950D01*
X007157Y012936D01*
X007144Y012923D01*
X007130Y012913D01*
X007114Y012906D01*
X007097Y012902D01*
X007080Y012900D01*
X006930Y012900D01*
X006949Y013130D02*
X006729Y013277D01*
X006949Y013424D01*
X006729Y013570D02*
X006729Y013130D01*
X006562Y013203D02*
X006488Y013130D01*
X006342Y013130D01*
X006268Y013203D01*
X006562Y013497D01*
X006562Y013203D01*
X006268Y013203D02*
X006268Y013497D01*
X006342Y013570D01*
X006488Y013570D01*
X006562Y013497D01*
X006101Y013130D02*
X005808Y013130D01*
X005955Y013130D02*
X005955Y013570D01*
X005808Y013424D01*
X005793Y014005D02*
X005646Y014152D01*
X005720Y014152D02*
X005500Y014152D01*
X005500Y014005D02*
X005500Y014445D01*
X005720Y014445D01*
X005793Y014372D01*
X005793Y014225D01*
X005720Y014152D01*
X005960Y014299D02*
X006107Y014445D01*
X006107Y014005D01*
X005960Y014005D02*
X006254Y014005D01*
X004714Y015247D02*
X004420Y014953D01*
X004420Y014880D01*
X004254Y014953D02*
X004254Y015320D01*
X004420Y015320D02*
X004714Y015320D01*
X004714Y015247D01*
X004254Y014953D02*
X004180Y014880D01*
X004033Y014880D01*
X003960Y014953D01*
X003960Y015320D01*
X003430Y016200D02*
X003430Y016950D01*
X003469Y016952D01*
X003508Y016958D01*
X003546Y016967D01*
X003583Y016980D01*
X003619Y016997D01*
X003652Y017017D01*
X003684Y017041D01*
X003713Y017067D01*
X003739Y017096D01*
X003763Y017128D01*
X003783Y017161D01*
X003800Y017197D01*
X003813Y017234D01*
X003822Y017272D01*
X003828Y017311D01*
X003830Y017350D01*
X003828Y017389D01*
X003822Y017428D01*
X003813Y017466D01*
X003800Y017503D01*
X003783Y017539D01*
X003763Y017572D01*
X003739Y017604D01*
X003713Y017633D01*
X003684Y017659D01*
X003652Y017683D01*
X003619Y017703D01*
X003583Y017720D01*
X003546Y017733D01*
X003508Y017742D01*
X003469Y017748D01*
X003430Y017750D01*
X003430Y018500D01*
X011430Y018500D01*
X011430Y016200D01*
X003430Y016200D01*
X002880Y016700D02*
X002880Y018000D01*
X002878Y018026D01*
X002873Y018052D01*
X002865Y018077D01*
X002853Y018100D01*
X002839Y018122D01*
X002821Y018141D01*
X002802Y018159D01*
X002780Y018173D01*
X002757Y018185D01*
X002732Y018193D01*
X002706Y018198D01*
X002680Y018200D01*
X002180Y018200D01*
X002154Y018198D01*
X002128Y018193D01*
X002103Y018185D01*
X002080Y018173D01*
X002058Y018159D01*
X002039Y018141D01*
X002021Y018122D01*
X002007Y018100D01*
X001995Y018077D01*
X001987Y018052D01*
X001982Y018026D01*
X001980Y018000D01*
X001980Y016700D01*
X001982Y016674D01*
X001987Y016648D01*
X001995Y016623D01*
X002007Y016600D01*
X002021Y016578D01*
X002039Y016559D01*
X002058Y016541D01*
X002080Y016527D01*
X002103Y016515D01*
X002128Y016507D01*
X002154Y016502D01*
X002180Y016500D01*
X002680Y016500D01*
X002706Y016502D01*
X002732Y016507D01*
X002757Y016515D01*
X002780Y016527D01*
X002802Y016541D01*
X002821Y016559D01*
X002839Y016578D01*
X002853Y016600D01*
X002865Y016623D01*
X002873Y016648D01*
X002878Y016674D01*
X002880Y016700D01*
X002577Y018505D02*
X002650Y018578D01*
X002650Y018725D01*
X002577Y018799D01*
X002577Y018965D02*
X002650Y018965D01*
X002577Y018965D02*
X002283Y019259D01*
X002210Y019259D01*
X002210Y018965D01*
X002283Y018799D02*
X002210Y018725D01*
X002210Y018578D01*
X002283Y018505D01*
X002577Y018505D01*
X006309Y017570D02*
X006603Y017570D01*
X006603Y017497D01*
X006309Y017203D01*
X006309Y017130D01*
X006769Y017350D02*
X007063Y017350D01*
X007230Y017424D02*
X007377Y017570D01*
X007377Y017130D01*
X007523Y017130D02*
X007230Y017130D01*
X006990Y017130D02*
X006990Y017570D01*
X006769Y017350D01*
X007690Y017203D02*
X007764Y017130D01*
X007910Y017130D01*
X007984Y017203D01*
X007984Y017277D01*
X007910Y017350D01*
X007837Y017350D01*
X007910Y017350D02*
X007984Y017424D01*
X007984Y017497D01*
X007910Y017570D01*
X007764Y017570D01*
X007690Y017497D01*
X008151Y017497D02*
X008151Y017424D01*
X008224Y017350D01*
X008371Y017350D01*
X008444Y017277D01*
X008444Y017203D01*
X008371Y017130D01*
X008224Y017130D01*
X008151Y017203D01*
X008151Y017277D01*
X008224Y017350D01*
X008371Y017350D02*
X008444Y017424D01*
X008444Y017497D01*
X008371Y017570D01*
X008224Y017570D01*
X008151Y017497D01*
X011980Y018000D02*
X011980Y016700D01*
X011982Y016674D01*
X011987Y016648D01*
X011995Y016623D01*
X012007Y016600D01*
X012021Y016578D01*
X012039Y016559D01*
X012058Y016541D01*
X012080Y016527D01*
X012103Y016515D01*
X012128Y016507D01*
X012154Y016502D01*
X012180Y016500D01*
X012680Y016500D01*
X012706Y016502D01*
X012732Y016507D01*
X012757Y016515D01*
X012780Y016527D01*
X012802Y016541D01*
X012821Y016559D01*
X012839Y016578D01*
X012853Y016600D01*
X012865Y016623D01*
X012873Y016648D01*
X012878Y016674D01*
X012880Y016700D01*
X012880Y018000D01*
X012878Y018026D01*
X012873Y018052D01*
X012865Y018077D01*
X012853Y018100D01*
X012839Y018122D01*
X012821Y018141D01*
X012802Y018159D01*
X012780Y018173D01*
X012757Y018185D01*
X012732Y018193D01*
X012706Y018198D01*
X012680Y018200D01*
X012180Y018200D01*
X012154Y018198D01*
X012128Y018193D01*
X012103Y018185D01*
X012080Y018173D01*
X012058Y018159D01*
X012039Y018141D01*
X012021Y018122D01*
X012007Y018100D01*
X011995Y018077D01*
X011987Y018052D01*
X011982Y018026D01*
X011980Y018000D01*
X012283Y018505D02*
X012577Y018505D01*
X012650Y018578D01*
X012650Y018725D01*
X012577Y018799D01*
X012577Y018965D02*
X012503Y018965D01*
X012430Y019039D01*
X012430Y019186D01*
X012503Y019259D01*
X012577Y019259D01*
X012650Y019186D01*
X012650Y019039D01*
X012577Y018965D01*
X012430Y019039D02*
X012356Y018965D01*
X012283Y018965D01*
X012210Y019039D01*
X012210Y019186D01*
X012283Y019259D01*
X012356Y019259D01*
X012430Y019186D01*
X012283Y018799D02*
X012210Y018725D01*
X012210Y018578D01*
X012283Y018505D01*
X013430Y018500D02*
X013430Y017750D01*
X013469Y017748D01*
X013508Y017742D01*
X013546Y017733D01*
X013583Y017720D01*
X013619Y017703D01*
X013652Y017683D01*
X013684Y017659D01*
X013713Y017633D01*
X013739Y017604D01*
X013763Y017572D01*
X013783Y017539D01*
X013800Y017503D01*
X013813Y017466D01*
X013822Y017428D01*
X013828Y017389D01*
X013830Y017350D01*
X013828Y017311D01*
X013822Y017272D01*
X013813Y017234D01*
X013800Y017197D01*
X013783Y017161D01*
X013763Y017128D01*
X013739Y017096D01*
X013713Y017067D01*
X013684Y017041D01*
X013652Y017017D01*
X013619Y016997D01*
X013583Y016980D01*
X013546Y016967D01*
X013508Y016958D01*
X013469Y016952D01*
X013430Y016950D01*
X013430Y016200D01*
X023430Y016200D01*
X023430Y018500D01*
X013430Y018500D01*
X017309Y017570D02*
X017603Y017570D01*
X017603Y017497D01*
X017309Y017203D01*
X017309Y017130D01*
X017769Y017350D02*
X017990Y017570D01*
X017990Y017130D01*
X018063Y017350D02*
X017769Y017350D01*
X018230Y017203D02*
X018303Y017130D01*
X018450Y017130D01*
X018523Y017203D01*
X018523Y017277D01*
X018450Y017350D01*
X018377Y017350D01*
X018450Y017350D02*
X018523Y017424D01*
X018523Y017497D01*
X018450Y017570D01*
X018303Y017570D01*
X018230Y017497D01*
X018690Y017570D02*
X018984Y017570D01*
X018984Y017497D01*
X018690Y017203D01*
X018690Y017130D01*
X019151Y017203D02*
X019224Y017130D01*
X019371Y017130D01*
X019444Y017203D01*
X019444Y017277D01*
X019371Y017350D01*
X019297Y017350D01*
X019371Y017350D02*
X019444Y017424D01*
X019444Y017497D01*
X019371Y017570D01*
X019224Y017570D01*
X019151Y017497D01*
X014714Y015247D02*
X014714Y015174D01*
X014641Y015100D01*
X014494Y015100D01*
X014420Y015174D01*
X014420Y015247D01*
X014494Y015320D01*
X014641Y015320D01*
X014714Y015247D01*
X014641Y015100D02*
X014714Y015027D01*
X014714Y014953D01*
X014641Y014880D01*
X014494Y014880D01*
X014420Y014953D01*
X014420Y015027D01*
X014494Y015100D01*
X014254Y014953D02*
X014254Y015320D01*
X013960Y015320D02*
X013960Y014953D01*
X014033Y014880D01*
X014180Y014880D01*
X014254Y014953D01*
X015500Y014445D02*
X015720Y014445D01*
X015793Y014372D01*
X015793Y014225D01*
X015720Y014152D01*
X015500Y014152D01*
X015646Y014152D02*
X015793Y014005D01*
X015960Y014005D02*
X016254Y014299D01*
X016254Y014372D01*
X016180Y014445D01*
X016033Y014445D01*
X015960Y014372D01*
X015960Y014005D02*
X016254Y014005D01*
X016344Y013570D02*
X016344Y013130D01*
X016344Y013277D02*
X016564Y013424D01*
X016344Y013277D02*
X016564Y013130D01*
X016880Y012950D02*
X014980Y012950D01*
X014930Y012900D01*
X014780Y012900D01*
X014763Y012902D01*
X014746Y012906D01*
X014730Y012913D01*
X014716Y012923D01*
X014703Y012936D01*
X014693Y012950D01*
X014686Y012966D01*
X014682Y012983D01*
X014680Y013000D01*
X014680Y013700D01*
X014682Y013717D01*
X014686Y013734D01*
X014693Y013750D01*
X014703Y013764D01*
X014716Y013777D01*
X014730Y013787D01*
X014746Y013794D01*
X014763Y013798D01*
X014780Y013800D01*
X014930Y013800D01*
X014980Y013750D01*
X016880Y013750D01*
X016930Y013800D01*
X017080Y013800D01*
X017097Y013798D01*
X017114Y013794D01*
X017130Y013787D01*
X017144Y013777D01*
X017157Y013764D01*
X017167Y013750D01*
X017174Y013734D01*
X017178Y013717D01*
X017180Y013700D01*
X017180Y013000D01*
X017178Y012983D01*
X017174Y012966D01*
X017167Y012950D01*
X017157Y012936D01*
X017144Y012923D01*
X017130Y012913D01*
X017114Y012906D01*
X017097Y012902D01*
X017080Y012900D01*
X016930Y012900D01*
X016880Y012950D01*
X016177Y013203D02*
X016103Y013130D01*
X015957Y013130D01*
X015883Y013203D01*
X015726Y013203D02*
X015726Y013130D01*
X015653Y013130D01*
X015653Y013203D01*
X015726Y013203D01*
X015486Y013203D02*
X015413Y013130D01*
X015266Y013130D01*
X015193Y013203D01*
X015339Y013350D02*
X015413Y013350D01*
X015486Y013277D01*
X015486Y013203D01*
X015413Y013350D02*
X015486Y013424D01*
X015486Y013497D01*
X015413Y013570D01*
X015266Y013570D01*
X015193Y013497D01*
X015500Y014005D02*
X015500Y014445D01*
X015957Y013570D02*
X015883Y013497D01*
X015957Y013570D02*
X016103Y013570D01*
X016177Y013497D01*
X016177Y013424D01*
X016103Y013350D01*
X016177Y013277D01*
X016177Y013203D01*
X016103Y013350D02*
X016030Y013350D01*
X020210Y013073D02*
X020650Y013073D01*
X020650Y013219D02*
X020650Y012926D01*
X020650Y012759D02*
X020650Y012465D01*
X020650Y012612D02*
X020210Y012612D01*
X020356Y012465D01*
X020283Y012299D02*
X020210Y012225D01*
X020210Y012078D01*
X020283Y012005D01*
X020577Y012005D01*
X020650Y012078D01*
X020650Y012225D01*
X020577Y012299D01*
X020356Y012926D02*
X020210Y013073D01*
X021430Y012000D02*
X021430Y011250D01*
X021469Y011248D01*
X021508Y011242D01*
X021546Y011233D01*
X021583Y011220D01*
X021619Y011203D01*
X021652Y011183D01*
X021684Y011159D01*
X021713Y011133D01*
X021739Y011104D01*
X021763Y011072D01*
X021783Y011039D01*
X021800Y011003D01*
X021813Y010966D01*
X021822Y010928D01*
X021828Y010889D01*
X021830Y010850D01*
X021828Y010811D01*
X021822Y010772D01*
X021813Y010734D01*
X021800Y010697D01*
X021783Y010661D01*
X021763Y010628D01*
X021739Y010596D01*
X021713Y010567D01*
X021684Y010541D01*
X021652Y010517D01*
X021619Y010497D01*
X021583Y010480D01*
X021546Y010467D01*
X021508Y010458D01*
X021469Y010452D01*
X021430Y010450D01*
X021430Y009700D01*
X028430Y009700D01*
X028430Y012000D01*
X021430Y012000D01*
X020880Y011500D02*
X020880Y010200D01*
X020878Y010174D01*
X020873Y010148D01*
X020865Y010123D01*
X020853Y010100D01*
X020839Y010078D01*
X020821Y010059D01*
X020802Y010041D01*
X020780Y010027D01*
X020757Y010015D01*
X020732Y010007D01*
X020706Y010002D01*
X020680Y010000D01*
X020180Y010000D01*
X020154Y010002D01*
X020128Y010007D01*
X020103Y010015D01*
X020080Y010027D01*
X020058Y010041D01*
X020039Y010059D01*
X020021Y010078D01*
X020007Y010100D01*
X019995Y010123D01*
X019987Y010148D01*
X019982Y010174D01*
X019980Y010200D01*
X019980Y011500D01*
X019982Y011526D01*
X019987Y011552D01*
X019995Y011577D01*
X020007Y011600D01*
X020021Y011622D01*
X020039Y011641D01*
X020058Y011659D01*
X020080Y011673D01*
X020103Y011685D01*
X020128Y011693D01*
X020154Y011698D01*
X020180Y011700D01*
X020680Y011700D01*
X020706Y011698D01*
X020732Y011693D01*
X020757Y011685D01*
X020780Y011673D01*
X020802Y011659D01*
X020821Y011641D01*
X020839Y011622D01*
X020853Y011600D01*
X020865Y011577D01*
X020873Y011552D01*
X020878Y011526D01*
X020880Y011500D01*
X024039Y011070D02*
X024333Y011070D01*
X024333Y010997D01*
X024039Y010703D01*
X024039Y010630D01*
X024500Y010850D02*
X024793Y010850D01*
X024960Y010703D02*
X025254Y010997D01*
X025254Y010703D01*
X025180Y010630D01*
X025033Y010630D01*
X024960Y010703D01*
X024960Y010997D01*
X025033Y011070D01*
X025180Y011070D01*
X025254Y010997D01*
X025420Y010850D02*
X025714Y010850D01*
X025641Y010630D02*
X025641Y011070D01*
X025420Y010850D01*
X024720Y010630D02*
X024720Y011070D01*
X024500Y010850D01*
X023028Y008820D02*
X023028Y008380D01*
X023174Y008380D02*
X022881Y008380D01*
X022714Y008380D02*
X022420Y008380D01*
X022567Y008380D02*
X022567Y008820D01*
X022420Y008674D01*
X022254Y008820D02*
X022254Y008453D01*
X022180Y008380D01*
X022033Y008380D01*
X021960Y008453D01*
X021960Y008820D01*
X022881Y008674D02*
X023028Y008820D01*
X028980Y010200D02*
X028980Y011500D01*
X028982Y011526D01*
X028987Y011552D01*
X028995Y011577D01*
X029007Y011600D01*
X029021Y011622D01*
X029039Y011641D01*
X029058Y011659D01*
X029080Y011673D01*
X029103Y011685D01*
X029128Y011693D01*
X029154Y011698D01*
X029180Y011700D01*
X029680Y011700D01*
X029706Y011698D01*
X029732Y011693D01*
X029757Y011685D01*
X029780Y011673D01*
X029802Y011659D01*
X029821Y011641D01*
X029839Y011622D01*
X029853Y011600D01*
X029865Y011577D01*
X029873Y011552D01*
X029878Y011526D01*
X029880Y011500D01*
X029880Y010200D01*
X029878Y010174D01*
X029873Y010148D01*
X029865Y010123D01*
X029853Y010100D01*
X029839Y010078D01*
X029821Y010059D01*
X029802Y010041D01*
X029780Y010027D01*
X029757Y010015D01*
X029732Y010007D01*
X029706Y010002D01*
X029680Y010000D01*
X029180Y010000D01*
X029154Y010002D01*
X029128Y010007D01*
X029103Y010015D01*
X029080Y010027D01*
X029058Y010041D01*
X029039Y010059D01*
X029021Y010078D01*
X029007Y010100D01*
X028995Y010123D01*
X028987Y010148D01*
X028982Y010174D01*
X028980Y010200D01*
X030430Y010450D02*
X030430Y009700D01*
X040430Y009700D01*
X040430Y012000D01*
X030430Y012000D01*
X030430Y011250D01*
X030469Y011248D01*
X030508Y011242D01*
X030546Y011233D01*
X030583Y011220D01*
X030619Y011203D01*
X030652Y011183D01*
X030684Y011159D01*
X030713Y011133D01*
X030739Y011104D01*
X030763Y011072D01*
X030783Y011039D01*
X030800Y011003D01*
X030813Y010966D01*
X030822Y010928D01*
X030828Y010889D01*
X030830Y010850D01*
X030828Y010811D01*
X030822Y010772D01*
X030813Y010734D01*
X030800Y010697D01*
X030783Y010661D01*
X030763Y010628D01*
X030739Y010596D01*
X030713Y010567D01*
X030684Y010541D01*
X030652Y010517D01*
X030619Y010497D01*
X030583Y010480D01*
X030546Y010467D01*
X030508Y010458D01*
X030469Y010452D01*
X030430Y010450D01*
X029577Y012005D02*
X029650Y012078D01*
X029650Y012225D01*
X029577Y012299D01*
X029650Y012465D02*
X029650Y012759D01*
X029650Y012612D02*
X029210Y012612D01*
X029356Y012465D01*
X029283Y012299D02*
X029210Y012225D01*
X029210Y012078D01*
X029283Y012005D01*
X029577Y012005D01*
X029650Y012926D02*
X029356Y013219D01*
X029283Y013219D01*
X029210Y013146D01*
X029210Y012999D01*
X029283Y012926D01*
X029650Y012926D02*
X029650Y013219D01*
X031960Y014908D02*
X032033Y014834D01*
X031960Y014908D02*
X031960Y015054D01*
X032033Y015128D01*
X032106Y015128D01*
X032400Y014834D01*
X032400Y015128D01*
X032400Y015295D02*
X032106Y015588D01*
X032033Y015588D01*
X031960Y015515D01*
X031960Y015368D01*
X032033Y015295D01*
X032400Y015295D02*
X032400Y015588D01*
X032400Y015755D02*
X032400Y015975D01*
X032327Y016049D01*
X032180Y016049D01*
X032106Y015975D01*
X032106Y015755D01*
X032547Y015755D01*
X032400Y016215D02*
X031960Y016215D01*
X031960Y016509D01*
X031930Y016625D02*
X032430Y016625D01*
X032456Y016627D01*
X032482Y016632D01*
X032507Y016640D01*
X032530Y016652D01*
X032552Y016666D01*
X032571Y016684D01*
X032589Y016703D01*
X032603Y016725D01*
X032615Y016748D01*
X032623Y016773D01*
X032628Y016799D01*
X032630Y016825D01*
X032630Y018125D01*
X032628Y018151D01*
X032623Y018177D01*
X032615Y018202D01*
X032603Y018225D01*
X032589Y018247D01*
X032571Y018266D01*
X032552Y018284D01*
X032530Y018298D01*
X032507Y018310D01*
X032482Y018318D01*
X032456Y018323D01*
X032430Y018325D01*
X031930Y018325D01*
X031904Y018323D01*
X031878Y018318D01*
X031853Y018310D01*
X031830Y018298D01*
X031808Y018284D01*
X031789Y018266D01*
X031771Y018247D01*
X031757Y018225D01*
X031745Y018202D01*
X031737Y018177D01*
X031732Y018151D01*
X031730Y018125D01*
X031730Y016825D01*
X031732Y016799D01*
X031737Y016773D01*
X031745Y016748D01*
X031757Y016725D01*
X031771Y016703D01*
X031789Y016684D01*
X031808Y016666D01*
X031830Y016652D01*
X031853Y016640D01*
X031878Y016632D01*
X031904Y016627D01*
X031930Y016625D01*
X032180Y016362D02*
X032180Y016215D01*
X031525Y016888D02*
X031525Y017035D01*
X031452Y017108D01*
X031525Y017275D02*
X031231Y017568D01*
X031158Y017568D01*
X031085Y017495D01*
X031085Y017348D01*
X031158Y017275D01*
X031158Y017108D02*
X031085Y017035D01*
X031085Y016888D01*
X031158Y016814D01*
X031452Y016814D01*
X031525Y016888D01*
X031525Y017275D02*
X031525Y017568D01*
X031525Y017735D02*
X031525Y018029D01*
X031525Y017882D02*
X031085Y017882D01*
X031231Y017735D01*
X031930Y018625D02*
X032430Y018625D01*
X032456Y018627D01*
X032482Y018632D01*
X032507Y018640D01*
X032530Y018652D01*
X032552Y018666D01*
X032571Y018684D01*
X032589Y018703D01*
X032603Y018725D01*
X032615Y018748D01*
X032623Y018773D01*
X032628Y018799D01*
X032630Y018825D01*
X032630Y020125D01*
X032628Y020151D01*
X032623Y020177D01*
X032615Y020202D01*
X032603Y020225D01*
X032589Y020247D01*
X032571Y020266D01*
X032552Y020284D01*
X032530Y020298D01*
X032507Y020310D01*
X032482Y020318D01*
X032456Y020323D01*
X032430Y020325D01*
X031930Y020325D01*
X031904Y020323D01*
X031878Y020318D01*
X031853Y020310D01*
X031830Y020298D01*
X031808Y020284D01*
X031789Y020266D01*
X031771Y020247D01*
X031757Y020225D01*
X031745Y020202D01*
X031737Y020177D01*
X031732Y020151D01*
X031730Y020125D01*
X031730Y018825D01*
X031732Y018799D01*
X031737Y018773D01*
X031745Y018748D01*
X031757Y018725D01*
X031771Y018703D01*
X031789Y018684D01*
X031808Y018666D01*
X031830Y018652D01*
X031853Y018640D01*
X031878Y018632D01*
X031904Y018627D01*
X031930Y018625D01*
X031525Y018888D02*
X031525Y019035D01*
X031452Y019108D01*
X031525Y019275D02*
X031231Y019568D01*
X031158Y019568D01*
X031085Y019495D01*
X031085Y019348D01*
X031158Y019275D01*
X031158Y019108D02*
X031085Y019035D01*
X031085Y018888D01*
X031158Y018814D01*
X031452Y018814D01*
X031525Y018888D01*
X031525Y019275D02*
X031525Y019568D01*
X031525Y019735D02*
X031231Y020029D01*
X031158Y020029D01*
X031085Y019955D01*
X031085Y019809D01*
X031158Y019735D01*
X031525Y019735D02*
X031525Y020029D01*
X032033Y020584D02*
X031960Y020658D01*
X031960Y020804D01*
X032033Y020878D01*
X032106Y020878D01*
X032400Y020584D01*
X032400Y020878D01*
X032400Y021045D02*
X032106Y021338D01*
X032033Y021338D01*
X031960Y021265D01*
X031960Y021118D01*
X032033Y021045D01*
X032400Y021045D02*
X032400Y021338D01*
X032400Y021505D02*
X032400Y021725D01*
X032327Y021799D01*
X032180Y021799D01*
X032106Y021725D01*
X032106Y021505D01*
X032547Y021505D01*
X032400Y021965D02*
X031960Y021965D01*
X031960Y022259D01*
X032180Y022112D02*
X032180Y021965D01*
X033580Y022075D02*
X033580Y022575D01*
X033582Y022601D01*
X033587Y022627D01*
X033595Y022652D01*
X033607Y022675D01*
X033621Y022697D01*
X033639Y022716D01*
X033658Y022734D01*
X033680Y022748D01*
X033703Y022760D01*
X033728Y022768D01*
X033754Y022773D01*
X033780Y022775D01*
X035080Y022775D01*
X035106Y022773D01*
X035132Y022768D01*
X035157Y022760D01*
X035180Y022748D01*
X035202Y022734D01*
X035221Y022716D01*
X035239Y022697D01*
X035253Y022675D01*
X035265Y022652D01*
X035273Y022627D01*
X035278Y022601D01*
X035280Y022575D01*
X035280Y022075D01*
X035278Y022049D01*
X035273Y022023D01*
X035265Y021998D01*
X035253Y021975D01*
X035239Y021953D01*
X035221Y021934D01*
X035202Y021916D01*
X035180Y021902D01*
X035157Y021890D01*
X035132Y021882D01*
X035106Y021877D01*
X035080Y021875D01*
X033780Y021875D01*
X033754Y021877D01*
X033728Y021882D01*
X033703Y021890D01*
X033680Y021902D01*
X033658Y021916D01*
X033639Y021934D01*
X033621Y021953D01*
X033607Y021975D01*
X033595Y021998D01*
X033587Y022023D01*
X033582Y022049D01*
X033580Y022075D01*
X033843Y021670D02*
X033769Y021597D01*
X033769Y021303D01*
X033843Y021230D01*
X033990Y021230D01*
X034063Y021303D01*
X034230Y021230D02*
X034523Y021230D01*
X034377Y021230D02*
X034377Y021670D01*
X034230Y021524D01*
X034063Y021597D02*
X033990Y021670D01*
X033843Y021670D01*
X034690Y021670D02*
X034984Y021670D01*
X034984Y021597D01*
X034690Y021303D01*
X034690Y021230D01*
X035156Y021130D02*
X035450Y020837D01*
X035450Y021130D01*
X035156Y021130D02*
X035156Y020837D01*
X035230Y020670D02*
X035230Y020376D01*
X035450Y020376D02*
X035010Y020376D01*
X035010Y020209D02*
X035450Y020209D01*
X035450Y019916D02*
X035010Y019916D01*
X035156Y020063D01*
X035010Y020209D01*
X035010Y019749D02*
X035083Y019749D01*
X035377Y019455D01*
X035450Y019455D01*
X035450Y019289D02*
X035450Y018995D01*
X035156Y019289D01*
X035083Y019289D01*
X035010Y019215D01*
X035010Y019068D01*
X035083Y018995D01*
X035083Y018828D02*
X035377Y018535D01*
X035450Y018535D01*
X035083Y018368D02*
X035377Y018074D01*
X035450Y018074D01*
X035450Y017834D02*
X035010Y017834D01*
X035230Y017614D01*
X035230Y017907D01*
X035010Y018074D02*
X035010Y018368D01*
X035083Y018368D01*
X035010Y018535D02*
X035010Y018828D01*
X035083Y018828D01*
X035010Y019455D02*
X035010Y019749D01*
X035010Y020670D02*
X035450Y020670D01*
X031430Y022959D02*
X031430Y023253D01*
X031577Y023420D02*
X031650Y023420D01*
X031577Y023420D02*
X031283Y023713D01*
X031210Y023713D01*
X031210Y023420D01*
X031210Y023179D02*
X031430Y022959D01*
X031650Y023179D02*
X031210Y023179D01*
X031356Y023880D02*
X031577Y023880D01*
X031650Y023953D01*
X031650Y024174D01*
X031356Y024174D01*
X031430Y024340D02*
X031430Y024487D01*
X031650Y024340D02*
X031210Y024340D01*
X031210Y024634D01*
X032269Y025203D02*
X032343Y025130D01*
X032490Y025130D01*
X032563Y025203D01*
X032730Y025130D02*
X033023Y025424D01*
X033023Y025497D01*
X032950Y025570D01*
X032803Y025570D01*
X032730Y025497D01*
X032563Y025497D02*
X032490Y025570D01*
X032343Y025570D01*
X032269Y025497D01*
X032269Y025203D01*
X032730Y025130D02*
X033023Y025130D01*
X033190Y025203D02*
X033264Y025130D01*
X033410Y025130D01*
X033484Y025203D01*
X033484Y025497D01*
X033190Y025203D01*
X033190Y025497D01*
X033264Y025570D01*
X033410Y025570D01*
X033484Y025497D01*
X031830Y023825D02*
X031832Y023891D01*
X031838Y023956D01*
X031848Y024021D01*
X031861Y024086D01*
X031879Y024149D01*
X031900Y024212D01*
X031925Y024272D01*
X031954Y024332D01*
X031986Y024389D01*
X032021Y024445D01*
X032060Y024498D01*
X032102Y024549D01*
X032146Y024597D01*
X032194Y024642D01*
X032244Y024685D01*
X032297Y024724D01*
X032352Y024761D01*
X032409Y024794D01*
X032468Y024823D01*
X032528Y024849D01*
X032590Y024871D01*
X032653Y024890D01*
X032717Y024904D01*
X032782Y024915D01*
X032848Y024922D01*
X032914Y024925D01*
X032979Y024924D01*
X033045Y024919D01*
X033110Y024910D01*
X033175Y024897D01*
X033238Y024881D01*
X033301Y024861D01*
X033362Y024836D01*
X033422Y024809D01*
X033480Y024778D01*
X033536Y024743D01*
X033590Y024705D01*
X033641Y024664D01*
X033690Y024620D01*
X033736Y024573D01*
X033780Y024524D01*
X033820Y024472D01*
X033857Y024417D01*
X033891Y024361D01*
X033921Y024302D01*
X033948Y024242D01*
X033971Y024181D01*
X033990Y024118D01*
X034006Y024054D01*
X034018Y023989D01*
X034026Y023924D01*
X034030Y023858D01*
X034030Y023792D01*
X034026Y023726D01*
X034018Y023661D01*
X034006Y023596D01*
X033990Y023532D01*
X033971Y023469D01*
X033948Y023408D01*
X033921Y023348D01*
X033891Y023289D01*
X033857Y023233D01*
X033820Y023178D01*
X033780Y023126D01*
X033736Y023077D01*
X033690Y023030D01*
X033641Y022986D01*
X033590Y022945D01*
X033536Y022907D01*
X033480Y022872D01*
X033422Y022841D01*
X033362Y022814D01*
X033301Y022789D01*
X033238Y022769D01*
X033175Y022753D01*
X033110Y022740D01*
X033045Y022731D01*
X032979Y022726D01*
X032914Y022725D01*
X032848Y022728D01*
X032782Y022735D01*
X032717Y022746D01*
X032653Y022760D01*
X032590Y022779D01*
X032528Y022801D01*
X032468Y022827D01*
X032409Y022856D01*
X032352Y022889D01*
X032297Y022926D01*
X032244Y022965D01*
X032194Y023008D01*
X032146Y023053D01*
X032102Y023101D01*
X032060Y023152D01*
X032021Y023205D01*
X031986Y023261D01*
X031954Y023318D01*
X031925Y023378D01*
X031900Y023438D01*
X031879Y023501D01*
X031861Y023564D01*
X031848Y023629D01*
X031838Y023694D01*
X031832Y023759D01*
X031830Y023825D01*
X033430Y023263D02*
X033580Y023263D01*
X033580Y023113D01*
X033580Y023263D02*
X033580Y023413D01*
X033580Y023263D02*
X033730Y023263D01*
X026780Y020850D02*
X026780Y020350D01*
X026778Y020324D01*
X026773Y020298D01*
X026765Y020273D01*
X026753Y020250D01*
X026739Y020228D01*
X026721Y020209D01*
X026702Y020191D01*
X026680Y020177D01*
X026657Y020165D01*
X026632Y020157D01*
X026606Y020152D01*
X026580Y020150D01*
X025280Y020150D01*
X025254Y020152D01*
X025228Y020157D01*
X025203Y020165D01*
X025180Y020177D01*
X025158Y020191D01*
X025139Y020209D01*
X025121Y020228D01*
X025107Y020250D01*
X025095Y020273D01*
X025087Y020298D01*
X025082Y020324D01*
X025080Y020350D01*
X025080Y020850D01*
X025082Y020876D01*
X025087Y020902D01*
X025095Y020927D01*
X025107Y020950D01*
X025121Y020972D01*
X025139Y020991D01*
X025158Y021009D01*
X025180Y021023D01*
X025203Y021035D01*
X025228Y021043D01*
X025254Y021048D01*
X025280Y021050D01*
X026580Y021050D01*
X026606Y021048D01*
X026632Y021043D01*
X026657Y021035D01*
X026680Y021023D01*
X026702Y021009D01*
X026721Y020991D01*
X026739Y020972D01*
X026753Y020950D01*
X026765Y020927D01*
X026773Y020902D01*
X026778Y020876D01*
X026780Y020850D01*
X026410Y021255D02*
X026484Y021328D01*
X026484Y021402D01*
X026410Y021475D01*
X026337Y021475D01*
X026410Y021475D02*
X026484Y021549D01*
X026484Y021622D01*
X026410Y021695D01*
X026264Y021695D01*
X026190Y021622D01*
X026023Y021622D02*
X025950Y021695D01*
X025803Y021695D01*
X025730Y021622D01*
X025563Y021622D02*
X025490Y021695D01*
X025343Y021695D01*
X025269Y021622D01*
X025269Y021328D01*
X025343Y021255D01*
X025490Y021255D01*
X025563Y021328D01*
X025730Y021255D02*
X026023Y021549D01*
X026023Y021622D01*
X026190Y021328D02*
X026264Y021255D01*
X026410Y021255D01*
X026023Y021255D02*
X025730Y021255D01*
X026039Y017570D02*
X026039Y017350D01*
X026186Y017424D01*
X026259Y017424D01*
X026333Y017350D01*
X026333Y017203D01*
X026259Y017130D01*
X026113Y017130D01*
X026039Y017203D01*
X026039Y017570D02*
X026333Y017570D01*
X026500Y017570D02*
X026646Y017424D01*
X026793Y017570D01*
X026793Y017130D01*
X026960Y017130D02*
X026960Y017570D01*
X026960Y017350D02*
X027254Y017350D01*
X027420Y017424D02*
X027714Y017424D01*
X027420Y017130D01*
X027714Y017130D01*
X027254Y017130D02*
X027254Y017570D01*
X026500Y017570D02*
X026500Y017130D01*
X025067Y014485D02*
X025067Y014045D01*
X024920Y014045D02*
X025214Y014045D01*
X024920Y014339D02*
X025067Y014485D01*
X024754Y014485D02*
X024754Y014412D01*
X024607Y014265D01*
X024607Y014045D01*
X024607Y014265D02*
X024460Y014412D01*
X024460Y014485D01*
X016641Y011070D02*
X016420Y010850D01*
X016714Y010850D01*
X016641Y010630D02*
X016641Y011070D01*
X016107Y011070D02*
X016107Y010630D01*
X015960Y010630D02*
X016254Y010630D01*
X015960Y010924D02*
X016107Y011070D01*
X015793Y010850D02*
X015500Y010850D01*
X015720Y011070D01*
X015720Y010630D01*
X015333Y010997D02*
X015039Y010703D01*
X015039Y010630D01*
X015039Y011070D02*
X015333Y011070D01*
X015333Y010997D01*
X011650Y012078D02*
X011650Y012225D01*
X011577Y012299D01*
X011650Y012465D02*
X011650Y012759D01*
X011650Y012612D02*
X011210Y012612D01*
X011356Y012465D01*
X011283Y012299D02*
X011210Y012225D01*
X011210Y012078D01*
X011283Y012005D01*
X011577Y012005D01*
X011650Y012078D01*
X011577Y012926D02*
X011283Y012926D01*
X011210Y012999D01*
X011210Y013146D01*
X011283Y013219D01*
X011577Y012926D01*
X011650Y012999D01*
X011650Y013146D01*
X011577Y013219D01*
X011283Y013219D01*
X009674Y014005D02*
X009381Y014005D01*
X009528Y014005D02*
X009528Y014445D01*
X009381Y014299D01*
X009214Y014372D02*
X009214Y014225D01*
X009141Y014152D01*
X008920Y014152D01*
X008920Y014005D02*
X008920Y014445D01*
X009141Y014445D01*
X009214Y014372D01*
X008754Y014445D02*
X008607Y014445D01*
X008680Y014445D02*
X008680Y014078D01*
X008607Y014005D01*
X008533Y014005D01*
X008460Y014078D01*
X002880Y011500D02*
X002880Y010200D01*
X002878Y010174D01*
X002873Y010148D01*
X002865Y010123D01*
X002853Y010100D01*
X002839Y010078D01*
X002821Y010059D01*
X002802Y010041D01*
X002780Y010027D01*
X002757Y010015D01*
X002732Y010007D01*
X002706Y010002D01*
X002680Y010000D01*
X002180Y010000D01*
X002154Y010002D01*
X002128Y010007D01*
X002103Y010015D01*
X002080Y010027D01*
X002058Y010041D01*
X002039Y010059D01*
X002021Y010078D01*
X002007Y010100D01*
X001995Y010123D01*
X001987Y010148D01*
X001982Y010174D01*
X001980Y010200D01*
X001980Y011500D01*
X001982Y011526D01*
X001987Y011552D01*
X001995Y011577D01*
X002007Y011600D01*
X002021Y011622D01*
X002039Y011641D01*
X002058Y011659D01*
X002080Y011673D01*
X002103Y011685D01*
X002128Y011693D01*
X002154Y011698D01*
X002180Y011700D01*
X002680Y011700D01*
X002706Y011698D01*
X002732Y011693D01*
X002757Y011685D01*
X002780Y011673D01*
X002802Y011659D01*
X002821Y011641D01*
X002839Y011622D01*
X002853Y011600D01*
X002865Y011577D01*
X002873Y011552D01*
X002878Y011526D01*
X002880Y011500D01*
X002577Y012005D02*
X002650Y012078D01*
X002650Y012225D01*
X002577Y012299D01*
X002577Y012465D02*
X002650Y012539D01*
X002650Y012686D01*
X002577Y012759D01*
X002283Y012759D01*
X002210Y012686D01*
X002210Y012539D01*
X002283Y012465D01*
X002356Y012465D01*
X002430Y012539D01*
X002430Y012759D01*
X002283Y012299D02*
X002210Y012225D01*
X002210Y012078D01*
X002283Y012005D01*
X002577Y012005D01*
X003960Y008820D02*
X003960Y008453D01*
X004033Y008380D01*
X004180Y008380D01*
X004254Y008453D01*
X004254Y008820D01*
X004420Y008747D02*
X004420Y008674D01*
X004494Y008600D01*
X004714Y008600D01*
X004714Y008453D02*
X004714Y008747D01*
X004641Y008820D01*
X004494Y008820D01*
X004420Y008747D01*
X004420Y008453D02*
X004494Y008380D01*
X004641Y008380D01*
X004714Y008453D01*
X004641Y021380D02*
X004494Y021380D01*
X004420Y021453D01*
X004420Y021600D02*
X004567Y021674D01*
X004641Y021674D01*
X004714Y021600D01*
X004714Y021453D01*
X004641Y021380D01*
X004420Y021600D02*
X004420Y021820D01*
X004714Y021820D01*
X004254Y021820D02*
X004254Y021453D01*
X004180Y021380D01*
X004033Y021380D01*
X003960Y021453D01*
X003960Y021820D01*
X003430Y022700D02*
X003430Y023450D01*
X003469Y023452D01*
X003508Y023458D01*
X003546Y023467D01*
X003583Y023480D01*
X003619Y023497D01*
X003652Y023517D01*
X003684Y023541D01*
X003713Y023567D01*
X003739Y023596D01*
X003763Y023628D01*
X003783Y023661D01*
X003800Y023697D01*
X003813Y023734D01*
X003822Y023772D01*
X003828Y023811D01*
X003830Y023850D01*
X003828Y023889D01*
X003822Y023928D01*
X003813Y023966D01*
X003800Y024003D01*
X003783Y024039D01*
X003763Y024072D01*
X003739Y024104D01*
X003713Y024133D01*
X003684Y024159D01*
X003652Y024183D01*
X003619Y024203D01*
X003583Y024220D01*
X003546Y024233D01*
X003508Y024242D01*
X003469Y024248D01*
X003430Y024250D01*
X003430Y025000D01*
X010430Y025000D01*
X010430Y022700D01*
X003430Y022700D01*
X002880Y023200D02*
X002880Y024500D01*
X002878Y024526D01*
X002873Y024552D01*
X002865Y024577D01*
X002853Y024600D01*
X002839Y024622D01*
X002821Y024641D01*
X002802Y024659D01*
X002780Y024673D01*
X002757Y024685D01*
X002732Y024693D01*
X002706Y024698D01*
X002680Y024700D01*
X002180Y024700D01*
X002154Y024698D01*
X002128Y024693D01*
X002103Y024685D01*
X002080Y024673D01*
X002058Y024659D01*
X002039Y024641D01*
X002021Y024622D01*
X002007Y024600D01*
X001995Y024577D01*
X001987Y024552D01*
X001982Y024526D01*
X001980Y024500D01*
X001980Y023200D01*
X001982Y023174D01*
X001987Y023148D01*
X001995Y023123D01*
X002007Y023100D01*
X002021Y023078D01*
X002039Y023059D01*
X002058Y023041D01*
X002080Y023027D01*
X002103Y023015D01*
X002128Y023007D01*
X002154Y023002D01*
X002180Y023000D01*
X002680Y023000D01*
X002706Y023002D01*
X002732Y023007D01*
X002757Y023015D01*
X002780Y023027D01*
X002802Y023041D01*
X002821Y023059D01*
X002839Y023078D01*
X002853Y023100D01*
X002865Y023123D01*
X002873Y023148D01*
X002878Y023174D01*
X002880Y023200D01*
X006039Y023630D02*
X006039Y023703D01*
X006333Y023997D01*
X006333Y024070D01*
X006039Y024070D01*
X006500Y023850D02*
X006793Y023850D01*
X006960Y023703D02*
X007254Y023997D01*
X007254Y023703D01*
X007180Y023630D01*
X007033Y023630D01*
X006960Y023703D01*
X006960Y023997D01*
X007033Y024070D01*
X007180Y024070D01*
X007254Y023997D01*
X007420Y023850D02*
X007641Y024070D01*
X007641Y023630D01*
X007714Y023850D02*
X007420Y023850D01*
X006720Y023630D02*
X006720Y024070D01*
X006500Y023850D01*
X002650Y025078D02*
X002650Y025225D01*
X002577Y025299D01*
X002577Y025465D02*
X002650Y025539D01*
X002650Y025686D01*
X002577Y025759D01*
X002430Y025759D01*
X002356Y025686D01*
X002356Y025612D01*
X002430Y025465D01*
X002210Y025465D01*
X002210Y025759D01*
X002283Y025299D02*
X002210Y025225D01*
X002210Y025078D01*
X002283Y025005D01*
X002577Y025005D01*
X002650Y025078D01*
X004033Y027880D02*
X004180Y027880D01*
X004254Y027953D01*
X004254Y028320D01*
X004420Y028247D02*
X004494Y028320D01*
X004641Y028320D01*
X004714Y028247D01*
X004714Y028174D01*
X004641Y028100D01*
X004714Y028027D01*
X004714Y027953D01*
X004641Y027880D01*
X004494Y027880D01*
X004420Y027953D01*
X004567Y028100D02*
X004641Y028100D01*
X004033Y027880D02*
X003960Y027953D01*
X003960Y028320D01*
X003430Y029200D02*
X003430Y029950D01*
X003469Y029952D01*
X003508Y029958D01*
X003546Y029967D01*
X003583Y029980D01*
X003619Y029997D01*
X003652Y030017D01*
X003684Y030041D01*
X003713Y030067D01*
X003739Y030096D01*
X003763Y030128D01*
X003783Y030161D01*
X003800Y030197D01*
X003813Y030234D01*
X003822Y030272D01*
X003828Y030311D01*
X003830Y030350D01*
X003828Y030389D01*
X003822Y030428D01*
X003813Y030466D01*
X003800Y030503D01*
X003783Y030539D01*
X003763Y030572D01*
X003739Y030604D01*
X003713Y030633D01*
X003684Y030659D01*
X003652Y030683D01*
X003619Y030703D01*
X003583Y030720D01*
X003546Y030733D01*
X003508Y030742D01*
X003469Y030748D01*
X003430Y030750D01*
X003430Y031500D01*
X013430Y031500D01*
X013430Y029200D01*
X003430Y029200D01*
X002880Y029700D02*
X002880Y031000D01*
X002878Y031026D01*
X002873Y031052D01*
X002865Y031077D01*
X002853Y031100D01*
X002839Y031122D01*
X002821Y031141D01*
X002802Y031159D01*
X002780Y031173D01*
X002757Y031185D01*
X002732Y031193D01*
X002706Y031198D01*
X002680Y031200D01*
X002180Y031200D01*
X002154Y031198D01*
X002128Y031193D01*
X002103Y031185D01*
X002080Y031173D01*
X002058Y031159D01*
X002039Y031141D01*
X002021Y031122D01*
X002007Y031100D01*
X001995Y031077D01*
X001987Y031052D01*
X001982Y031026D01*
X001980Y031000D01*
X001980Y029700D01*
X001982Y029674D01*
X001987Y029648D01*
X001995Y029623D01*
X002007Y029600D01*
X002021Y029578D01*
X002039Y029559D01*
X002058Y029541D01*
X002080Y029527D01*
X002103Y029515D01*
X002128Y029507D01*
X002154Y029502D01*
X002180Y029500D01*
X002680Y029500D01*
X002706Y029502D01*
X002732Y029507D01*
X002757Y029515D01*
X002780Y029527D01*
X002802Y029541D01*
X002821Y029559D01*
X002839Y029578D01*
X002853Y029600D01*
X002865Y029623D01*
X002873Y029648D01*
X002878Y029674D01*
X002880Y029700D01*
X002577Y031505D02*
X002650Y031578D01*
X002650Y031725D01*
X002577Y031799D01*
X002577Y031965D02*
X002650Y032039D01*
X002650Y032186D01*
X002577Y032259D01*
X002503Y032259D01*
X002430Y032186D01*
X002430Y032112D01*
X002430Y032186D02*
X002356Y032259D01*
X002283Y032259D01*
X002210Y032186D01*
X002210Y032039D01*
X002283Y031965D01*
X002283Y031799D02*
X002210Y031725D01*
X002210Y031578D01*
X002283Y031505D01*
X002577Y031505D01*
X007309Y030570D02*
X007603Y030570D01*
X007603Y030497D01*
X007309Y030203D01*
X007309Y030130D01*
X007769Y030350D02*
X008063Y030350D01*
X008230Y030350D02*
X008377Y030424D01*
X008450Y030424D01*
X008523Y030350D01*
X008523Y030203D01*
X008450Y030130D01*
X008303Y030130D01*
X008230Y030203D01*
X008230Y030350D02*
X008230Y030570D01*
X008523Y030570D01*
X008690Y030570D02*
X008984Y030570D01*
X008984Y030497D01*
X008690Y030203D01*
X008690Y030130D01*
X009151Y030350D02*
X009371Y030570D01*
X009371Y030130D01*
X009444Y030350D02*
X009151Y030350D01*
X007990Y030130D02*
X007990Y030570D01*
X007769Y030350D01*
X015430Y034200D02*
X015430Y036450D01*
X015469Y036452D01*
X015508Y036458D01*
X015546Y036467D01*
X015583Y036480D01*
X015619Y036497D01*
X015652Y036517D01*
X015684Y036541D01*
X015713Y036567D01*
X015739Y036596D01*
X015763Y036628D01*
X015783Y036661D01*
X015800Y036697D01*
X015813Y036734D01*
X015822Y036772D01*
X015828Y036811D01*
X015830Y036850D01*
X015828Y036889D01*
X015822Y036928D01*
X015813Y036966D01*
X015800Y037003D01*
X015783Y037039D01*
X015763Y037072D01*
X015739Y037104D01*
X015713Y037133D01*
X015684Y037159D01*
X015652Y037183D01*
X015619Y037203D01*
X015583Y037220D01*
X015546Y037233D01*
X015508Y037242D01*
X015469Y037248D01*
X015430Y037250D01*
X015430Y039500D01*
X031430Y039500D01*
X031430Y034200D01*
X015430Y034200D01*
X015960Y033320D02*
X015960Y032953D01*
X016033Y032880D01*
X016180Y032880D01*
X016254Y032953D01*
X016254Y033320D01*
X016420Y033247D02*
X016494Y033320D01*
X016641Y033320D01*
X016714Y033247D01*
X016714Y033174D01*
X016420Y032880D01*
X016714Y032880D01*
X016430Y032259D02*
X016430Y031965D01*
X016210Y032186D01*
X016650Y032186D01*
X016577Y031799D02*
X016650Y031725D01*
X016650Y031578D01*
X016577Y031505D01*
X016283Y031505D01*
X016210Y031578D01*
X016210Y031725D01*
X016283Y031799D01*
X017430Y031500D02*
X017430Y030750D01*
X017469Y030748D01*
X017508Y030742D01*
X017546Y030733D01*
X017583Y030720D01*
X017619Y030703D01*
X017652Y030683D01*
X017684Y030659D01*
X017713Y030633D01*
X017739Y030604D01*
X017763Y030572D01*
X017783Y030539D01*
X017800Y030503D01*
X017813Y030466D01*
X017822Y030428D01*
X017828Y030389D01*
X017830Y030350D01*
X017828Y030311D01*
X017822Y030272D01*
X017813Y030234D01*
X017800Y030197D01*
X017783Y030161D01*
X017763Y030128D01*
X017739Y030096D01*
X017713Y030067D01*
X017684Y030041D01*
X017652Y030017D01*
X017619Y029997D01*
X017583Y029980D01*
X017546Y029967D01*
X017508Y029958D01*
X017469Y029952D01*
X017430Y029950D01*
X017430Y029200D01*
X027430Y029200D01*
X027430Y031500D01*
X017430Y031500D01*
X016880Y031000D02*
X016880Y029700D01*
X016878Y029674D01*
X016873Y029648D01*
X016865Y029623D01*
X016853Y029600D01*
X016839Y029578D01*
X016821Y029559D01*
X016802Y029541D01*
X016780Y029527D01*
X016757Y029515D01*
X016732Y029507D01*
X016706Y029502D01*
X016680Y029500D01*
X016180Y029500D01*
X016154Y029502D01*
X016128Y029507D01*
X016103Y029515D01*
X016080Y029527D01*
X016058Y029541D01*
X016039Y029559D01*
X016021Y029578D01*
X016007Y029600D01*
X015995Y029623D01*
X015987Y029648D01*
X015982Y029674D01*
X015980Y029700D01*
X015980Y031000D01*
X015982Y031026D01*
X015987Y031052D01*
X015995Y031077D01*
X016007Y031100D01*
X016021Y031122D01*
X016039Y031141D01*
X016058Y031159D01*
X016080Y031173D01*
X016103Y031185D01*
X016128Y031193D01*
X016154Y031198D01*
X016180Y031200D01*
X016680Y031200D01*
X016706Y031198D01*
X016732Y031193D01*
X016757Y031185D01*
X016780Y031173D01*
X016802Y031159D01*
X016821Y031141D01*
X016839Y031122D01*
X016853Y031100D01*
X016865Y031077D01*
X016873Y031052D01*
X016878Y031026D01*
X016880Y031000D01*
X021309Y030570D02*
X021603Y030570D01*
X021603Y030497D01*
X021309Y030203D01*
X021309Y030130D01*
X021769Y030350D02*
X022063Y030350D01*
X022230Y030350D02*
X022377Y030424D01*
X022450Y030424D01*
X022523Y030350D01*
X022523Y030203D01*
X022450Y030130D01*
X022303Y030130D01*
X022230Y030203D01*
X022230Y030350D02*
X022230Y030570D01*
X022523Y030570D01*
X022690Y030570D02*
X022984Y030570D01*
X022984Y030497D01*
X022690Y030203D01*
X022690Y030130D01*
X023151Y030350D02*
X023371Y030570D01*
X023371Y030130D01*
X023444Y030350D02*
X023151Y030350D01*
X021990Y030130D02*
X021990Y030570D01*
X021769Y030350D01*
X018641Y028320D02*
X018420Y028100D01*
X018714Y028100D01*
X018641Y027880D02*
X018641Y028320D01*
X018254Y028320D02*
X018254Y027953D01*
X018180Y027880D01*
X018033Y027880D01*
X017960Y027953D01*
X017960Y028320D01*
X011650Y025686D02*
X011650Y025539D01*
X011577Y025465D01*
X011430Y025465D01*
X011430Y025686D01*
X011503Y025759D01*
X011577Y025759D01*
X011650Y025686D01*
X011430Y025465D02*
X011283Y025612D01*
X011210Y025759D01*
X011283Y025299D02*
X011210Y025225D01*
X011210Y025078D01*
X011283Y025005D01*
X011577Y025005D01*
X011650Y025078D01*
X011650Y025225D01*
X011577Y025299D01*
X012430Y025000D02*
X012430Y024250D01*
X012469Y024248D01*
X012508Y024242D01*
X012546Y024233D01*
X012583Y024220D01*
X012619Y024203D01*
X012652Y024183D01*
X012684Y024159D01*
X012713Y024133D01*
X012739Y024104D01*
X012763Y024072D01*
X012783Y024039D01*
X012800Y024003D01*
X012813Y023966D01*
X012822Y023928D01*
X012828Y023889D01*
X012830Y023850D01*
X012828Y023811D01*
X012822Y023772D01*
X012813Y023734D01*
X012800Y023697D01*
X012783Y023661D01*
X012763Y023628D01*
X012739Y023596D01*
X012713Y023567D01*
X012684Y023541D01*
X012652Y023517D01*
X012619Y023497D01*
X012583Y023480D01*
X012546Y023467D01*
X012508Y023458D01*
X012469Y023452D01*
X012430Y023450D01*
X012430Y022700D01*
X019430Y022700D01*
X019430Y025000D01*
X012430Y025000D01*
X011880Y024500D02*
X011880Y023200D01*
X011878Y023174D01*
X011873Y023148D01*
X011865Y023123D01*
X011853Y023100D01*
X011839Y023078D01*
X011821Y023059D01*
X011802Y023041D01*
X011780Y023027D01*
X011757Y023015D01*
X011732Y023007D01*
X011706Y023002D01*
X011680Y023000D01*
X011180Y023000D01*
X011154Y023002D01*
X011128Y023007D01*
X011103Y023015D01*
X011080Y023027D01*
X011058Y023041D01*
X011039Y023059D01*
X011021Y023078D01*
X011007Y023100D01*
X010995Y023123D01*
X010987Y023148D01*
X010982Y023174D01*
X010980Y023200D01*
X010980Y024500D01*
X010982Y024526D01*
X010987Y024552D01*
X010995Y024577D01*
X011007Y024600D01*
X011021Y024622D01*
X011039Y024641D01*
X011058Y024659D01*
X011080Y024673D01*
X011103Y024685D01*
X011128Y024693D01*
X011154Y024698D01*
X011180Y024700D01*
X011680Y024700D01*
X011706Y024698D01*
X011732Y024693D01*
X011757Y024685D01*
X011780Y024673D01*
X011802Y024659D01*
X011821Y024641D01*
X011839Y024622D01*
X011853Y024600D01*
X011865Y024577D01*
X011873Y024552D01*
X011878Y024526D01*
X011880Y024500D01*
X015039Y024070D02*
X015333Y024070D01*
X015333Y023997D01*
X015039Y023703D01*
X015039Y023630D01*
X015500Y023850D02*
X015793Y023850D01*
X015960Y023924D02*
X016107Y024070D01*
X016107Y023630D01*
X015960Y023630D02*
X016254Y023630D01*
X016420Y023703D02*
X016714Y023997D01*
X016714Y023703D01*
X016641Y023630D01*
X016494Y023630D01*
X016420Y023703D01*
X016420Y023997D01*
X016494Y024070D01*
X016641Y024070D01*
X016714Y023997D01*
X015720Y024070D02*
X015500Y023850D01*
X015720Y023630D02*
X015720Y024070D01*
X013714Y021820D02*
X013567Y021747D01*
X013420Y021600D01*
X013641Y021600D01*
X013714Y021527D01*
X013714Y021453D01*
X013641Y021380D01*
X013494Y021380D01*
X013420Y021453D01*
X013420Y021600D01*
X013254Y021453D02*
X013254Y021820D01*
X012960Y021820D02*
X012960Y021453D01*
X013033Y021380D01*
X013180Y021380D01*
X013254Y021453D01*
X033660Y016100D02*
X033660Y015953D01*
X033733Y015880D01*
X033733Y015713D02*
X033660Y015713D01*
X033733Y015713D02*
X033880Y015566D01*
X034100Y015566D01*
X033880Y015566D02*
X033733Y015420D01*
X033660Y015420D01*
X034100Y015880D02*
X033806Y016174D01*
X033733Y016174D01*
X033660Y016100D01*
X034100Y016174D02*
X034100Y015880D01*
X035010Y016536D02*
X035083Y016463D01*
X035010Y016536D02*
X035010Y016683D01*
X035083Y016757D01*
X035156Y016757D01*
X035450Y016463D01*
X035450Y016757D01*
X035450Y016923D02*
X035450Y017217D01*
X035450Y017070D02*
X035010Y017070D01*
X035156Y016923D01*
X035377Y017384D02*
X035377Y017457D01*
X035450Y017457D01*
X035450Y017384D01*
X035377Y017384D01*
X039019Y016970D02*
X039019Y016603D01*
X039093Y016530D01*
X039240Y016530D01*
X039313Y016603D01*
X039313Y016970D01*
X039480Y016824D02*
X039627Y016970D01*
X039627Y016530D01*
X039773Y016530D02*
X039480Y016530D01*
X039940Y016530D02*
X039940Y016603D01*
X040234Y016897D01*
X040234Y016970D01*
X039940Y016970D01*
X045000Y015320D02*
X045000Y014880D01*
X045000Y015027D02*
X045220Y015027D01*
X045293Y015100D01*
X045293Y015247D01*
X045220Y015320D01*
X045000Y015320D01*
X045146Y015027D02*
X045293Y014880D01*
X045460Y014953D02*
X045533Y014880D01*
X045680Y014880D01*
X045754Y014953D01*
X045754Y015027D01*
X045680Y015100D01*
X045607Y015100D01*
X045680Y015100D02*
X045754Y015174D01*
X045754Y015247D01*
X045680Y015320D01*
X045533Y015320D01*
X045460Y015247D01*
X045450Y014445D02*
X045523Y014372D01*
X045230Y014078D01*
X045303Y014005D01*
X045450Y014005D01*
X045523Y014078D01*
X045523Y014372D01*
X045450Y014445D02*
X045303Y014445D01*
X045230Y014372D01*
X045230Y014078D01*
X044480Y013825D02*
X046380Y013825D01*
X046430Y013775D01*
X046580Y013775D01*
X046597Y013777D01*
X046614Y013781D01*
X046630Y013788D01*
X046644Y013798D01*
X046657Y013811D01*
X046667Y013825D01*
X046674Y013841D01*
X046678Y013858D01*
X046680Y013875D01*
X046680Y014575D01*
X046678Y014592D01*
X046674Y014609D01*
X046667Y014625D01*
X046657Y014639D01*
X046644Y014652D01*
X046630Y014662D01*
X046614Y014669D01*
X046597Y014673D01*
X046580Y014675D01*
X046430Y014675D01*
X046380Y014625D01*
X044480Y014625D01*
X044430Y014675D01*
X044280Y014675D01*
X044263Y014673D01*
X044246Y014669D01*
X044230Y014662D01*
X044216Y014652D01*
X044203Y014639D01*
X044193Y014625D01*
X044186Y014609D01*
X044182Y014592D01*
X044180Y014575D01*
X044180Y013875D01*
X044182Y013858D01*
X044186Y013841D01*
X044193Y013825D01*
X044203Y013811D01*
X044216Y013798D01*
X044230Y013788D01*
X044246Y013781D01*
X044263Y013777D01*
X044280Y013775D01*
X044430Y013775D01*
X044480Y013825D01*
X048335Y013652D02*
X048775Y013652D01*
X048775Y013505D02*
X048775Y013799D01*
X048481Y013505D02*
X048335Y013652D01*
X048408Y013338D02*
X048702Y013338D01*
X048775Y013265D01*
X048775Y013118D01*
X048702Y013045D01*
X048408Y013045D01*
X048335Y013118D01*
X048335Y013265D01*
X048408Y013338D01*
X048628Y013191D02*
X048775Y013338D01*
X050230Y012250D02*
X050230Y010950D01*
X050232Y010924D01*
X050237Y010898D01*
X050245Y010873D01*
X050257Y010850D01*
X050271Y010828D01*
X050289Y010809D01*
X050308Y010791D01*
X050330Y010777D01*
X050353Y010765D01*
X050378Y010757D01*
X050404Y010752D01*
X050430Y010750D01*
X050930Y010750D01*
X050956Y010752D01*
X050982Y010757D01*
X051007Y010765D01*
X051030Y010777D01*
X051052Y010791D01*
X051071Y010809D01*
X051089Y010828D01*
X051103Y010850D01*
X051115Y010873D01*
X051123Y010898D01*
X051128Y010924D01*
X051130Y010950D01*
X051130Y012250D01*
X051128Y012276D01*
X051123Y012302D01*
X051115Y012327D01*
X051103Y012350D01*
X051089Y012372D01*
X051071Y012391D01*
X051052Y012409D01*
X051030Y012423D01*
X051007Y012435D01*
X050982Y012443D01*
X050956Y012448D01*
X050930Y012450D01*
X050430Y012450D01*
X050404Y012448D01*
X050378Y012443D01*
X050353Y012435D01*
X050330Y012423D01*
X050308Y012409D01*
X050289Y012391D01*
X050271Y012372D01*
X050257Y012350D01*
X050245Y012327D01*
X050237Y012302D01*
X050232Y012276D01*
X050230Y012250D01*
X051680Y012000D02*
X051680Y012750D01*
X058680Y012750D01*
X058680Y010450D01*
X051680Y010450D01*
X051680Y011200D01*
X051719Y011202D01*
X051758Y011208D01*
X051796Y011217D01*
X051833Y011230D01*
X051869Y011247D01*
X051902Y011267D01*
X051934Y011291D01*
X051963Y011317D01*
X051989Y011346D01*
X052013Y011378D01*
X052033Y011411D01*
X052050Y011447D01*
X052063Y011484D01*
X052072Y011522D01*
X052078Y011561D01*
X052080Y011600D01*
X052078Y011639D01*
X052072Y011678D01*
X052063Y011716D01*
X052050Y011753D01*
X052033Y011789D01*
X052013Y011822D01*
X051989Y011854D01*
X051963Y011883D01*
X051934Y011909D01*
X051902Y011933D01*
X051869Y011953D01*
X051833Y011970D01*
X051796Y011983D01*
X051758Y011992D01*
X051719Y011998D01*
X051680Y012000D01*
X054289Y011820D02*
X054583Y011820D01*
X054583Y011747D01*
X054289Y011453D01*
X054289Y011380D01*
X054750Y011600D02*
X055043Y011600D01*
X055210Y011453D02*
X055283Y011380D01*
X055430Y011380D01*
X055504Y011453D01*
X055504Y011527D01*
X055430Y011600D01*
X055357Y011600D01*
X055430Y011600D02*
X055504Y011674D01*
X055504Y011747D01*
X055430Y011820D01*
X055283Y011820D01*
X055210Y011747D01*
X054970Y011820D02*
X054750Y011600D01*
X054970Y011380D02*
X054970Y011820D01*
X055670Y011747D02*
X055744Y011820D01*
X055891Y011820D01*
X055964Y011747D01*
X055964Y011674D01*
X055670Y011380D01*
X055964Y011380D01*
X059230Y010950D02*
X059230Y012250D01*
X059232Y012276D01*
X059237Y012302D01*
X059245Y012327D01*
X059257Y012350D01*
X059271Y012372D01*
X059289Y012391D01*
X059308Y012409D01*
X059330Y012423D01*
X059353Y012435D01*
X059378Y012443D01*
X059404Y012448D01*
X059430Y012450D01*
X059930Y012450D01*
X059956Y012448D01*
X059982Y012443D01*
X060007Y012435D01*
X060030Y012423D01*
X060052Y012409D01*
X060071Y012391D01*
X060089Y012372D01*
X060103Y012350D01*
X060115Y012327D01*
X060123Y012302D01*
X060128Y012276D01*
X060130Y012250D01*
X060130Y010950D01*
X060128Y010924D01*
X060123Y010898D01*
X060115Y010873D01*
X060103Y010850D01*
X060089Y010828D01*
X060071Y010809D01*
X060052Y010791D01*
X060030Y010777D01*
X060007Y010765D01*
X059982Y010757D01*
X059956Y010752D01*
X059930Y010750D01*
X059430Y010750D01*
X059404Y010752D01*
X059378Y010757D01*
X059353Y010765D01*
X059330Y010777D01*
X059308Y010791D01*
X059289Y010809D01*
X059271Y010828D01*
X059257Y010850D01*
X059245Y010873D01*
X059237Y010898D01*
X059232Y010924D01*
X059230Y010950D01*
X060680Y011200D02*
X060680Y010450D01*
X070680Y010450D01*
X070680Y012750D01*
X060680Y012750D01*
X060680Y012000D01*
X060719Y011998D01*
X060758Y011992D01*
X060796Y011983D01*
X060833Y011970D01*
X060869Y011953D01*
X060902Y011933D01*
X060934Y011909D01*
X060963Y011883D01*
X060989Y011854D01*
X061013Y011822D01*
X061033Y011789D01*
X061050Y011753D01*
X061063Y011716D01*
X061072Y011678D01*
X061078Y011639D01*
X061080Y011600D01*
X061078Y011561D01*
X061072Y011522D01*
X061063Y011484D01*
X061050Y011447D01*
X061033Y011411D01*
X061013Y011378D01*
X060989Y011346D01*
X060963Y011317D01*
X060934Y011291D01*
X060902Y011267D01*
X060869Y011247D01*
X060833Y011230D01*
X060796Y011217D01*
X060758Y011208D01*
X060719Y011202D01*
X060680Y011200D01*
X059827Y012755D02*
X059900Y012828D01*
X059900Y012975D01*
X059827Y013049D01*
X059900Y013215D02*
X059900Y013509D01*
X059900Y013362D02*
X059460Y013362D01*
X059606Y013215D01*
X059533Y013049D02*
X059460Y012975D01*
X059460Y012828D01*
X059533Y012755D01*
X059827Y012755D01*
X059680Y013676D02*
X059680Y013969D01*
X059900Y013896D02*
X059460Y013896D01*
X059680Y013676D01*
X060680Y013900D02*
X060680Y014300D01*
X060682Y014326D01*
X060687Y014352D01*
X060695Y014377D01*
X060707Y014400D01*
X060721Y014422D01*
X060739Y014441D01*
X060758Y014459D01*
X060780Y014473D01*
X060803Y014485D01*
X060828Y014493D01*
X060854Y014498D01*
X060880Y014500D01*
X069480Y014500D01*
X069506Y014498D01*
X069532Y014493D01*
X069557Y014485D01*
X069580Y014473D01*
X069602Y014459D01*
X069621Y014441D01*
X069639Y014422D01*
X069653Y014400D01*
X069665Y014377D01*
X069673Y014352D01*
X069678Y014326D01*
X069680Y014300D01*
X069680Y013900D01*
X069678Y013874D01*
X069673Y013848D01*
X069665Y013823D01*
X069653Y013800D01*
X069639Y013778D01*
X069621Y013759D01*
X069602Y013741D01*
X069580Y013727D01*
X069557Y013715D01*
X069532Y013707D01*
X069506Y013702D01*
X069480Y013700D01*
X060880Y013700D01*
X060830Y013750D02*
X060830Y014450D01*
X061530Y014450D01*
X061530Y013750D01*
X060830Y013750D01*
X060880Y013700D02*
X060854Y013702D01*
X060828Y013707D01*
X060803Y013715D01*
X060780Y013727D01*
X060758Y013741D01*
X060739Y013759D01*
X060721Y013778D01*
X060707Y013800D01*
X060695Y013823D01*
X060687Y013848D01*
X060682Y013874D01*
X060680Y013900D01*
X061210Y014630D02*
X061210Y015070D01*
X061430Y015070D01*
X061504Y014997D01*
X061504Y014850D01*
X061430Y014777D01*
X061210Y014777D01*
X061357Y014777D02*
X061504Y014630D01*
X061670Y014630D02*
X061670Y015070D01*
X061964Y014630D01*
X061964Y015070D01*
X062131Y014924D02*
X062278Y015070D01*
X062278Y014630D01*
X062424Y014630D02*
X062131Y014630D01*
X064558Y014630D02*
X064851Y014630D01*
X064705Y014630D02*
X064705Y015070D01*
X064558Y014924D01*
X065018Y014997D02*
X065092Y015070D01*
X065238Y015070D01*
X065312Y014997D01*
X065018Y014703D01*
X065092Y014630D01*
X065238Y014630D01*
X065312Y014703D01*
X065312Y014997D01*
X065479Y015070D02*
X065479Y014630D01*
X065479Y014777D02*
X065699Y014630D01*
X065479Y014777D02*
X065699Y014924D01*
X065018Y014997D02*
X065018Y014703D01*
X064853Y011820D02*
X064853Y011747D01*
X064559Y011453D01*
X064559Y011380D01*
X064559Y011820D02*
X064853Y011820D01*
X065019Y011600D02*
X065240Y011820D01*
X065240Y011380D01*
X065313Y011600D02*
X065019Y011600D01*
X065480Y011600D02*
X065480Y011820D01*
X065773Y011820D01*
X065700Y011674D02*
X065773Y011600D01*
X065773Y011453D01*
X065700Y011380D01*
X065553Y011380D01*
X065480Y011453D01*
X065480Y011600D02*
X065627Y011674D01*
X065700Y011674D01*
X065940Y011820D02*
X066234Y011820D01*
X066234Y011747D01*
X065940Y011453D01*
X065940Y011380D01*
X066401Y011600D02*
X066621Y011820D01*
X066621Y011380D01*
X066694Y011600D02*
X066401Y011600D01*
X069960Y013755D02*
X070327Y013755D01*
X070400Y013828D01*
X070400Y013975D01*
X070327Y014049D01*
X069960Y014049D01*
X070106Y014215D02*
X069960Y014362D01*
X070400Y014362D01*
X070400Y014215D02*
X070400Y014509D01*
X070180Y014676D02*
X070180Y014969D01*
X070400Y014896D02*
X069960Y014896D01*
X070180Y014676D01*
X071705Y012850D02*
X072405Y012850D01*
X072422Y012848D01*
X072439Y012844D01*
X072455Y012837D01*
X072469Y012827D01*
X072482Y012814D01*
X072492Y012800D01*
X072499Y012784D01*
X072503Y012767D01*
X072505Y012750D01*
X072505Y012600D01*
X072455Y012550D01*
X072455Y010650D01*
X072505Y010600D01*
X072505Y010450D01*
X072503Y010433D01*
X072499Y010416D01*
X072492Y010400D01*
X072482Y010386D01*
X072469Y010373D01*
X072455Y010363D01*
X072439Y010356D01*
X072422Y010352D01*
X072405Y010350D01*
X071705Y010350D01*
X071688Y010352D01*
X071671Y010356D01*
X071655Y010363D01*
X071641Y010373D01*
X071628Y010386D01*
X071618Y010400D01*
X071611Y010416D01*
X071607Y010433D01*
X071605Y010450D01*
X071605Y010600D01*
X071655Y010650D01*
X071655Y012550D01*
X071605Y012600D01*
X071605Y012750D01*
X071607Y012767D01*
X071611Y012784D01*
X071618Y012800D01*
X071628Y012814D01*
X071641Y012827D01*
X071655Y012837D01*
X071671Y012844D01*
X071688Y012848D01*
X071705Y012850D01*
X072710Y011850D02*
X072930Y011630D01*
X072930Y011924D01*
X073150Y011850D02*
X072710Y011850D01*
X072783Y011463D02*
X072930Y011463D01*
X073003Y011390D01*
X073003Y011170D01*
X073003Y011316D02*
X073150Y011463D01*
X073150Y011170D02*
X072710Y011170D01*
X072710Y011390D01*
X072783Y011463D01*
X072275Y011473D02*
X072202Y011400D01*
X071908Y011693D01*
X072202Y011693D01*
X072275Y011620D01*
X072275Y011473D01*
X072202Y011400D02*
X071908Y011400D01*
X071835Y011473D01*
X071835Y011620D01*
X071908Y011693D01*
X071845Y009195D02*
X071918Y009122D01*
X071918Y008828D01*
X071845Y008755D01*
X071698Y008755D01*
X071625Y008828D01*
X071625Y009122D01*
X071698Y009195D01*
X071845Y009195D01*
X072085Y009122D02*
X072158Y009195D01*
X072305Y009195D01*
X072379Y009122D01*
X072379Y009049D01*
X072085Y008755D01*
X072379Y008755D01*
X071918Y008755D02*
X071771Y008902D01*
X073335Y008844D02*
X073408Y008698D01*
X073555Y008551D01*
X073555Y008771D01*
X073628Y008844D01*
X073702Y008844D01*
X073775Y008771D01*
X073775Y008624D01*
X073702Y008551D01*
X073555Y008551D01*
X073702Y008384D02*
X073775Y008311D01*
X073775Y008164D01*
X073702Y008090D01*
X073408Y008384D01*
X073702Y008384D01*
X073702Y008090D02*
X073408Y008090D01*
X073335Y008164D01*
X073335Y008311D01*
X073408Y008384D01*
X073775Y007924D02*
X073775Y007630D01*
X073775Y007777D02*
X073335Y007777D01*
X073481Y007630D01*
X073481Y007463D02*
X073408Y007463D01*
X073335Y007390D01*
X073335Y007243D01*
X073408Y007170D01*
X073335Y007003D02*
X073775Y007003D01*
X073335Y006709D01*
X073775Y006709D01*
X073628Y006542D02*
X073335Y006542D01*
X073335Y006249D02*
X073628Y006249D01*
X073775Y006396D01*
X073628Y006542D01*
X073775Y007170D02*
X073481Y007463D01*
X073775Y007463D02*
X073775Y007170D01*
X075585Y008402D02*
X075585Y008549D01*
X075585Y008475D02*
X075952Y008475D01*
X076025Y008402D01*
X076025Y008328D01*
X075952Y008255D01*
X076025Y008715D02*
X076025Y009009D01*
X076025Y008862D02*
X075585Y008862D01*
X075731Y008715D01*
X070680Y008750D02*
X070680Y006450D01*
X060680Y006450D01*
X060680Y007200D01*
X060719Y007202D01*
X060758Y007208D01*
X060796Y007217D01*
X060833Y007230D01*
X060869Y007247D01*
X060902Y007267D01*
X060934Y007291D01*
X060963Y007317D01*
X060989Y007346D01*
X061013Y007378D01*
X061033Y007411D01*
X061050Y007447D01*
X061063Y007484D01*
X061072Y007522D01*
X061078Y007561D01*
X061080Y007600D01*
X061078Y007639D01*
X061072Y007678D01*
X061063Y007716D01*
X061050Y007753D01*
X061033Y007789D01*
X061013Y007822D01*
X060989Y007854D01*
X060963Y007883D01*
X060934Y007909D01*
X060902Y007933D01*
X060869Y007953D01*
X060833Y007970D01*
X060796Y007983D01*
X060758Y007992D01*
X060719Y007998D01*
X060680Y008000D01*
X060680Y008750D01*
X070680Y008750D01*
X066694Y007820D02*
X066401Y007820D01*
X066401Y007600D01*
X066547Y007674D01*
X066621Y007674D01*
X066694Y007600D01*
X066694Y007453D01*
X066621Y007380D01*
X066474Y007380D01*
X066401Y007453D01*
X066234Y007600D02*
X065940Y007600D01*
X066160Y007820D01*
X066160Y007380D01*
X065773Y007380D02*
X065480Y007380D01*
X065773Y007674D01*
X065773Y007747D01*
X065700Y007820D01*
X065553Y007820D01*
X065480Y007747D01*
X065313Y007600D02*
X065019Y007600D01*
X065240Y007820D01*
X065240Y007380D01*
X064853Y007747D02*
X064559Y007453D01*
X064559Y007380D01*
X064853Y007747D02*
X064853Y007820D01*
X064559Y007820D01*
X060130Y008250D02*
X060130Y006950D01*
X060128Y006924D01*
X060123Y006898D01*
X060115Y006873D01*
X060103Y006850D01*
X060089Y006828D01*
X060071Y006809D01*
X060052Y006791D01*
X060030Y006777D01*
X060007Y006765D01*
X059982Y006757D01*
X059956Y006752D01*
X059930Y006750D01*
X059430Y006750D01*
X059404Y006752D01*
X059378Y006757D01*
X059353Y006765D01*
X059330Y006777D01*
X059308Y006791D01*
X059289Y006809D01*
X059271Y006828D01*
X059257Y006850D01*
X059245Y006873D01*
X059237Y006898D01*
X059232Y006924D01*
X059230Y006950D01*
X059230Y008250D01*
X059232Y008276D01*
X059237Y008302D01*
X059245Y008327D01*
X059257Y008350D01*
X059271Y008372D01*
X059289Y008391D01*
X059308Y008409D01*
X059330Y008423D01*
X059353Y008435D01*
X059378Y008443D01*
X059404Y008448D01*
X059430Y008450D01*
X059930Y008450D01*
X059956Y008448D01*
X059982Y008443D01*
X060007Y008435D01*
X060030Y008423D01*
X060052Y008409D01*
X060071Y008391D01*
X060089Y008372D01*
X060103Y008350D01*
X060115Y008327D01*
X060123Y008302D01*
X060128Y008276D01*
X060130Y008250D01*
X058680Y008750D02*
X058680Y006450D01*
X048680Y006450D01*
X048680Y007200D01*
X048719Y007202D01*
X048758Y007208D01*
X048796Y007217D01*
X048833Y007230D01*
X048869Y007247D01*
X048902Y007267D01*
X048934Y007291D01*
X048963Y007317D01*
X048989Y007346D01*
X049013Y007378D01*
X049033Y007411D01*
X049050Y007447D01*
X049063Y007484D01*
X049072Y007522D01*
X049078Y007561D01*
X049080Y007600D01*
X049078Y007639D01*
X049072Y007678D01*
X049063Y007716D01*
X049050Y007753D01*
X049033Y007789D01*
X049013Y007822D01*
X048989Y007854D01*
X048963Y007883D01*
X048934Y007909D01*
X048902Y007933D01*
X048869Y007953D01*
X048833Y007970D01*
X048796Y007983D01*
X048758Y007992D01*
X048719Y007998D01*
X048680Y008000D01*
X048680Y008750D01*
X058680Y008750D01*
X054444Y007600D02*
X054151Y007600D01*
X054371Y007820D01*
X054371Y007380D01*
X053984Y007600D02*
X053690Y007600D01*
X053910Y007820D01*
X053910Y007380D01*
X053523Y007380D02*
X053230Y007380D01*
X053523Y007674D01*
X053523Y007747D01*
X053450Y007820D01*
X053303Y007820D01*
X053230Y007747D01*
X053063Y007600D02*
X052769Y007600D01*
X052990Y007820D01*
X052990Y007380D01*
X052603Y007747D02*
X052309Y007453D01*
X052309Y007380D01*
X052603Y007747D02*
X052603Y007820D01*
X052309Y007820D01*
X051160Y009880D02*
X051014Y009880D01*
X050940Y009953D01*
X050773Y009880D02*
X050480Y009880D01*
X050627Y009880D02*
X050627Y010320D01*
X050480Y010174D01*
X050313Y010247D02*
X050240Y010320D01*
X050093Y010320D01*
X050019Y010247D01*
X050019Y009953D01*
X050093Y009880D01*
X050240Y009880D01*
X050313Y009953D01*
X050940Y010247D02*
X051014Y010320D01*
X051160Y010320D01*
X051234Y010247D01*
X051234Y010174D01*
X051160Y010100D01*
X051234Y010027D01*
X051234Y009953D01*
X051160Y009880D01*
X051160Y010100D02*
X051087Y010100D01*
X048525Y011013D02*
X048525Y011086D01*
X048452Y011160D01*
X048085Y011160D01*
X048085Y011233D02*
X048085Y011086D01*
X048085Y011400D02*
X048085Y011620D01*
X048158Y011693D01*
X048305Y011693D01*
X048378Y011620D01*
X048378Y011400D01*
X048525Y011400D02*
X048085Y011400D01*
X048158Y011860D02*
X048085Y011934D01*
X048085Y012080D01*
X048158Y012154D01*
X048231Y012154D01*
X048525Y011860D01*
X048525Y012154D01*
X048525Y011013D02*
X048452Y010939D01*
X044734Y010100D02*
X044440Y010100D01*
X044660Y010320D01*
X044660Y009880D01*
X044273Y009880D02*
X043980Y009880D01*
X044273Y010174D01*
X044273Y010247D01*
X044200Y010320D01*
X044053Y010320D01*
X043980Y010247D01*
X043813Y010247D02*
X043740Y010320D01*
X043593Y010320D01*
X043519Y010247D01*
X043519Y009953D01*
X043593Y009880D01*
X043740Y009880D01*
X043813Y009953D01*
X044680Y009250D02*
X044680Y008950D01*
X044830Y009100D02*
X044530Y009100D01*
X046585Y008154D02*
X046585Y007860D01*
X046805Y007860D01*
X046731Y008007D01*
X046731Y008080D01*
X046805Y008154D01*
X046952Y008154D01*
X047025Y008080D01*
X047025Y007934D01*
X046952Y007860D01*
X047025Y007693D02*
X047025Y007400D01*
X047025Y007547D02*
X046585Y007547D01*
X046731Y007400D01*
X046658Y007233D02*
X046585Y007160D01*
X046585Y007013D01*
X046658Y006939D01*
X046952Y006939D01*
X047025Y007013D01*
X047025Y007160D01*
X046952Y007233D01*
X047230Y006950D02*
X047230Y008250D01*
X047232Y008276D01*
X047237Y008302D01*
X047245Y008327D01*
X047257Y008350D01*
X047271Y008372D01*
X047289Y008391D01*
X047308Y008409D01*
X047330Y008423D01*
X047353Y008435D01*
X047378Y008443D01*
X047404Y008448D01*
X047430Y008450D01*
X047930Y008450D01*
X047956Y008448D01*
X047982Y008443D01*
X048007Y008435D01*
X048030Y008423D01*
X048052Y008409D01*
X048071Y008391D01*
X048089Y008372D01*
X048103Y008350D01*
X048115Y008327D01*
X048123Y008302D01*
X048128Y008276D01*
X048130Y008250D01*
X048130Y006950D01*
X048128Y006924D01*
X048123Y006898D01*
X048115Y006873D01*
X048103Y006850D01*
X048089Y006828D01*
X048071Y006809D01*
X048052Y006791D01*
X048030Y006777D01*
X048007Y006765D01*
X047982Y006757D01*
X047956Y006752D01*
X047930Y006750D01*
X047430Y006750D01*
X047404Y006752D01*
X047378Y006757D01*
X047353Y006765D01*
X047330Y006777D01*
X047308Y006791D01*
X047289Y006809D01*
X047271Y006828D01*
X047257Y006850D01*
X047245Y006873D01*
X047237Y006898D01*
X047232Y006924D01*
X047230Y006950D01*
X049210Y005620D02*
X049210Y005253D01*
X049283Y005180D01*
X049430Y005180D01*
X049504Y005253D01*
X049504Y005620D01*
X049670Y005474D02*
X049817Y005620D01*
X049817Y005180D01*
X049670Y005180D02*
X049964Y005180D01*
X050131Y005253D02*
X050204Y005180D01*
X050351Y005180D01*
X050424Y005253D01*
X050424Y005400D01*
X050351Y005474D01*
X050278Y005474D01*
X050131Y005400D01*
X050131Y005620D01*
X050424Y005620D01*
X042180Y007600D02*
X042182Y007698D01*
X042190Y007796D01*
X042202Y007893D01*
X042218Y007990D01*
X042240Y008086D01*
X042266Y008181D01*
X042297Y008274D01*
X042332Y008365D01*
X042372Y008455D01*
X042416Y008543D01*
X042465Y008628D01*
X042517Y008711D01*
X042574Y008791D01*
X042634Y008869D01*
X042698Y008943D01*
X042766Y009014D01*
X042837Y009082D01*
X042911Y009146D01*
X042989Y009206D01*
X043069Y009263D01*
X043152Y009315D01*
X043237Y009364D01*
X043325Y009408D01*
X043415Y009448D01*
X043506Y009483D01*
X043599Y009514D01*
X043694Y009540D01*
X043790Y009562D01*
X043887Y009578D01*
X043984Y009590D01*
X044082Y009598D01*
X044180Y009600D01*
X044278Y009598D01*
X044376Y009590D01*
X044473Y009578D01*
X044570Y009562D01*
X044666Y009540D01*
X044761Y009514D01*
X044854Y009483D01*
X044945Y009448D01*
X045035Y009408D01*
X045123Y009364D01*
X045208Y009315D01*
X045291Y009263D01*
X045371Y009206D01*
X045449Y009146D01*
X045523Y009082D01*
X045594Y009014D01*
X045662Y008943D01*
X045726Y008869D01*
X045786Y008791D01*
X045843Y008711D01*
X045895Y008628D01*
X045944Y008543D01*
X045988Y008455D01*
X046028Y008365D01*
X046063Y008274D01*
X046094Y008181D01*
X046120Y008086D01*
X046142Y007990D01*
X046158Y007893D01*
X046170Y007796D01*
X046178Y007698D01*
X046180Y007600D01*
X046178Y007502D01*
X046170Y007404D01*
X046158Y007307D01*
X046142Y007210D01*
X046120Y007114D01*
X046094Y007019D01*
X046063Y006926D01*
X046028Y006835D01*
X045988Y006745D01*
X045944Y006657D01*
X045895Y006572D01*
X045843Y006489D01*
X045786Y006409D01*
X045726Y006331D01*
X045662Y006257D01*
X045594Y006186D01*
X045523Y006118D01*
X045449Y006054D01*
X045371Y005994D01*
X045291Y005937D01*
X045208Y005885D01*
X045123Y005836D01*
X045035Y005792D01*
X044945Y005752D01*
X044854Y005717D01*
X044761Y005686D01*
X044666Y005660D01*
X044570Y005638D01*
X044473Y005622D01*
X044376Y005610D01*
X044278Y005602D01*
X044180Y005600D01*
X044082Y005602D01*
X043984Y005610D01*
X043887Y005622D01*
X043790Y005638D01*
X043694Y005660D01*
X043599Y005686D01*
X043506Y005717D01*
X043415Y005752D01*
X043325Y005792D01*
X043237Y005836D01*
X043152Y005885D01*
X043069Y005937D01*
X042989Y005994D01*
X042911Y006054D01*
X042837Y006118D01*
X042766Y006186D01*
X042698Y006257D01*
X042634Y006331D01*
X042574Y006409D01*
X042517Y006489D01*
X042465Y006572D01*
X042416Y006657D01*
X042372Y006745D01*
X042332Y006835D01*
X042297Y006926D01*
X042266Y007019D01*
X042240Y007114D01*
X042218Y007210D01*
X042202Y007307D01*
X042190Y007404D01*
X042182Y007502D01*
X042180Y007600D01*
X041900Y007620D02*
X041900Y007473D01*
X041827Y007400D01*
X041533Y007693D01*
X041827Y007693D01*
X041900Y007620D01*
X041827Y007400D02*
X041533Y007400D01*
X041460Y007473D01*
X041460Y007620D01*
X041533Y007693D01*
X041606Y007860D02*
X041827Y007860D01*
X041900Y007934D01*
X041900Y008154D01*
X041606Y008154D01*
X041680Y008321D02*
X041680Y008467D01*
X041900Y008321D02*
X041460Y008321D01*
X041460Y008614D01*
X041533Y007233D02*
X041460Y007160D01*
X041460Y007013D01*
X041533Y006939D01*
X041533Y006773D02*
X041460Y006699D01*
X041460Y006552D01*
X041533Y006479D01*
X041533Y006773D02*
X041606Y006773D01*
X041900Y006479D01*
X041900Y006773D01*
X041900Y006939D02*
X041606Y007233D01*
X041533Y007233D01*
X041900Y007233D02*
X041900Y006939D01*
X036371Y011130D02*
X036371Y011570D01*
X036151Y011350D01*
X036444Y011350D01*
X035984Y011350D02*
X035690Y011350D01*
X035910Y011570D01*
X035910Y011130D01*
X035523Y011130D02*
X035230Y011130D01*
X035523Y011424D01*
X035523Y011497D01*
X035450Y011570D01*
X035303Y011570D01*
X035230Y011497D01*
X035063Y011350D02*
X034769Y011350D01*
X034990Y011570D01*
X034990Y011130D01*
X034603Y011497D02*
X034309Y011203D01*
X034309Y011130D01*
X034309Y011570D02*
X034603Y011570D01*
X034603Y011497D01*
X032101Y008820D02*
X031954Y008820D01*
X031881Y008747D01*
X032101Y008820D02*
X032174Y008747D01*
X032174Y008674D01*
X031881Y008380D01*
X032174Y008380D01*
X031714Y008380D02*
X031420Y008380D01*
X031567Y008380D02*
X031567Y008820D01*
X031420Y008674D01*
X031254Y008820D02*
X031254Y008453D01*
X031180Y008380D01*
X031033Y008380D01*
X030960Y008453D01*
X030960Y008820D01*
X048704Y014902D02*
X048851Y014755D01*
X048997Y014902D01*
X048997Y015195D01*
X049164Y015195D02*
X049458Y014755D01*
X049458Y015195D01*
X049625Y015122D02*
X049698Y015195D01*
X049845Y015195D01*
X049918Y015122D01*
X049918Y015049D01*
X049625Y014755D01*
X049918Y014755D01*
X050085Y014755D02*
X050379Y014755D01*
X050232Y014755D02*
X050232Y015195D01*
X050085Y015049D01*
X050545Y015122D02*
X050619Y015195D01*
X050766Y015195D01*
X050839Y015122D01*
X050545Y014828D01*
X050619Y014755D01*
X050766Y014755D01*
X050839Y014828D01*
X050839Y015122D01*
X051006Y014975D02*
X051226Y014975D01*
X051299Y014902D01*
X051299Y014828D01*
X051226Y014755D01*
X051079Y014755D01*
X051006Y014828D01*
X051006Y014975D01*
X051153Y015122D01*
X051299Y015195D01*
X050545Y015122D02*
X050545Y014828D01*
X049164Y014755D02*
X049164Y015195D01*
X048704Y015195D02*
X048704Y014902D01*
X052210Y014070D02*
X052210Y013703D01*
X052283Y013630D01*
X052430Y013630D01*
X052504Y013703D01*
X052504Y014070D01*
X052670Y013924D02*
X052817Y014070D01*
X052817Y013630D01*
X052670Y013630D02*
X052964Y013630D01*
X053131Y013703D02*
X053204Y013630D01*
X053351Y013630D01*
X053424Y013703D01*
X053424Y013777D01*
X053351Y013850D01*
X053278Y013850D01*
X053351Y013850D02*
X053424Y013924D01*
X053424Y013997D01*
X053351Y014070D01*
X053204Y014070D01*
X053131Y013997D01*
X061460Y020013D02*
X061533Y019939D01*
X061827Y019939D01*
X061900Y020013D01*
X061900Y020160D01*
X061827Y020233D01*
X061827Y020400D02*
X061900Y020473D01*
X061900Y020620D01*
X061827Y020693D01*
X061753Y020693D01*
X061680Y020620D01*
X061680Y020547D01*
X061680Y020620D02*
X061606Y020693D01*
X061533Y020693D01*
X061460Y020620D01*
X061460Y020473D01*
X061533Y020400D01*
X061533Y020233D02*
X061460Y020160D01*
X061460Y020013D01*
X061533Y020860D02*
X061460Y020934D01*
X061460Y021080D01*
X061533Y021154D01*
X061606Y021154D01*
X061900Y020860D01*
X061900Y021154D01*
X062380Y021163D02*
X062530Y021163D01*
X062530Y021313D01*
X062530Y021163D02*
X062680Y021163D01*
X062530Y021163D02*
X062530Y021013D01*
X062080Y020600D02*
X062082Y020666D01*
X062088Y020731D01*
X062098Y020796D01*
X062111Y020861D01*
X062129Y020924D01*
X062150Y020987D01*
X062175Y021047D01*
X062204Y021107D01*
X062236Y021164D01*
X062271Y021220D01*
X062310Y021273D01*
X062352Y021324D01*
X062396Y021372D01*
X062444Y021417D01*
X062494Y021460D01*
X062547Y021499D01*
X062602Y021536D01*
X062659Y021569D01*
X062718Y021598D01*
X062778Y021624D01*
X062840Y021646D01*
X062903Y021665D01*
X062967Y021679D01*
X063032Y021690D01*
X063098Y021697D01*
X063164Y021700D01*
X063229Y021699D01*
X063295Y021694D01*
X063360Y021685D01*
X063425Y021672D01*
X063488Y021656D01*
X063551Y021636D01*
X063612Y021611D01*
X063672Y021584D01*
X063730Y021553D01*
X063786Y021518D01*
X063840Y021480D01*
X063891Y021439D01*
X063940Y021395D01*
X063986Y021348D01*
X064030Y021299D01*
X064070Y021247D01*
X064107Y021192D01*
X064141Y021136D01*
X064171Y021077D01*
X064198Y021017D01*
X064221Y020956D01*
X064240Y020893D01*
X064256Y020829D01*
X064268Y020764D01*
X064276Y020699D01*
X064280Y020633D01*
X064280Y020567D01*
X064276Y020501D01*
X064268Y020436D01*
X064256Y020371D01*
X064240Y020307D01*
X064221Y020244D01*
X064198Y020183D01*
X064171Y020123D01*
X064141Y020064D01*
X064107Y020008D01*
X064070Y019953D01*
X064030Y019901D01*
X063986Y019852D01*
X063940Y019805D01*
X063891Y019761D01*
X063840Y019720D01*
X063786Y019682D01*
X063730Y019647D01*
X063672Y019616D01*
X063612Y019589D01*
X063551Y019564D01*
X063488Y019544D01*
X063425Y019528D01*
X063360Y019515D01*
X063295Y019506D01*
X063229Y019501D01*
X063164Y019500D01*
X063098Y019503D01*
X063032Y019510D01*
X062967Y019521D01*
X062903Y019535D01*
X062840Y019554D01*
X062778Y019576D01*
X062718Y019602D01*
X062659Y019631D01*
X062602Y019664D01*
X062547Y019701D01*
X062494Y019740D01*
X062444Y019783D01*
X062396Y019828D01*
X062352Y019876D01*
X062310Y019927D01*
X062271Y019980D01*
X062236Y020036D01*
X062204Y020093D01*
X062175Y020153D01*
X062150Y020213D01*
X062129Y020276D01*
X062111Y020339D01*
X062098Y020404D01*
X062088Y020469D01*
X062082Y020534D01*
X062080Y020600D01*
X064460Y020463D02*
X064460Y020170D01*
X064460Y019929D02*
X064680Y019709D01*
X064680Y020003D01*
X064827Y020170D02*
X064900Y020170D01*
X064827Y020170D02*
X064533Y020463D01*
X064460Y020463D01*
X064606Y020630D02*
X064827Y020630D01*
X064900Y020703D01*
X064900Y020924D01*
X064606Y020924D01*
X064680Y021090D02*
X064680Y021237D01*
X064900Y021090D02*
X064460Y021090D01*
X064460Y021384D01*
X064835Y021630D02*
X064835Y021850D01*
X064908Y021924D01*
X065055Y021924D01*
X065128Y021850D01*
X065128Y021630D01*
X065128Y021777D02*
X065275Y021924D01*
X065275Y022090D02*
X065275Y022384D01*
X065275Y022237D02*
X064835Y022237D01*
X064981Y022090D01*
X064908Y022551D02*
X064835Y022624D01*
X064835Y022771D01*
X064908Y022844D01*
X064981Y022844D01*
X065055Y022771D01*
X065128Y022844D01*
X065202Y022844D01*
X065275Y022771D01*
X065275Y022624D01*
X065202Y022551D01*
X065055Y022698D02*
X065055Y022771D01*
X065480Y022350D02*
X065530Y022400D01*
X065530Y024300D01*
X065480Y024350D01*
X065480Y024500D01*
X065482Y024517D01*
X065486Y024534D01*
X065493Y024550D01*
X065503Y024564D01*
X065516Y024577D01*
X065530Y024587D01*
X065546Y024594D01*
X065563Y024598D01*
X065580Y024600D01*
X066280Y024600D01*
X066297Y024598D01*
X066314Y024594D01*
X066330Y024587D01*
X066344Y024577D01*
X066357Y024564D01*
X066367Y024550D01*
X066374Y024534D01*
X066378Y024517D01*
X066380Y024500D01*
X066380Y024350D01*
X066330Y024300D01*
X066330Y022400D01*
X066380Y022350D01*
X066380Y022200D01*
X066378Y022183D01*
X066374Y022166D01*
X066367Y022150D01*
X066357Y022136D01*
X066344Y022123D01*
X066330Y022113D01*
X066314Y022106D01*
X066297Y022102D01*
X066280Y022100D01*
X065580Y022100D01*
X065563Y022102D01*
X065546Y022106D01*
X065530Y022113D01*
X065516Y022123D01*
X065503Y022136D01*
X065493Y022150D01*
X065486Y022166D01*
X065482Y022183D01*
X065480Y022200D01*
X065480Y022350D01*
X065275Y021630D02*
X064835Y021630D01*
X064030Y022100D02*
X064030Y022600D01*
X064028Y022626D01*
X064023Y022652D01*
X064015Y022677D01*
X064003Y022700D01*
X063989Y022722D01*
X063971Y022741D01*
X063952Y022759D01*
X063930Y022773D01*
X063907Y022785D01*
X063882Y022793D01*
X063856Y022798D01*
X063830Y022800D01*
X062530Y022800D01*
X062504Y022798D01*
X062478Y022793D01*
X062453Y022785D01*
X062430Y022773D01*
X062408Y022759D01*
X062389Y022741D01*
X062371Y022722D01*
X062357Y022700D01*
X062345Y022677D01*
X062337Y022652D01*
X062332Y022626D01*
X062330Y022600D01*
X062330Y022100D01*
X062332Y022074D01*
X062337Y022048D01*
X062345Y022023D01*
X062357Y022000D01*
X062371Y021978D01*
X062389Y021959D01*
X062408Y021941D01*
X062430Y021927D01*
X062453Y021915D01*
X062478Y021907D01*
X062504Y021902D01*
X062530Y021900D01*
X063830Y021900D01*
X063856Y021902D01*
X063882Y021907D01*
X063907Y021915D01*
X063930Y021927D01*
X063952Y021941D01*
X063971Y021959D01*
X063989Y021978D01*
X064003Y022000D01*
X064015Y022023D01*
X064023Y022048D01*
X064028Y022074D01*
X064030Y022100D01*
X062043Y022195D02*
X061750Y022195D01*
X061750Y021755D01*
X061583Y021755D02*
X061583Y021975D01*
X061509Y022049D01*
X061289Y022049D01*
X061289Y021755D01*
X061122Y021828D02*
X061049Y021755D01*
X060902Y021755D01*
X060829Y021828D01*
X061122Y022122D01*
X061122Y021828D01*
X060829Y021828D02*
X060829Y022122D01*
X060902Y022195D01*
X061049Y022195D01*
X061122Y022122D01*
X061049Y022380D02*
X060902Y022380D01*
X060829Y022453D01*
X060829Y022747D01*
X060902Y022820D01*
X061049Y022820D01*
X061122Y022747D01*
X061289Y022747D02*
X061363Y022820D01*
X061509Y022820D01*
X061583Y022747D01*
X061583Y022674D01*
X061509Y022600D01*
X061583Y022527D01*
X061583Y022453D01*
X061509Y022380D01*
X061363Y022380D01*
X061289Y022453D01*
X061122Y022453D02*
X061049Y022380D01*
X061436Y022600D02*
X061509Y022600D01*
X061750Y022453D02*
X061750Y022747D01*
X061823Y022820D01*
X061970Y022820D01*
X062043Y022747D01*
X061750Y022453D01*
X061823Y022380D01*
X061970Y022380D01*
X062043Y022453D01*
X062043Y022747D01*
X061896Y021975D02*
X061750Y021975D01*
X060662Y021755D02*
X060368Y021755D01*
X060515Y021755D02*
X060515Y022195D01*
X060368Y022049D01*
X059484Y022328D02*
X059484Y022622D01*
X059410Y022695D01*
X059264Y022695D01*
X059190Y022622D01*
X059190Y022549D01*
X059264Y022475D01*
X059484Y022475D01*
X059484Y022328D02*
X059410Y022255D01*
X059264Y022255D01*
X059190Y022328D01*
X059023Y022255D02*
X058730Y022255D01*
X059023Y022549D01*
X059023Y022622D01*
X058950Y022695D01*
X058803Y022695D01*
X058730Y022622D01*
X058563Y022622D02*
X058490Y022695D01*
X058343Y022695D01*
X058269Y022622D01*
X058269Y022328D01*
X058343Y022255D01*
X058490Y022255D01*
X058563Y022328D01*
X058625Y023005D02*
X058625Y023078D01*
X058918Y023372D01*
X058918Y023445D01*
X058625Y023445D01*
X058384Y023445D02*
X058164Y023225D01*
X058458Y023225D01*
X058384Y023005D02*
X058384Y023445D01*
X058280Y023650D02*
X059580Y023650D01*
X059606Y023652D01*
X059632Y023657D01*
X059657Y023665D01*
X059680Y023677D01*
X059702Y023691D01*
X059721Y023709D01*
X059739Y023728D01*
X059753Y023750D01*
X059765Y023773D01*
X059773Y023798D01*
X059778Y023824D01*
X059780Y023850D01*
X059780Y024350D01*
X059778Y024376D01*
X059773Y024402D01*
X059765Y024427D01*
X059753Y024450D01*
X059739Y024472D01*
X059721Y024491D01*
X059702Y024509D01*
X059680Y024523D01*
X059657Y024535D01*
X059632Y024543D01*
X059606Y024548D01*
X059580Y024550D01*
X058280Y024550D01*
X058254Y024548D01*
X058228Y024543D01*
X058203Y024535D01*
X058180Y024523D01*
X058158Y024509D01*
X058139Y024491D01*
X058121Y024472D01*
X058107Y024450D01*
X058095Y024427D01*
X058087Y024402D01*
X058082Y024376D01*
X058080Y024350D01*
X058080Y023850D01*
X058082Y023824D01*
X058087Y023798D01*
X058095Y023773D01*
X058107Y023750D01*
X058121Y023728D01*
X058139Y023709D01*
X058158Y023691D01*
X058180Y023677D01*
X058203Y023665D01*
X058228Y023657D01*
X058254Y023652D01*
X058280Y023650D01*
X059085Y023299D02*
X059305Y023299D01*
X059379Y023225D01*
X059379Y023078D01*
X059305Y023005D01*
X059085Y023005D01*
X059085Y022858D02*
X059085Y023299D01*
X059545Y023225D02*
X059692Y023225D01*
X059545Y023005D02*
X059545Y023445D01*
X059839Y023445D01*
X056680Y023450D02*
X056680Y022750D01*
X056678Y022733D01*
X056674Y022716D01*
X056667Y022700D01*
X056657Y022686D01*
X056644Y022673D01*
X056630Y022663D01*
X056614Y022656D01*
X056597Y022652D01*
X056580Y022650D01*
X056430Y022650D01*
X056380Y022700D01*
X054480Y022700D01*
X054430Y022650D01*
X054280Y022650D01*
X054263Y022652D01*
X054246Y022656D01*
X054230Y022663D01*
X054216Y022673D01*
X054203Y022686D01*
X054193Y022700D01*
X054186Y022716D01*
X054182Y022733D01*
X054180Y022750D01*
X054180Y023450D01*
X054182Y023467D01*
X054186Y023484D01*
X054193Y023500D01*
X054203Y023514D01*
X054216Y023527D01*
X054230Y023537D01*
X054246Y023544D01*
X054263Y023548D01*
X054280Y023550D01*
X054430Y023550D01*
X054480Y023500D01*
X056380Y023500D01*
X056430Y023550D01*
X056580Y023550D01*
X056580Y023650D02*
X056430Y023650D01*
X056380Y023700D01*
X054480Y023700D01*
X054430Y023650D01*
X054280Y023650D01*
X054263Y023652D01*
X054246Y023656D01*
X054230Y023663D01*
X054216Y023673D01*
X054203Y023686D01*
X054193Y023700D01*
X054186Y023716D01*
X054182Y023733D01*
X054180Y023750D01*
X054180Y024450D01*
X054182Y024467D01*
X054186Y024484D01*
X054193Y024500D01*
X054203Y024514D01*
X054216Y024527D01*
X054230Y024537D01*
X054246Y024544D01*
X054263Y024548D01*
X054280Y024550D01*
X054430Y024550D01*
X054480Y024500D01*
X056380Y024500D01*
X056430Y024550D01*
X056580Y024550D01*
X056597Y024548D01*
X056614Y024544D01*
X056630Y024537D01*
X056644Y024527D01*
X056657Y024514D01*
X056667Y024500D01*
X056674Y024484D01*
X056678Y024467D01*
X056680Y024450D01*
X056680Y023750D01*
X056678Y023733D01*
X056674Y023716D01*
X056667Y023700D01*
X056657Y023686D01*
X056644Y023673D01*
X056630Y023663D01*
X056614Y023656D01*
X056597Y023652D01*
X056580Y023650D01*
X056580Y023550D02*
X056597Y023548D01*
X056614Y023544D01*
X056630Y023537D01*
X056644Y023527D01*
X056657Y023514D01*
X056667Y023500D01*
X056674Y023484D01*
X056678Y023467D01*
X056680Y023450D01*
X056074Y023880D02*
X055854Y024027D01*
X056074Y024174D01*
X055854Y024320D02*
X055854Y023880D01*
X055687Y023880D02*
X055393Y023880D01*
X055687Y024174D01*
X055687Y024247D01*
X055613Y024320D01*
X055467Y024320D01*
X055393Y024247D01*
X055236Y023953D02*
X055236Y023880D01*
X055163Y023880D01*
X055163Y023953D01*
X055236Y023953D01*
X054996Y023880D02*
X054703Y023880D01*
X054996Y024174D01*
X054996Y024247D01*
X054923Y024320D01*
X054776Y024320D01*
X054703Y024247D01*
X054430Y024650D02*
X054480Y024700D01*
X056380Y024700D01*
X056430Y024650D01*
X056580Y024650D01*
X056597Y024652D01*
X056614Y024656D01*
X056630Y024663D01*
X056644Y024673D01*
X056657Y024686D01*
X056667Y024700D01*
X056674Y024716D01*
X056678Y024733D01*
X056680Y024750D01*
X056680Y025450D01*
X056678Y025467D01*
X056674Y025484D01*
X056667Y025500D01*
X056657Y025514D01*
X056644Y025527D01*
X056630Y025537D01*
X056614Y025544D01*
X056597Y025548D01*
X056580Y025550D01*
X056430Y025550D01*
X056380Y025500D01*
X054480Y025500D01*
X054430Y025550D01*
X054280Y025550D01*
X054263Y025548D01*
X054246Y025544D01*
X054230Y025537D01*
X054216Y025527D01*
X054203Y025514D01*
X054193Y025500D01*
X054186Y025484D01*
X054182Y025467D01*
X054180Y025450D01*
X054180Y024750D01*
X054182Y024733D01*
X054186Y024716D01*
X054193Y024700D01*
X054203Y024686D01*
X054216Y024673D01*
X054230Y024663D01*
X054246Y024656D01*
X054263Y024652D01*
X054280Y024650D01*
X054430Y024650D01*
X054703Y024880D02*
X054996Y025174D01*
X054996Y025247D01*
X054923Y025320D01*
X054776Y025320D01*
X054703Y025247D01*
X054703Y024880D02*
X054996Y024880D01*
X055163Y024880D02*
X055236Y024880D01*
X055236Y024953D01*
X055163Y024953D01*
X055163Y024880D01*
X055393Y024880D02*
X055687Y025174D01*
X055687Y025247D01*
X055613Y025320D01*
X055467Y025320D01*
X055393Y025247D01*
X055393Y024880D02*
X055687Y024880D01*
X055854Y024880D02*
X055854Y025320D01*
X056074Y025174D02*
X055854Y025027D01*
X056074Y024880D01*
X056430Y025650D02*
X056580Y025650D01*
X056597Y025652D01*
X056614Y025656D01*
X056630Y025663D01*
X056644Y025673D01*
X056657Y025686D01*
X056667Y025700D01*
X056674Y025716D01*
X056678Y025733D01*
X056680Y025750D01*
X056680Y026450D01*
X056678Y026467D01*
X056674Y026484D01*
X056667Y026500D01*
X056657Y026514D01*
X056644Y026527D01*
X056630Y026537D01*
X056614Y026544D01*
X056597Y026548D01*
X056580Y026550D01*
X056430Y026550D01*
X056380Y026500D01*
X054480Y026500D01*
X054430Y026550D01*
X054280Y026550D01*
X054280Y026650D02*
X054430Y026650D01*
X054480Y026700D01*
X056380Y026700D01*
X056430Y026650D01*
X056580Y026650D01*
X056597Y026652D01*
X056614Y026656D01*
X056630Y026663D01*
X056644Y026673D01*
X056657Y026686D01*
X056667Y026700D01*
X056674Y026716D01*
X056678Y026733D01*
X056680Y026750D01*
X056680Y027450D01*
X056678Y027467D01*
X056674Y027484D01*
X056667Y027500D01*
X056657Y027514D01*
X056644Y027527D01*
X056630Y027537D01*
X056614Y027544D01*
X056597Y027548D01*
X056580Y027550D01*
X056430Y027550D01*
X056380Y027500D01*
X054480Y027500D01*
X054430Y027550D01*
X054280Y027550D01*
X054263Y027548D01*
X054246Y027544D01*
X054230Y027537D01*
X054216Y027527D01*
X054203Y027514D01*
X054193Y027500D01*
X054186Y027484D01*
X054182Y027467D01*
X054180Y027450D01*
X054180Y026750D01*
X054182Y026733D01*
X054186Y026716D01*
X054193Y026700D01*
X054203Y026686D01*
X054216Y026673D01*
X054230Y026663D01*
X054246Y026656D01*
X054263Y026652D01*
X054280Y026650D01*
X054280Y026550D02*
X054263Y026548D01*
X054246Y026544D01*
X054230Y026537D01*
X054216Y026527D01*
X054203Y026514D01*
X054193Y026500D01*
X054186Y026484D01*
X054182Y026467D01*
X054180Y026450D01*
X054180Y025750D01*
X054182Y025733D01*
X054186Y025716D01*
X054193Y025700D01*
X054203Y025686D01*
X054216Y025673D01*
X054230Y025663D01*
X054246Y025656D01*
X054263Y025652D01*
X054280Y025650D01*
X054430Y025650D01*
X054480Y025700D01*
X056380Y025700D01*
X056430Y025650D01*
X055533Y025953D02*
X055533Y026247D01*
X055240Y025953D01*
X055313Y025880D01*
X055460Y025880D01*
X055533Y025953D01*
X055240Y025953D02*
X055240Y026247D01*
X055313Y026320D01*
X055460Y026320D01*
X055533Y026247D01*
X055774Y026880D02*
X055700Y026953D01*
X055994Y027247D01*
X055994Y026953D01*
X055920Y026880D01*
X055774Y026880D01*
X055700Y026953D02*
X055700Y027247D01*
X055774Y027320D01*
X055920Y027320D01*
X055994Y027247D01*
X055533Y027247D02*
X055240Y026953D01*
X055240Y026880D01*
X055000Y026880D02*
X055000Y027320D01*
X054779Y027100D01*
X055073Y027100D01*
X055240Y027320D02*
X055533Y027320D01*
X055533Y027247D01*
X056380Y027700D02*
X054480Y027700D01*
X054430Y027650D01*
X054280Y027650D01*
X054263Y027652D01*
X054246Y027656D01*
X054230Y027663D01*
X054216Y027673D01*
X054203Y027686D01*
X054193Y027700D01*
X054186Y027716D01*
X054182Y027733D01*
X054180Y027750D01*
X054180Y028450D01*
X054182Y028467D01*
X054186Y028484D01*
X054193Y028500D01*
X054203Y028514D01*
X054216Y028527D01*
X054230Y028537D01*
X054246Y028544D01*
X054263Y028548D01*
X054280Y028550D01*
X054430Y028550D01*
X054480Y028500D01*
X056380Y028500D01*
X056430Y028550D01*
X056580Y028550D01*
X056597Y028548D01*
X056614Y028544D01*
X056630Y028537D01*
X056644Y028527D01*
X056657Y028514D01*
X056667Y028500D01*
X056674Y028484D01*
X056678Y028467D01*
X056680Y028450D01*
X056680Y027750D01*
X056678Y027733D01*
X056674Y027716D01*
X056667Y027700D01*
X056657Y027686D01*
X056644Y027673D01*
X056630Y027663D01*
X056614Y027656D01*
X056597Y027652D01*
X056580Y027650D01*
X056430Y027650D01*
X056380Y027700D01*
X055994Y027953D02*
X055920Y027880D01*
X055774Y027880D01*
X055700Y027953D01*
X055994Y028247D01*
X055994Y027953D01*
X055700Y027953D02*
X055700Y028247D01*
X055774Y028320D01*
X055920Y028320D01*
X055994Y028247D01*
X055533Y028247D02*
X055240Y027953D01*
X055240Y027880D01*
X055000Y027880D02*
X055000Y028320D01*
X054779Y028100D01*
X055073Y028100D01*
X055240Y028320D02*
X055533Y028320D01*
X055533Y028247D01*
X055774Y028880D02*
X055700Y028953D01*
X055994Y029247D01*
X055994Y028953D01*
X055920Y028880D01*
X055774Y028880D01*
X055700Y028953D02*
X055700Y029247D01*
X055774Y029320D01*
X055920Y029320D01*
X055994Y029247D01*
X055533Y029247D02*
X055240Y028953D01*
X055240Y028880D01*
X055000Y028880D02*
X055000Y029320D01*
X054779Y029100D01*
X055073Y029100D01*
X055240Y029320D02*
X055533Y029320D01*
X055533Y029247D01*
X055533Y029755D02*
X055460Y029828D01*
X055533Y029755D02*
X055680Y029755D01*
X055754Y029828D01*
X055754Y029975D01*
X055680Y030049D01*
X055607Y030049D01*
X055460Y029975D01*
X055460Y030195D01*
X055754Y030195D01*
X055293Y030122D02*
X055293Y029975D01*
X055220Y029902D01*
X055000Y029902D01*
X055146Y029902D02*
X055293Y029755D01*
X055000Y029755D02*
X055000Y030195D01*
X055220Y030195D01*
X055293Y030122D01*
X054480Y029500D02*
X054430Y029550D01*
X054280Y029550D01*
X054263Y029548D01*
X054246Y029544D01*
X054230Y029537D01*
X054216Y029527D01*
X054203Y029514D01*
X054193Y029500D01*
X054186Y029484D01*
X054182Y029467D01*
X054180Y029450D01*
X054180Y028750D01*
X054182Y028733D01*
X054186Y028716D01*
X054193Y028700D01*
X054203Y028686D01*
X054216Y028673D01*
X054230Y028663D01*
X054246Y028656D01*
X054263Y028652D01*
X054280Y028650D01*
X054430Y028650D01*
X054480Y028700D01*
X056380Y028700D01*
X056430Y028650D01*
X056580Y028650D01*
X056597Y028652D01*
X056614Y028656D01*
X056630Y028663D01*
X056644Y028673D01*
X056657Y028686D01*
X056667Y028700D01*
X056674Y028716D01*
X056678Y028733D01*
X056680Y028750D01*
X056680Y029450D01*
X056678Y029467D01*
X056674Y029484D01*
X056667Y029500D01*
X056657Y029514D01*
X056644Y029527D01*
X056630Y029537D01*
X056614Y029544D01*
X056597Y029548D01*
X056580Y029550D01*
X056430Y029550D01*
X056380Y029500D01*
X054480Y029500D01*
X058080Y029350D02*
X058080Y028850D01*
X058082Y028824D01*
X058087Y028798D01*
X058095Y028773D01*
X058107Y028750D01*
X058121Y028728D01*
X058139Y028709D01*
X058158Y028691D01*
X058180Y028677D01*
X058203Y028665D01*
X058228Y028657D01*
X058254Y028652D01*
X058280Y028650D01*
X059580Y028650D01*
X059580Y028550D02*
X058280Y028550D01*
X058254Y028548D01*
X058228Y028543D01*
X058203Y028535D01*
X058180Y028523D01*
X058158Y028509D01*
X058139Y028491D01*
X058121Y028472D01*
X058107Y028450D01*
X058095Y028427D01*
X058087Y028402D01*
X058082Y028376D01*
X058080Y028350D01*
X058080Y027850D01*
X058082Y027824D01*
X058087Y027798D01*
X058095Y027773D01*
X058107Y027750D01*
X058121Y027728D01*
X058139Y027709D01*
X058158Y027691D01*
X058180Y027677D01*
X058203Y027665D01*
X058228Y027657D01*
X058254Y027652D01*
X058280Y027650D01*
X059580Y027650D01*
X059580Y027550D02*
X058280Y027550D01*
X058254Y027548D01*
X058228Y027543D01*
X058203Y027535D01*
X058180Y027523D01*
X058158Y027509D01*
X058139Y027491D01*
X058121Y027472D01*
X058107Y027450D01*
X058095Y027427D01*
X058087Y027402D01*
X058082Y027376D01*
X058080Y027350D01*
X058080Y026850D01*
X058082Y026824D01*
X058087Y026798D01*
X058095Y026773D01*
X058107Y026750D01*
X058121Y026728D01*
X058139Y026709D01*
X058158Y026691D01*
X058180Y026677D01*
X058203Y026665D01*
X058228Y026657D01*
X058254Y026652D01*
X058280Y026650D01*
X059580Y026650D01*
X059580Y026550D02*
X058280Y026550D01*
X058254Y026548D01*
X058228Y026543D01*
X058203Y026535D01*
X058180Y026523D01*
X058158Y026509D01*
X058139Y026491D01*
X058121Y026472D01*
X058107Y026450D01*
X058095Y026427D01*
X058087Y026402D01*
X058082Y026376D01*
X058080Y026350D01*
X058080Y025850D01*
X058082Y025824D01*
X058087Y025798D01*
X058095Y025773D01*
X058107Y025750D01*
X058121Y025728D01*
X058139Y025709D01*
X058158Y025691D01*
X058180Y025677D01*
X058203Y025665D01*
X058228Y025657D01*
X058254Y025652D01*
X058280Y025650D01*
X059580Y025650D01*
X059606Y025652D01*
X059632Y025657D01*
X059657Y025665D01*
X059680Y025677D01*
X059702Y025691D01*
X059721Y025709D01*
X059739Y025728D01*
X059753Y025750D01*
X059765Y025773D01*
X059773Y025798D01*
X059778Y025824D01*
X059780Y025850D01*
X059780Y026350D01*
X059778Y026376D01*
X059773Y026402D01*
X059765Y026427D01*
X059753Y026450D01*
X059739Y026472D01*
X059721Y026491D01*
X059702Y026509D01*
X059680Y026523D01*
X059657Y026535D01*
X059632Y026543D01*
X059606Y026548D01*
X059580Y026550D01*
X059580Y026650D02*
X059606Y026652D01*
X059632Y026657D01*
X059657Y026665D01*
X059680Y026677D01*
X059702Y026691D01*
X059721Y026709D01*
X059739Y026728D01*
X059753Y026750D01*
X059765Y026773D01*
X059773Y026798D01*
X059778Y026824D01*
X059780Y026850D01*
X059780Y027350D01*
X059778Y027376D01*
X059773Y027402D01*
X059765Y027427D01*
X059753Y027450D01*
X059739Y027472D01*
X059721Y027491D01*
X059702Y027509D01*
X059680Y027523D01*
X059657Y027535D01*
X059632Y027543D01*
X059606Y027548D01*
X059580Y027550D01*
X059580Y027650D02*
X059606Y027652D01*
X059632Y027657D01*
X059657Y027665D01*
X059680Y027677D01*
X059702Y027691D01*
X059721Y027709D01*
X059739Y027728D01*
X059753Y027750D01*
X059765Y027773D01*
X059773Y027798D01*
X059778Y027824D01*
X059780Y027850D01*
X059780Y028350D01*
X059778Y028376D01*
X059773Y028402D01*
X059765Y028427D01*
X059753Y028450D01*
X059739Y028472D01*
X059721Y028491D01*
X059702Y028509D01*
X059680Y028523D01*
X059657Y028535D01*
X059632Y028543D01*
X059606Y028548D01*
X059580Y028550D01*
X059580Y028650D02*
X059606Y028652D01*
X059632Y028657D01*
X059657Y028665D01*
X059680Y028677D01*
X059702Y028691D01*
X059721Y028709D01*
X059739Y028728D01*
X059753Y028750D01*
X059765Y028773D01*
X059773Y028798D01*
X059778Y028824D01*
X059780Y028850D01*
X059780Y029350D01*
X059778Y029376D01*
X059773Y029402D01*
X059765Y029427D01*
X059753Y029450D01*
X059739Y029472D01*
X059721Y029491D01*
X059702Y029509D01*
X059680Y029523D01*
X059657Y029535D01*
X059632Y029543D01*
X059606Y029548D01*
X059580Y029550D01*
X058280Y029550D01*
X058254Y029548D01*
X058228Y029543D01*
X058203Y029535D01*
X058180Y029523D01*
X058158Y029509D01*
X058139Y029491D01*
X058121Y029472D01*
X058107Y029450D01*
X058095Y029427D01*
X058087Y029402D01*
X058082Y029376D01*
X058080Y029350D01*
X058343Y029755D02*
X058269Y029828D01*
X058269Y030122D01*
X058343Y030195D01*
X058490Y030195D01*
X058563Y030122D01*
X058730Y030122D02*
X058803Y030195D01*
X058950Y030195D01*
X059023Y030122D01*
X059023Y030049D01*
X058730Y029755D01*
X059023Y029755D01*
X059190Y029828D02*
X059264Y029755D01*
X059410Y029755D01*
X059484Y029828D01*
X059484Y029975D01*
X059410Y030049D01*
X059337Y030049D01*
X059190Y029975D01*
X059190Y030195D01*
X059484Y030195D01*
X058563Y029828D02*
X058490Y029755D01*
X058343Y029755D01*
X062519Y029820D02*
X062519Y029453D01*
X062593Y029380D01*
X062740Y029380D01*
X062813Y029453D01*
X062813Y029820D01*
X062980Y029674D02*
X063127Y029820D01*
X063127Y029380D01*
X063273Y029380D02*
X062980Y029380D01*
X063440Y029453D02*
X063440Y029527D01*
X063514Y029600D01*
X063660Y029600D01*
X063734Y029527D01*
X063734Y029453D01*
X063660Y029380D01*
X063514Y029380D01*
X063440Y029453D01*
X063514Y029600D02*
X063440Y029674D01*
X063440Y029747D01*
X063514Y029820D01*
X063660Y029820D01*
X063734Y029747D01*
X063734Y029674D01*
X063660Y029600D01*
X065460Y029573D02*
X065606Y029426D01*
X065606Y029259D02*
X065680Y029186D01*
X065753Y029259D01*
X065827Y029259D01*
X065900Y029186D01*
X065900Y029039D01*
X065827Y028965D01*
X065827Y028799D02*
X065900Y028725D01*
X065900Y028578D01*
X065827Y028505D01*
X065533Y028505D01*
X065460Y028578D01*
X065460Y028725D01*
X065533Y028799D01*
X065533Y028965D02*
X065460Y029039D01*
X065460Y029186D01*
X065533Y029259D01*
X065606Y029259D01*
X065680Y029186D02*
X065680Y029112D01*
X065900Y029426D02*
X065900Y029719D01*
X065900Y029573D02*
X065460Y029573D01*
X066085Y029886D02*
X066085Y030180D01*
X066305Y030033D02*
X066305Y029886D01*
X066305Y029719D02*
X066525Y029719D01*
X066525Y029886D02*
X066085Y029886D01*
X066305Y029719D02*
X066231Y029646D01*
X066231Y029426D01*
X066525Y029426D01*
X066452Y029259D02*
X066525Y029186D01*
X066525Y029039D01*
X066452Y028965D01*
X066158Y029259D01*
X066452Y029259D01*
X066452Y028965D02*
X066158Y028965D01*
X066085Y029039D01*
X066085Y029186D01*
X066158Y029259D01*
X066525Y028799D02*
X066525Y028505D01*
X066525Y028652D02*
X066085Y028652D01*
X066231Y028505D01*
X066180Y028200D02*
X065680Y028200D01*
X065654Y028198D01*
X065628Y028193D01*
X065603Y028185D01*
X065580Y028173D01*
X065558Y028159D01*
X065539Y028141D01*
X065521Y028122D01*
X065507Y028100D01*
X065495Y028077D01*
X065487Y028052D01*
X065482Y028026D01*
X065480Y028000D01*
X065480Y026700D01*
X065482Y026674D01*
X065487Y026648D01*
X065495Y026623D01*
X065507Y026600D01*
X065521Y026578D01*
X065539Y026559D01*
X065558Y026541D01*
X065580Y026527D01*
X065603Y026515D01*
X065628Y026507D01*
X065654Y026502D01*
X065680Y026500D01*
X066180Y026500D01*
X066206Y026502D01*
X066232Y026507D01*
X066257Y026515D01*
X066280Y026527D01*
X066302Y026541D01*
X066321Y026559D01*
X066339Y026578D01*
X066353Y026600D01*
X066365Y026623D01*
X066373Y026648D01*
X066378Y026674D01*
X066380Y026700D01*
X066380Y028000D01*
X066378Y028026D01*
X066373Y028052D01*
X066365Y028077D01*
X066353Y028100D01*
X066339Y028122D01*
X066321Y028141D01*
X066302Y028159D01*
X066280Y028173D01*
X066257Y028185D01*
X066232Y028193D01*
X066206Y028198D01*
X066180Y028200D01*
X067009Y028630D02*
X067009Y029070D01*
X066789Y028850D01*
X067083Y028850D01*
X067250Y028703D02*
X067250Y028630D01*
X067250Y028703D02*
X067543Y028997D01*
X067543Y029070D01*
X067250Y029070D01*
X067240Y029255D02*
X067093Y029255D01*
X067019Y029328D01*
X067019Y029622D01*
X067093Y029695D01*
X067240Y029695D01*
X067313Y029622D01*
X067480Y029622D02*
X067553Y029695D01*
X067700Y029695D01*
X067773Y029622D01*
X067773Y029549D01*
X067700Y029475D01*
X067773Y029402D01*
X067773Y029328D01*
X067700Y029255D01*
X067553Y029255D01*
X067480Y029328D01*
X067313Y029328D02*
X067240Y029255D01*
X067627Y029475D02*
X067700Y029475D01*
X067940Y029328D02*
X068014Y029255D01*
X068160Y029255D01*
X068234Y029328D01*
X068234Y029402D01*
X068160Y029475D01*
X068087Y029475D01*
X068160Y029475D02*
X068234Y029549D01*
X068234Y029622D01*
X068160Y029695D01*
X068014Y029695D01*
X067940Y029622D01*
X068170Y029070D02*
X068464Y029070D01*
X068317Y028850D02*
X068170Y028850D01*
X068004Y028924D02*
X068004Y028630D01*
X067783Y028630D01*
X067710Y028703D01*
X067710Y028924D01*
X068170Y029070D02*
X068170Y028630D01*
X066580Y027350D02*
X066582Y027416D01*
X066588Y027481D01*
X066598Y027546D01*
X066611Y027611D01*
X066629Y027674D01*
X066650Y027737D01*
X066675Y027797D01*
X066704Y027857D01*
X066736Y027914D01*
X066771Y027970D01*
X066810Y028023D01*
X066852Y028074D01*
X066896Y028122D01*
X066944Y028167D01*
X066994Y028210D01*
X067047Y028249D01*
X067102Y028286D01*
X067159Y028319D01*
X067218Y028348D01*
X067278Y028374D01*
X067340Y028396D01*
X067403Y028415D01*
X067467Y028429D01*
X067532Y028440D01*
X067598Y028447D01*
X067664Y028450D01*
X067729Y028449D01*
X067795Y028444D01*
X067860Y028435D01*
X067925Y028422D01*
X067988Y028406D01*
X068051Y028386D01*
X068112Y028361D01*
X068172Y028334D01*
X068230Y028303D01*
X068286Y028268D01*
X068340Y028230D01*
X068391Y028189D01*
X068440Y028145D01*
X068486Y028098D01*
X068530Y028049D01*
X068570Y027997D01*
X068607Y027942D01*
X068641Y027886D01*
X068671Y027827D01*
X068698Y027767D01*
X068721Y027706D01*
X068740Y027643D01*
X068756Y027579D01*
X068768Y027514D01*
X068776Y027449D01*
X068780Y027383D01*
X068780Y027317D01*
X068776Y027251D01*
X068768Y027186D01*
X068756Y027121D01*
X068740Y027057D01*
X068721Y026994D01*
X068698Y026933D01*
X068671Y026873D01*
X068641Y026814D01*
X068607Y026758D01*
X068570Y026703D01*
X068530Y026651D01*
X068486Y026602D01*
X068440Y026555D01*
X068391Y026511D01*
X068340Y026470D01*
X068286Y026432D01*
X068230Y026397D01*
X068172Y026366D01*
X068112Y026339D01*
X068051Y026314D01*
X067988Y026294D01*
X067925Y026278D01*
X067860Y026265D01*
X067795Y026256D01*
X067729Y026251D01*
X067664Y026250D01*
X067598Y026253D01*
X067532Y026260D01*
X067467Y026271D01*
X067403Y026285D01*
X067340Y026304D01*
X067278Y026326D01*
X067218Y026352D01*
X067159Y026381D01*
X067102Y026414D01*
X067047Y026451D01*
X066994Y026490D01*
X066944Y026533D01*
X066896Y026578D01*
X066852Y026626D01*
X066810Y026677D01*
X066771Y026730D01*
X066736Y026786D01*
X066704Y026843D01*
X066675Y026903D01*
X066650Y026963D01*
X066629Y027026D01*
X066611Y027089D01*
X066598Y027154D01*
X066588Y027219D01*
X066582Y027284D01*
X066580Y027350D01*
X067118Y026850D02*
X067118Y026700D01*
X066968Y026700D01*
X067118Y026700D02*
X067268Y026700D01*
X067118Y026700D02*
X067118Y026550D01*
X066780Y025800D02*
X068080Y025800D01*
X068106Y025798D01*
X068132Y025793D01*
X068157Y025785D01*
X068180Y025773D01*
X068202Y025759D01*
X068221Y025741D01*
X068239Y025722D01*
X068253Y025700D01*
X068265Y025677D01*
X068273Y025652D01*
X068278Y025626D01*
X068280Y025600D01*
X068280Y025100D01*
X068278Y025074D01*
X068273Y025048D01*
X068265Y025023D01*
X068253Y025000D01*
X068239Y024978D01*
X068221Y024959D01*
X068202Y024941D01*
X068180Y024927D01*
X068157Y024915D01*
X068132Y024907D01*
X068106Y024902D01*
X068080Y024900D01*
X066780Y024900D01*
X066754Y024902D01*
X066728Y024907D01*
X066703Y024915D01*
X066680Y024927D01*
X066658Y024941D01*
X066639Y024959D01*
X066621Y024978D01*
X066607Y025000D01*
X066595Y025023D01*
X066587Y025048D01*
X066582Y025074D01*
X066580Y025100D01*
X066580Y025600D01*
X066582Y025626D01*
X066587Y025652D01*
X066595Y025677D01*
X066607Y025700D01*
X066621Y025722D01*
X066639Y025741D01*
X066658Y025759D01*
X066680Y025773D01*
X066703Y025785D01*
X066728Y025793D01*
X066754Y025798D01*
X066780Y025800D01*
X067780Y024800D02*
X067930Y024800D01*
X067980Y024750D01*
X069880Y024750D01*
X069930Y024800D01*
X070080Y024800D01*
X070097Y024798D01*
X070114Y024794D01*
X070130Y024787D01*
X070144Y024777D01*
X070157Y024764D01*
X070167Y024750D01*
X070174Y024734D01*
X070178Y024717D01*
X070180Y024700D01*
X070180Y024000D01*
X070178Y023983D01*
X070174Y023966D01*
X070167Y023950D01*
X070157Y023936D01*
X070144Y023923D01*
X070130Y023913D01*
X070114Y023906D01*
X070097Y023902D01*
X070080Y023900D01*
X069930Y023900D01*
X069880Y023950D01*
X067980Y023950D01*
X067930Y023900D01*
X067780Y023900D01*
X067763Y023902D01*
X067746Y023906D01*
X067730Y023913D01*
X067716Y023923D01*
X067703Y023936D01*
X067693Y023950D01*
X067686Y023966D01*
X067682Y023983D01*
X067680Y024000D01*
X067680Y024700D01*
X067682Y024717D01*
X067686Y024734D01*
X067693Y024750D01*
X067703Y024764D01*
X067716Y024777D01*
X067730Y024787D01*
X067746Y024794D01*
X067763Y024798D01*
X067780Y024800D01*
X068510Y024570D02*
X068803Y024570D01*
X068803Y024497D01*
X068510Y024203D01*
X068510Y024130D01*
X068970Y024203D02*
X069043Y024130D01*
X069190Y024130D01*
X069264Y024203D01*
X069264Y024350D01*
X069190Y024424D01*
X069117Y024424D01*
X068970Y024350D01*
X068970Y024570D01*
X069264Y024570D01*
X069273Y025005D02*
X068980Y025005D01*
X069127Y025005D02*
X069127Y025445D01*
X068980Y025299D01*
X068813Y025372D02*
X068813Y025225D01*
X068740Y025152D01*
X068519Y025152D01*
X068519Y025005D02*
X068519Y025445D01*
X068740Y025445D01*
X068813Y025372D01*
X068666Y025152D02*
X068813Y025005D01*
X069440Y025225D02*
X069734Y025225D01*
X069660Y025005D02*
X069660Y025445D01*
X069440Y025225D01*
X069476Y025755D02*
X069476Y026195D01*
X069256Y025975D01*
X069549Y025975D01*
X069089Y025902D02*
X069089Y025828D01*
X069016Y025755D01*
X068869Y025755D01*
X068795Y025828D01*
X068629Y025828D02*
X068555Y025755D01*
X068408Y025755D01*
X068335Y025828D01*
X068335Y026122D01*
X068408Y026195D01*
X068555Y026195D01*
X068629Y026122D01*
X068795Y026122D02*
X068869Y026195D01*
X069016Y026195D01*
X069089Y026122D01*
X069089Y026049D01*
X069016Y025975D01*
X069089Y025902D01*
X069016Y025975D02*
X068942Y025975D01*
X071585Y026380D02*
X072025Y026380D01*
X072025Y026674D01*
X072025Y026840D02*
X072025Y027134D01*
X072025Y026987D02*
X071585Y026987D01*
X071731Y026840D01*
X071905Y025313D02*
X071905Y025163D01*
X072055Y025163D01*
X071905Y025163D02*
X071905Y025013D01*
X071905Y025163D02*
X071755Y025163D01*
X071455Y024600D02*
X071457Y024666D01*
X071463Y024731D01*
X071473Y024796D01*
X071486Y024861D01*
X071504Y024924D01*
X071525Y024987D01*
X071550Y025047D01*
X071579Y025107D01*
X071611Y025164D01*
X071646Y025220D01*
X071685Y025273D01*
X071727Y025324D01*
X071771Y025372D01*
X071819Y025417D01*
X071869Y025460D01*
X071922Y025499D01*
X071977Y025536D01*
X072034Y025569D01*
X072093Y025598D01*
X072153Y025624D01*
X072215Y025646D01*
X072278Y025665D01*
X072342Y025679D01*
X072407Y025690D01*
X072473Y025697D01*
X072539Y025700D01*
X072604Y025699D01*
X072670Y025694D01*
X072735Y025685D01*
X072800Y025672D01*
X072863Y025656D01*
X072926Y025636D01*
X072987Y025611D01*
X073047Y025584D01*
X073105Y025553D01*
X073161Y025518D01*
X073215Y025480D01*
X073266Y025439D01*
X073315Y025395D01*
X073361Y025348D01*
X073405Y025299D01*
X073445Y025247D01*
X073482Y025192D01*
X073516Y025136D01*
X073546Y025077D01*
X073573Y025017D01*
X073596Y024956D01*
X073615Y024893D01*
X073631Y024829D01*
X073643Y024764D01*
X073651Y024699D01*
X073655Y024633D01*
X073655Y024567D01*
X073651Y024501D01*
X073643Y024436D01*
X073631Y024371D01*
X073615Y024307D01*
X073596Y024244D01*
X073573Y024183D01*
X073546Y024123D01*
X073516Y024064D01*
X073482Y024008D01*
X073445Y023953D01*
X073405Y023901D01*
X073361Y023852D01*
X073315Y023805D01*
X073266Y023761D01*
X073215Y023720D01*
X073161Y023682D01*
X073105Y023647D01*
X073047Y023616D01*
X072987Y023589D01*
X072926Y023564D01*
X072863Y023544D01*
X072800Y023528D01*
X072735Y023515D01*
X072670Y023506D01*
X072604Y023501D01*
X072539Y023500D01*
X072473Y023503D01*
X072407Y023510D01*
X072342Y023521D01*
X072278Y023535D01*
X072215Y023554D01*
X072153Y023576D01*
X072093Y023602D01*
X072034Y023631D01*
X071977Y023664D01*
X071922Y023701D01*
X071869Y023740D01*
X071819Y023783D01*
X071771Y023828D01*
X071727Y023876D01*
X071685Y023927D01*
X071646Y023980D01*
X071611Y024036D01*
X071579Y024093D01*
X071550Y024153D01*
X071525Y024213D01*
X071504Y024276D01*
X071486Y024339D01*
X071473Y024404D01*
X071463Y024469D01*
X071457Y024534D01*
X071455Y024600D01*
X070180Y023700D02*
X070180Y023000D01*
X070178Y022983D01*
X070174Y022966D01*
X070167Y022950D01*
X070157Y022936D01*
X070144Y022923D01*
X070130Y022913D01*
X070114Y022906D01*
X070097Y022902D01*
X070080Y022900D01*
X069930Y022900D01*
X069880Y022950D01*
X067980Y022950D01*
X067930Y022900D01*
X067780Y022900D01*
X067763Y022902D01*
X067746Y022906D01*
X067730Y022913D01*
X067716Y022923D01*
X067703Y022936D01*
X067693Y022950D01*
X067686Y022966D01*
X067682Y022983D01*
X067680Y023000D01*
X067680Y023700D01*
X067682Y023717D01*
X067686Y023734D01*
X067693Y023750D01*
X067703Y023764D01*
X067716Y023777D01*
X067730Y023787D01*
X067746Y023794D01*
X067763Y023798D01*
X067780Y023800D01*
X067930Y023800D01*
X067980Y023750D01*
X069880Y023750D01*
X069930Y023800D01*
X070080Y023800D01*
X070097Y023798D01*
X070114Y023794D01*
X070130Y023787D01*
X070144Y023777D01*
X070157Y023764D01*
X070167Y023750D01*
X070174Y023734D01*
X070178Y023717D01*
X070180Y023700D01*
X069264Y023570D02*
X068970Y023570D01*
X068970Y023350D01*
X069117Y023424D01*
X069190Y023424D01*
X069264Y023350D01*
X069264Y023203D01*
X069190Y023130D01*
X069043Y023130D01*
X068970Y023203D01*
X068803Y023497D02*
X068510Y023203D01*
X068510Y023130D01*
X068510Y023570D02*
X068803Y023570D01*
X068803Y023497D01*
X067980Y022750D02*
X069880Y022750D01*
X069930Y022800D01*
X070080Y022800D01*
X070097Y022798D01*
X070114Y022794D01*
X070130Y022787D01*
X070144Y022777D01*
X070157Y022764D01*
X070167Y022750D01*
X070174Y022734D01*
X070178Y022717D01*
X070180Y022700D01*
X070180Y022000D01*
X070178Y021983D01*
X070174Y021966D01*
X070167Y021950D01*
X070157Y021936D01*
X070144Y021923D01*
X070130Y021913D01*
X070114Y021906D01*
X070097Y021902D01*
X070080Y021900D01*
X069930Y021900D01*
X069880Y021950D01*
X067980Y021950D01*
X067930Y021900D01*
X067780Y021900D01*
X067763Y021902D01*
X067746Y021906D01*
X067730Y021913D01*
X067716Y021923D01*
X067703Y021936D01*
X067693Y021950D01*
X067686Y021966D01*
X067682Y021983D01*
X067680Y022000D01*
X067680Y022700D01*
X067682Y022717D01*
X067686Y022734D01*
X067693Y022750D01*
X067703Y022764D01*
X067716Y022777D01*
X067730Y022787D01*
X067746Y022794D01*
X067763Y022798D01*
X067780Y022800D01*
X067930Y022800D01*
X067980Y022750D01*
X068510Y022350D02*
X068803Y022350D01*
X068970Y022203D02*
X069043Y022130D01*
X069190Y022130D01*
X069264Y022203D01*
X069264Y022277D01*
X069190Y022350D01*
X069117Y022350D01*
X069190Y022350D02*
X069264Y022424D01*
X069264Y022497D01*
X069190Y022570D01*
X069043Y022570D01*
X068970Y022497D01*
X068730Y022570D02*
X068730Y022130D01*
X068510Y022350D02*
X068730Y022570D01*
X067930Y021800D02*
X067980Y021750D01*
X069880Y021750D01*
X069930Y021800D01*
X070080Y021800D01*
X070097Y021798D01*
X070114Y021794D01*
X070130Y021787D01*
X070144Y021777D01*
X070157Y021764D01*
X070167Y021750D01*
X070174Y021734D01*
X070178Y021717D01*
X070180Y021700D01*
X070180Y021000D01*
X070178Y020983D01*
X070174Y020966D01*
X070167Y020950D01*
X070157Y020936D01*
X070144Y020923D01*
X070130Y020913D01*
X070114Y020906D01*
X070097Y020902D01*
X070080Y020900D01*
X069930Y020900D01*
X069880Y020950D01*
X067980Y020950D01*
X067930Y020900D01*
X067780Y020900D01*
X067763Y020902D01*
X067746Y020906D01*
X067730Y020913D01*
X067716Y020923D01*
X067703Y020936D01*
X067693Y020950D01*
X067686Y020966D01*
X067682Y020983D01*
X067680Y021000D01*
X067680Y021700D01*
X067682Y021717D01*
X067686Y021734D01*
X067693Y021750D01*
X067703Y021764D01*
X067716Y021777D01*
X067730Y021787D01*
X067746Y021794D01*
X067763Y021798D01*
X067780Y021800D01*
X067930Y021800D01*
X068179Y021497D02*
X068253Y021570D01*
X068400Y021570D01*
X068473Y021497D01*
X068473Y021424D01*
X068179Y021130D01*
X068473Y021130D01*
X068640Y021350D02*
X068933Y021350D01*
X069100Y021203D02*
X069394Y021497D01*
X069394Y021203D01*
X069320Y021130D01*
X069174Y021130D01*
X069100Y021203D01*
X069100Y021497D01*
X069174Y021570D01*
X069320Y021570D01*
X069394Y021497D01*
X068860Y021570D02*
X068860Y021130D01*
X068640Y021350D02*
X068860Y021570D01*
X068877Y020695D02*
X068877Y020255D01*
X069023Y020255D02*
X068730Y020255D01*
X068563Y020255D02*
X068416Y020402D01*
X068490Y020402D02*
X068269Y020402D01*
X068269Y020255D02*
X068269Y020695D01*
X068490Y020695D01*
X068563Y020622D01*
X068563Y020475D01*
X068490Y020402D01*
X068730Y020549D02*
X068877Y020695D01*
X069190Y020695D02*
X069484Y020695D01*
X069484Y020622D01*
X069190Y020328D01*
X069190Y020255D01*
X071755Y020413D02*
X071905Y020413D01*
X071905Y020563D01*
X071905Y020413D02*
X072055Y020413D01*
X071905Y020413D02*
X071905Y020263D01*
X071455Y019850D02*
X071457Y019916D01*
X071463Y019981D01*
X071473Y020046D01*
X071486Y020111D01*
X071504Y020174D01*
X071525Y020237D01*
X071550Y020297D01*
X071579Y020357D01*
X071611Y020414D01*
X071646Y020470D01*
X071685Y020523D01*
X071727Y020574D01*
X071771Y020622D01*
X071819Y020667D01*
X071869Y020710D01*
X071922Y020749D01*
X071977Y020786D01*
X072034Y020819D01*
X072093Y020848D01*
X072153Y020874D01*
X072215Y020896D01*
X072278Y020915D01*
X072342Y020929D01*
X072407Y020940D01*
X072473Y020947D01*
X072539Y020950D01*
X072604Y020949D01*
X072670Y020944D01*
X072735Y020935D01*
X072800Y020922D01*
X072863Y020906D01*
X072926Y020886D01*
X072987Y020861D01*
X073047Y020834D01*
X073105Y020803D01*
X073161Y020768D01*
X073215Y020730D01*
X073266Y020689D01*
X073315Y020645D01*
X073361Y020598D01*
X073405Y020549D01*
X073445Y020497D01*
X073482Y020442D01*
X073516Y020386D01*
X073546Y020327D01*
X073573Y020267D01*
X073596Y020206D01*
X073615Y020143D01*
X073631Y020079D01*
X073643Y020014D01*
X073651Y019949D01*
X073655Y019883D01*
X073655Y019817D01*
X073651Y019751D01*
X073643Y019686D01*
X073631Y019621D01*
X073615Y019557D01*
X073596Y019494D01*
X073573Y019433D01*
X073546Y019373D01*
X073516Y019314D01*
X073482Y019258D01*
X073445Y019203D01*
X073405Y019151D01*
X073361Y019102D01*
X073315Y019055D01*
X073266Y019011D01*
X073215Y018970D01*
X073161Y018932D01*
X073105Y018897D01*
X073047Y018866D01*
X072987Y018839D01*
X072926Y018814D01*
X072863Y018794D01*
X072800Y018778D01*
X072735Y018765D01*
X072670Y018756D01*
X072604Y018751D01*
X072539Y018750D01*
X072473Y018753D01*
X072407Y018760D01*
X072342Y018771D01*
X072278Y018785D01*
X072215Y018804D01*
X072153Y018826D01*
X072093Y018852D01*
X072034Y018881D01*
X071977Y018914D01*
X071922Y018951D01*
X071869Y018990D01*
X071819Y019033D01*
X071771Y019078D01*
X071727Y019126D01*
X071685Y019177D01*
X071646Y019230D01*
X071611Y019286D01*
X071579Y019343D01*
X071550Y019403D01*
X071525Y019463D01*
X071504Y019526D01*
X071486Y019589D01*
X071473Y019654D01*
X071463Y019719D01*
X071457Y019784D01*
X071455Y019850D01*
X073835Y019870D02*
X073908Y019943D01*
X073981Y019943D01*
X074055Y019870D01*
X074128Y019943D01*
X074202Y019943D01*
X074275Y019870D01*
X074275Y019723D01*
X074202Y019650D01*
X074202Y019483D02*
X074275Y019410D01*
X074275Y019263D01*
X074202Y019189D01*
X073908Y019189D01*
X073835Y019263D01*
X073835Y019410D01*
X073908Y019483D01*
X073908Y019650D02*
X073835Y019723D01*
X073835Y019870D01*
X074055Y019870D02*
X074055Y019797D01*
X074202Y020110D02*
X074275Y020110D01*
X074202Y020110D02*
X073908Y020404D01*
X073835Y020404D01*
X073835Y020110D01*
X074460Y019870D02*
X074533Y019943D01*
X074827Y019650D01*
X074900Y019723D01*
X074900Y019870D01*
X074827Y019943D01*
X074533Y019943D01*
X074460Y019870D02*
X074460Y019723D01*
X074533Y019650D01*
X074827Y019650D01*
X074900Y019483D02*
X074900Y019189D01*
X074606Y019483D01*
X074533Y019483D01*
X074460Y019410D01*
X074460Y019263D01*
X074533Y019189D01*
X074533Y019023D02*
X074460Y018949D01*
X074460Y018802D01*
X074533Y018729D01*
X074533Y019023D02*
X074606Y019023D01*
X074900Y018729D01*
X074900Y019023D01*
X074827Y020110D02*
X074900Y020184D01*
X074900Y020404D01*
X074606Y020404D01*
X074680Y020571D02*
X074680Y020717D01*
X074900Y020571D02*
X074460Y020571D01*
X074460Y020864D01*
X074533Y021104D02*
X074460Y021177D01*
X074460Y021324D01*
X074533Y021398D01*
X074606Y021398D01*
X074900Y021104D01*
X074900Y021398D01*
X074900Y021564D02*
X074606Y021858D01*
X074533Y021858D01*
X074460Y021785D01*
X074460Y021638D01*
X074533Y021564D01*
X074275Y021638D02*
X074275Y021785D01*
X074202Y021858D01*
X074202Y022025D02*
X074275Y022098D01*
X074275Y022245D01*
X074202Y022318D01*
X074128Y022318D01*
X074055Y022245D01*
X074055Y022172D01*
X074055Y022245D02*
X073981Y022318D01*
X073908Y022318D01*
X073835Y022245D01*
X073835Y022098D01*
X073908Y022025D01*
X073908Y021858D02*
X073835Y021785D01*
X073835Y021638D01*
X073908Y021564D01*
X074202Y021564D01*
X074275Y021638D01*
X074533Y022025D02*
X074460Y022098D01*
X074460Y022245D01*
X074533Y022318D01*
X074827Y022025D01*
X074900Y022098D01*
X074900Y022245D01*
X074827Y022318D01*
X074533Y022318D01*
X074606Y022485D02*
X074827Y022485D01*
X074900Y022559D01*
X074900Y022779D01*
X074606Y022779D01*
X074680Y022946D02*
X074680Y023092D01*
X074900Y022946D02*
X074460Y022946D01*
X074460Y023239D01*
X074533Y023479D02*
X074460Y023552D01*
X074460Y023699D01*
X074533Y023773D01*
X074606Y023773D01*
X074900Y023479D01*
X074900Y023773D01*
X074900Y023939D02*
X074606Y024233D01*
X074533Y024233D01*
X074460Y024160D01*
X074460Y024013D01*
X074533Y023939D01*
X074275Y024013D02*
X074275Y024160D01*
X074202Y024233D01*
X074202Y024400D02*
X074275Y024473D01*
X074275Y024620D01*
X074202Y024693D01*
X074128Y024693D01*
X074055Y024620D01*
X074055Y024547D01*
X074055Y024620D02*
X073981Y024693D01*
X073908Y024693D01*
X073835Y024620D01*
X073835Y024473D01*
X073908Y024400D01*
X073908Y024233D02*
X073835Y024160D01*
X073835Y024013D01*
X073908Y023939D01*
X074202Y023939D01*
X074275Y024013D01*
X074533Y024400D02*
X074460Y024473D01*
X074460Y024620D01*
X074533Y024693D01*
X074827Y024400D01*
X074900Y024473D01*
X074900Y024620D01*
X074827Y024693D01*
X074533Y024693D01*
X074606Y024860D02*
X074827Y024860D01*
X074900Y024934D01*
X074900Y025154D01*
X074606Y025154D01*
X074680Y025321D02*
X074680Y025467D01*
X074900Y025321D02*
X074460Y025321D01*
X074460Y025614D01*
X074202Y025154D02*
X074275Y025080D01*
X074275Y024934D01*
X074202Y024860D01*
X074055Y024860D02*
X073981Y025007D01*
X073981Y025080D01*
X074055Y025154D01*
X074202Y025154D01*
X074055Y024860D02*
X073835Y024860D01*
X073835Y025154D01*
X074533Y024400D02*
X074827Y024400D01*
X074900Y024233D02*
X074900Y023939D01*
X074202Y022779D02*
X074128Y022779D01*
X074055Y022705D01*
X074055Y022485D01*
X074202Y022485D01*
X074275Y022559D01*
X074275Y022705D01*
X074202Y022779D01*
X073908Y022632D02*
X074055Y022485D01*
X073908Y022632D02*
X073835Y022779D01*
X071455Y022225D02*
X071457Y022291D01*
X071463Y022356D01*
X071473Y022421D01*
X071486Y022486D01*
X071504Y022549D01*
X071525Y022612D01*
X071550Y022672D01*
X071579Y022732D01*
X071611Y022789D01*
X071646Y022845D01*
X071685Y022898D01*
X071727Y022949D01*
X071771Y022997D01*
X071819Y023042D01*
X071869Y023085D01*
X071922Y023124D01*
X071977Y023161D01*
X072034Y023194D01*
X072093Y023223D01*
X072153Y023249D01*
X072215Y023271D01*
X072278Y023290D01*
X072342Y023304D01*
X072407Y023315D01*
X072473Y023322D01*
X072539Y023325D01*
X072604Y023324D01*
X072670Y023319D01*
X072735Y023310D01*
X072800Y023297D01*
X072863Y023281D01*
X072926Y023261D01*
X072987Y023236D01*
X073047Y023209D01*
X073105Y023178D01*
X073161Y023143D01*
X073215Y023105D01*
X073266Y023064D01*
X073315Y023020D01*
X073361Y022973D01*
X073405Y022924D01*
X073445Y022872D01*
X073482Y022817D01*
X073516Y022761D01*
X073546Y022702D01*
X073573Y022642D01*
X073596Y022581D01*
X073615Y022518D01*
X073631Y022454D01*
X073643Y022389D01*
X073651Y022324D01*
X073655Y022258D01*
X073655Y022192D01*
X073651Y022126D01*
X073643Y022061D01*
X073631Y021996D01*
X073615Y021932D01*
X073596Y021869D01*
X073573Y021808D01*
X073546Y021748D01*
X073516Y021689D01*
X073482Y021633D01*
X073445Y021578D01*
X073405Y021526D01*
X073361Y021477D01*
X073315Y021430D01*
X073266Y021386D01*
X073215Y021345D01*
X073161Y021307D01*
X073105Y021272D01*
X073047Y021241D01*
X072987Y021214D01*
X072926Y021189D01*
X072863Y021169D01*
X072800Y021153D01*
X072735Y021140D01*
X072670Y021131D01*
X072604Y021126D01*
X072539Y021125D01*
X072473Y021128D01*
X072407Y021135D01*
X072342Y021146D01*
X072278Y021160D01*
X072215Y021179D01*
X072153Y021201D01*
X072093Y021227D01*
X072034Y021256D01*
X071977Y021289D01*
X071922Y021326D01*
X071869Y021365D01*
X071819Y021408D01*
X071771Y021453D01*
X071727Y021501D01*
X071685Y021552D01*
X071646Y021605D01*
X071611Y021661D01*
X071579Y021718D01*
X071550Y021778D01*
X071525Y021838D01*
X071504Y021901D01*
X071486Y021964D01*
X071473Y022029D01*
X071463Y022094D01*
X071457Y022159D01*
X071455Y022225D01*
X071905Y022638D02*
X071905Y022788D01*
X071905Y022938D01*
X071905Y022788D02*
X072055Y022788D01*
X071905Y022788D02*
X071755Y022788D01*
X074533Y022025D02*
X074827Y022025D01*
X074900Y021858D02*
X074900Y021564D01*
X074827Y020110D02*
X074606Y020110D01*
X075408Y015259D02*
X075335Y015186D01*
X075335Y015039D01*
X075408Y014965D01*
X075335Y014799D02*
X075335Y014652D01*
X075335Y014725D02*
X075702Y014725D01*
X075775Y014652D01*
X075775Y014578D01*
X075702Y014505D01*
X075775Y014965D02*
X075481Y015259D01*
X075408Y015259D01*
X075775Y015259D02*
X075775Y014965D01*
X064900Y019929D02*
X064460Y019929D01*
X056680Y021750D02*
X056680Y022450D01*
X056678Y022467D01*
X056674Y022484D01*
X056667Y022500D01*
X056657Y022514D01*
X056644Y022527D01*
X056630Y022537D01*
X056614Y022544D01*
X056597Y022548D01*
X056580Y022550D01*
X056430Y022550D01*
X056380Y022500D01*
X054480Y022500D01*
X054430Y022550D01*
X054280Y022550D01*
X054263Y022548D01*
X054246Y022544D01*
X054230Y022537D01*
X054216Y022527D01*
X054203Y022514D01*
X054193Y022500D01*
X054186Y022484D01*
X054182Y022467D01*
X054180Y022450D01*
X054180Y021750D01*
X054182Y021733D01*
X054186Y021716D01*
X054193Y021700D01*
X054203Y021686D01*
X054216Y021673D01*
X054230Y021663D01*
X054246Y021656D01*
X054263Y021652D01*
X054280Y021650D01*
X054430Y021650D01*
X054480Y021700D01*
X056380Y021700D01*
X056430Y021650D01*
X056580Y021650D01*
X056597Y021652D01*
X056614Y021656D01*
X056630Y021663D01*
X056644Y021673D01*
X056657Y021686D01*
X056667Y021700D01*
X056674Y021716D01*
X056678Y021733D01*
X056680Y021750D01*
X056074Y021880D02*
X055854Y022027D01*
X056074Y022174D01*
X055854Y022320D02*
X055854Y021880D01*
X055687Y021880D02*
X055393Y021880D01*
X055687Y022174D01*
X055687Y022247D01*
X055613Y022320D01*
X055467Y022320D01*
X055393Y022247D01*
X055236Y021953D02*
X055236Y021880D01*
X055163Y021880D01*
X055163Y021953D01*
X055236Y021953D01*
X054996Y021880D02*
X054703Y021880D01*
X054996Y022174D01*
X054996Y022247D01*
X054923Y022320D01*
X054776Y022320D01*
X054703Y022247D01*
X055293Y022880D02*
X055220Y022953D01*
X055513Y023247D01*
X055513Y022953D01*
X055440Y022880D01*
X055293Y022880D01*
X055220Y022953D02*
X055220Y023247D01*
X055293Y023320D01*
X055440Y023320D01*
X055513Y023247D01*
X055377Y021445D02*
X055377Y021005D01*
X055523Y021005D02*
X055230Y021005D01*
X055063Y021005D02*
X054916Y021152D01*
X054990Y021152D02*
X054769Y021152D01*
X054769Y021005D02*
X054769Y021445D01*
X054990Y021445D01*
X055063Y021372D01*
X055063Y021225D01*
X054990Y021152D01*
X055230Y021299D02*
X055377Y021445D01*
X055690Y021372D02*
X055764Y021445D01*
X055910Y021445D01*
X055984Y021372D01*
X055984Y021299D01*
X055690Y021005D01*
X055984Y021005D01*
X062960Y024592D02*
X063033Y024519D01*
X063327Y024519D01*
X063400Y024592D01*
X063400Y024739D01*
X063327Y024812D01*
X063400Y024979D02*
X062960Y025273D01*
X063106Y025439D02*
X062960Y025586D01*
X063106Y025733D01*
X063400Y025733D01*
X063400Y025900D02*
X063106Y026193D01*
X063033Y026193D01*
X062960Y026120D01*
X062960Y025973D01*
X063033Y025900D01*
X063180Y025733D02*
X063180Y025439D01*
X063106Y025439D02*
X063400Y025439D01*
X063400Y025273D02*
X062960Y024979D01*
X063033Y024812D02*
X062960Y024739D01*
X062960Y024592D01*
X063400Y025900D02*
X063400Y026193D01*
X063327Y026360D02*
X063033Y026654D01*
X063327Y026654D01*
X063400Y026580D01*
X063400Y026434D01*
X063327Y026360D01*
X063033Y026360D01*
X062960Y026434D01*
X062960Y026580D01*
X063033Y026654D01*
X062960Y026821D02*
X062960Y027114D01*
X063033Y027114D01*
X063327Y026821D01*
X063400Y026821D01*
X063327Y027281D02*
X063400Y027354D01*
X063400Y027501D01*
X063327Y027575D01*
X063180Y027575D01*
X063106Y027501D01*
X063106Y027428D01*
X063180Y027281D01*
X062960Y027281D01*
X062960Y027575D01*
X059484Y025445D02*
X059190Y025445D01*
X059190Y025005D01*
X059023Y025078D02*
X058950Y025005D01*
X058730Y025005D01*
X058730Y024858D02*
X058730Y025299D01*
X058950Y025299D01*
X059023Y025225D01*
X059023Y025078D01*
X059190Y025225D02*
X059337Y025225D01*
X058563Y025225D02*
X058563Y025078D01*
X058490Y025005D01*
X058343Y025005D01*
X058269Y025078D01*
X058269Y025225D02*
X058416Y025299D01*
X058490Y025299D01*
X058563Y025225D01*
X058563Y025445D02*
X058269Y025445D01*
X058269Y025225D01*
X048880Y026825D02*
X048880Y026975D01*
X048830Y027025D01*
X048830Y028925D01*
X048880Y028975D01*
X048880Y029125D01*
X048878Y029142D01*
X048874Y029159D01*
X048867Y029175D01*
X048857Y029189D01*
X048844Y029202D01*
X048830Y029212D01*
X048814Y029219D01*
X048797Y029223D01*
X048780Y029225D01*
X048080Y029225D01*
X048063Y029223D01*
X048046Y029219D01*
X048030Y029212D01*
X048016Y029202D01*
X048003Y029189D01*
X047993Y029175D01*
X047986Y029159D01*
X047982Y029142D01*
X047980Y029125D01*
X047980Y028975D01*
X048030Y028925D01*
X048030Y027025D01*
X047980Y026975D01*
X047980Y026825D01*
X047982Y026808D01*
X047986Y026791D01*
X047993Y026775D01*
X048003Y026761D01*
X048016Y026748D01*
X048030Y026738D01*
X048046Y026731D01*
X048063Y026727D01*
X048080Y026725D01*
X048780Y026725D01*
X048797Y026727D01*
X048814Y026731D01*
X048830Y026738D01*
X048844Y026748D01*
X048857Y026761D01*
X048867Y026775D01*
X048874Y026791D01*
X048878Y026808D01*
X048880Y026825D01*
X048577Y027238D02*
X048650Y027311D01*
X048650Y027458D01*
X048577Y027531D01*
X048503Y027531D01*
X048430Y027458D01*
X048430Y027384D01*
X048430Y027458D02*
X048356Y027531D01*
X048283Y027531D01*
X048210Y027458D01*
X048210Y027311D01*
X048283Y027238D01*
X048577Y027698D02*
X048577Y027771D01*
X048650Y027771D01*
X048650Y027698D01*
X048577Y027698D01*
X048577Y027928D02*
X048650Y028002D01*
X048650Y028148D01*
X048577Y028222D01*
X048503Y028222D01*
X048430Y028148D01*
X048430Y028075D01*
X048430Y028148D02*
X048356Y028222D01*
X048283Y028222D01*
X048210Y028148D01*
X048210Y028002D01*
X048283Y027928D01*
X048210Y028389D02*
X048650Y028389D01*
X048503Y028389D02*
X048650Y028609D01*
X048503Y028389D02*
X048356Y028609D01*
X048210Y030539D02*
X048210Y030760D01*
X048283Y030833D01*
X048430Y030833D01*
X048503Y030760D01*
X048503Y030539D01*
X048650Y030539D02*
X048210Y030539D01*
X048503Y030686D02*
X048650Y030833D01*
X048650Y031000D02*
X048650Y031293D01*
X048650Y031147D02*
X048210Y031147D01*
X048356Y031000D01*
X048356Y031460D02*
X048283Y031460D01*
X048210Y031534D01*
X048210Y031680D01*
X048283Y031754D01*
X048356Y031754D01*
X048430Y031680D01*
X048430Y031534D01*
X048356Y031460D01*
X048430Y031534D02*
X048503Y031460D01*
X048577Y031460D01*
X048650Y031534D01*
X048650Y031680D01*
X048577Y031754D01*
X048503Y031754D01*
X048430Y031680D01*
X046879Y030850D02*
X046585Y030850D01*
X046805Y031070D01*
X046805Y030630D01*
X046345Y030703D02*
X046345Y031070D01*
X046418Y031070D02*
X046271Y031070D01*
X046345Y030703D02*
X046271Y030630D01*
X046198Y030630D01*
X046125Y030703D01*
X045650Y031188D02*
X045650Y031335D01*
X045577Y031408D01*
X045650Y031575D02*
X045650Y031868D01*
X045650Y031722D02*
X045210Y031722D01*
X045356Y031575D01*
X045283Y031408D02*
X045210Y031335D01*
X045210Y031188D01*
X045283Y031114D01*
X045577Y031114D01*
X045650Y031188D01*
X045005Y031125D02*
X045005Y032425D01*
X045003Y032451D01*
X044998Y032477D01*
X044990Y032502D01*
X044978Y032525D01*
X044964Y032547D01*
X044946Y032566D01*
X044927Y032584D01*
X044905Y032598D01*
X044882Y032610D01*
X044857Y032618D01*
X044831Y032623D01*
X044805Y032625D01*
X044305Y032625D01*
X044279Y032623D01*
X044253Y032618D01*
X044228Y032610D01*
X044205Y032598D01*
X044183Y032584D01*
X044164Y032566D01*
X044146Y032547D01*
X044132Y032525D01*
X044120Y032502D01*
X044112Y032477D01*
X044107Y032451D01*
X044105Y032425D01*
X044105Y031125D01*
X044107Y031099D01*
X044112Y031073D01*
X044120Y031048D01*
X044132Y031025D01*
X044146Y031003D01*
X044164Y030984D01*
X044183Y030966D01*
X044205Y030952D01*
X044228Y030940D01*
X044253Y030932D01*
X044279Y030927D01*
X044305Y030925D01*
X044805Y030925D01*
X044831Y030927D01*
X044857Y030932D01*
X044882Y030940D01*
X044905Y030952D01*
X044927Y030966D01*
X044946Y030984D01*
X044964Y031003D01*
X044978Y031025D01*
X044990Y031048D01*
X044998Y031073D01*
X045003Y031099D01*
X045005Y031125D01*
X045283Y032035D02*
X045356Y032035D01*
X045430Y032109D01*
X045430Y032255D01*
X045503Y032329D01*
X045577Y032329D01*
X045650Y032255D01*
X045650Y032109D01*
X045577Y032035D01*
X045503Y032035D01*
X045430Y032109D01*
X045430Y032255D02*
X045356Y032329D01*
X045283Y032329D01*
X045210Y032255D01*
X045210Y032109D01*
X045283Y032035D01*
X042347Y030985D02*
X042291Y031040D01*
X042347Y030985D02*
X042347Y030873D01*
X042291Y030818D01*
X042069Y030818D01*
X042013Y030873D01*
X042013Y030985D01*
X042069Y031040D01*
X042347Y030678D02*
X042347Y030455D01*
X042013Y030455D01*
X042013Y030315D02*
X042013Y030204D01*
X042013Y030260D02*
X042291Y030260D01*
X042347Y030204D01*
X042347Y030148D01*
X042291Y030093D01*
X042291Y029953D02*
X042347Y029897D01*
X042347Y029786D01*
X042291Y029730D01*
X042069Y029730D01*
X042013Y029786D01*
X042013Y029897D01*
X042069Y029953D01*
X042347Y029590D02*
X042347Y029368D01*
X042013Y029368D01*
X042013Y029228D02*
X042013Y029116D01*
X042013Y029172D02*
X042291Y029172D01*
X042347Y029116D01*
X042347Y029061D01*
X042291Y029005D01*
X042291Y028865D02*
X042347Y028809D01*
X042347Y028698D01*
X042291Y028642D01*
X042069Y028642D01*
X042013Y028698D01*
X042013Y028809D01*
X042069Y028865D01*
X042347Y028503D02*
X042347Y028280D01*
X042013Y028280D01*
X042013Y028140D02*
X042013Y028029D01*
X042013Y028084D02*
X042291Y028084D01*
X042347Y028029D01*
X042347Y027973D01*
X042291Y027917D01*
X042291Y027778D02*
X042347Y027722D01*
X042347Y027611D01*
X042291Y027555D01*
X042069Y027555D01*
X042013Y027611D01*
X042013Y027722D01*
X042069Y027778D01*
X042347Y027415D02*
X042347Y027192D01*
X042013Y027192D01*
X042013Y027053D02*
X042013Y026941D01*
X042013Y026997D02*
X042291Y026997D01*
X042347Y026941D01*
X042347Y026886D01*
X042291Y026830D01*
X039900Y028001D02*
X039753Y028148D01*
X039460Y028148D01*
X039533Y028314D02*
X039606Y028314D01*
X039680Y028388D01*
X039680Y028608D01*
X039827Y028608D02*
X039533Y028608D01*
X039460Y028535D01*
X039460Y028388D01*
X039533Y028314D01*
X039827Y028314D02*
X039900Y028388D01*
X039900Y028535D01*
X039827Y028608D01*
X039827Y028775D02*
X039900Y028848D01*
X039900Y028995D01*
X039827Y029068D01*
X039533Y029068D01*
X039460Y028995D01*
X039460Y028848D01*
X039533Y028775D01*
X039606Y028775D01*
X039680Y028848D01*
X039680Y029068D01*
X039680Y029235D02*
X039606Y029382D01*
X039606Y029455D01*
X039680Y029529D01*
X039827Y029529D01*
X039900Y029455D01*
X039900Y029309D01*
X039827Y029235D01*
X039680Y029235D02*
X039460Y029235D01*
X039460Y029529D01*
X039533Y029696D02*
X039606Y029696D01*
X039680Y029769D01*
X039680Y029916D01*
X039753Y029989D01*
X039827Y029989D01*
X039900Y029916D01*
X039900Y029769D01*
X039827Y029696D01*
X039753Y029696D01*
X039680Y029769D01*
X039680Y029916D02*
X039606Y029989D01*
X039533Y029989D01*
X039460Y029916D01*
X039460Y029769D01*
X039533Y029696D01*
X039900Y028001D02*
X039753Y027854D01*
X039460Y027854D01*
X049000Y034828D02*
X049073Y034755D01*
X049146Y034755D01*
X049220Y034828D01*
X049220Y035195D01*
X049293Y035195D02*
X049146Y035195D01*
X049460Y035195D02*
X049460Y034975D01*
X049607Y035049D01*
X049680Y035049D01*
X049754Y034975D01*
X049754Y034828D01*
X049680Y034755D01*
X049533Y034755D01*
X049460Y034828D01*
X049460Y035195D02*
X049754Y035195D01*
X035380Y038700D02*
X035380Y040000D01*
X035378Y040026D01*
X035373Y040052D01*
X035365Y040077D01*
X035353Y040100D01*
X035339Y040122D01*
X035321Y040141D01*
X035302Y040159D01*
X035280Y040173D01*
X035257Y040185D01*
X035232Y040193D01*
X035206Y040198D01*
X035180Y040200D01*
X034680Y040200D01*
X034654Y040198D01*
X034628Y040193D01*
X034603Y040185D01*
X034580Y040173D01*
X034558Y040159D01*
X034539Y040141D01*
X034521Y040122D01*
X034507Y040100D01*
X034495Y040077D01*
X034487Y040052D01*
X034482Y040026D01*
X034480Y040000D01*
X034480Y038700D01*
X034482Y038674D01*
X034487Y038648D01*
X034495Y038623D01*
X034507Y038600D01*
X034521Y038578D01*
X034539Y038559D01*
X034558Y038541D01*
X034580Y038527D01*
X034603Y038515D01*
X034628Y038507D01*
X034654Y038502D01*
X034680Y038500D01*
X035180Y038500D01*
X035206Y038502D01*
X035232Y038507D01*
X035257Y038515D01*
X035280Y038527D01*
X035302Y038541D01*
X035321Y038559D01*
X035339Y038578D01*
X035353Y038600D01*
X035365Y038623D01*
X035373Y038648D01*
X035378Y038674D01*
X035380Y038700D01*
X034275Y038763D02*
X034275Y038910D01*
X034202Y038983D01*
X034275Y039150D02*
X034275Y039443D01*
X034275Y039297D02*
X033835Y039297D01*
X033981Y039150D01*
X033908Y038983D02*
X033835Y038910D01*
X033835Y038763D01*
X033908Y038689D01*
X034202Y038689D01*
X034275Y038763D01*
X034202Y039610D02*
X034275Y039684D01*
X034275Y039830D01*
X034202Y039904D01*
X033908Y039904D01*
X033835Y039830D01*
X033835Y039684D01*
X033908Y039610D01*
X033981Y039610D01*
X034055Y039684D01*
X034055Y039904D01*
X025135Y036997D02*
X025135Y036924D01*
X025061Y036850D01*
X024915Y036850D01*
X024841Y036924D01*
X024841Y036997D01*
X024915Y037070D01*
X025061Y037070D01*
X025135Y036997D01*
X025061Y036850D02*
X025135Y036777D01*
X025135Y036703D01*
X025061Y036630D01*
X024915Y036630D01*
X024841Y036703D01*
X024841Y036777D01*
X024915Y036850D01*
X024674Y036997D02*
X024674Y036703D01*
X024601Y036630D01*
X024454Y036630D01*
X024381Y036703D01*
X024674Y036997D01*
X024601Y037070D01*
X024454Y037070D01*
X024381Y036997D01*
X024381Y036703D01*
X024214Y036703D02*
X024141Y036630D01*
X023994Y036630D01*
X023920Y036703D01*
X024214Y036997D01*
X024214Y036703D01*
X023920Y036703D02*
X023920Y036997D01*
X023994Y037070D01*
X024141Y037070D01*
X024214Y036997D01*
X023754Y036850D02*
X023460Y036850D01*
X023680Y037070D01*
X023680Y036630D01*
X023293Y036703D02*
X023220Y036630D01*
X023073Y036630D01*
X023000Y036703D01*
X023000Y036997D01*
X023073Y037070D01*
X023220Y037070D01*
X023293Y036997D01*
X022833Y037070D02*
X022686Y036997D01*
X022539Y036850D01*
X022759Y036850D01*
X022833Y036777D01*
X022833Y036703D01*
X022759Y036630D01*
X022613Y036630D01*
X022539Y036703D01*
X022539Y036850D01*
X022372Y036777D02*
X022372Y036703D01*
X022299Y036630D01*
X022152Y036630D01*
X022079Y036703D01*
X022152Y036850D02*
X022079Y036924D01*
X022079Y036997D01*
X022152Y037070D01*
X022299Y037070D01*
X022372Y036997D01*
X022299Y036850D02*
X022372Y036777D01*
X022299Y036850D02*
X022152Y036850D01*
X021912Y036850D02*
X021618Y036850D01*
X021618Y036924D02*
X021618Y036630D01*
X021618Y036924D02*
X021765Y037070D01*
X021912Y036924D01*
X021912Y036630D01*
X014650Y037533D02*
X014650Y037679D01*
X014577Y037753D01*
X014650Y037920D02*
X014356Y038213D01*
X014283Y038213D01*
X014210Y038140D01*
X014210Y037993D01*
X014283Y037920D01*
X014283Y037753D02*
X014210Y037679D01*
X014210Y037533D01*
X014283Y037459D01*
X014577Y037459D01*
X014650Y037533D01*
X014650Y037920D02*
X014650Y038213D01*
X014680Y038500D02*
X014180Y038500D01*
X014154Y038502D01*
X014128Y038507D01*
X014103Y038515D01*
X014080Y038527D01*
X014058Y038541D01*
X014039Y038559D01*
X014021Y038578D01*
X014007Y038600D01*
X013995Y038623D01*
X013987Y038648D01*
X013982Y038674D01*
X013980Y038700D01*
X013980Y040000D01*
X013982Y040026D01*
X013987Y040052D01*
X013995Y040077D01*
X014007Y040100D01*
X014021Y040122D01*
X014039Y040141D01*
X014058Y040159D01*
X014080Y040173D01*
X014103Y040185D01*
X014128Y040193D01*
X014154Y040198D01*
X014180Y040200D01*
X014680Y040200D01*
X014706Y040198D01*
X014732Y040193D01*
X014757Y040185D01*
X014780Y040173D01*
X014802Y040159D01*
X014821Y040141D01*
X014839Y040122D01*
X014853Y040100D01*
X014865Y040077D01*
X014873Y040052D01*
X014878Y040026D01*
X014880Y040000D01*
X014880Y038700D01*
X014878Y038674D01*
X014873Y038648D01*
X014865Y038623D01*
X014853Y038600D01*
X014839Y038578D01*
X014821Y038559D01*
X014802Y038541D01*
X014780Y038527D01*
X014757Y038515D01*
X014732Y038507D01*
X014706Y038502D01*
X014680Y038500D01*
X013430Y038000D02*
X013430Y035700D01*
X003430Y035700D01*
X003430Y036450D01*
X003469Y036452D01*
X003508Y036458D01*
X003546Y036467D01*
X003583Y036480D01*
X003619Y036497D01*
X003652Y036517D01*
X003684Y036541D01*
X003713Y036567D01*
X003739Y036596D01*
X003763Y036628D01*
X003783Y036661D01*
X003800Y036697D01*
X003813Y036734D01*
X003822Y036772D01*
X003828Y036811D01*
X003830Y036850D01*
X003828Y036889D01*
X003822Y036928D01*
X003813Y036966D01*
X003800Y037003D01*
X003783Y037039D01*
X003763Y037072D01*
X003739Y037104D01*
X003713Y037133D01*
X003684Y037159D01*
X003652Y037183D01*
X003619Y037203D01*
X003583Y037220D01*
X003546Y037233D01*
X003508Y037242D01*
X003469Y037248D01*
X003430Y037250D01*
X003430Y038000D01*
X013430Y038000D01*
X009444Y036850D02*
X009151Y036850D01*
X009371Y037070D01*
X009371Y036630D01*
X008984Y036997D02*
X008690Y036703D01*
X008690Y036630D01*
X008523Y036703D02*
X008450Y036630D01*
X008303Y036630D01*
X008230Y036703D01*
X008230Y036850D02*
X008377Y036924D01*
X008450Y036924D01*
X008523Y036850D01*
X008523Y036703D01*
X008230Y036850D02*
X008230Y037070D01*
X008523Y037070D01*
X008690Y037070D02*
X008984Y037070D01*
X008984Y036997D01*
X008063Y036850D02*
X007769Y036850D01*
X007990Y037070D01*
X007990Y036630D01*
X007603Y036997D02*
X007309Y036703D01*
X007309Y036630D01*
X007309Y037070D02*
X007603Y037070D01*
X007603Y036997D01*
X004567Y034820D02*
X004567Y034380D01*
X004420Y034380D02*
X004714Y034380D01*
X004420Y034674D02*
X004567Y034820D01*
X004254Y034820D02*
X004254Y034453D01*
X004180Y034380D01*
X004033Y034380D01*
X003960Y034453D01*
X003960Y034820D01*
X002680Y036000D02*
X002180Y036000D01*
X002154Y036002D01*
X002128Y036007D01*
X002103Y036015D01*
X002080Y036027D01*
X002058Y036041D01*
X002039Y036059D01*
X002021Y036078D01*
X002007Y036100D01*
X001995Y036123D01*
X001987Y036148D01*
X001982Y036174D01*
X001980Y036200D01*
X001980Y037500D01*
X001982Y037526D01*
X001987Y037552D01*
X001995Y037577D01*
X002007Y037600D01*
X002021Y037622D01*
X002039Y037641D01*
X002058Y037659D01*
X002080Y037673D01*
X002103Y037685D01*
X002128Y037693D01*
X002154Y037698D01*
X002180Y037700D01*
X002680Y037700D01*
X002706Y037698D01*
X002732Y037693D01*
X002757Y037685D01*
X002780Y037673D01*
X002802Y037659D01*
X002821Y037641D01*
X002839Y037622D01*
X002853Y037600D01*
X002865Y037577D01*
X002873Y037552D01*
X002878Y037526D01*
X002880Y037500D01*
X002880Y036200D01*
X002878Y036174D01*
X002873Y036148D01*
X002865Y036123D01*
X002853Y036100D01*
X002839Y036078D01*
X002821Y036059D01*
X002802Y036041D01*
X002780Y036027D01*
X002757Y036015D01*
X002732Y036007D01*
X002706Y036002D01*
X002680Y036000D01*
X002577Y038005D02*
X002650Y038078D01*
X002650Y038225D01*
X002577Y038299D01*
X002650Y038465D02*
X002650Y038759D01*
X002650Y038612D02*
X002210Y038612D01*
X002356Y038465D01*
X002283Y038299D02*
X002210Y038225D01*
X002210Y038078D01*
X002283Y038005D01*
X002577Y038005D01*
X059460Y006338D02*
X059533Y006191D01*
X059680Y006045D01*
X059680Y006265D01*
X059753Y006338D01*
X059827Y006338D01*
X059900Y006265D01*
X059900Y006118D01*
X059827Y006045D01*
X059680Y006045D01*
X059900Y005878D02*
X059900Y005584D01*
X059900Y005731D02*
X059460Y005731D01*
X059606Y005584D01*
X059533Y005417D02*
X059460Y005344D01*
X059460Y005197D01*
X059533Y005124D01*
X059827Y005124D01*
X059900Y005197D01*
X059900Y005344D01*
X059827Y005417D01*
X061210Y005570D02*
X061210Y005203D01*
X061283Y005130D01*
X061430Y005130D01*
X061504Y005203D01*
X061504Y005570D01*
X061670Y005424D02*
X061817Y005570D01*
X061817Y005130D01*
X061670Y005130D02*
X061964Y005130D01*
X062131Y005203D02*
X062204Y005130D01*
X062351Y005130D01*
X062424Y005203D01*
X062424Y005277D01*
X062351Y005350D01*
X062131Y005350D01*
X062131Y005203D01*
X062131Y005350D02*
X062278Y005497D01*
X062424Y005570D01*
X072019Y005203D02*
X072093Y005130D01*
X072166Y005130D01*
X072240Y005203D01*
X072240Y005570D01*
X072313Y005570D02*
X072166Y005570D01*
X072480Y005570D02*
X072480Y005130D01*
X072480Y005277D02*
X072700Y005277D01*
X072773Y005350D01*
X072773Y005497D01*
X072700Y005570D01*
X072480Y005570D01*
X072940Y005497D02*
X073014Y005570D01*
X073160Y005570D01*
X073234Y005497D01*
X073234Y005424D01*
X073160Y005350D01*
X073234Y005277D01*
X073234Y005203D01*
X073160Y005130D01*
X073014Y005130D01*
X072940Y005203D01*
X073087Y005350D02*
X073160Y005350D01*
D12*
X057930Y022725D02*
X057680Y022725D01*
X057930Y022725D02*
X057930Y024475D01*
X057680Y024475D01*
X057680Y024725D02*
X057930Y024725D01*
X057930Y026475D01*
X057680Y026475D01*
X053180Y026475D02*
X052930Y026475D01*
X052930Y024725D01*
X053180Y024725D01*
X053180Y024475D02*
X052930Y024475D01*
X052930Y022725D01*
X053180Y022725D01*
X070430Y026350D02*
X070432Y026394D01*
X070438Y026438D01*
X070448Y026481D01*
X070461Y026523D01*
X070478Y026564D01*
X070499Y026603D01*
X070523Y026640D01*
X070550Y026675D01*
X070580Y026707D01*
X070613Y026737D01*
X070649Y026763D01*
X070686Y026787D01*
X070726Y026806D01*
X070767Y026823D01*
X070810Y026835D01*
X070853Y026844D01*
X070897Y026849D01*
X070941Y026850D01*
X070985Y026847D01*
X071029Y026840D01*
X071072Y026829D01*
X071114Y026815D01*
X071154Y026797D01*
X071193Y026775D01*
X071229Y026751D01*
X071263Y026723D01*
X071295Y026692D01*
X071324Y026658D01*
X071350Y026622D01*
X071372Y026584D01*
X071391Y026544D01*
X071406Y026502D01*
X071418Y026460D01*
X071426Y026416D01*
X071430Y026372D01*
X071430Y026328D01*
X071426Y026284D01*
X071418Y026240D01*
X071406Y026198D01*
X071391Y026156D01*
X071372Y026116D01*
X071350Y026078D01*
X071324Y026042D01*
X071295Y026008D01*
X071263Y025977D01*
X071229Y025949D01*
X071193Y025925D01*
X071154Y025903D01*
X071114Y025885D01*
X071072Y025871D01*
X071029Y025860D01*
X070985Y025853D01*
X070941Y025850D01*
X070897Y025851D01*
X070853Y025856D01*
X070810Y025865D01*
X070767Y025877D01*
X070726Y025894D01*
X070686Y025913D01*
X070649Y025937D01*
X070613Y025963D01*
X070580Y025993D01*
X070550Y026025D01*
X070523Y026060D01*
X070499Y026097D01*
X070478Y026136D01*
X070461Y026177D01*
X070448Y026219D01*
X070438Y026262D01*
X070432Y026306D01*
X070430Y026350D01*
X029530Y019450D02*
X029530Y015250D01*
X029528Y015206D01*
X029522Y015163D01*
X029513Y015121D01*
X029500Y015079D01*
X029483Y015039D01*
X029463Y015000D01*
X029440Y014963D01*
X029413Y014929D01*
X029384Y014896D01*
X029351Y014867D01*
X029317Y014840D01*
X029280Y014817D01*
X029241Y014797D01*
X029201Y014780D01*
X029159Y014767D01*
X029117Y014758D01*
X029074Y014752D01*
X029030Y014750D01*
X024330Y014750D01*
X024330Y019450D01*
X024332Y019494D01*
X024338Y019537D01*
X024347Y019579D01*
X024360Y019621D01*
X024377Y019661D01*
X024397Y019700D01*
X024420Y019737D01*
X024447Y019771D01*
X024476Y019804D01*
X024509Y019833D01*
X024543Y019860D01*
X024580Y019883D01*
X024619Y019903D01*
X024659Y019920D01*
X024701Y019933D01*
X024743Y019942D01*
X024786Y019948D01*
X024830Y019950D01*
X029030Y019950D01*
X029074Y019948D01*
X029117Y019942D01*
X029159Y019933D01*
X029201Y019920D01*
X029241Y019903D01*
X029280Y019883D01*
X029317Y019860D01*
X029351Y019833D01*
X029384Y019804D01*
X029413Y019771D01*
X029440Y019737D01*
X029463Y019700D01*
X029483Y019661D01*
X029500Y019621D01*
X029513Y019579D01*
X029522Y019537D01*
X029528Y019494D01*
X029530Y019450D01*
D13*
X044353Y004580D02*
X044353Y004120D01*
X044200Y004120D02*
X044507Y004120D01*
X044200Y004427D02*
X044353Y004580D01*
X075700Y004350D02*
X075700Y004197D01*
X075777Y004120D01*
X075930Y004120D01*
X076007Y004197D01*
X076007Y004273D01*
X075930Y004350D01*
X075700Y004350D01*
X075853Y004504D01*
X076007Y004580D01*
X076160Y004427D02*
X076314Y004580D01*
X076314Y004120D01*
X076467Y004120D02*
X076160Y004120D01*
D14*
X074180Y003850D02*
X071180Y003850D01*
X071180Y004850D01*
X074180Y004850D01*
X074180Y003850D01*
X071955Y006555D02*
X071955Y006713D01*
X071405Y006775D02*
X071405Y008425D01*
X071955Y008487D02*
X071955Y008645D01*
X071955Y007713D02*
X071955Y007487D01*
X071405Y008425D02*
X071453Y008460D01*
X071503Y008493D01*
X071555Y008524D01*
X071609Y008551D01*
X071664Y008575D01*
X071721Y008595D01*
X071778Y008613D01*
X071836Y008627D01*
X071895Y008638D01*
X071955Y008645D01*
X072017Y008649D01*
X072080Y008650D01*
X072142Y008646D01*
X072204Y008639D01*
X072265Y008629D01*
X072326Y008614D01*
X072386Y008596D01*
X072445Y008575D01*
X072502Y008550D01*
X072557Y008522D01*
X072611Y008491D01*
X072663Y008456D01*
X072713Y008418D01*
X072760Y008378D01*
X072805Y008334D01*
X072848Y008289D01*
X072887Y008240D01*
X072924Y008190D01*
X072957Y008137D01*
X072988Y008083D01*
X073015Y008026D01*
X073038Y007969D01*
X073058Y007910D01*
X073058Y007290D02*
X073038Y007230D01*
X073014Y007171D01*
X072986Y007114D01*
X072955Y007059D01*
X072920Y007005D01*
X072883Y006954D01*
X072842Y006905D01*
X072798Y006859D01*
X072752Y006815D01*
X072703Y006774D01*
X072652Y006736D01*
X072599Y006702D01*
X072543Y006670D01*
X072486Y006643D01*
X072427Y006618D01*
X072367Y006598D01*
X072306Y006580D01*
X072244Y006567D01*
X072181Y006558D01*
X072118Y006552D01*
X072054Y006550D01*
X071990Y006552D01*
X071927Y006558D01*
X071864Y006567D01*
X071802Y006581D01*
X071741Y006598D01*
X071681Y006619D01*
X071622Y006643D01*
X071565Y006671D01*
X071509Y006703D01*
X071456Y006738D01*
X071405Y006775D01*
X076243Y008256D02*
X076243Y012194D01*
X076440Y012194D01*
X077916Y012194D02*
X079786Y012194D01*
X077905Y014469D02*
X076004Y014469D01*
X076004Y019981D01*
X077905Y019981D01*
X062355Y028600D02*
X062357Y028628D01*
X062363Y028655D01*
X062372Y028681D01*
X062385Y028706D01*
X062402Y028729D01*
X062421Y028749D01*
X062443Y028766D01*
X062467Y028780D01*
X062493Y028790D01*
X062520Y028797D01*
X062548Y028800D01*
X062576Y028799D01*
X062603Y028794D01*
X062630Y028785D01*
X062655Y028773D01*
X062678Y028758D01*
X062699Y028739D01*
X062717Y028718D01*
X062732Y028694D01*
X062743Y028668D01*
X062751Y028642D01*
X062755Y028614D01*
X062755Y028586D01*
X062751Y028558D01*
X062743Y028532D01*
X062732Y028506D01*
X062717Y028482D01*
X062699Y028461D01*
X062678Y028442D01*
X062655Y028427D01*
X062630Y028415D01*
X062603Y028406D01*
X062576Y028401D01*
X062548Y028400D01*
X062520Y028403D01*
X062493Y028410D01*
X062467Y028420D01*
X062443Y028434D01*
X062421Y028451D01*
X062402Y028471D01*
X062385Y028494D01*
X062372Y028519D01*
X062363Y028545D01*
X062357Y028572D01*
X062355Y028600D01*
X049930Y026475D02*
X049930Y034475D01*
X048930Y034475D01*
X048930Y026475D01*
X049930Y026475D01*
X046930Y024475D02*
X044930Y024475D01*
X044930Y030475D01*
X046930Y030475D01*
X046930Y024475D01*
X043026Y017420D02*
X040180Y017420D01*
X039680Y017920D02*
X039636Y017918D01*
X039593Y017912D01*
X039551Y017903D01*
X039509Y017890D01*
X039469Y017873D01*
X039430Y017853D01*
X039393Y017830D01*
X039359Y017803D01*
X039326Y017774D01*
X039297Y017741D01*
X039270Y017707D01*
X039247Y017670D01*
X039227Y017631D01*
X039210Y017591D01*
X039197Y017549D01*
X039188Y017507D01*
X039182Y017464D01*
X039180Y017420D01*
X036334Y017420D01*
X036334Y040530D01*
X043026Y040530D01*
X043026Y017420D01*
X040180Y017420D02*
X040178Y017464D01*
X040172Y017507D01*
X040163Y017549D01*
X040150Y017591D01*
X040133Y017631D01*
X040113Y017670D01*
X040090Y017707D01*
X040063Y017741D01*
X040034Y017774D01*
X040001Y017803D01*
X039967Y017830D01*
X039930Y017853D01*
X039891Y017873D01*
X039851Y017890D01*
X039809Y017903D01*
X039767Y017912D01*
X039724Y017918D01*
X039680Y017920D01*
X049010Y013375D02*
X049168Y013375D01*
X049230Y012825D02*
X050880Y012825D01*
X050942Y013375D02*
X051100Y013375D01*
X050168Y013375D02*
X049942Y013375D01*
X049230Y012825D02*
X049195Y012873D01*
X049162Y012923D01*
X049131Y012975D01*
X049104Y013029D01*
X049080Y013084D01*
X049060Y013141D01*
X049042Y013198D01*
X049028Y013256D01*
X049017Y013315D01*
X049010Y013375D01*
X048680Y012600D02*
X049680Y012600D01*
X049680Y010600D01*
X048680Y010600D01*
X048680Y012600D01*
X050880Y012825D02*
X050917Y012876D01*
X050952Y012929D01*
X050984Y012985D01*
X051012Y013042D01*
X051036Y013101D01*
X051057Y013161D01*
X051074Y013222D01*
X051088Y013284D01*
X051097Y013347D01*
X051103Y013410D01*
X051105Y013474D01*
X051103Y013538D01*
X051097Y013601D01*
X051088Y013664D01*
X051075Y013726D01*
X051057Y013787D01*
X051037Y013847D01*
X051012Y013906D01*
X050985Y013963D01*
X050953Y014019D01*
X050919Y014072D01*
X050881Y014123D01*
X050840Y014172D01*
X050796Y014218D01*
X050750Y014262D01*
X050701Y014303D01*
X050650Y014340D01*
X050596Y014375D01*
X050541Y014406D01*
X050484Y014434D01*
X050425Y014458D01*
X050365Y014478D01*
X049745Y014478D02*
X049686Y014458D01*
X049629Y014435D01*
X049572Y014408D01*
X049518Y014377D01*
X049465Y014344D01*
X049415Y014307D01*
X049366Y014268D01*
X049321Y014225D01*
X049277Y014180D01*
X049237Y014133D01*
X049199Y014083D01*
X049164Y014031D01*
X049133Y013977D01*
X049105Y013922D01*
X049080Y013865D01*
X049059Y013806D01*
X049041Y013746D01*
X049026Y013685D01*
X049016Y013624D01*
X049009Y013562D01*
X049005Y013500D01*
X049006Y013437D01*
X049010Y013375D01*
X045680Y004600D02*
X044680Y004600D01*
X045180Y003600D01*
X045680Y004600D01*
X045658Y004555D02*
X044702Y004555D01*
X044727Y004507D02*
X045633Y004507D01*
X045609Y004458D02*
X044751Y004458D01*
X044775Y004410D02*
X045585Y004410D01*
X045561Y004361D02*
X044799Y004361D01*
X044824Y004313D02*
X045536Y004313D01*
X045512Y004264D02*
X044848Y004264D01*
X044872Y004216D02*
X045488Y004216D01*
X045464Y004167D02*
X044896Y004167D01*
X044921Y004119D02*
X045439Y004119D01*
X045415Y004070D02*
X044945Y004070D01*
X044969Y004022D02*
X045391Y004022D01*
X045367Y003973D02*
X044993Y003973D01*
X045018Y003925D02*
X045342Y003925D01*
X045318Y003876D02*
X045042Y003876D01*
X045066Y003828D02*
X045294Y003828D01*
X045270Y003779D02*
X045090Y003779D01*
X045115Y003731D02*
X045245Y003731D01*
X045221Y003682D02*
X045139Y003682D01*
X045163Y003634D02*
X045197Y003634D01*
X076243Y008256D02*
X076440Y008256D01*
X077916Y008256D02*
X079786Y008256D01*
X010430Y012850D02*
X010430Y013850D01*
X008430Y013850D01*
X008430Y012850D01*
X010430Y012850D01*
D15*
X007350Y013350D03*
X004510Y013350D03*
X014510Y013350D03*
X017350Y013350D03*
X044010Y014225D03*
X046850Y014225D03*
X054010Y022100D03*
X054010Y023100D03*
X054010Y024100D03*
X054010Y025100D03*
X054010Y026100D03*
X054010Y027100D03*
X054010Y028100D03*
X054010Y029100D03*
X056850Y029100D03*
X056850Y028100D03*
X056850Y027100D03*
X056850Y026100D03*
X056850Y025100D03*
X056850Y024100D03*
X056850Y023100D03*
X056850Y022100D03*
X067510Y022350D03*
X067510Y021350D03*
X070350Y021350D03*
X070350Y022350D03*
X070350Y023350D03*
X070350Y024350D03*
X067510Y024350D03*
X067510Y023350D03*
D16*
X065930Y021930D03*
X065930Y024770D03*
X048430Y026555D03*
X048430Y029395D03*
X072055Y013020D03*
X072055Y010180D03*
D17*
X070930Y026800D02*
X070930Y026900D01*
M02*
