G75*
G70*
%OFA0B0*%
%FSLAX24Y24*%
%IPPOS*%
%LPD*%
%AMOC8*
5,1,8,0,0,1.08239X$1,22.5*
%
%ADD10C,0.0060*%
%ADD11R,3.2000X0.3000*%
%ADD12OC8,0.0468*%
%ADD13C,0.0468*%
%ADD14R,0.0926X0.0296*%
%ADD15C,0.0595*%
%ADD16C,0.0690*%
%ADD17OC8,0.0690*%
%ADD18C,0.0604*%
%ADD19OC8,0.0604*%
%ADD20OC8,0.0740*%
%ADD21C,0.0740*%
%ADD22C,0.1326*%
%ADD23C,0.0662*%
%ADD24OC8,0.0662*%
%ADD25C,0.1444*%
%ADD26OC8,0.0920*%
%ADD27C,0.0920*%
%ADD28C,0.2560*%
%ADD29C,0.0535*%
%ADD30C,0.0580*%
%ADD31C,0.0417*%
D10*
X004461Y041254D02*
X005156Y041884D01*
X004788Y042535D01*
X005196Y042535D01*
X005418Y042129D01*
X005859Y042535D01*
X006247Y042535D01*
X005548Y041894D01*
X005920Y041254D01*
X005508Y041254D01*
X005286Y041660D01*
X004849Y041254D01*
X004461Y041254D01*
X004513Y041301D02*
X004899Y041301D01*
X004962Y041359D02*
X004577Y041359D01*
X004642Y041418D02*
X005025Y041418D01*
X005088Y041476D02*
X004706Y041476D01*
X004771Y041535D02*
X005151Y041535D01*
X005214Y041593D02*
X004835Y041593D01*
X004900Y041652D02*
X005277Y041652D01*
X005290Y041652D02*
X005689Y041652D01*
X005655Y041710D02*
X004964Y041710D01*
X005029Y041769D02*
X005621Y041769D01*
X005587Y041827D02*
X005093Y041827D01*
X005155Y041886D02*
X005553Y041886D01*
X005602Y041944D02*
X005122Y041944D01*
X005089Y042003D02*
X005666Y042003D01*
X005730Y042061D02*
X005056Y042061D01*
X005023Y042120D02*
X005794Y042120D01*
X005858Y042178D02*
X005472Y042178D01*
X005391Y042178D02*
X004990Y042178D01*
X004957Y042237D02*
X005359Y042237D01*
X005327Y042295D02*
X004924Y042295D01*
X004890Y042354D02*
X005295Y042354D01*
X005263Y042412D02*
X004857Y042412D01*
X004824Y042471D02*
X005231Y042471D01*
X005199Y042529D02*
X004791Y042529D01*
X005535Y042237D02*
X005922Y042237D01*
X005985Y042295D02*
X005599Y042295D01*
X005662Y042354D02*
X006049Y042354D01*
X006113Y042412D02*
X005726Y042412D01*
X005789Y042471D02*
X006177Y042471D01*
X006241Y042529D02*
X005853Y042529D01*
X006435Y042354D02*
X008350Y042354D01*
X008350Y042370D02*
X008350Y042296D01*
X008339Y042222D01*
X008087Y041254D01*
X007742Y041254D01*
X008007Y042264D01*
X007557Y042264D01*
X007296Y041254D01*
X006946Y041254D01*
X007211Y042264D01*
X006761Y042264D01*
X006500Y041254D01*
X006151Y041254D01*
X006482Y042535D01*
X008168Y042535D01*
X008204Y042534D01*
X008239Y042525D01*
X008272Y042508D01*
X008300Y042485D01*
X008325Y042451D01*
X008342Y042412D01*
X008350Y042370D01*
X008342Y042412D02*
X006450Y042412D01*
X006465Y042471D02*
X008310Y042471D01*
X008221Y042529D02*
X006480Y042529D01*
X006420Y042295D02*
X008350Y042295D01*
X008341Y042237D02*
X008000Y042237D01*
X007985Y042178D02*
X008327Y042178D01*
X008312Y042120D02*
X007969Y042120D01*
X007954Y042061D02*
X008297Y042061D01*
X008282Y042003D02*
X007938Y042003D01*
X007923Y041944D02*
X008267Y041944D01*
X008251Y041886D02*
X007908Y041886D01*
X007892Y041827D02*
X008236Y041827D01*
X008221Y041769D02*
X007877Y041769D01*
X007862Y041710D02*
X008206Y041710D01*
X008191Y041652D02*
X007846Y041652D01*
X007831Y041593D02*
X008176Y041593D01*
X008160Y041535D02*
X007816Y041535D01*
X007800Y041476D02*
X008145Y041476D01*
X008130Y041418D02*
X007785Y041418D01*
X007770Y041359D02*
X008115Y041359D01*
X008100Y041301D02*
X007754Y041301D01*
X007338Y041418D02*
X006989Y041418D01*
X007005Y041476D02*
X007353Y041476D01*
X007368Y041535D02*
X007020Y041535D01*
X007035Y041593D02*
X007384Y041593D01*
X007399Y041652D02*
X007051Y041652D01*
X007066Y041710D02*
X007414Y041710D01*
X007429Y041769D02*
X007081Y041769D01*
X007097Y041827D02*
X007444Y041827D01*
X007459Y041886D02*
X007112Y041886D01*
X007128Y041944D02*
X007474Y041944D01*
X007490Y042003D02*
X007143Y042003D01*
X007158Y042061D02*
X007505Y042061D01*
X007520Y042120D02*
X007174Y042120D01*
X007189Y042178D02*
X007535Y042178D01*
X007550Y042237D02*
X007204Y042237D01*
X006754Y042237D02*
X006405Y042237D01*
X006389Y042178D02*
X006739Y042178D01*
X006724Y042120D02*
X006374Y042120D01*
X006359Y042061D02*
X006709Y042061D01*
X006694Y042003D02*
X006344Y042003D01*
X006329Y041944D02*
X006679Y041944D01*
X006664Y041886D02*
X006314Y041886D01*
X006299Y041827D02*
X006649Y041827D01*
X006633Y041769D02*
X006284Y041769D01*
X006269Y041710D02*
X006618Y041710D01*
X006603Y041652D02*
X006253Y041652D01*
X006238Y041593D02*
X006588Y041593D01*
X006573Y041535D02*
X006223Y041535D01*
X006208Y041476D02*
X006558Y041476D01*
X006543Y041418D02*
X006193Y041418D01*
X006178Y041359D02*
X006527Y041359D01*
X006512Y041301D02*
X006163Y041301D01*
X005893Y041301D02*
X005482Y041301D01*
X005450Y041359D02*
X005859Y041359D01*
X005825Y041418D02*
X005418Y041418D01*
X005386Y041476D02*
X005791Y041476D01*
X005757Y041535D02*
X005354Y041535D01*
X005322Y041593D02*
X005723Y041593D01*
X006959Y041301D02*
X007308Y041301D01*
X007323Y041359D02*
X006974Y041359D01*
X008339Y041254D02*
X008670Y042535D01*
X009015Y042535D01*
X008684Y041254D01*
X008339Y041254D01*
X008351Y041301D02*
X008696Y041301D01*
X008711Y041359D02*
X008366Y041359D01*
X008381Y041418D02*
X008726Y041418D01*
X008742Y041476D02*
X008396Y041476D01*
X008411Y041535D02*
X008757Y041535D01*
X008772Y041593D02*
X008426Y041593D01*
X008441Y041652D02*
X008787Y041652D01*
X008802Y041710D02*
X008456Y041710D01*
X008472Y041769D02*
X008817Y041769D01*
X008832Y041827D02*
X008487Y041827D01*
X008502Y041886D02*
X008847Y041886D01*
X008862Y041944D02*
X008517Y041944D01*
X008532Y042003D02*
X008878Y042003D01*
X008893Y042061D02*
X008547Y042061D01*
X008562Y042120D02*
X008908Y042120D01*
X008923Y042178D02*
X008577Y042178D01*
X008592Y042237D02*
X008938Y042237D01*
X008953Y042295D02*
X008608Y042295D01*
X008623Y042354D02*
X008968Y042354D01*
X008983Y042412D02*
X008638Y042412D01*
X008653Y042471D02*
X008998Y042471D01*
X009014Y042529D02*
X008668Y042529D01*
X009203Y042273D02*
X009235Y042335D01*
X009276Y042393D01*
X009325Y042444D01*
X009369Y042482D01*
X009419Y042511D01*
X009474Y042531D01*
X009502Y042535D01*
X009529Y042535D01*
X010790Y042535D01*
X010724Y042264D01*
X009546Y042264D01*
X009357Y041525D01*
X010528Y041525D01*
X010463Y041254D01*
X009168Y041254D01*
X009139Y041256D01*
X009111Y041265D01*
X009086Y041279D01*
X009063Y041298D01*
X009036Y041335D01*
X009017Y041377D01*
X009007Y041422D01*
X009005Y041474D01*
X009011Y041525D01*
X009023Y041586D01*
X009180Y042206D01*
X009203Y042273D01*
X009215Y042295D02*
X010731Y042295D01*
X010746Y042354D02*
X009248Y042354D01*
X009295Y042412D02*
X010760Y042412D01*
X010774Y042471D02*
X009356Y042471D01*
X009468Y042529D02*
X010788Y042529D01*
X011028Y042471D02*
X011110Y042471D01*
X012438Y042471D01*
X012428Y042482D02*
X012453Y042454D01*
X012474Y042423D01*
X012488Y042389D01*
X012496Y042353D01*
X012495Y042288D01*
X012484Y042224D01*
X012441Y042063D01*
X012429Y042024D01*
X012410Y041988D01*
X012354Y041905D01*
X012286Y041831D01*
X012228Y041786D01*
X012163Y041753D01*
X012095Y041737D01*
X012026Y041729D01*
X012198Y041254D01*
X011852Y041254D01*
X011680Y041733D01*
X011180Y041733D01*
X011055Y041254D01*
X010710Y041254D01*
X011045Y042535D01*
X012288Y042535D01*
X012326Y042532D01*
X012363Y042522D01*
X012397Y042505D01*
X012428Y042482D01*
X012478Y042412D02*
X011170Y042412D01*
X011012Y042412D01*
X010997Y042354D02*
X011229Y042354D01*
X012496Y042354D01*
X012496Y042295D02*
X011288Y042295D01*
X010982Y042295D01*
X010967Y042237D02*
X011314Y042237D01*
X011320Y042264D02*
X011045Y042535D01*
X011320Y042264D01*
X012150Y042264D01*
X012082Y041985D01*
X011252Y041985D01*
X011320Y042264D01*
X011299Y042178D02*
X010951Y042178D01*
X010936Y042120D02*
X011285Y042120D01*
X011271Y042061D02*
X010921Y042061D01*
X010905Y042003D02*
X011256Y042003D01*
X011174Y041710D02*
X010829Y041710D01*
X010814Y041652D02*
X011159Y041652D01*
X011144Y041593D02*
X010798Y041593D01*
X010783Y041535D02*
X011128Y041535D01*
X011113Y041476D02*
X010768Y041476D01*
X010753Y041418D02*
X011098Y041418D01*
X011083Y041359D02*
X010737Y041359D01*
X010722Y041301D02*
X011068Y041301D01*
X010844Y041769D02*
X012194Y041769D01*
X012281Y041827D02*
X010860Y041827D01*
X010875Y041886D02*
X012337Y041886D01*
X012381Y041944D02*
X010890Y041944D01*
X010516Y041476D02*
X009005Y041476D01*
X009008Y041418D02*
X010502Y041418D01*
X010488Y041359D02*
X009025Y041359D01*
X009062Y041301D02*
X010474Y041301D01*
X009374Y041593D02*
X009024Y041593D01*
X009013Y041535D02*
X009359Y041535D01*
X009389Y041652D02*
X009039Y041652D01*
X009054Y041710D02*
X009404Y041710D01*
X009419Y041769D02*
X009069Y041769D01*
X009084Y041827D02*
X009434Y041827D01*
X009449Y041886D02*
X009099Y041886D01*
X009114Y041944D02*
X009464Y041944D01*
X009479Y042003D02*
X009129Y042003D01*
X009144Y042061D02*
X009494Y042061D01*
X009509Y042120D02*
X009158Y042120D01*
X009173Y042178D02*
X009524Y042178D01*
X009539Y042237D02*
X009191Y042237D01*
X011043Y042529D02*
X011051Y042529D01*
X012338Y042529D01*
X012487Y042237D02*
X012144Y042237D01*
X012129Y042178D02*
X012472Y042178D01*
X012457Y042120D02*
X012115Y042120D01*
X012101Y042061D02*
X012441Y042061D01*
X012418Y042003D02*
X012086Y042003D01*
X012033Y041710D02*
X011689Y041710D01*
X011709Y041652D02*
X012054Y041652D01*
X012075Y041593D02*
X011730Y041593D01*
X011751Y041535D02*
X012096Y041535D01*
X012117Y041476D02*
X011772Y041476D01*
X011793Y041418D02*
X012138Y041418D01*
X012159Y041359D02*
X011814Y041359D01*
X011835Y041301D02*
X012180Y041301D01*
X012562Y041400D02*
X012576Y041358D01*
X012586Y041332D01*
X012603Y041309D01*
X012623Y041289D01*
X012647Y041273D01*
X012673Y041261D01*
X012701Y041256D01*
X012729Y041254D01*
X013743Y041254D01*
X013784Y041255D01*
X013824Y041263D01*
X013863Y041280D01*
X013898Y041302D01*
X013947Y041341D01*
X013990Y041386D01*
X014033Y041442D01*
X014067Y041504D01*
X014091Y041571D01*
X014263Y042230D01*
X014271Y042284D01*
X014271Y042339D01*
X014266Y042384D01*
X014253Y042428D01*
X014235Y042462D01*
X014210Y042492D01*
X014178Y042514D01*
X014142Y042529D01*
X014104Y042535D01*
X013115Y042535D01*
X013095Y042264D01*
X013115Y042535D01*
X013072Y042535D01*
X013018Y042527D01*
X012966Y042509D01*
X012919Y042481D01*
X012857Y042423D01*
X012806Y042356D01*
X012765Y042284D01*
X012735Y042206D01*
X012568Y041577D01*
X012560Y041538D01*
X012556Y041444D01*
X012562Y041400D01*
X012560Y041418D02*
X014014Y041418D01*
X014051Y041476D02*
X012557Y041476D01*
X012560Y041535D02*
X012902Y041535D01*
X012900Y041525D02*
X013732Y041525D01*
X013927Y042264D01*
X013095Y042264D01*
X012900Y041525D01*
X012918Y041593D02*
X012572Y041593D01*
X012588Y041652D02*
X012933Y041652D01*
X012949Y041710D02*
X012603Y041710D01*
X012619Y041769D02*
X012964Y041769D01*
X012979Y041827D02*
X012635Y041827D01*
X012650Y041886D02*
X012995Y041886D01*
X013010Y041944D02*
X012666Y041944D01*
X012681Y042003D02*
X013026Y042003D01*
X013041Y042061D02*
X012697Y042061D01*
X012712Y042120D02*
X013057Y042120D01*
X013072Y042178D02*
X012728Y042178D01*
X012747Y042237D02*
X013088Y042237D01*
X013097Y042295D02*
X014271Y042295D01*
X014269Y042354D02*
X013102Y042354D01*
X012804Y042354D01*
X012771Y042295D02*
X013097Y042295D01*
X013106Y042412D02*
X014258Y042412D01*
X014228Y042471D02*
X013110Y042471D01*
X012908Y042471D01*
X012849Y042412D02*
X013106Y042412D01*
X013115Y042529D02*
X014141Y042529D01*
X014264Y042237D02*
X013920Y042237D01*
X013905Y042178D02*
X014249Y042178D01*
X014234Y042120D02*
X013889Y042120D01*
X013874Y042061D02*
X014219Y042061D01*
X014204Y042003D02*
X013858Y042003D01*
X013843Y041944D02*
X014188Y041944D01*
X014173Y041886D02*
X013827Y041886D01*
X013812Y041827D02*
X014158Y041827D01*
X014143Y041769D02*
X013796Y041769D01*
X013781Y041710D02*
X014128Y041710D01*
X014112Y041652D02*
X013765Y041652D01*
X013750Y041593D02*
X014097Y041593D01*
X014078Y041535D02*
X013734Y041535D01*
X013896Y041301D02*
X012611Y041301D01*
X012575Y041359D02*
X013964Y041359D01*
X013115Y042529D02*
X013033Y042529D01*
D11*
X060180Y001600D03*
D12*
X043430Y018125D03*
D13*
X043430Y018825D03*
X043430Y019525D03*
X043430Y020225D03*
X043430Y020925D03*
X043430Y021625D03*
X043430Y022325D03*
X043430Y023025D03*
X043430Y023725D03*
X043430Y024425D03*
X043430Y025125D03*
X043430Y025825D03*
X043430Y026525D03*
X043430Y027225D03*
X043430Y027925D03*
X043430Y028625D03*
X043430Y029325D03*
X043430Y030025D03*
X043430Y030725D03*
X043430Y031425D03*
X043430Y032125D03*
X043430Y032825D03*
X043430Y033525D03*
X043430Y034225D03*
X043430Y034925D03*
X043430Y035625D03*
X043430Y036325D03*
X043430Y037025D03*
X043430Y037725D03*
X043430Y038425D03*
X043430Y039125D03*
X043430Y039825D03*
X035930Y039825D03*
X035930Y039125D03*
X035930Y038425D03*
X035930Y037725D03*
X035930Y037025D03*
X035930Y036325D03*
X035930Y035625D03*
X035930Y034925D03*
X035930Y034225D03*
X035930Y033525D03*
X035930Y032825D03*
X035930Y032125D03*
X035930Y031425D03*
X035930Y030725D03*
X035930Y030025D03*
X035930Y029325D03*
X035930Y028625D03*
X035930Y027925D03*
X035930Y027225D03*
X035930Y026525D03*
X035930Y025825D03*
X035930Y025125D03*
X035930Y024425D03*
X035930Y023725D03*
X035930Y023025D03*
X035930Y022325D03*
X035930Y021625D03*
X035930Y020925D03*
X035930Y020225D03*
X035930Y019525D03*
X035930Y018825D03*
X035930Y018125D03*
D14*
X061494Y023350D03*
X061494Y023850D03*
X061494Y024350D03*
X061494Y024850D03*
X061494Y025350D03*
X061494Y025850D03*
X061494Y026350D03*
X061494Y026850D03*
X061494Y027350D03*
X061494Y027850D03*
X061494Y028350D03*
X061494Y028850D03*
X064866Y028850D03*
X064866Y028350D03*
X064866Y027850D03*
X064866Y027350D03*
X064866Y026850D03*
X064866Y026350D03*
X064866Y025850D03*
X064866Y025350D03*
X064866Y024850D03*
X064866Y024350D03*
X064866Y023850D03*
X064866Y023350D03*
D15*
X063680Y022350D03*
X062680Y022350D03*
X059430Y024100D03*
X058430Y024100D03*
X058430Y026100D03*
X059430Y026100D03*
X059430Y027100D03*
X058430Y027100D03*
X058430Y028100D03*
X059430Y028100D03*
X059430Y029100D03*
X058430Y029100D03*
X065930Y027850D03*
X065930Y026850D03*
X066930Y025350D03*
X067930Y025350D03*
X044555Y031275D03*
X044555Y032275D03*
X034930Y038850D03*
X034930Y039850D03*
X016430Y030850D03*
X016430Y029850D03*
X011430Y024350D03*
X011430Y023350D03*
X002430Y023350D03*
X002430Y024350D03*
X002430Y029850D03*
X002430Y030850D03*
X002430Y036350D03*
X002430Y037350D03*
X014430Y038850D03*
X014430Y039850D03*
X033930Y022325D03*
X034930Y022325D03*
X032180Y019975D03*
X032180Y018975D03*
X032180Y017975D03*
X032180Y016975D03*
X026430Y020600D03*
X025430Y020600D03*
X012430Y017850D03*
X012430Y016850D03*
X011430Y011350D03*
X011430Y010350D03*
X002430Y010350D03*
X002430Y011350D03*
X002430Y016850D03*
X002430Y017850D03*
X020430Y011350D03*
X020430Y010350D03*
X029430Y010350D03*
X029430Y011350D03*
X047680Y008100D03*
X047680Y007100D03*
X050680Y011100D03*
X050680Y012100D03*
X059680Y012100D03*
X059680Y011100D03*
X059680Y008100D03*
X059680Y007100D03*
D16*
X073055Y019850D03*
X073055Y022225D03*
X073055Y024600D03*
X067680Y027850D03*
X063680Y020600D03*
X032430Y023825D03*
D17*
X033430Y023825D03*
X062680Y020600D03*
X072055Y019850D03*
X072055Y022225D03*
X072055Y024600D03*
X067680Y026850D03*
D18*
X065930Y025350D03*
X066930Y024350D03*
X066930Y023350D03*
X066930Y022350D03*
X066930Y021350D03*
X065930Y021350D03*
X070930Y021350D03*
X070930Y022350D03*
X070930Y023350D03*
X070930Y024350D03*
X070930Y026350D03*
X070930Y027350D03*
X057430Y027100D03*
X057430Y026100D03*
X057430Y025100D03*
X057430Y024100D03*
X057430Y023100D03*
X057430Y022100D03*
X053430Y022100D03*
X053430Y023100D03*
X053430Y024100D03*
X053430Y025100D03*
X053430Y026100D03*
X053430Y027100D03*
X053430Y028100D03*
X053430Y029100D03*
X057430Y029100D03*
X057430Y028100D03*
X048430Y029975D03*
X048430Y025975D03*
X033930Y019436D03*
X033930Y017514D03*
X028430Y018850D03*
X025430Y018850D03*
X022930Y018850D03*
X021930Y018850D03*
X020930Y018850D03*
X019930Y018850D03*
X018930Y018850D03*
X017930Y018850D03*
X016930Y018850D03*
X015930Y018850D03*
X014930Y018850D03*
X013930Y018850D03*
X010930Y018850D03*
X009930Y018850D03*
X008930Y018850D03*
X007930Y018850D03*
X006930Y018850D03*
X005930Y018850D03*
X004930Y018850D03*
X003930Y018850D03*
X004930Y015850D03*
X005930Y015850D03*
X006930Y015850D03*
X007930Y015850D03*
X008930Y015850D03*
X009930Y015850D03*
X010930Y015850D03*
X014930Y015850D03*
X015930Y015850D03*
X016930Y015850D03*
X017930Y015850D03*
X018930Y015850D03*
X019930Y015850D03*
X020930Y015850D03*
X021930Y015850D03*
X022930Y015850D03*
X017930Y013350D03*
X017930Y012350D03*
X016930Y012350D03*
X015930Y012350D03*
X014930Y012350D03*
X013930Y012350D03*
X012930Y012350D03*
X013930Y013350D03*
X009930Y012350D03*
X008930Y012350D03*
X007930Y012350D03*
X006930Y012350D03*
X005930Y012350D03*
X004930Y012350D03*
X003930Y012350D03*
X003930Y013350D03*
X007930Y013350D03*
X007930Y009350D03*
X006930Y009350D03*
X005930Y009350D03*
X004930Y009350D03*
X008930Y009350D03*
X009930Y009350D03*
X013930Y009350D03*
X014930Y009350D03*
X015930Y009350D03*
X016930Y009350D03*
X017930Y009350D03*
X018930Y009350D03*
X022930Y009350D03*
X023930Y009350D03*
X024930Y009350D03*
X025930Y009350D03*
X026930Y009350D03*
X027930Y009350D03*
X031930Y009350D03*
X032930Y009350D03*
X033930Y009350D03*
X034930Y009350D03*
X035930Y009350D03*
X036930Y009350D03*
X037930Y009350D03*
X038930Y009350D03*
X039930Y009350D03*
X039930Y012350D03*
X038930Y012350D03*
X037930Y012350D03*
X036930Y012350D03*
X035930Y012350D03*
X034930Y012350D03*
X033930Y012350D03*
X032930Y012350D03*
X031930Y012350D03*
X030930Y012350D03*
X027930Y012350D03*
X026930Y012350D03*
X025930Y012350D03*
X024930Y012350D03*
X023930Y012350D03*
X022930Y012350D03*
X021930Y012350D03*
X018930Y012350D03*
X028430Y015850D03*
X018930Y022350D03*
X017930Y022350D03*
X016930Y022350D03*
X015930Y022350D03*
X014930Y022350D03*
X013930Y022350D03*
X009930Y022350D03*
X008930Y022350D03*
X007930Y022350D03*
X006930Y022350D03*
X005930Y022350D03*
X004930Y022350D03*
X004930Y025350D03*
X003930Y025350D03*
X005930Y025350D03*
X006930Y025350D03*
X007930Y025350D03*
X008930Y025350D03*
X009930Y025350D03*
X012930Y025350D03*
X013930Y025350D03*
X014930Y025350D03*
X015930Y025350D03*
X016930Y025350D03*
X017930Y025350D03*
X018930Y025350D03*
X018930Y028850D03*
X019930Y028850D03*
X020930Y028850D03*
X021930Y028850D03*
X022930Y028850D03*
X023930Y028850D03*
X024930Y028850D03*
X025930Y028850D03*
X026930Y028850D03*
X026930Y031850D03*
X025930Y031850D03*
X024930Y031850D03*
X023930Y031850D03*
X022930Y031850D03*
X021930Y031850D03*
X020930Y031850D03*
X019930Y031850D03*
X018930Y031850D03*
X017930Y031850D03*
X017930Y033850D03*
X016930Y033850D03*
X018930Y033850D03*
X019930Y033850D03*
X020930Y033850D03*
X021930Y033850D03*
X022930Y033850D03*
X023930Y033850D03*
X024930Y033850D03*
X025930Y033850D03*
X026930Y033850D03*
X027930Y033850D03*
X028930Y033850D03*
X029930Y033850D03*
X030930Y033850D03*
X030930Y039850D03*
X029930Y039850D03*
X028930Y039850D03*
X027930Y039850D03*
X026930Y039850D03*
X025930Y039850D03*
X024930Y039850D03*
X023930Y039850D03*
X022930Y039850D03*
X021930Y039850D03*
X020930Y039850D03*
X019930Y039850D03*
X018930Y039850D03*
X017930Y039850D03*
X016930Y039850D03*
X015930Y039850D03*
X012930Y038350D03*
X011930Y038350D03*
X010930Y038350D03*
X009930Y038350D03*
X008930Y038350D03*
X007930Y038350D03*
X006930Y038350D03*
X005930Y038350D03*
X004930Y038350D03*
X003930Y038350D03*
X004930Y035350D03*
X005930Y035350D03*
X006930Y035350D03*
X007930Y035350D03*
X008930Y035350D03*
X009930Y035350D03*
X010930Y035350D03*
X011930Y035350D03*
X012930Y035350D03*
X012930Y031850D03*
X011930Y031850D03*
X010930Y031850D03*
X009930Y031850D03*
X008930Y031850D03*
X007930Y031850D03*
X006930Y031850D03*
X005930Y031850D03*
X004930Y031850D03*
X003930Y031850D03*
X004930Y028850D03*
X005930Y028850D03*
X006930Y028850D03*
X007930Y028850D03*
X008930Y028850D03*
X009930Y028850D03*
X010930Y028850D03*
X011930Y028850D03*
X012930Y028850D03*
X043430Y014225D03*
X047430Y014225D03*
X049555Y013475D03*
X050055Y014225D03*
X050555Y013475D03*
X052180Y013100D03*
X053180Y013100D03*
X054180Y013100D03*
X055180Y013100D03*
X056180Y013100D03*
X057180Y013100D03*
X058180Y013100D03*
X061180Y013100D03*
X062180Y013100D03*
X063180Y013100D03*
X064180Y013100D03*
X065180Y013100D03*
X066180Y013100D03*
X066180Y014100D03*
X065180Y014100D03*
X064180Y014100D03*
X063180Y014100D03*
X062180Y014100D03*
X067180Y014100D03*
X068180Y014100D03*
X069180Y014100D03*
X069180Y013100D03*
X068180Y013100D03*
X067180Y013100D03*
X070180Y013100D03*
X072055Y013600D03*
X070180Y010100D03*
X069180Y010100D03*
X068180Y010100D03*
X067180Y010100D03*
X066180Y010100D03*
X065180Y010100D03*
X064180Y010100D03*
X063180Y010100D03*
X062180Y010100D03*
X062180Y009100D03*
X061180Y009100D03*
X063180Y009100D03*
X064180Y009100D03*
X065180Y009100D03*
X066180Y009100D03*
X067180Y009100D03*
X068180Y009100D03*
X069180Y009100D03*
X070180Y009100D03*
X072055Y009600D03*
X072055Y008100D03*
X072805Y007600D03*
X072055Y007100D03*
X070180Y006100D03*
X069180Y006100D03*
X068180Y006100D03*
X067180Y006100D03*
X066180Y006100D03*
X065180Y006100D03*
X064180Y006100D03*
X063180Y006100D03*
X062180Y006100D03*
X058180Y006100D03*
X057180Y006100D03*
X056180Y006100D03*
X055180Y006100D03*
X054180Y006100D03*
X053180Y006100D03*
X052180Y006100D03*
X051180Y006100D03*
X050180Y006100D03*
X050180Y009100D03*
X049180Y009100D03*
X051180Y009100D03*
X052180Y009100D03*
X053180Y009100D03*
X054180Y009100D03*
X055180Y009100D03*
X056180Y009100D03*
X057180Y009100D03*
X058180Y009100D03*
X058180Y010100D03*
X057180Y010100D03*
X056180Y010100D03*
X055180Y010100D03*
X054180Y010100D03*
X053180Y010100D03*
D19*
X052180Y010100D03*
X049180Y006100D03*
X061180Y006100D03*
X061180Y010100D03*
X061180Y014100D03*
X030930Y009350D03*
X021930Y009350D03*
X012930Y009350D03*
X003930Y009350D03*
X003930Y015850D03*
X013930Y015850D03*
X025430Y015850D03*
X012930Y022350D03*
X003930Y022350D03*
X003930Y028850D03*
X015930Y033850D03*
X017930Y028850D03*
X003930Y035350D03*
D20*
X045430Y029975D03*
X049430Y030975D03*
X049430Y033975D03*
X009930Y013350D03*
X049180Y012100D03*
X071680Y004350D03*
D21*
X072680Y004350D03*
X073680Y004350D03*
X049180Y011100D03*
X046430Y024975D03*
X045430Y024975D03*
X045430Y025975D03*
X046430Y025975D03*
X046430Y026975D03*
X045430Y026975D03*
X045430Y027975D03*
X046430Y027975D03*
X046430Y028975D03*
X045430Y028975D03*
X046430Y029975D03*
X049430Y029975D03*
X049430Y028975D03*
X049430Y027975D03*
X049430Y026975D03*
X049430Y031975D03*
X049430Y032975D03*
X008930Y013350D03*
D22*
X078886Y014564D03*
X079205Y017225D03*
X078886Y019886D03*
D23*
X076724Y018544D03*
X076724Y015906D03*
X077705Y015906D03*
D24*
X077705Y018544D03*
D25*
X077149Y011701D03*
X078605Y010225D03*
X077149Y008749D03*
D26*
X044180Y008600D03*
D27*
X044180Y006600D03*
D28*
X002180Y005100D03*
X073430Y030100D03*
X078180Y041100D03*
X078180Y005100D03*
X002180Y041100D03*
D29*
X046180Y005100D03*
X046180Y004600D03*
X046180Y004100D03*
X047680Y004100D03*
X047680Y004600D03*
X047680Y005100D03*
X075180Y005100D03*
X075180Y004600D03*
X075180Y004100D03*
D30*
X070930Y028350D03*
X070930Y030350D03*
D31*
X044430Y023475D03*
X044055Y024100D03*
X044430Y021350D03*
X044055Y020600D03*
X039055Y017975D03*
X038555Y017725D03*
X037055Y016975D03*
X036555Y016725D03*
X036055Y016475D03*
X035555Y016225D03*
X031930Y013350D03*
X033430Y012850D03*
X035430Y012850D03*
X037430Y012850D03*
X039430Y012850D03*
X051680Y011600D03*
X054680Y009600D03*
X054680Y007975D03*
X056680Y008225D03*
X056680Y003975D03*
X055180Y003975D03*
X049680Y003975D03*
X064430Y003850D03*
X066680Y003850D03*
X067680Y003850D03*
X068680Y003850D03*
X056680Y013600D03*
X051680Y014350D03*
X029680Y023600D03*
X029305Y023975D03*
X028055Y024350D03*
X027555Y024350D03*
X027055Y024350D03*
X026555Y024350D03*
X026055Y024350D03*
X025180Y023975D03*
X024680Y021850D03*
X020555Y020725D03*
X018430Y020975D03*
X017930Y019975D03*
X015930Y019725D03*
X014430Y020600D03*
X015430Y020975D03*
X009430Y021850D03*
X006930Y021100D03*
X005930Y021475D03*
X013180Y026725D03*
X013805Y026725D03*
X014430Y026725D03*
X020055Y026975D03*
X020805Y026975D03*
X021805Y026975D03*
X022805Y026975D03*
X023805Y026975D03*
X024680Y027100D03*
X025180Y027600D03*
X025680Y028100D03*
X028180Y029100D03*
X028680Y029100D03*
X029180Y029100D03*
X029680Y029100D03*
X030180Y029100D03*
X030680Y029100D03*
X024430Y033350D03*
X022430Y033350D03*
X021430Y033350D03*
X019930Y034850D03*
X016930Y035100D03*
X016430Y037350D03*
X017930Y037350D03*
X023430Y035475D03*
X025930Y035100D03*
X026305Y035475D03*
X009430Y037350D03*
X008430Y037725D03*
X005430Y038850D03*
X028430Y021850D03*
X023930Y019975D03*
X022430Y015225D03*
X021680Y014725D03*
X019930Y014975D03*
X017180Y014100D03*
X016430Y015350D03*
X021430Y013350D03*
X024305Y013975D03*
X025055Y013725D03*
X018430Y008350D03*
X017430Y008350D03*
X016430Y008350D03*
X015930Y007600D03*
X012930Y008475D03*
X007930Y008475D03*
X005430Y008850D03*
X005805Y011475D03*
X003930Y011600D03*
X005430Y013350D03*
X010430Y014100D03*
X025430Y007225D03*
X026430Y007475D03*
M02*
