%
M48
M72
T01C0.0197
T02C0.0236
T03C0.0240
T04C0.0315
T05C0.0320
T06C0.0354
T07C0.0400
T08C0.0866
T09C0.0984
T10C0.1600
%
T01
X5180Y5975
X5180Y6600
X5430Y6850
X7930Y8475
X9430Y8475
X11805Y6850
X12180Y6850
X11930Y5975
X12930Y7725
X15430Y7225
X15930Y7600
X16430Y7975
X17430Y7975
X18430Y7975
X20805Y6850
X21180Y6850
X20930Y5975
X25430Y7225
X30180Y6850
X30555Y6850
X30430Y5975
X32430Y10850
X33430Y10850
X34430Y10850
X35430Y10850
X36430Y10850
X37430Y10850
X38430Y10850
X39430Y10850
X39430Y12850
X37430Y12850
X35430Y12850
X33430Y12850
X31930Y13350
X35555Y16225
X36055Y16475
X36555Y16725
X37055Y16975
X37555Y17225
X38055Y17475
X38555Y17725
X39055Y17975
X38555Y19725
X38555Y21975
X42805Y22100
X44430Y21350
X45180Y21225
X45180Y20850
X44055Y20600
X42805Y18475
X44805Y18100
X45555Y18100
X46305Y18100
X47305Y18080
X49180Y18725
X55930Y18080
X59180Y18725
X62430Y16850
X56680Y13600
X56180Y11350
X54680Y9600
X56680Y8225
X54680Y7975
X58930Y10475
X52680Y11350
X51680Y11600
X50180Y10600
X52680Y13600
X52180Y14100
X51680Y14475
X41305Y13850
X40305Y13850
X29930Y17475
X29930Y17850
X25430Y17538
X22430Y15225
X21680Y14725
X19930Y14975
X17180Y14100
X16430Y15350
X21430Y13350
X24305Y13975
X14430Y20600
X15430Y20975
X18430Y20975
X22555Y22100
X23805Y21850
X23930Y24225
X25930Y24850
X25555Y25225
X26305Y24475
X26680Y24100
X27305Y23975
X27805Y23975
X28305Y23975
X28805Y23975
X29305Y23975
X29680Y23600
X30055Y23225
X30430Y22850
X30430Y22225
X30930Y21725
X28430Y21850
X22930Y25225
X26430Y26350
X26930Y27725
X28180Y27975
X28430Y28225
X27805Y28850
X23430Y27350
X19430Y26975
X15430Y26225
X14430Y26225
X12430Y26975
X11430Y26975
X3430Y28350
X3180Y28600
X2430Y23350
X5930Y20475
X6930Y20850
X7430Y18350
X10430Y14100
X5430Y13350
X5805Y11475
X3930Y11600
X5430Y8850
X35430Y24775
X35455Y25475
X44055Y24100
X44430Y23475
X45180Y23475
X45180Y23850
X59180Y31225
X62555Y28600
X63930Y28600
X63930Y26850
X63930Y25850
X68680Y19225
X71180Y16725
X73680Y14225
X56680Y3975
X55180Y3975
X49680Y3975
X48430Y5600
X48055Y5975
X64430Y3850
X66680Y3850
X67680Y3850
X68680Y3850
X79180Y28725
X79180Y38725
X69180Y38725
X69180Y40600
X59180Y40600
X59180Y38725
X51680Y33725
X49180Y38725
X49180Y40600
X39930Y38725
X37930Y38725
X35430Y38075
X35430Y37375
X35430Y36675
X35430Y35975
X35430Y35275
X35430Y34575
X33180Y33600
X33180Y32975
X33180Y32350
X33180Y31725
X27805Y33850
X26430Y32850
T02
X23430Y38475
X19430Y38100
X15430Y38850
X11430Y38475
X7430Y38100
X27430Y38850
T03
X35930Y39125
X35930Y38425
X35930Y37725
X35930Y37025
X35930Y36325
X35930Y35625
X35930Y34925
X35930Y34225
X35930Y33525
X35930Y32825
X35930Y32125
X35930Y31425
X35930Y30725
X35930Y30025
X35930Y29325
X35930Y28625
X35930Y27925
X35930Y27225
X35930Y26525
X35930Y25825
X35930Y25125
X35930Y24425
X35930Y23725
X35930Y23025
X35930Y22325
X35930Y21625
X35930Y20925
X35930Y20225
X35930Y19525
X35930Y18825
X35930Y18125
X43430Y18125
X43430Y18825
X43430Y19525
X43430Y20225
X43430Y20925
X43430Y21625
X43430Y22325
X43430Y23025
X43430Y23725
X43430Y24425
X43430Y25125
X43430Y25825
X43430Y26525
X43430Y27225
X43430Y27925
X43430Y28625
X43430Y29325
X43430Y30025
X43430Y30725
X43430Y31425
X43430Y32125
X43430Y32825
X43430Y33525
X43430Y34225
X43430Y34925
X43430Y35625
X43430Y36325
X43430Y37025
X43430Y37725
X43430Y38425
X43430Y39125
X43430Y39825
X35930Y39825
T04
X34930Y39850
X34930Y38850
X44555Y32275
X44555Y31275
X58430Y29100
X59430Y29100
X59430Y28100
X58430Y28100
X58430Y27100
X59430Y27100
X59430Y26100
X58430Y26100
X58430Y24100
X59430Y24100
X62680Y22350
X63680Y22350
X66930Y25350
X67930Y25350
X71055Y25350
X71930Y25350
X59680Y12100
X59680Y11100
X59680Y8100
X59680Y7100
X50680Y11100
X50680Y12100
X47680Y8100
X47680Y7100
X47680Y5100
X47680Y4600
X47680Y4100
X46180Y4100
X46180Y4600
X46180Y5100
X29430Y10350
X29430Y11350
X20430Y11350
X20430Y10350
X11430Y10350
X11430Y11350
X2430Y11350
X2430Y10350
X2430Y16850
X2430Y17850
X12430Y17850
X12430Y16850
X25430Y20600
X26430Y20600
X32180Y19975
X32180Y18975
X32180Y17975
X32180Y16975
X33930Y22325
X34930Y22325
X25930Y27850
X24930Y27850
X21930Y27850
X20930Y27850
X17930Y27850
X16930Y27850
X13930Y27850
X12930Y27850
X9930Y27850
X8930Y27850
X5930Y27850
X4930Y27850
X75180Y5100
X75180Y4600
X75180Y4100
T05
X70180Y6100
X69180Y6100
X68180Y6100
X67180Y6100
X66180Y6100
X65180Y6100
X64180Y6100
X63180Y6100
X62180Y6100
X61180Y6100
X58180Y6100
X57180Y6100
X56180Y6100
X55180Y6100
X54180Y6100
X53180Y6100
X52180Y6100
X51180Y6100
X50180Y6100
X49180Y6100
X49180Y9100
X50180Y9100
X51180Y9100
X52180Y9100
X53180Y9100
X54180Y9100
X55180Y9100
X56180Y9100
X56180Y10100
X55180Y10100
X54180Y10100
X53180Y10100
X52180Y10100
X57180Y10100
X58180Y10100
X58180Y9100
X57180Y9100
X61180Y9100
X62180Y9100
X62180Y10100
X61180Y10100
X63180Y10100
X64180Y10100
X65180Y10100
X66180Y10100
X67180Y10100
X67180Y9100
X66180Y9100
X65180Y9100
X64180Y9100
X63180Y9100
X68180Y9100
X69180Y9100
X70180Y9100
X70180Y10100
X69180Y10100
X68180Y10100
X72055Y9600
X72055Y8100
X72805Y7600
X72055Y7100
X70180Y13100
X69180Y13100
X68180Y13100
X68180Y14100
X69180Y14100
X67180Y14100
X66180Y14100
X65180Y14100
X64180Y14100
X63180Y14100
X63180Y13100
X64180Y13100
X65180Y13100
X66180Y13100
X67180Y13100
X72055Y13600
X62180Y13100
X61180Y13100
X61180Y14100
X62180Y14100
X58180Y13100
X57180Y13100
X56180Y13100
X55180Y13100
X54180Y13100
X53180Y13100
X52180Y13100
X54180Y14100
X50180Y14100
X49180Y13350
X48180Y13350
X48680Y14100
X39930Y12350
X38930Y12350
X37930Y12350
X36930Y12350
X35930Y12350
X34930Y12350
X33930Y12350
X32930Y12350
X31930Y12350
X30930Y12350
X27930Y12350
X26930Y12350
X25930Y12350
X24930Y12350
X23930Y12350
X22930Y12350
X21930Y12350
X18930Y12350
X17930Y12350
X16930Y12350
X15930Y12350
X14930Y12350
X13930Y12350
X12930Y12350
X13930Y13350
X17930Y13350
X17930Y15850
X16930Y15850
X15930Y15850
X14930Y15850
X13930Y15850
X10930Y15850
X9930Y15850
X8930Y15850
X7930Y15850
X6930Y15850
X5930Y15850
X4930Y15850
X3930Y15850
X3930Y13350
X3930Y12350
X4930Y12350
X5930Y12350
X6930Y12350
X7930Y12350
X8930Y12350
X9930Y12350
X7930Y13350
X7930Y9350
X6930Y9350
X5930Y9350
X4930Y9350
X3930Y9350
X8930Y9350
X9930Y9350
X12930Y9350
X13930Y9350
X14930Y9350
X15930Y9350
X16930Y9350
X17930Y9350
X18930Y9350
X21930Y9350
X22930Y9350
X23930Y9350
X24930Y9350
X25930Y9350
X26930Y9350
X27930Y9350
X30930Y9350
X31930Y9350
X32930Y9350
X33930Y9350
X34930Y9350
X35930Y9350
X36930Y9350
X37930Y9350
X38930Y9350
X39930Y9350
X28430Y15850
X25430Y15850
X22930Y15850
X21930Y15850
X20930Y15850
X19930Y15850
X18930Y15850
X18930Y18850
X17930Y18850
X16930Y18850
X15930Y18850
X14930Y18850
X13930Y18850
X10930Y18850
X9930Y18850
X8930Y18850
X7930Y18850
X6930Y18850
X5930Y18850
X4930Y18850
X3930Y18850
X7430Y26850
X7430Y27850
X6930Y29350
X7930Y29350
X7930Y30350
X6930Y30350
X6930Y31350
X7930Y31350
X7930Y32350
X6930Y32350
X6930Y33350
X7930Y33350
X7930Y34350
X6930Y34350
X6930Y35350
X7930Y35350
X7930Y36350
X6930Y36350
X6930Y37350
X7930Y37350
X10930Y37350
X11930Y37350
X11930Y36350
X10930Y36350
X10930Y35350
X11930Y35350
X11930Y34350
X10930Y34350
X10930Y33350
X11930Y33350
X11930Y32350
X10930Y32350
X10930Y31350
X11930Y31350
X11930Y30350
X10930Y30350
X10930Y29350
X11930Y29350
X14930Y29350
X15930Y29350
X15930Y30350
X14930Y30350
X14930Y31350
X15930Y31350
X15930Y32350
X14930Y32350
X14930Y33350
X15930Y33350
X15930Y34350
X14930Y34350
X14930Y35350
X15930Y35350
X15930Y36350
X14930Y36350
X14930Y37350
X15930Y37350
X18930Y37350
X19930Y37350
X19930Y36350
X18930Y36350
X18930Y35350
X19930Y35350
X19930Y34350
X18930Y34350
X18930Y33350
X19930Y33350
X19930Y32350
X18930Y32350
X18930Y31350
X19930Y31350
X19930Y30350
X18930Y30350
X18930Y29350
X19930Y29350
X22930Y29350
X23930Y29350
X23930Y30350
X22930Y30350
X22930Y31350
X23930Y31350
X23930Y32350
X22930Y32350
X22930Y33350
X23930Y33350
X23930Y34350
X22930Y34350
X22930Y35350
X23930Y35350
X23930Y36350
X22930Y36350
X22930Y37350
X23930Y37350
X26930Y37350
X26930Y36350
X26930Y35350
X26930Y34350
X26930Y33350
X26930Y32350
X26930Y31350
X26930Y30350
X26930Y29350
X32430Y23825
X33430Y23825
X24430Y20600
X25430Y18850
X22930Y18850
X21930Y18850
X20930Y18850
X19930Y18850
X20430Y20600
X28430Y18850
X33930Y19436
X33930Y17514
X48430Y25975
X53430Y26100
X53430Y27100
X53430Y28100
X53430Y29100
X57430Y29100
X57430Y28100
X57430Y27100
X57430Y26100
X57430Y25100
X57430Y24100
X57430Y23100
X57430Y22100
X53430Y22100
X53430Y23100
X53430Y24100
X53430Y25100
X62680Y20600
X63680Y20600
X65930Y21350
X66930Y21350
X66930Y22350
X66930Y23350
X66930Y24350
X65930Y25350
X65930Y26850
X67805Y26850
X67805Y27850
X65930Y28850
X69930Y25350
X70930Y24350
X70930Y23350
X70930Y22350
X70930Y21350
X73055Y20475
X74055Y20475
X71430Y19350
X70430Y19350
X73055Y23350
X74055Y23350
X73930Y25350
X48430Y29975
X46305Y31275
X46305Y32275
X3930Y32350
X3930Y31350
X3930Y30350
X3930Y29350
X3930Y33350
X3930Y34350
X3930Y35350
X3930Y36350
X3930Y37350
T06
X76724Y18544
X77705Y18544
X77705Y15906
X76724Y15906
T07
X73680Y4350
X72680Y4350
X71680Y4350
X49180Y11100
X48180Y11100
X44180Y8600
X44180Y6600
X9930Y13350
X8930Y13350
X45430Y24975
X46430Y24975
X46430Y25975
X45430Y25975
X45430Y26975
X46430Y26975
X46430Y27975
X45430Y27975
X45430Y28975
X46430Y28975
X46430Y29975
X45430Y29975
X49430Y29975
X49430Y30975
X49430Y31975
X49430Y32975
X49430Y33975
X49430Y28975
X49430Y27975
X49430Y26975
X67805Y29225
X67805Y30225
X67805Y31225
T08
X78886Y19886
X79205Y17225
X78886Y14564
T09
X77149Y11701
X78605Y10225
X77149Y8749
T10
X2180Y5100
X2180Y41100
X73430Y30100
X78180Y41100
X78180Y5100
M30
