G75*
G70*
%OFA0B0*%
%FSLAX24Y24*%
%IPPOS*%
%LPD*%
%AMOC8*
5,1,8,0,0,1.08239X$1,22.5*
%
%ADD10C,0.0320*%
%ADD11R,3.2000X0.3000*%
%ADD12OC8,0.0468*%
%ADD13C,0.0468*%
%ADD14C,0.0595*%
%ADD15C,0.0690*%
%ADD16OC8,0.0690*%
%ADD17C,0.0604*%
%ADD18OC8,0.0604*%
%ADD19OC8,0.0740*%
%ADD20C,0.0740*%
%ADD21C,0.1326*%
%ADD22C,0.0662*%
%ADD23OC8,0.0662*%
%ADD24C,0.1444*%
%ADD25OC8,0.0920*%
%ADD26C,0.0920*%
%ADD27C,0.2560*%
%ADD28C,0.0535*%
%ADD29C,0.0580*%
%ADD30C,0.0417*%
D10*
X031868Y010475D02*
X031993Y010475D01*
X031993Y011225D01*
X031868Y011225D01*
X031868Y010475D01*
X031993Y010475D01*
X031993Y011225D01*
X031868Y011225D01*
X031868Y010475D01*
X031868Y010744D02*
X031993Y010744D01*
X031868Y010744D01*
X031868Y011063D02*
X031993Y011063D01*
X031868Y011063D01*
X032868Y011063D02*
X032993Y011063D01*
X032993Y011225D02*
X032993Y010475D01*
X032868Y010475D01*
X032868Y011225D01*
X032993Y011225D01*
X032993Y010744D02*
X032868Y010744D01*
X033868Y010744D02*
X033993Y010744D01*
X033993Y010475D02*
X033868Y010475D01*
X033868Y011225D01*
X033993Y011225D01*
X033993Y010475D01*
X033993Y011063D02*
X033868Y011063D01*
X034868Y011063D02*
X034993Y011063D01*
X034993Y011225D02*
X034993Y010475D01*
X034868Y010475D01*
X034868Y011225D01*
X034993Y011225D01*
X034993Y010744D02*
X034868Y010744D01*
X035868Y010744D02*
X035993Y010744D01*
X035993Y010475D02*
X035868Y010475D01*
X035868Y011225D01*
X035993Y011225D01*
X035993Y010475D01*
X035993Y011063D02*
X035868Y011063D01*
X036868Y011063D02*
X036993Y011063D01*
X036993Y011225D02*
X036993Y010475D01*
X036868Y010475D01*
X036868Y011225D01*
X036993Y011225D01*
X036993Y010744D02*
X036868Y010744D01*
X037868Y010744D02*
X037993Y010744D01*
X037993Y010475D02*
X037868Y010475D01*
X037868Y011225D01*
X037993Y011225D01*
X037993Y010475D01*
X037993Y011063D02*
X037868Y011063D01*
X038868Y011063D02*
X038993Y011063D01*
X038993Y011225D02*
X038993Y010475D01*
X038868Y010475D01*
X038868Y011225D01*
X038993Y011225D01*
X038993Y010744D02*
X038868Y010744D01*
D11*
X060180Y001600D03*
D12*
X043430Y018125D03*
D13*
X043430Y018825D03*
X043430Y019525D03*
X043430Y020225D03*
X043430Y020925D03*
X043430Y021625D03*
X043430Y022325D03*
X043430Y023025D03*
X043430Y023725D03*
X043430Y024425D03*
X043430Y025125D03*
X043430Y025825D03*
X043430Y026525D03*
X043430Y027225D03*
X043430Y027925D03*
X043430Y028625D03*
X043430Y029325D03*
X043430Y030025D03*
X043430Y030725D03*
X043430Y031425D03*
X043430Y032125D03*
X043430Y032825D03*
X043430Y033525D03*
X043430Y034225D03*
X043430Y034925D03*
X043430Y035625D03*
X043430Y036325D03*
X043430Y037025D03*
X043430Y037725D03*
X043430Y038425D03*
X043430Y039125D03*
X043430Y039825D03*
X035930Y039825D03*
X035930Y039125D03*
X035930Y038425D03*
X035930Y037725D03*
X035930Y037025D03*
X035930Y036325D03*
X035930Y035625D03*
X035930Y034925D03*
X035930Y034225D03*
X035930Y033525D03*
X035930Y032825D03*
X035930Y032125D03*
X035930Y031425D03*
X035930Y030725D03*
X035930Y030025D03*
X035930Y029325D03*
X035930Y028625D03*
X035930Y027925D03*
X035930Y027225D03*
X035930Y026525D03*
X035930Y025825D03*
X035930Y025125D03*
X035930Y024425D03*
X035930Y023725D03*
X035930Y023025D03*
X035930Y022325D03*
X035930Y021625D03*
X035930Y020925D03*
X035930Y020225D03*
X035930Y019525D03*
X035930Y018825D03*
X035930Y018125D03*
D14*
X032180Y017975D03*
X032180Y016975D03*
X032180Y018975D03*
X032180Y019975D03*
X033930Y022325D03*
X034930Y022325D03*
X026430Y020600D03*
X025430Y020600D03*
X012430Y017850D03*
X012430Y016850D03*
X011430Y011350D03*
X011430Y010350D03*
X002430Y010350D03*
X002430Y011350D03*
X002430Y016850D03*
X002430Y017850D03*
X002430Y023350D03*
X002430Y024350D03*
X011430Y024350D03*
X011430Y023350D03*
X016430Y029850D03*
X016430Y030850D03*
X002430Y030850D03*
X002430Y029850D03*
X002430Y036350D03*
X002430Y037350D03*
X014430Y038850D03*
X014430Y039850D03*
X034930Y039850D03*
X034930Y038850D03*
X044555Y032275D03*
X044555Y031275D03*
X058430Y029100D03*
X059430Y029100D03*
X059430Y028100D03*
X058430Y028100D03*
X058430Y027100D03*
X059430Y027100D03*
X059430Y026100D03*
X058430Y026100D03*
X058430Y024100D03*
X059430Y024100D03*
X062680Y022350D03*
X063680Y022350D03*
X066930Y025350D03*
X067930Y025350D03*
X065930Y026850D03*
X065930Y027850D03*
X059680Y012100D03*
X059680Y011100D03*
X059680Y008100D03*
X059680Y007100D03*
X050680Y011100D03*
X050680Y012100D03*
X047680Y008100D03*
X047680Y007100D03*
X029430Y010350D03*
X029430Y011350D03*
X020430Y011350D03*
X020430Y010350D03*
D15*
X032430Y023825D03*
X063680Y020600D03*
X073055Y019850D03*
X073055Y022225D03*
X073055Y024600D03*
X067680Y027850D03*
D16*
X067680Y026850D03*
X072055Y024600D03*
X072055Y022225D03*
X072055Y019850D03*
X062680Y020600D03*
X033430Y023825D03*
D17*
X033930Y019436D03*
X033930Y017514D03*
X028430Y018850D03*
X025430Y018850D03*
X022930Y018850D03*
X021930Y018850D03*
X020930Y018850D03*
X019930Y018850D03*
X018930Y018850D03*
X017930Y018850D03*
X016930Y018850D03*
X015930Y018850D03*
X014930Y018850D03*
X013930Y018850D03*
X010930Y018850D03*
X009930Y018850D03*
X008930Y018850D03*
X007930Y018850D03*
X006930Y018850D03*
X005930Y018850D03*
X004930Y018850D03*
X003930Y018850D03*
X004930Y015850D03*
X005930Y015850D03*
X006930Y015850D03*
X007930Y015850D03*
X008930Y015850D03*
X009930Y015850D03*
X010930Y015850D03*
X014930Y015850D03*
X015930Y015850D03*
X016930Y015850D03*
X017930Y015850D03*
X018930Y015850D03*
X019930Y015850D03*
X020930Y015850D03*
X021930Y015850D03*
X022930Y015850D03*
X017930Y013350D03*
X017930Y012350D03*
X016930Y012350D03*
X015930Y012350D03*
X014930Y012350D03*
X013930Y012350D03*
X012930Y012350D03*
X013930Y013350D03*
X009930Y012350D03*
X008930Y012350D03*
X007930Y012350D03*
X006930Y012350D03*
X005930Y012350D03*
X004930Y012350D03*
X003930Y012350D03*
X003930Y013350D03*
X007930Y013350D03*
X007930Y009350D03*
X006930Y009350D03*
X005930Y009350D03*
X004930Y009350D03*
X008930Y009350D03*
X009930Y009350D03*
X013930Y009350D03*
X014930Y009350D03*
X015930Y009350D03*
X016930Y009350D03*
X017930Y009350D03*
X018930Y009350D03*
X022930Y009350D03*
X023930Y009350D03*
X024930Y009350D03*
X025930Y009350D03*
X026930Y009350D03*
X027930Y009350D03*
X031930Y009350D03*
X032930Y009350D03*
X033930Y009350D03*
X034930Y009350D03*
X035930Y009350D03*
X036930Y009350D03*
X037930Y009350D03*
X038930Y009350D03*
X039930Y009350D03*
X039930Y012350D03*
X038930Y012350D03*
X037930Y012350D03*
X036930Y012350D03*
X035930Y012350D03*
X034930Y012350D03*
X033930Y012350D03*
X032930Y012350D03*
X031930Y012350D03*
X030930Y012350D03*
X027930Y012350D03*
X026930Y012350D03*
X025930Y012350D03*
X024930Y012350D03*
X023930Y012350D03*
X022930Y012350D03*
X021930Y012350D03*
X018930Y012350D03*
X028430Y015850D03*
X018930Y022350D03*
X017930Y022350D03*
X016930Y022350D03*
X015930Y022350D03*
X014930Y022350D03*
X013930Y022350D03*
X009930Y022350D03*
X008930Y022350D03*
X007930Y022350D03*
X006930Y022350D03*
X005930Y022350D03*
X004930Y022350D03*
X004930Y025350D03*
X003930Y025350D03*
X005930Y025350D03*
X006930Y025350D03*
X007930Y025350D03*
X008930Y025350D03*
X009930Y025350D03*
X012930Y025350D03*
X013930Y025350D03*
X014930Y025350D03*
X015930Y025350D03*
X016930Y025350D03*
X017930Y025350D03*
X018930Y025350D03*
X018930Y028850D03*
X019930Y028850D03*
X020930Y028850D03*
X021930Y028850D03*
X022930Y028850D03*
X023930Y028850D03*
X024930Y028850D03*
X025930Y028850D03*
X026930Y028850D03*
X026930Y031850D03*
X025930Y031850D03*
X024930Y031850D03*
X023930Y031850D03*
X022930Y031850D03*
X021930Y031850D03*
X020930Y031850D03*
X019930Y031850D03*
X018930Y031850D03*
X017930Y031850D03*
X017930Y033850D03*
X016930Y033850D03*
X018930Y033850D03*
X019930Y033850D03*
X020930Y033850D03*
X021930Y033850D03*
X022930Y033850D03*
X023930Y033850D03*
X024930Y033850D03*
X025930Y033850D03*
X026930Y033850D03*
X027930Y033850D03*
X028930Y033850D03*
X029930Y033850D03*
X030930Y033850D03*
X030930Y039850D03*
X029930Y039850D03*
X028930Y039850D03*
X027930Y039850D03*
X026930Y039850D03*
X025930Y039850D03*
X024930Y039850D03*
X023930Y039850D03*
X022930Y039850D03*
X021930Y039850D03*
X020930Y039850D03*
X019930Y039850D03*
X018930Y039850D03*
X017930Y039850D03*
X016930Y039850D03*
X015930Y039850D03*
X012930Y038350D03*
X011930Y038350D03*
X010930Y038350D03*
X009930Y038350D03*
X008930Y038350D03*
X007930Y038350D03*
X006930Y038350D03*
X005930Y038350D03*
X004930Y038350D03*
X003930Y038350D03*
X004930Y035350D03*
X005930Y035350D03*
X006930Y035350D03*
X007930Y035350D03*
X008930Y035350D03*
X009930Y035350D03*
X010930Y035350D03*
X011930Y035350D03*
X012930Y035350D03*
X012930Y031850D03*
X011930Y031850D03*
X010930Y031850D03*
X009930Y031850D03*
X008930Y031850D03*
X007930Y031850D03*
X006930Y031850D03*
X005930Y031850D03*
X004930Y031850D03*
X003930Y031850D03*
X004930Y028850D03*
X005930Y028850D03*
X006930Y028850D03*
X007930Y028850D03*
X008930Y028850D03*
X009930Y028850D03*
X010930Y028850D03*
X011930Y028850D03*
X012930Y028850D03*
X043430Y014225D03*
X047430Y014225D03*
X049555Y013475D03*
X050055Y014225D03*
X050555Y013475D03*
X052180Y013100D03*
X053180Y013100D03*
X054180Y013100D03*
X055180Y013100D03*
X056180Y013100D03*
X057180Y013100D03*
X058180Y013100D03*
X061180Y013100D03*
X062180Y013100D03*
X063180Y013100D03*
X064180Y013100D03*
X065180Y013100D03*
X066180Y013100D03*
X066180Y014100D03*
X065180Y014100D03*
X064180Y014100D03*
X063180Y014100D03*
X062180Y014100D03*
X067180Y014100D03*
X068180Y014100D03*
X069180Y014100D03*
X069180Y013100D03*
X068180Y013100D03*
X067180Y013100D03*
X070180Y013100D03*
X072055Y013600D03*
X070180Y010100D03*
X069180Y010100D03*
X068180Y010100D03*
X067180Y010100D03*
X066180Y010100D03*
X065180Y010100D03*
X064180Y010100D03*
X063180Y010100D03*
X062180Y010100D03*
X062180Y009100D03*
X061180Y009100D03*
X063180Y009100D03*
X064180Y009100D03*
X065180Y009100D03*
X066180Y009100D03*
X067180Y009100D03*
X068180Y009100D03*
X069180Y009100D03*
X070180Y009100D03*
X072055Y009600D03*
X072055Y008100D03*
X072805Y007600D03*
X072055Y007100D03*
X070180Y006100D03*
X069180Y006100D03*
X068180Y006100D03*
X067180Y006100D03*
X066180Y006100D03*
X065180Y006100D03*
X064180Y006100D03*
X063180Y006100D03*
X062180Y006100D03*
X058180Y006100D03*
X057180Y006100D03*
X056180Y006100D03*
X055180Y006100D03*
X054180Y006100D03*
X053180Y006100D03*
X052180Y006100D03*
X051180Y006100D03*
X050180Y006100D03*
X050180Y009100D03*
X049180Y009100D03*
X051180Y009100D03*
X052180Y009100D03*
X053180Y009100D03*
X054180Y009100D03*
X055180Y009100D03*
X056180Y009100D03*
X057180Y009100D03*
X058180Y009100D03*
X058180Y010100D03*
X057180Y010100D03*
X056180Y010100D03*
X055180Y010100D03*
X054180Y010100D03*
X053180Y010100D03*
X065930Y021350D03*
X066930Y021350D03*
X066930Y022350D03*
X066930Y023350D03*
X066930Y024350D03*
X065930Y025350D03*
X070930Y024350D03*
X070930Y023350D03*
X070930Y022350D03*
X070930Y021350D03*
X070930Y026350D03*
X070930Y027350D03*
X057430Y027100D03*
X057430Y026100D03*
X057430Y025100D03*
X057430Y024100D03*
X057430Y023100D03*
X057430Y022100D03*
X053430Y022100D03*
X053430Y023100D03*
X053430Y024100D03*
X053430Y025100D03*
X053430Y026100D03*
X053430Y027100D03*
X053430Y028100D03*
X053430Y029100D03*
X057430Y029100D03*
X057430Y028100D03*
X048430Y029975D03*
X048430Y025975D03*
D18*
X025430Y015850D03*
X013930Y015850D03*
X003930Y015850D03*
X003930Y009350D03*
X012930Y009350D03*
X021930Y009350D03*
X030930Y009350D03*
X049180Y006100D03*
X052180Y010100D03*
X061180Y010100D03*
X061180Y006100D03*
X061180Y014100D03*
X017930Y028850D03*
X015930Y033850D03*
X003930Y035350D03*
X003930Y028850D03*
X003930Y022350D03*
X012930Y022350D03*
D19*
X009930Y013350D03*
X045430Y029975D03*
X049430Y030975D03*
X049430Y033975D03*
X049180Y012100D03*
X071680Y004350D03*
D20*
X072680Y004350D03*
X073680Y004350D03*
X049180Y011100D03*
X046430Y024975D03*
X045430Y024975D03*
X045430Y025975D03*
X046430Y025975D03*
X046430Y026975D03*
X045430Y026975D03*
X045430Y027975D03*
X046430Y027975D03*
X046430Y028975D03*
X045430Y028975D03*
X046430Y029975D03*
X049430Y029975D03*
X049430Y028975D03*
X049430Y027975D03*
X049430Y026975D03*
X049430Y031975D03*
X049430Y032975D03*
X008930Y013350D03*
D21*
X078886Y014564D03*
X079205Y017225D03*
X078886Y019886D03*
D22*
X076724Y018544D03*
X076724Y015906D03*
X077705Y015906D03*
D23*
X077705Y018544D03*
D24*
X077149Y011701D03*
X078605Y010225D03*
X077149Y008749D03*
D25*
X044180Y008600D03*
D26*
X044180Y006600D03*
D27*
X002180Y005100D03*
X073430Y030100D03*
X078180Y041100D03*
X078180Y005100D03*
X002180Y041100D03*
D28*
X046180Y005100D03*
X046180Y004600D03*
X046180Y004100D03*
X047680Y004100D03*
X047680Y004600D03*
X047680Y005100D03*
X075180Y005100D03*
X075180Y004600D03*
X075180Y004100D03*
D29*
X070930Y028350D03*
X070930Y030350D03*
D30*
X044430Y023475D03*
X044055Y024100D03*
X044430Y021350D03*
X044055Y020600D03*
X039055Y017975D03*
X038555Y017725D03*
X037055Y016975D03*
X036555Y016725D03*
X036055Y016475D03*
X035555Y016225D03*
X031930Y013350D03*
X033430Y012850D03*
X035430Y012850D03*
X037430Y012850D03*
X039430Y012850D03*
X051680Y011600D03*
X054680Y009600D03*
X054680Y007975D03*
X056680Y008225D03*
X056680Y003975D03*
X055180Y003975D03*
X049680Y003975D03*
X064430Y003850D03*
X066680Y003850D03*
X067680Y003850D03*
X068680Y003850D03*
X056680Y013600D03*
X051680Y014350D03*
X029680Y023600D03*
X029305Y023975D03*
X028055Y024350D03*
X027555Y024350D03*
X027055Y024350D03*
X026555Y024350D03*
X026055Y024350D03*
X025180Y023975D03*
X024680Y021850D03*
X020555Y020725D03*
X018430Y020975D03*
X017930Y019975D03*
X015930Y019725D03*
X014430Y020600D03*
X015430Y020975D03*
X009430Y021850D03*
X006930Y021100D03*
X005930Y021475D03*
X013180Y026725D03*
X013805Y026725D03*
X014430Y026725D03*
X020055Y026975D03*
X020805Y026975D03*
X021805Y026975D03*
X022805Y026975D03*
X023805Y026975D03*
X024680Y027100D03*
X025180Y027600D03*
X025680Y028100D03*
X028180Y029100D03*
X028680Y029100D03*
X029180Y029100D03*
X029680Y029100D03*
X030180Y029100D03*
X030680Y029100D03*
X024430Y033350D03*
X022430Y033350D03*
X021430Y033350D03*
X019930Y034850D03*
X016930Y035100D03*
X016430Y037350D03*
X017930Y037350D03*
X023430Y035475D03*
X025930Y035100D03*
X026305Y035475D03*
X009430Y037350D03*
X008430Y037725D03*
X005430Y038850D03*
X028430Y021850D03*
X023930Y019975D03*
X022430Y015225D03*
X021680Y014725D03*
X019930Y014975D03*
X017180Y014100D03*
X016430Y015350D03*
X021430Y013350D03*
X024305Y013975D03*
X025055Y013725D03*
X018430Y008350D03*
X017430Y008350D03*
X016430Y008350D03*
X015930Y007600D03*
X012930Y008475D03*
X007930Y008475D03*
X005430Y008850D03*
X005805Y011475D03*
X003930Y011600D03*
X005430Y013350D03*
X010430Y014100D03*
X025430Y007225D03*
X026430Y007475D03*
M02*
