G75*
G70*
%OFA0B0*%
%FSLAX24Y24*%
%IPPOS*%
%LPD*%
%AMOC8*
5,1,8,0,0,1.08239X$1,22.5*
%
%ADD10C,0.0080*%
%ADD11C,0.0040*%
D10*
X031111Y010293D02*
X031164Y010240D01*
X031271Y010240D01*
X031324Y010293D01*
X031111Y010507D01*
X031111Y010293D01*
X031324Y010293D02*
X031324Y010507D01*
X031271Y010560D01*
X031164Y010560D01*
X031111Y010507D01*
X031111Y011140D02*
X031324Y011140D01*
X031217Y011140D02*
X031217Y011460D01*
X031324Y011354D01*
X031817Y011631D02*
X031817Y011844D01*
X031870Y011898D01*
X032031Y011898D01*
X032031Y011578D01*
X031870Y011578D01*
X031817Y011631D01*
X032169Y011578D02*
X032276Y011578D01*
X032223Y011578D02*
X032223Y011898D01*
X032276Y011898D02*
X032169Y011898D01*
X032799Y011844D02*
X032799Y011631D01*
X032853Y011578D01*
X033013Y011578D01*
X033013Y011898D01*
X032853Y011898D01*
X032799Y011844D01*
X033168Y011844D02*
X033168Y011738D01*
X033221Y011684D01*
X033381Y011684D01*
X033381Y011578D02*
X033381Y011898D01*
X033221Y011898D01*
X033168Y011844D01*
X033274Y011684D02*
X033168Y011578D01*
X033536Y011578D02*
X033536Y011791D01*
X033643Y011898D01*
X033749Y011791D01*
X033749Y011578D01*
X033749Y011738D02*
X033536Y011738D01*
X033904Y011844D02*
X033958Y011898D01*
X034064Y011898D01*
X034118Y011844D01*
X034118Y011631D01*
X034064Y011578D01*
X033958Y011578D01*
X033904Y011631D01*
X033914Y010185D02*
X034021Y010185D01*
X034074Y010132D01*
X033914Y010185D02*
X033861Y010132D01*
X033861Y010079D01*
X034074Y009865D01*
X033861Y009865D01*
X033074Y009865D02*
X032861Y009865D01*
X032967Y009865D02*
X032967Y010185D01*
X033074Y010079D01*
X032074Y010132D02*
X032074Y009918D01*
X031861Y010132D01*
X031861Y009918D01*
X031914Y009865D01*
X032021Y009865D01*
X032074Y009918D01*
X032074Y010132D02*
X032021Y010185D01*
X031914Y010185D01*
X031861Y010132D01*
X034861Y010132D02*
X034861Y010079D01*
X034914Y010025D01*
X034861Y009972D01*
X034861Y009918D01*
X034914Y009865D01*
X035021Y009865D01*
X035074Y009918D01*
X034967Y010025D02*
X034914Y010025D01*
X034861Y010132D02*
X034914Y010185D01*
X035021Y010185D01*
X035074Y010132D01*
X035861Y010025D02*
X036074Y010025D01*
X035914Y010185D01*
X035914Y009865D01*
X036861Y009918D02*
X036861Y010025D01*
X036914Y010079D01*
X036967Y010079D01*
X037074Y010025D01*
X037074Y010185D01*
X036861Y010185D01*
X036861Y009918D02*
X036914Y009865D01*
X037021Y009865D01*
X037074Y009918D01*
X037861Y009918D02*
X037861Y009972D01*
X037914Y010025D01*
X038074Y010025D01*
X038074Y009918D01*
X038021Y009865D01*
X037914Y009865D01*
X037861Y009918D01*
X037967Y010132D02*
X038074Y010025D01*
X037967Y010132D02*
X037861Y010185D01*
X038861Y010185D02*
X038861Y010132D01*
X039074Y009918D01*
X039074Y009865D01*
X039074Y010185D02*
X038861Y010185D01*
D11*
X044180Y004580D02*
X044333Y004580D01*
X044410Y004504D01*
X044180Y004580D02*
X044103Y004504D01*
X044103Y004427D01*
X044410Y004120D01*
X044103Y004120D01*
X075643Y004120D02*
X075950Y004120D01*
X075643Y004427D01*
X075643Y004504D01*
X075719Y004580D01*
X075873Y004580D01*
X075950Y004504D01*
X076103Y004580D02*
X076257Y004504D01*
X076410Y004350D01*
X076180Y004350D01*
X076103Y004273D01*
X076103Y004197D01*
X076180Y004120D01*
X076333Y004120D01*
X076410Y004197D01*
X076410Y004350D01*
M02*
