G75*
G70*
%OFA0B0*%
%FSLAX24Y24*%
%IPPOS*%
%LPD*%
%AMOC8*
5,1,8,0,0,1.08239X$1,22.5*
%
%ADD10C,0.0080*%
%ADD11C,0.0060*%
%ADD12C,0.0100*%
%ADD13C,0.0040*%
%ADD14C,0.0050*%
%ADD15R,0.0340X0.0240*%
%ADD16R,0.0240X0.0340*%
D10*
X006765Y014640D02*
X006905Y014780D01*
X007045Y014640D01*
X007045Y015060D01*
X007225Y014920D02*
X007365Y015060D01*
X007505Y014920D01*
X007505Y014640D01*
X007685Y014640D02*
X007825Y014640D01*
X007755Y014640D02*
X007755Y015060D01*
X007685Y015060D02*
X007825Y015060D01*
X007992Y015060D02*
X008273Y015060D01*
X008132Y015060D02*
X008132Y014640D01*
X007505Y014850D02*
X007225Y014850D01*
X007225Y014920D02*
X007225Y014640D01*
X006765Y014640D02*
X006765Y015060D01*
X008913Y014990D02*
X008913Y014710D01*
X008983Y014640D01*
X009123Y014640D01*
X009193Y014710D01*
X009193Y014990D01*
X009123Y015060D01*
X008983Y015060D01*
X008913Y014990D01*
X009373Y015060D02*
X009654Y014640D01*
X009654Y015060D01*
X009373Y015060D02*
X009373Y014640D01*
X010294Y014710D02*
X010294Y014990D01*
X010364Y015060D01*
X010504Y015060D01*
X010574Y014990D01*
X010755Y014990D02*
X010755Y014920D01*
X010825Y014850D01*
X010965Y014850D01*
X011035Y014780D01*
X011035Y014710D01*
X010965Y014640D01*
X010825Y014640D01*
X010755Y014710D01*
X010574Y014710D02*
X010504Y014640D01*
X010364Y014640D01*
X010294Y014710D01*
X010755Y014990D02*
X010825Y015060D01*
X010965Y015060D01*
X011035Y014990D01*
X011215Y015060D02*
X011495Y014640D01*
X011215Y014640D02*
X011495Y015060D01*
X011635Y015220D02*
X010254Y015220D01*
X033030Y017325D02*
X033030Y019625D01*
X033032Y019684D01*
X033038Y019742D01*
X033047Y019801D01*
X033061Y019858D01*
X033078Y019914D01*
X033099Y019969D01*
X033123Y020023D01*
X033151Y020075D01*
X033182Y020125D01*
X033216Y020173D01*
X033253Y020218D01*
X033294Y020261D01*
X033337Y020302D01*
X033382Y020339D01*
X033430Y020373D01*
X033480Y020404D01*
X033532Y020432D01*
X033586Y020456D01*
X033641Y020477D01*
X033697Y020494D01*
X033754Y020508D01*
X033813Y020517D01*
X033871Y020523D01*
X033930Y020525D01*
X033989Y020523D01*
X034047Y020517D01*
X034106Y020508D01*
X034163Y020494D01*
X034219Y020477D01*
X034274Y020456D01*
X034328Y020432D01*
X034380Y020404D01*
X034430Y020373D01*
X034478Y020339D01*
X034523Y020302D01*
X034566Y020261D01*
X034607Y020218D01*
X034644Y020173D01*
X034678Y020125D01*
X034709Y020075D01*
X034737Y020023D01*
X034761Y019969D01*
X034782Y019914D01*
X034799Y019858D01*
X034813Y019801D01*
X034822Y019742D01*
X034828Y019684D01*
X034830Y019625D01*
X034830Y017325D01*
X034828Y017266D01*
X034822Y017208D01*
X034813Y017149D01*
X034799Y017092D01*
X034782Y017036D01*
X034761Y016981D01*
X034737Y016927D01*
X034709Y016875D01*
X034678Y016825D01*
X034644Y016777D01*
X034607Y016732D01*
X034566Y016689D01*
X034523Y016648D01*
X034478Y016611D01*
X034430Y016577D01*
X034380Y016546D01*
X034328Y016518D01*
X034274Y016494D01*
X034219Y016473D01*
X034163Y016456D01*
X034106Y016442D01*
X034047Y016433D01*
X033989Y016427D01*
X033930Y016425D01*
X033871Y016427D01*
X033813Y016433D01*
X033754Y016442D01*
X033697Y016456D01*
X033641Y016473D01*
X033586Y016494D01*
X033532Y016518D01*
X033480Y016546D01*
X033430Y016577D01*
X033382Y016611D01*
X033337Y016648D01*
X033294Y016689D01*
X033253Y016732D01*
X033216Y016777D01*
X033182Y016825D01*
X033151Y016875D01*
X033123Y016927D01*
X033099Y016981D01*
X033078Y017036D01*
X033061Y017092D01*
X033047Y017149D01*
X033038Y017208D01*
X033032Y017266D01*
X033030Y017325D01*
X045265Y012185D02*
X045265Y011765D01*
X045405Y011905D01*
X045545Y011765D01*
X045545Y012185D01*
X045725Y012045D02*
X045865Y012185D01*
X046005Y012045D01*
X046005Y011765D01*
X046185Y011765D02*
X046325Y011765D01*
X046255Y011765D02*
X046255Y012185D01*
X046185Y012185D02*
X046325Y012185D01*
X046492Y012185D02*
X046773Y012185D01*
X046632Y012185D02*
X046632Y011765D01*
X046005Y011975D02*
X045725Y011975D01*
X045725Y012045D02*
X045725Y011765D01*
X047413Y011835D02*
X047483Y011765D01*
X047623Y011765D01*
X047693Y011835D01*
X047693Y011905D01*
X047623Y011975D01*
X047483Y011975D01*
X047413Y012045D01*
X047413Y012115D01*
X047483Y012185D01*
X047623Y012185D01*
X047693Y012115D01*
X047873Y012185D02*
X048154Y012185D01*
X048014Y012185D02*
X048014Y011765D01*
X048334Y011765D02*
X048334Y012045D01*
X048474Y012185D01*
X048614Y012045D01*
X048614Y011765D01*
X048614Y011975D02*
X048334Y011975D01*
X048794Y012185D02*
X049074Y012185D01*
X048934Y012185D02*
X048934Y011765D01*
X049255Y011765D02*
X049535Y011765D01*
X049715Y011835D02*
X049785Y011765D01*
X049925Y011765D01*
X049995Y011835D01*
X049995Y011905D01*
X049925Y011975D01*
X049785Y011975D01*
X049715Y012045D01*
X049715Y012115D01*
X049785Y012185D01*
X049925Y012185D01*
X049995Y012115D01*
X049535Y012185D02*
X049255Y012185D01*
X049255Y011765D01*
X049255Y011975D02*
X049395Y011975D01*
X070595Y005398D02*
X071015Y005118D01*
X071015Y004938D02*
X070875Y004797D01*
X071015Y004727D02*
X070945Y004657D01*
X070665Y004657D01*
X070595Y004727D01*
X070595Y004868D01*
X070665Y004938D01*
X070945Y004938D01*
X071015Y004868D01*
X071015Y004727D01*
X071015Y004477D02*
X070875Y004337D01*
X070875Y004407D02*
X070875Y004197D01*
X071015Y004197D02*
X070595Y004197D01*
X070595Y004407D01*
X070665Y004477D01*
X070805Y004477D01*
X070875Y004407D01*
X071015Y004030D02*
X071015Y003890D01*
X071015Y003960D02*
X070595Y003960D01*
X070595Y003890D02*
X070595Y004030D01*
X070595Y005118D02*
X071015Y005398D01*
X074345Y004951D02*
X074345Y004811D01*
X074345Y004881D02*
X074765Y004881D01*
X074765Y004811D02*
X074765Y004951D01*
X074765Y004631D02*
X074345Y004631D01*
X074485Y004491D01*
X074345Y004350D01*
X074765Y004350D01*
X074765Y004170D02*
X074345Y004170D01*
X074345Y003890D02*
X074765Y004170D01*
X074765Y003890D02*
X074345Y003890D01*
X064223Y023147D02*
X062137Y023147D01*
X062137Y029053D01*
X064223Y029053D01*
X064223Y023147D01*
X068470Y029015D02*
X068680Y029015D01*
X068750Y029085D01*
X068750Y029155D01*
X068680Y029225D01*
X068470Y029225D01*
X068470Y029015D02*
X068470Y029435D01*
X068680Y029435D01*
X068750Y029365D01*
X068750Y029295D01*
X068680Y029225D01*
X068680Y030015D02*
X068750Y030085D01*
X068750Y030225D01*
X068610Y030225D01*
X068470Y030085D02*
X068540Y030015D01*
X068680Y030015D01*
X068470Y030085D02*
X068470Y030365D01*
X068540Y030435D01*
X068680Y030435D01*
X068750Y030365D01*
X068750Y031015D02*
X068610Y031155D01*
X068680Y031155D02*
X068470Y031155D01*
X068470Y031015D02*
X068470Y031435D01*
X068680Y031435D01*
X068750Y031365D01*
X068750Y031225D01*
X068680Y031155D01*
X052357Y027345D02*
X050055Y027345D01*
X050165Y027185D02*
X050095Y027115D01*
X050095Y026835D01*
X050165Y026765D01*
X050305Y026765D01*
X050375Y026835D01*
X050555Y026835D02*
X050625Y026765D01*
X050766Y026765D01*
X050836Y026835D01*
X050836Y026905D01*
X050766Y026975D01*
X050625Y026975D01*
X050555Y027045D01*
X050555Y027115D01*
X050625Y027185D01*
X050766Y027185D01*
X050836Y027115D01*
X051016Y027115D02*
X051156Y026975D01*
X051156Y026765D01*
X051156Y026975D02*
X051296Y027115D01*
X051296Y027185D01*
X051476Y027185D02*
X051756Y026765D01*
X051756Y027185D01*
X051937Y027115D02*
X051937Y026835D01*
X052007Y026765D01*
X052147Y026765D01*
X052217Y026835D01*
X052217Y027115D02*
X052147Y027185D01*
X052007Y027185D01*
X051937Y027115D01*
X051476Y027185D02*
X051476Y026765D01*
X051016Y027115D02*
X051016Y027185D01*
X050375Y027115D02*
X050305Y027185D01*
X050165Y027185D01*
X050165Y027765D02*
X050095Y027835D01*
X050165Y027765D02*
X050305Y027765D01*
X050375Y027835D01*
X050375Y027905D01*
X050305Y027975D01*
X050165Y027975D01*
X050095Y028045D01*
X050095Y028115D01*
X050165Y028185D01*
X050305Y028185D01*
X050375Y028115D01*
X050555Y028115D02*
X050625Y028185D01*
X050766Y028185D01*
X050836Y028115D01*
X050836Y027835D02*
X050766Y027765D01*
X050625Y027765D01*
X050555Y027835D01*
X050555Y028115D01*
X050555Y028765D02*
X050555Y029185D01*
X050836Y028765D01*
X050836Y029185D01*
X051016Y029185D02*
X051226Y029185D01*
X051296Y029115D01*
X051296Y028835D01*
X051226Y028765D01*
X051016Y028765D01*
X051016Y029185D01*
X051016Y029765D02*
X051226Y029765D01*
X051296Y029835D01*
X051296Y030115D01*
X051226Y030185D01*
X051016Y030185D01*
X051016Y029765D01*
X050836Y029765D02*
X050836Y030185D01*
X050555Y030185D02*
X050836Y029765D01*
X050555Y029765D02*
X050555Y030185D01*
X050375Y030115D02*
X050305Y030185D01*
X050165Y030185D01*
X050095Y030115D01*
X050095Y029835D01*
X050165Y029765D01*
X050305Y029765D01*
X050375Y029835D01*
X050375Y029975D01*
X050235Y029975D01*
X050165Y029185D02*
X050095Y029115D01*
X050095Y028835D01*
X050165Y028765D01*
X050305Y028765D01*
X050375Y028835D01*
X050375Y028975D01*
X050235Y028975D01*
X050375Y029115D02*
X050305Y029185D01*
X050165Y029185D01*
X047836Y029115D02*
X047836Y029045D01*
X047766Y028975D01*
X047836Y028905D01*
X047836Y028835D01*
X047766Y028765D01*
X047625Y028765D01*
X047555Y028835D01*
X047375Y028835D02*
X047305Y028765D01*
X047165Y028765D01*
X047095Y028835D01*
X047095Y029115D01*
X047165Y029185D01*
X047305Y029185D01*
X047375Y029115D01*
X047555Y029115D02*
X047625Y029185D01*
X047766Y029185D01*
X047836Y029115D01*
X047766Y028975D02*
X047696Y028975D01*
X047836Y028185D02*
X047555Y028185D01*
X047555Y027975D01*
X047696Y028045D01*
X047766Y028045D01*
X047836Y027975D01*
X047836Y027835D01*
X047766Y027765D01*
X047625Y027765D01*
X047555Y027835D01*
X047375Y027835D02*
X047305Y027765D01*
X047165Y027765D01*
X047095Y027835D01*
X047095Y028115D01*
X047165Y028185D01*
X047305Y028185D01*
X047375Y028115D01*
X047305Y027185D02*
X047165Y027185D01*
X047095Y027115D01*
X047095Y026835D01*
X047165Y026765D01*
X047305Y026765D01*
X047375Y026835D01*
X047555Y026835D02*
X047555Y026765D01*
X047555Y026835D02*
X047836Y027115D01*
X047836Y027185D01*
X047555Y027185D01*
X047375Y027115D02*
X047305Y027185D01*
X047055Y026345D02*
X047976Y026345D01*
X047555Y026185D02*
X047555Y025765D01*
X047836Y025765D01*
X047375Y025835D02*
X047375Y026115D01*
X047305Y026185D01*
X047095Y026185D01*
X047095Y025765D01*
X047305Y025765D01*
X047375Y025835D01*
X047305Y025185D02*
X047165Y025185D01*
X047095Y025115D01*
X047095Y024835D01*
X047165Y024765D01*
X047305Y024765D01*
X047375Y024835D01*
X047375Y024975D01*
X047235Y024975D01*
X047375Y025115D02*
X047305Y025185D01*
X047555Y025185D02*
X047836Y024765D01*
X047836Y025185D01*
X048016Y025185D02*
X048016Y024765D01*
X048226Y024765D01*
X048296Y024835D01*
X048296Y025115D01*
X048226Y025185D01*
X048016Y025185D01*
X047555Y025185D02*
X047555Y024765D01*
X044805Y025345D02*
X043884Y025345D01*
X043924Y025185D02*
X044134Y025185D01*
X044204Y025115D01*
X044204Y024835D01*
X044134Y024765D01*
X043924Y024765D01*
X043924Y025185D01*
X044385Y025185D02*
X044385Y024765D01*
X044385Y024975D02*
X044665Y024975D01*
X044665Y025185D02*
X044665Y024765D01*
X044665Y025765D02*
X044525Y025905D01*
X044595Y025905D02*
X044385Y025905D01*
X044385Y025765D02*
X044385Y026185D01*
X044595Y026185D01*
X044665Y026115D01*
X044665Y025975D01*
X044595Y025905D01*
X044204Y025835D02*
X044204Y026115D01*
X044134Y026185D01*
X043924Y026185D01*
X043924Y025765D01*
X044134Y025765D01*
X044204Y025835D01*
X044134Y026765D02*
X044204Y026835D01*
X044134Y026765D02*
X043994Y026765D01*
X043924Y026835D01*
X043924Y027115D01*
X043994Y027185D01*
X044134Y027185D01*
X044204Y027115D01*
X044385Y026975D02*
X044595Y026975D01*
X044665Y026905D01*
X044665Y026835D01*
X044595Y026765D01*
X044455Y026765D01*
X044385Y026835D01*
X044385Y026975D01*
X044525Y027115D01*
X044665Y027185D01*
X044595Y027765D02*
X044595Y028185D01*
X044385Y027975D01*
X044665Y027975D01*
X044204Y027835D02*
X044134Y027765D01*
X043994Y027765D01*
X043924Y027835D01*
X043924Y028115D01*
X043994Y028185D01*
X044134Y028185D01*
X044204Y028115D01*
X044134Y028765D02*
X044204Y028835D01*
X044134Y028765D02*
X043994Y028765D01*
X043924Y028835D01*
X043924Y029115D01*
X043994Y029185D01*
X044134Y029185D01*
X044204Y029115D01*
X044385Y029115D02*
X044455Y029185D01*
X044595Y029185D01*
X044665Y029115D01*
X044665Y029045D01*
X044385Y028765D01*
X044665Y028765D01*
X044595Y029765D02*
X044455Y029765D01*
X044385Y029835D01*
X044665Y030115D01*
X044665Y029835D01*
X044595Y029765D01*
X044385Y029835D02*
X044385Y030115D01*
X044455Y030185D01*
X044595Y030185D01*
X044665Y030115D01*
X044204Y030115D02*
X044134Y030185D01*
X043994Y030185D01*
X043924Y030115D01*
X043924Y029835D01*
X043994Y029765D01*
X044134Y029765D01*
X044204Y029835D01*
X047095Y029835D02*
X047165Y029765D01*
X047305Y029765D01*
X047375Y029835D01*
X047555Y029765D02*
X047836Y029765D01*
X047696Y029765D02*
X047696Y030185D01*
X047555Y030045D01*
X047375Y030115D02*
X047305Y030185D01*
X047165Y030185D01*
X047095Y030115D01*
X047095Y029835D01*
X050095Y030975D02*
X050375Y030975D01*
X050555Y030975D02*
X050555Y031185D01*
X050836Y031185D01*
X050766Y031045D02*
X050836Y030975D01*
X050836Y030835D01*
X050766Y030765D01*
X050625Y030765D01*
X050555Y030835D01*
X050555Y030975D02*
X050696Y031045D01*
X050766Y031045D01*
X051016Y030905D02*
X051156Y030765D01*
X051296Y030905D01*
X051296Y031185D01*
X051016Y031185D02*
X051016Y030905D01*
X050235Y030835D02*
X050235Y031115D01*
X050165Y031765D02*
X050305Y031765D01*
X050375Y031835D01*
X050375Y031975D01*
X050235Y031975D01*
X050095Y031835D02*
X050165Y031765D01*
X050095Y031835D02*
X050095Y032115D01*
X050165Y032185D01*
X050305Y032185D01*
X050375Y032115D01*
X050375Y032765D02*
X050235Y032905D01*
X050305Y032905D02*
X050095Y032905D01*
X050095Y032765D02*
X050095Y033185D01*
X050305Y033185D01*
X050375Y033115D01*
X050375Y032975D01*
X050305Y032905D01*
X050305Y033765D02*
X050095Y033765D01*
X050095Y034185D01*
X050305Y034185D01*
X050375Y034115D01*
X050375Y034045D01*
X050305Y033975D01*
X050095Y033975D01*
X050305Y033975D02*
X050375Y033905D01*
X050375Y033835D01*
X050305Y033765D01*
X051003Y025810D02*
X051284Y025390D01*
X051284Y025810D01*
X051464Y025810D02*
X051744Y025810D01*
X051604Y025810D02*
X051604Y025390D01*
X051924Y025460D02*
X051994Y025390D01*
X052134Y025390D01*
X052204Y025460D01*
X052204Y025530D01*
X052134Y025600D01*
X051994Y025600D01*
X051924Y025670D01*
X051924Y025740D01*
X051994Y025810D01*
X052134Y025810D01*
X052204Y025740D01*
X052385Y025740D02*
X052385Y025460D01*
X052455Y025390D01*
X052595Y025390D01*
X052665Y025460D01*
X052665Y025740D02*
X052595Y025810D01*
X052455Y025810D01*
X052385Y025740D01*
X051003Y025810D02*
X051003Y025390D01*
X051464Y023810D02*
X051674Y023810D01*
X051744Y023740D01*
X051744Y023600D01*
X051674Y023530D01*
X051464Y023530D01*
X051464Y023390D02*
X051464Y023810D01*
X051924Y023670D02*
X052064Y023810D01*
X052204Y023670D01*
X052204Y023390D01*
X052385Y023390D02*
X052665Y023390D01*
X052385Y023390D02*
X052385Y023810D01*
X052204Y023600D02*
X051924Y023600D01*
X051924Y023670D02*
X051924Y023390D01*
X018453Y041335D02*
X018453Y041615D01*
X018383Y041685D01*
X018243Y041685D01*
X018173Y041615D01*
X018173Y041545D01*
X018243Y041475D01*
X018453Y041475D01*
X018453Y041335D02*
X018383Y041265D01*
X018243Y041265D01*
X018173Y041335D01*
X017993Y041475D02*
X017713Y041475D01*
X017923Y041685D01*
X017923Y041265D01*
X017532Y041335D02*
X017532Y041615D01*
X017462Y041685D01*
X017322Y041685D01*
X017252Y041615D01*
X017252Y041545D01*
X017322Y041475D01*
X017532Y041475D01*
X017532Y041335D02*
X017462Y041265D01*
X017322Y041265D01*
X017252Y041335D01*
X017072Y041265D02*
X016792Y041265D01*
X016932Y041265D02*
X016932Y041685D01*
X016792Y041545D01*
X016151Y041265D02*
X015871Y041265D01*
X016011Y041265D02*
X016011Y041685D01*
X015871Y041545D01*
X015711Y041335D02*
X015711Y041265D01*
X015641Y041265D01*
X015641Y041335D01*
X015711Y041335D01*
X015461Y041265D02*
X015180Y041265D01*
X015321Y041265D02*
X015321Y041685D01*
X015180Y041545D01*
X015000Y041405D02*
X015000Y041685D01*
X015000Y041405D02*
X014860Y041265D01*
X014720Y041405D01*
X014720Y041685D01*
X014970Y042015D02*
X015250Y042435D01*
X015430Y042435D02*
X015571Y042295D01*
X015711Y042435D01*
X015711Y042015D01*
X015891Y042015D02*
X016031Y042015D01*
X015961Y042015D02*
X015961Y042435D01*
X015891Y042435D02*
X016031Y042435D01*
X016198Y042365D02*
X016268Y042435D01*
X016408Y042435D01*
X016478Y042365D01*
X016658Y042435D02*
X016658Y042015D01*
X016658Y042155D02*
X016868Y042155D01*
X016938Y042225D01*
X016938Y042365D01*
X016868Y042435D01*
X016658Y042435D01*
X016798Y042155D02*
X016938Y042015D01*
X017118Y042085D02*
X017189Y042015D01*
X017329Y042015D01*
X017399Y042085D01*
X017399Y042365D01*
X017329Y042435D01*
X017189Y042435D01*
X017118Y042365D01*
X017118Y042085D01*
X017579Y042225D02*
X017859Y042225D01*
X018039Y042155D02*
X018179Y042015D01*
X018320Y042155D01*
X018320Y042435D01*
X018500Y042435D02*
X018500Y042015D01*
X018710Y042015D01*
X018780Y042085D01*
X018780Y042365D01*
X018710Y042435D01*
X018500Y042435D01*
X018960Y042435D02*
X019170Y042435D01*
X019240Y042365D01*
X019240Y042225D01*
X019170Y042155D01*
X018960Y042155D01*
X018960Y042015D02*
X018960Y042435D01*
X018039Y042435D02*
X018039Y042155D01*
X016478Y042085D02*
X016408Y042015D01*
X016268Y042015D01*
X016198Y042085D01*
X016198Y042365D01*
X015430Y042435D02*
X015430Y042015D01*
X015250Y042015D02*
X014970Y042435D01*
D11*
X003710Y003703D02*
X003783Y003630D01*
X003930Y003630D01*
X004004Y003703D01*
X004170Y003630D02*
X004170Y004070D01*
X004004Y003997D02*
X003930Y004070D01*
X003783Y004070D01*
X003710Y003997D01*
X003710Y003703D01*
X004170Y003850D02*
X004464Y003850D01*
X004631Y003777D02*
X004851Y003777D01*
X004924Y003850D01*
X004924Y003997D01*
X004851Y004070D01*
X004631Y004070D01*
X004631Y003630D01*
X004464Y003630D02*
X004464Y004070D01*
X004778Y003777D02*
X004924Y003630D01*
X005091Y003630D02*
X005238Y003630D01*
X005165Y003630D02*
X005165Y004070D01*
X005238Y004070D02*
X005091Y004070D01*
X005398Y003997D02*
X005398Y003924D01*
X005472Y003850D01*
X005618Y003850D01*
X005692Y003777D01*
X005692Y003703D01*
X005618Y003630D01*
X005472Y003630D01*
X005398Y003703D01*
X005398Y003997D02*
X005472Y004070D01*
X005618Y004070D01*
X005692Y003997D01*
X006319Y004070D02*
X006319Y003630D01*
X006466Y003777D01*
X006612Y003630D01*
X006612Y004070D01*
X006779Y004070D02*
X006779Y003630D01*
X007073Y003630D01*
X007240Y003630D02*
X007386Y003630D01*
X007313Y003630D02*
X007313Y004070D01*
X007240Y004070D02*
X007386Y004070D01*
X007547Y004070D02*
X007767Y004070D01*
X007840Y003997D01*
X007840Y003850D01*
X007767Y003777D01*
X007547Y003777D01*
X007693Y003777D02*
X007840Y003630D01*
X007547Y003630D02*
X007547Y004070D01*
X007073Y004070D02*
X006779Y004070D01*
X006779Y003850D02*
X006926Y003850D01*
X008467Y003997D02*
X008541Y004070D01*
X008688Y004070D01*
X008761Y003997D01*
X008761Y003924D01*
X008467Y003630D01*
X008761Y003630D01*
X008928Y003703D02*
X009221Y003997D01*
X009221Y003703D01*
X009148Y003630D01*
X009001Y003630D01*
X008928Y003703D01*
X008928Y003997D01*
X009001Y004070D01*
X009148Y004070D01*
X009221Y003997D01*
X009388Y003924D02*
X009535Y004070D01*
X009535Y003630D01*
X009388Y003630D02*
X009682Y003630D01*
X009849Y003703D02*
X009922Y003630D01*
X010069Y003630D01*
X010142Y003703D01*
X010142Y003997D01*
X010069Y004070D01*
X009922Y004070D01*
X009849Y003997D01*
X009849Y003924D01*
X009922Y003850D01*
X010142Y003850D01*
X013283Y008380D02*
X013430Y008380D01*
X013504Y008453D01*
X013504Y008820D01*
X013670Y008674D02*
X013817Y008820D01*
X013817Y008380D01*
X013670Y008380D02*
X013964Y008380D01*
X014131Y008453D02*
X014424Y008747D01*
X014424Y008453D01*
X014351Y008380D01*
X014204Y008380D01*
X014131Y008453D01*
X014131Y008747D01*
X014204Y008820D01*
X014351Y008820D01*
X014424Y008747D01*
X013283Y008380D02*
X013210Y008453D01*
X013210Y008820D01*
X012430Y009700D02*
X012430Y010450D01*
X012469Y010452D01*
X012508Y010458D01*
X012546Y010467D01*
X012583Y010480D01*
X012619Y010497D01*
X012652Y010517D01*
X012684Y010541D01*
X012713Y010567D01*
X012739Y010596D01*
X012763Y010628D01*
X012783Y010661D01*
X012800Y010697D01*
X012813Y010734D01*
X012822Y010772D01*
X012828Y010811D01*
X012830Y010850D01*
X012828Y010889D01*
X012822Y010928D01*
X012813Y010966D01*
X012800Y011003D01*
X012783Y011039D01*
X012763Y011072D01*
X012739Y011104D01*
X012713Y011133D01*
X012684Y011159D01*
X012652Y011183D01*
X012619Y011203D01*
X012583Y011220D01*
X012546Y011233D01*
X012508Y011242D01*
X012469Y011248D01*
X012430Y011250D01*
X012430Y012000D01*
X019430Y012000D01*
X019430Y009700D01*
X012430Y009700D01*
X011880Y010200D02*
X011880Y011500D01*
X011878Y011526D01*
X011873Y011552D01*
X011865Y011577D01*
X011853Y011600D01*
X011839Y011622D01*
X011821Y011641D01*
X011802Y011659D01*
X011780Y011673D01*
X011757Y011685D01*
X011732Y011693D01*
X011706Y011698D01*
X011680Y011700D01*
X011180Y011700D01*
X011154Y011698D01*
X011128Y011693D01*
X011103Y011685D01*
X011080Y011673D01*
X011058Y011659D01*
X011039Y011641D01*
X011021Y011622D01*
X011007Y011600D01*
X010995Y011577D01*
X010987Y011552D01*
X010982Y011526D01*
X010980Y011500D01*
X010980Y010200D01*
X010982Y010174D01*
X010987Y010148D01*
X010995Y010123D01*
X011007Y010100D01*
X011021Y010078D01*
X011039Y010059D01*
X011058Y010041D01*
X011080Y010027D01*
X011103Y010015D01*
X011128Y010007D01*
X011154Y010002D01*
X011180Y010000D01*
X011680Y010000D01*
X011706Y010002D01*
X011732Y010007D01*
X011757Y010015D01*
X011780Y010027D01*
X011802Y010041D01*
X011821Y010059D01*
X011839Y010078D01*
X011853Y010100D01*
X011865Y010123D01*
X011873Y010148D01*
X011878Y010174D01*
X011880Y010200D01*
X010430Y009700D02*
X010430Y012000D01*
X003430Y012000D01*
X003430Y011250D01*
X003469Y011248D01*
X003508Y011242D01*
X003546Y011233D01*
X003583Y011220D01*
X003619Y011203D01*
X003652Y011183D01*
X003684Y011159D01*
X003713Y011133D01*
X003739Y011104D01*
X003763Y011072D01*
X003783Y011039D01*
X003800Y011003D01*
X003813Y010966D01*
X003822Y010928D01*
X003828Y010889D01*
X003830Y010850D01*
X003828Y010811D01*
X003822Y010772D01*
X003813Y010734D01*
X003800Y010697D01*
X003783Y010661D01*
X003763Y010628D01*
X003739Y010596D01*
X003713Y010567D01*
X003684Y010541D01*
X003652Y010517D01*
X003619Y010497D01*
X003583Y010480D01*
X003546Y010467D01*
X003508Y010458D01*
X003469Y010452D01*
X003430Y010450D01*
X003430Y009700D01*
X010430Y009700D01*
X007641Y010630D02*
X007641Y011070D01*
X007420Y010850D01*
X007714Y010850D01*
X007254Y010997D02*
X006960Y010703D01*
X006960Y010630D01*
X006720Y010630D02*
X006720Y011070D01*
X006500Y010850D01*
X006793Y010850D01*
X006960Y011070D02*
X007254Y011070D01*
X007254Y010997D01*
X006333Y010997D02*
X006039Y010703D01*
X006039Y010630D01*
X006039Y011070D02*
X006333Y011070D01*
X006333Y010997D01*
X006930Y012900D02*
X006880Y012950D01*
X004980Y012950D01*
X004930Y012900D01*
X004780Y012900D01*
X004763Y012902D01*
X004746Y012906D01*
X004730Y012913D01*
X004716Y012923D01*
X004703Y012936D01*
X004693Y012950D01*
X004686Y012966D01*
X004682Y012983D01*
X004680Y013000D01*
X004680Y013700D01*
X004682Y013717D01*
X004686Y013734D01*
X004693Y013750D01*
X004703Y013764D01*
X004716Y013777D01*
X004730Y013787D01*
X004746Y013794D01*
X004763Y013798D01*
X004780Y013800D01*
X004930Y013800D01*
X004980Y013750D01*
X006880Y013750D01*
X006930Y013800D01*
X007080Y013800D01*
X007097Y013798D01*
X007114Y013794D01*
X007130Y013787D01*
X007144Y013777D01*
X007157Y013764D01*
X007167Y013750D01*
X007174Y013734D01*
X007178Y013717D01*
X007180Y013700D01*
X007180Y013000D01*
X007178Y012983D01*
X007174Y012966D01*
X007167Y012950D01*
X007157Y012936D01*
X007144Y012923D01*
X007130Y012913D01*
X007114Y012906D01*
X007097Y012902D01*
X007080Y012900D01*
X006930Y012900D01*
X006949Y013130D02*
X006729Y013277D01*
X006949Y013424D01*
X006729Y013570D02*
X006729Y013130D01*
X006562Y013203D02*
X006562Y013497D01*
X006268Y013203D01*
X006342Y013130D01*
X006488Y013130D01*
X006562Y013203D01*
X006268Y013203D02*
X006268Y013497D01*
X006342Y013570D01*
X006488Y013570D01*
X006562Y013497D01*
X006101Y013130D02*
X005808Y013130D01*
X005955Y013130D02*
X005955Y013570D01*
X005808Y013424D01*
X005793Y014005D02*
X005646Y014152D01*
X005720Y014152D02*
X005500Y014152D01*
X005500Y014005D02*
X005500Y014445D01*
X005720Y014445D01*
X005793Y014372D01*
X005793Y014225D01*
X005720Y014152D01*
X005960Y014005D02*
X006254Y014299D01*
X006254Y014372D01*
X006180Y014445D01*
X006033Y014445D01*
X005960Y014372D01*
X005960Y014005D02*
X006254Y014005D01*
X004714Y015247D02*
X004420Y014953D01*
X004420Y014880D01*
X004254Y014953D02*
X004254Y015320D01*
X004420Y015320D02*
X004714Y015320D01*
X004714Y015247D01*
X004254Y014953D02*
X004180Y014880D01*
X004033Y014880D01*
X003960Y014953D01*
X003960Y015320D01*
X003430Y016200D02*
X003430Y016950D01*
X003469Y016952D01*
X003508Y016958D01*
X003546Y016967D01*
X003583Y016980D01*
X003619Y016997D01*
X003652Y017017D01*
X003684Y017041D01*
X003713Y017067D01*
X003739Y017096D01*
X003763Y017128D01*
X003783Y017161D01*
X003800Y017197D01*
X003813Y017234D01*
X003822Y017272D01*
X003828Y017311D01*
X003830Y017350D01*
X003828Y017389D01*
X003822Y017428D01*
X003813Y017466D01*
X003800Y017503D01*
X003783Y017539D01*
X003763Y017572D01*
X003739Y017604D01*
X003713Y017633D01*
X003684Y017659D01*
X003652Y017683D01*
X003619Y017703D01*
X003583Y017720D01*
X003546Y017733D01*
X003508Y017742D01*
X003469Y017748D01*
X003430Y017750D01*
X003430Y018500D01*
X011430Y018500D01*
X011430Y016200D01*
X003430Y016200D01*
X002880Y016700D02*
X002880Y018000D01*
X002878Y018026D01*
X002873Y018052D01*
X002865Y018077D01*
X002853Y018100D01*
X002839Y018122D01*
X002821Y018141D01*
X002802Y018159D01*
X002780Y018173D01*
X002757Y018185D01*
X002732Y018193D01*
X002706Y018198D01*
X002680Y018200D01*
X002180Y018200D01*
X002154Y018198D01*
X002128Y018193D01*
X002103Y018185D01*
X002080Y018173D01*
X002058Y018159D01*
X002039Y018141D01*
X002021Y018122D01*
X002007Y018100D01*
X001995Y018077D01*
X001987Y018052D01*
X001982Y018026D01*
X001980Y018000D01*
X001980Y016700D01*
X001982Y016674D01*
X001987Y016648D01*
X001995Y016623D01*
X002007Y016600D01*
X002021Y016578D01*
X002039Y016559D01*
X002058Y016541D01*
X002080Y016527D01*
X002103Y016515D01*
X002128Y016507D01*
X002154Y016502D01*
X002180Y016500D01*
X002680Y016500D01*
X002706Y016502D01*
X002732Y016507D01*
X002757Y016515D01*
X002780Y016527D01*
X002802Y016541D01*
X002821Y016559D01*
X002839Y016578D01*
X002853Y016600D01*
X002865Y016623D01*
X002873Y016648D01*
X002878Y016674D01*
X002880Y016700D01*
X002577Y018505D02*
X002283Y018505D01*
X002210Y018578D01*
X002210Y018725D01*
X002283Y018799D01*
X002210Y018965D02*
X002210Y019259D01*
X002283Y019259D01*
X002577Y018965D01*
X002650Y018965D01*
X002577Y018799D02*
X002650Y018725D01*
X002650Y018578D01*
X002577Y018505D01*
X006309Y017570D02*
X006603Y017570D01*
X006603Y017497D01*
X006309Y017203D01*
X006309Y017130D01*
X006769Y017350D02*
X007063Y017350D01*
X007230Y017424D02*
X007377Y017570D01*
X007377Y017130D01*
X007523Y017130D02*
X007230Y017130D01*
X006990Y017130D02*
X006990Y017570D01*
X006769Y017350D01*
X007690Y017203D02*
X007764Y017130D01*
X007910Y017130D01*
X007984Y017203D01*
X007984Y017277D01*
X007910Y017350D01*
X007837Y017350D01*
X007910Y017350D02*
X007984Y017424D01*
X007984Y017497D01*
X007910Y017570D01*
X007764Y017570D01*
X007690Y017497D01*
X008151Y017497D02*
X008151Y017424D01*
X008224Y017350D01*
X008371Y017350D01*
X008444Y017277D01*
X008444Y017203D01*
X008371Y017130D01*
X008224Y017130D01*
X008151Y017203D01*
X008151Y017277D01*
X008224Y017350D01*
X008371Y017350D02*
X008444Y017424D01*
X008444Y017497D01*
X008371Y017570D01*
X008224Y017570D01*
X008151Y017497D01*
X011980Y018000D02*
X011980Y016700D01*
X011982Y016674D01*
X011987Y016648D01*
X011995Y016623D01*
X012007Y016600D01*
X012021Y016578D01*
X012039Y016559D01*
X012058Y016541D01*
X012080Y016527D01*
X012103Y016515D01*
X012128Y016507D01*
X012154Y016502D01*
X012180Y016500D01*
X012680Y016500D01*
X012706Y016502D01*
X012732Y016507D01*
X012757Y016515D01*
X012780Y016527D01*
X012802Y016541D01*
X012821Y016559D01*
X012839Y016578D01*
X012853Y016600D01*
X012865Y016623D01*
X012873Y016648D01*
X012878Y016674D01*
X012880Y016700D01*
X012880Y018000D01*
X012878Y018026D01*
X012873Y018052D01*
X012865Y018077D01*
X012853Y018100D01*
X012839Y018122D01*
X012821Y018141D01*
X012802Y018159D01*
X012780Y018173D01*
X012757Y018185D01*
X012732Y018193D01*
X012706Y018198D01*
X012680Y018200D01*
X012180Y018200D01*
X012154Y018198D01*
X012128Y018193D01*
X012103Y018185D01*
X012080Y018173D01*
X012058Y018159D01*
X012039Y018141D01*
X012021Y018122D01*
X012007Y018100D01*
X011995Y018077D01*
X011987Y018052D01*
X011982Y018026D01*
X011980Y018000D01*
X012283Y018505D02*
X012577Y018505D01*
X012650Y018578D01*
X012650Y018725D01*
X012577Y018799D01*
X012577Y018965D02*
X012503Y018965D01*
X012430Y019039D01*
X012430Y019186D01*
X012503Y019259D01*
X012577Y019259D01*
X012650Y019186D01*
X012650Y019039D01*
X012577Y018965D01*
X012430Y019039D02*
X012356Y018965D01*
X012283Y018965D01*
X012210Y019039D01*
X012210Y019186D01*
X012283Y019259D01*
X012356Y019259D01*
X012430Y019186D01*
X012283Y018799D02*
X012210Y018725D01*
X012210Y018578D01*
X012283Y018505D01*
X013430Y018500D02*
X013430Y017750D01*
X013469Y017748D01*
X013508Y017742D01*
X013546Y017733D01*
X013583Y017720D01*
X013619Y017703D01*
X013652Y017683D01*
X013684Y017659D01*
X013713Y017633D01*
X013739Y017604D01*
X013763Y017572D01*
X013783Y017539D01*
X013800Y017503D01*
X013813Y017466D01*
X013822Y017428D01*
X013828Y017389D01*
X013830Y017350D01*
X013828Y017311D01*
X013822Y017272D01*
X013813Y017234D01*
X013800Y017197D01*
X013783Y017161D01*
X013763Y017128D01*
X013739Y017096D01*
X013713Y017067D01*
X013684Y017041D01*
X013652Y017017D01*
X013619Y016997D01*
X013583Y016980D01*
X013546Y016967D01*
X013508Y016958D01*
X013469Y016952D01*
X013430Y016950D01*
X013430Y016200D01*
X023430Y016200D01*
X023430Y018500D01*
X013430Y018500D01*
X017309Y017570D02*
X017603Y017570D01*
X017603Y017497D01*
X017309Y017203D01*
X017309Y017130D01*
X017769Y017350D02*
X018063Y017350D01*
X018230Y017203D02*
X018303Y017130D01*
X018450Y017130D01*
X018523Y017203D01*
X018523Y017277D01*
X018450Y017350D01*
X018377Y017350D01*
X018450Y017350D02*
X018523Y017424D01*
X018523Y017497D01*
X018450Y017570D01*
X018303Y017570D01*
X018230Y017497D01*
X017990Y017570D02*
X017769Y017350D01*
X017990Y017130D02*
X017990Y017570D01*
X018690Y017570D02*
X018984Y017570D01*
X018984Y017497D01*
X018690Y017203D01*
X018690Y017130D01*
X019151Y017203D02*
X019224Y017130D01*
X019371Y017130D01*
X019444Y017203D01*
X019444Y017277D01*
X019371Y017350D01*
X019297Y017350D01*
X019371Y017350D02*
X019444Y017424D01*
X019444Y017497D01*
X019371Y017570D01*
X019224Y017570D01*
X019151Y017497D01*
X014714Y015247D02*
X014714Y015174D01*
X014641Y015100D01*
X014494Y015100D01*
X014420Y015174D01*
X014420Y015247D01*
X014494Y015320D01*
X014641Y015320D01*
X014714Y015247D01*
X014641Y015100D02*
X014714Y015027D01*
X014714Y014953D01*
X014641Y014880D01*
X014494Y014880D01*
X014420Y014953D01*
X014420Y015027D01*
X014494Y015100D01*
X014254Y014953D02*
X014254Y015320D01*
X013960Y015320D02*
X013960Y014953D01*
X014033Y014880D01*
X014180Y014880D01*
X014254Y014953D01*
X015500Y014445D02*
X015500Y014005D01*
X015500Y014152D02*
X015720Y014152D01*
X015793Y014225D01*
X015793Y014372D01*
X015720Y014445D01*
X015500Y014445D01*
X015646Y014152D02*
X015793Y014005D01*
X015960Y014078D02*
X016033Y014005D01*
X016180Y014005D01*
X016254Y014078D01*
X016254Y014152D01*
X016180Y014225D01*
X016107Y014225D01*
X016180Y014225D02*
X016254Y014299D01*
X016254Y014372D01*
X016180Y014445D01*
X016033Y014445D01*
X015960Y014372D01*
X015957Y013570D02*
X016103Y013570D01*
X016177Y013497D01*
X016177Y013424D01*
X016103Y013350D01*
X016177Y013277D01*
X016177Y013203D01*
X016103Y013130D01*
X015957Y013130D01*
X015883Y013203D01*
X015726Y013203D02*
X015726Y013130D01*
X015653Y013130D01*
X015653Y013203D01*
X015726Y013203D01*
X015486Y013203D02*
X015413Y013130D01*
X015266Y013130D01*
X015193Y013203D01*
X015339Y013350D02*
X015413Y013350D01*
X015486Y013277D01*
X015486Y013203D01*
X015413Y013350D02*
X015486Y013424D01*
X015486Y013497D01*
X015413Y013570D01*
X015266Y013570D01*
X015193Y013497D01*
X014980Y013750D02*
X016880Y013750D01*
X016930Y013800D01*
X017080Y013800D01*
X017097Y013798D01*
X017114Y013794D01*
X017130Y013787D01*
X017144Y013777D01*
X017157Y013764D01*
X017167Y013750D01*
X017174Y013734D01*
X017178Y013717D01*
X017180Y013700D01*
X017180Y013000D01*
X017178Y012983D01*
X017174Y012966D01*
X017167Y012950D01*
X017157Y012936D01*
X017144Y012923D01*
X017130Y012913D01*
X017114Y012906D01*
X017097Y012902D01*
X017080Y012900D01*
X016930Y012900D01*
X016880Y012950D01*
X014980Y012950D01*
X014930Y012900D01*
X014780Y012900D01*
X014763Y012902D01*
X014746Y012906D01*
X014730Y012913D01*
X014716Y012923D01*
X014703Y012936D01*
X014693Y012950D01*
X014686Y012966D01*
X014682Y012983D01*
X014680Y013000D01*
X014680Y013700D01*
X014682Y013717D01*
X014686Y013734D01*
X014693Y013750D01*
X014703Y013764D01*
X014716Y013777D01*
X014730Y013787D01*
X014746Y013794D01*
X014763Y013798D01*
X014780Y013800D01*
X014930Y013800D01*
X014980Y013750D01*
X015883Y013497D02*
X015957Y013570D01*
X016030Y013350D02*
X016103Y013350D01*
X016344Y013277D02*
X016564Y013424D01*
X016344Y013570D02*
X016344Y013130D01*
X016344Y013277D02*
X016564Y013130D01*
X019980Y011500D02*
X019980Y010200D01*
X019982Y010174D01*
X019987Y010148D01*
X019995Y010123D01*
X020007Y010100D01*
X020021Y010078D01*
X020039Y010059D01*
X020058Y010041D01*
X020080Y010027D01*
X020103Y010015D01*
X020128Y010007D01*
X020154Y010002D01*
X020180Y010000D01*
X020680Y010000D01*
X020706Y010002D01*
X020732Y010007D01*
X020757Y010015D01*
X020780Y010027D01*
X020802Y010041D01*
X020821Y010059D01*
X020839Y010078D01*
X020853Y010100D01*
X020865Y010123D01*
X020873Y010148D01*
X020878Y010174D01*
X020880Y010200D01*
X020880Y011500D01*
X020878Y011526D01*
X020873Y011552D01*
X020865Y011577D01*
X020853Y011600D01*
X020839Y011622D01*
X020821Y011641D01*
X020802Y011659D01*
X020780Y011673D01*
X020757Y011685D01*
X020732Y011693D01*
X020706Y011698D01*
X020680Y011700D01*
X020180Y011700D01*
X020154Y011698D01*
X020128Y011693D01*
X020103Y011685D01*
X020080Y011673D01*
X020058Y011659D01*
X020039Y011641D01*
X020021Y011622D01*
X020007Y011600D01*
X019995Y011577D01*
X019987Y011552D01*
X019982Y011526D01*
X019980Y011500D01*
X020283Y012005D02*
X020577Y012005D01*
X020650Y012078D01*
X020650Y012225D01*
X020577Y012299D01*
X020650Y012465D02*
X020650Y012759D01*
X020650Y012612D02*
X020210Y012612D01*
X020356Y012465D01*
X020283Y012299D02*
X020210Y012225D01*
X020210Y012078D01*
X020283Y012005D01*
X021430Y012000D02*
X021430Y011250D01*
X021469Y011248D01*
X021508Y011242D01*
X021546Y011233D01*
X021583Y011220D01*
X021619Y011203D01*
X021652Y011183D01*
X021684Y011159D01*
X021713Y011133D01*
X021739Y011104D01*
X021763Y011072D01*
X021783Y011039D01*
X021800Y011003D01*
X021813Y010966D01*
X021822Y010928D01*
X021828Y010889D01*
X021830Y010850D01*
X021828Y010811D01*
X021822Y010772D01*
X021813Y010734D01*
X021800Y010697D01*
X021783Y010661D01*
X021763Y010628D01*
X021739Y010596D01*
X021713Y010567D01*
X021684Y010541D01*
X021652Y010517D01*
X021619Y010497D01*
X021583Y010480D01*
X021546Y010467D01*
X021508Y010458D01*
X021469Y010452D01*
X021430Y010450D01*
X021430Y009700D01*
X028430Y009700D01*
X028430Y012000D01*
X021430Y012000D01*
X020650Y012926D02*
X020650Y013219D01*
X020650Y013073D02*
X020210Y013073D01*
X020356Y012926D01*
X024039Y011070D02*
X024333Y011070D01*
X024333Y010997D01*
X024039Y010703D01*
X024039Y010630D01*
X024500Y010850D02*
X024793Y010850D01*
X024960Y010703D02*
X024960Y010997D01*
X025033Y011070D01*
X025180Y011070D01*
X025254Y010997D01*
X024960Y010703D01*
X025033Y010630D01*
X025180Y010630D01*
X025254Y010703D01*
X025254Y010997D01*
X025420Y010850D02*
X025714Y010850D01*
X025641Y010630D02*
X025641Y011070D01*
X025420Y010850D01*
X024720Y010630D02*
X024720Y011070D01*
X024500Y010850D01*
X028980Y010200D02*
X028980Y011500D01*
X028982Y011526D01*
X028987Y011552D01*
X028995Y011577D01*
X029007Y011600D01*
X029021Y011622D01*
X029039Y011641D01*
X029058Y011659D01*
X029080Y011673D01*
X029103Y011685D01*
X029128Y011693D01*
X029154Y011698D01*
X029180Y011700D01*
X029680Y011700D01*
X029706Y011698D01*
X029732Y011693D01*
X029757Y011685D01*
X029780Y011673D01*
X029802Y011659D01*
X029821Y011641D01*
X029839Y011622D01*
X029853Y011600D01*
X029865Y011577D01*
X029873Y011552D01*
X029878Y011526D01*
X029880Y011500D01*
X029880Y010200D01*
X029878Y010174D01*
X029873Y010148D01*
X029865Y010123D01*
X029853Y010100D01*
X029839Y010078D01*
X029821Y010059D01*
X029802Y010041D01*
X029780Y010027D01*
X029757Y010015D01*
X029732Y010007D01*
X029706Y010002D01*
X029680Y010000D01*
X029180Y010000D01*
X029154Y010002D01*
X029128Y010007D01*
X029103Y010015D01*
X029080Y010027D01*
X029058Y010041D01*
X029039Y010059D01*
X029021Y010078D01*
X029007Y010100D01*
X028995Y010123D01*
X028987Y010148D01*
X028982Y010174D01*
X028980Y010200D01*
X030430Y010450D02*
X030430Y009700D01*
X040430Y009700D01*
X040430Y012000D01*
X030430Y012000D01*
X030430Y011250D01*
X030469Y011248D01*
X030508Y011242D01*
X030546Y011233D01*
X030583Y011220D01*
X030619Y011203D01*
X030652Y011183D01*
X030684Y011159D01*
X030713Y011133D01*
X030739Y011104D01*
X030763Y011072D01*
X030783Y011039D01*
X030800Y011003D01*
X030813Y010966D01*
X030822Y010928D01*
X030828Y010889D01*
X030830Y010850D01*
X030828Y010811D01*
X030822Y010772D01*
X030813Y010734D01*
X030800Y010697D01*
X030783Y010661D01*
X030763Y010628D01*
X030739Y010596D01*
X030713Y010567D01*
X030684Y010541D01*
X030652Y010517D01*
X030619Y010497D01*
X030583Y010480D01*
X030546Y010467D01*
X030508Y010458D01*
X030469Y010452D01*
X030430Y010450D01*
X029577Y012005D02*
X029283Y012005D01*
X029210Y012078D01*
X029210Y012225D01*
X029283Y012299D01*
X029356Y012465D02*
X029210Y012612D01*
X029650Y012612D01*
X029650Y012465D02*
X029650Y012759D01*
X029650Y012926D02*
X029356Y013219D01*
X029283Y013219D01*
X029210Y013146D01*
X029210Y012999D01*
X029283Y012926D01*
X029650Y012926D02*
X029650Y013219D01*
X029577Y012299D02*
X029650Y012225D01*
X029650Y012078D01*
X029577Y012005D01*
X034309Y011570D02*
X034603Y011570D01*
X034603Y011497D01*
X034309Y011203D01*
X034309Y011130D01*
X034769Y011350D02*
X035063Y011350D01*
X035230Y011497D02*
X035303Y011570D01*
X035450Y011570D01*
X035523Y011497D01*
X035523Y011424D01*
X035230Y011130D01*
X035523Y011130D01*
X035690Y011350D02*
X035984Y011350D01*
X036151Y011350D02*
X036444Y011350D01*
X036371Y011130D02*
X036371Y011570D01*
X036151Y011350D01*
X035910Y011130D02*
X035910Y011570D01*
X035690Y011350D01*
X034990Y011130D02*
X034990Y011570D01*
X034769Y011350D01*
X032101Y008570D02*
X031954Y008570D01*
X031881Y008497D01*
X032101Y008570D02*
X032174Y008497D01*
X032174Y008424D01*
X031881Y008130D01*
X032174Y008130D01*
X031714Y008130D02*
X031420Y008130D01*
X031567Y008130D02*
X031567Y008570D01*
X031420Y008424D01*
X031254Y008570D02*
X031254Y008203D01*
X031180Y008130D01*
X031033Y008130D01*
X030960Y008203D01*
X030960Y008570D01*
X023174Y008130D02*
X022881Y008130D01*
X023028Y008130D02*
X023028Y008570D01*
X022881Y008424D01*
X022714Y008130D02*
X022420Y008130D01*
X022567Y008130D02*
X022567Y008570D01*
X022420Y008424D01*
X022254Y008570D02*
X022254Y008203D01*
X022180Y008130D01*
X022033Y008130D01*
X021960Y008203D01*
X021960Y008570D01*
X016641Y010630D02*
X016641Y011070D01*
X016420Y010850D01*
X016714Y010850D01*
X016254Y010630D02*
X015960Y010630D01*
X016107Y010630D02*
X016107Y011070D01*
X015960Y010924D01*
X015793Y010850D02*
X015500Y010850D01*
X015720Y011070D01*
X015720Y010630D01*
X015333Y010997D02*
X015039Y010703D01*
X015039Y010630D01*
X015039Y011070D02*
X015333Y011070D01*
X015333Y010997D01*
X011650Y012078D02*
X011650Y012225D01*
X011577Y012299D01*
X011650Y012465D02*
X011650Y012759D01*
X011650Y012612D02*
X011210Y012612D01*
X011356Y012465D01*
X011283Y012299D02*
X011210Y012225D01*
X011210Y012078D01*
X011283Y012005D01*
X011577Y012005D01*
X011650Y012078D01*
X011577Y012926D02*
X011283Y013219D01*
X011577Y013219D01*
X011650Y013146D01*
X011650Y012999D01*
X011577Y012926D01*
X011283Y012926D01*
X011210Y012999D01*
X011210Y013146D01*
X011283Y013219D01*
X009674Y014005D02*
X009381Y014005D01*
X009528Y014005D02*
X009528Y014445D01*
X009381Y014299D01*
X009214Y014372D02*
X009214Y014225D01*
X009141Y014152D01*
X008920Y014152D01*
X008920Y014005D02*
X008920Y014445D01*
X009141Y014445D01*
X009214Y014372D01*
X008754Y014445D02*
X008607Y014445D01*
X008680Y014445D02*
X008680Y014078D01*
X008607Y014005D01*
X008533Y014005D01*
X008460Y014078D01*
X002650Y012686D02*
X002650Y012539D01*
X002577Y012465D01*
X002430Y012539D02*
X002430Y012759D01*
X002577Y012759D02*
X002283Y012759D01*
X002210Y012686D01*
X002210Y012539D01*
X002283Y012465D01*
X002356Y012465D01*
X002430Y012539D01*
X002650Y012686D02*
X002577Y012759D01*
X002577Y012299D02*
X002650Y012225D01*
X002650Y012078D01*
X002577Y012005D01*
X002283Y012005D01*
X002210Y012078D01*
X002210Y012225D01*
X002283Y012299D01*
X002180Y011700D02*
X002680Y011700D01*
X002706Y011698D01*
X002732Y011693D01*
X002757Y011685D01*
X002780Y011673D01*
X002802Y011659D01*
X002821Y011641D01*
X002839Y011622D01*
X002853Y011600D01*
X002865Y011577D01*
X002873Y011552D01*
X002878Y011526D01*
X002880Y011500D01*
X002880Y010200D01*
X002878Y010174D01*
X002873Y010148D01*
X002865Y010123D01*
X002853Y010100D01*
X002839Y010078D01*
X002821Y010059D01*
X002802Y010041D01*
X002780Y010027D01*
X002757Y010015D01*
X002732Y010007D01*
X002706Y010002D01*
X002680Y010000D01*
X002180Y010000D01*
X002154Y010002D01*
X002128Y010007D01*
X002103Y010015D01*
X002080Y010027D01*
X002058Y010041D01*
X002039Y010059D01*
X002021Y010078D01*
X002007Y010100D01*
X001995Y010123D01*
X001987Y010148D01*
X001982Y010174D01*
X001980Y010200D01*
X001980Y011500D01*
X001982Y011526D01*
X001987Y011552D01*
X001995Y011577D01*
X002007Y011600D01*
X002021Y011622D01*
X002039Y011641D01*
X002058Y011659D01*
X002080Y011673D01*
X002103Y011685D01*
X002128Y011693D01*
X002154Y011698D01*
X002180Y011700D01*
X003960Y008820D02*
X003960Y008453D01*
X004033Y008380D01*
X004180Y008380D01*
X004254Y008453D01*
X004254Y008820D01*
X004420Y008747D02*
X004420Y008674D01*
X004494Y008600D01*
X004714Y008600D01*
X004714Y008453D02*
X004714Y008747D01*
X004641Y008820D01*
X004494Y008820D01*
X004420Y008747D01*
X004420Y008453D02*
X004494Y008380D01*
X004641Y008380D01*
X004714Y008453D01*
X024460Y014412D02*
X024607Y014265D01*
X024607Y014045D01*
X024607Y014265D02*
X024754Y014412D01*
X024754Y014485D01*
X024920Y014339D02*
X025067Y014485D01*
X025067Y014045D01*
X024920Y014045D02*
X025214Y014045D01*
X024460Y014412D02*
X024460Y014485D01*
X026113Y017130D02*
X026039Y017203D01*
X026113Y017130D02*
X026259Y017130D01*
X026333Y017203D01*
X026333Y017350D01*
X026259Y017424D01*
X026186Y017424D01*
X026039Y017350D01*
X026039Y017570D01*
X026333Y017570D01*
X026500Y017570D02*
X026646Y017424D01*
X026793Y017570D01*
X026793Y017130D01*
X026960Y017130D02*
X026960Y017570D01*
X026960Y017350D02*
X027254Y017350D01*
X027420Y017424D02*
X027714Y017424D01*
X027420Y017130D01*
X027714Y017130D01*
X027254Y017130D02*
X027254Y017570D01*
X026500Y017570D02*
X026500Y017130D01*
X031085Y017035D02*
X031085Y016888D01*
X031158Y016814D01*
X031452Y016814D01*
X031525Y016888D01*
X031525Y017035D01*
X031452Y017108D01*
X031525Y017275D02*
X031231Y017568D01*
X031158Y017568D01*
X031085Y017495D01*
X031085Y017348D01*
X031158Y017275D01*
X031158Y017108D02*
X031085Y017035D01*
X031525Y017275D02*
X031525Y017568D01*
X031452Y017735D02*
X031158Y018029D01*
X031452Y018029D01*
X031525Y017955D01*
X031525Y017809D01*
X031452Y017735D01*
X031158Y017735D01*
X031085Y017809D01*
X031085Y017955D01*
X031158Y018029D01*
X031730Y018125D02*
X031730Y016825D01*
X031732Y016799D01*
X031737Y016773D01*
X031745Y016748D01*
X031757Y016725D01*
X031771Y016703D01*
X031789Y016684D01*
X031808Y016666D01*
X031830Y016652D01*
X031853Y016640D01*
X031878Y016632D01*
X031904Y016627D01*
X031930Y016625D01*
X032430Y016625D01*
X032456Y016627D01*
X032482Y016632D01*
X032507Y016640D01*
X032530Y016652D01*
X032552Y016666D01*
X032571Y016684D01*
X032589Y016703D01*
X032603Y016725D01*
X032615Y016748D01*
X032623Y016773D01*
X032628Y016799D01*
X032630Y016825D01*
X032630Y018125D01*
X032628Y018151D01*
X032623Y018177D01*
X032615Y018202D01*
X032603Y018225D01*
X032589Y018247D01*
X032571Y018266D01*
X032552Y018284D01*
X032530Y018298D01*
X032507Y018310D01*
X032482Y018318D01*
X032456Y018323D01*
X032430Y018325D01*
X031930Y018325D01*
X031904Y018323D01*
X031878Y018318D01*
X031853Y018310D01*
X031830Y018298D01*
X031808Y018284D01*
X031789Y018266D01*
X031771Y018247D01*
X031757Y018225D01*
X031745Y018202D01*
X031737Y018177D01*
X031732Y018151D01*
X031730Y018125D01*
X031930Y018625D02*
X032430Y018625D01*
X032456Y018627D01*
X032482Y018632D01*
X032507Y018640D01*
X032530Y018652D01*
X032552Y018666D01*
X032571Y018684D01*
X032589Y018703D01*
X032603Y018725D01*
X032615Y018748D01*
X032623Y018773D01*
X032628Y018799D01*
X032630Y018825D01*
X032630Y020125D01*
X032628Y020151D01*
X032623Y020177D01*
X032615Y020202D01*
X032603Y020225D01*
X032589Y020247D01*
X032571Y020266D01*
X032552Y020284D01*
X032530Y020298D01*
X032507Y020310D01*
X032482Y020318D01*
X032456Y020323D01*
X032430Y020325D01*
X031930Y020325D01*
X031904Y020323D01*
X031878Y020318D01*
X031853Y020310D01*
X031830Y020298D01*
X031808Y020284D01*
X031789Y020266D01*
X031771Y020247D01*
X031757Y020225D01*
X031745Y020202D01*
X031737Y020177D01*
X031732Y020151D01*
X031730Y020125D01*
X031730Y018825D01*
X031732Y018799D01*
X031737Y018773D01*
X031745Y018748D01*
X031757Y018725D01*
X031771Y018703D01*
X031789Y018684D01*
X031808Y018666D01*
X031830Y018652D01*
X031853Y018640D01*
X031878Y018632D01*
X031904Y018627D01*
X031930Y018625D01*
X031525Y018888D02*
X031525Y019035D01*
X031452Y019108D01*
X031525Y019275D02*
X031231Y019568D01*
X031158Y019568D01*
X031085Y019495D01*
X031085Y019348D01*
X031158Y019275D01*
X031158Y019108D02*
X031085Y019035D01*
X031085Y018888D01*
X031158Y018814D01*
X031452Y018814D01*
X031525Y018888D01*
X031525Y019275D02*
X031525Y019568D01*
X031525Y019735D02*
X031525Y020029D01*
X031525Y019882D02*
X031085Y019882D01*
X031231Y019735D01*
X032033Y020584D02*
X031960Y020658D01*
X031960Y020804D01*
X032033Y020878D01*
X032106Y020878D01*
X032400Y020584D01*
X032400Y020878D01*
X032400Y021045D02*
X032106Y021338D01*
X032033Y021338D01*
X031960Y021265D01*
X031960Y021118D01*
X032033Y021045D01*
X032400Y021045D02*
X032400Y021338D01*
X032400Y021505D02*
X032400Y021725D01*
X032327Y021799D01*
X032180Y021799D01*
X032106Y021725D01*
X032106Y021505D01*
X032547Y021505D01*
X032400Y021965D02*
X031960Y021965D01*
X031960Y022259D01*
X032180Y022112D02*
X032180Y021965D01*
X033580Y022075D02*
X033580Y022575D01*
X033582Y022601D01*
X033587Y022627D01*
X033595Y022652D01*
X033607Y022675D01*
X033621Y022697D01*
X033639Y022716D01*
X033658Y022734D01*
X033680Y022748D01*
X033703Y022760D01*
X033728Y022768D01*
X033754Y022773D01*
X033780Y022775D01*
X035080Y022775D01*
X035106Y022773D01*
X035132Y022768D01*
X035157Y022760D01*
X035180Y022748D01*
X035202Y022734D01*
X035221Y022716D01*
X035239Y022697D01*
X035253Y022675D01*
X035265Y022652D01*
X035273Y022627D01*
X035278Y022601D01*
X035280Y022575D01*
X035280Y022075D01*
X035278Y022049D01*
X035273Y022023D01*
X035265Y021998D01*
X035253Y021975D01*
X035239Y021953D01*
X035221Y021934D01*
X035202Y021916D01*
X035180Y021902D01*
X035157Y021890D01*
X035132Y021882D01*
X035106Y021877D01*
X035080Y021875D01*
X033780Y021875D01*
X033754Y021877D01*
X033728Y021882D01*
X033703Y021890D01*
X033680Y021902D01*
X033658Y021916D01*
X033639Y021934D01*
X033621Y021953D01*
X033607Y021975D01*
X033595Y021998D01*
X033587Y022023D01*
X033582Y022049D01*
X033580Y022075D01*
X033843Y021670D02*
X033769Y021597D01*
X033769Y021303D01*
X033843Y021230D01*
X033990Y021230D01*
X034063Y021303D01*
X034230Y021230D02*
X034523Y021230D01*
X034377Y021230D02*
X034377Y021670D01*
X034230Y021524D01*
X034063Y021597D02*
X033990Y021670D01*
X033843Y021670D01*
X034690Y021670D02*
X034984Y021670D01*
X034984Y021597D01*
X034690Y021303D01*
X034690Y021230D01*
X035156Y021130D02*
X035450Y020837D01*
X035450Y021130D01*
X035156Y021130D02*
X035156Y020837D01*
X035230Y020670D02*
X035230Y020376D01*
X035450Y020376D02*
X035010Y020376D01*
X035010Y020209D02*
X035450Y020209D01*
X035450Y019916D02*
X035010Y019916D01*
X035156Y020063D01*
X035010Y020209D01*
X035010Y019749D02*
X035083Y019749D01*
X035377Y019455D01*
X035450Y019455D01*
X035450Y019289D02*
X035450Y018995D01*
X035156Y019289D01*
X035083Y019289D01*
X035010Y019215D01*
X035010Y019068D01*
X035083Y018995D01*
X035083Y018828D02*
X035377Y018535D01*
X035450Y018535D01*
X035083Y018368D02*
X035377Y018074D01*
X035450Y018074D01*
X035450Y017834D02*
X035010Y017834D01*
X035230Y017614D01*
X035230Y017907D01*
X035010Y018074D02*
X035010Y018368D01*
X035083Y018368D01*
X035010Y018535D02*
X035010Y018828D01*
X035083Y018828D01*
X035010Y019455D02*
X035010Y019749D01*
X035010Y020670D02*
X035450Y020670D01*
X033580Y023113D02*
X033580Y023263D01*
X033430Y023263D01*
X033580Y023263D02*
X033580Y023413D01*
X033580Y023263D02*
X033730Y023263D01*
X031830Y023825D02*
X031832Y023891D01*
X031838Y023956D01*
X031848Y024021D01*
X031861Y024086D01*
X031879Y024149D01*
X031900Y024212D01*
X031925Y024272D01*
X031954Y024332D01*
X031986Y024389D01*
X032021Y024445D01*
X032060Y024498D01*
X032102Y024549D01*
X032146Y024597D01*
X032194Y024642D01*
X032244Y024685D01*
X032297Y024724D01*
X032352Y024761D01*
X032409Y024794D01*
X032468Y024823D01*
X032528Y024849D01*
X032590Y024871D01*
X032653Y024890D01*
X032717Y024904D01*
X032782Y024915D01*
X032848Y024922D01*
X032914Y024925D01*
X032979Y024924D01*
X033045Y024919D01*
X033110Y024910D01*
X033175Y024897D01*
X033238Y024881D01*
X033301Y024861D01*
X033362Y024836D01*
X033422Y024809D01*
X033480Y024778D01*
X033536Y024743D01*
X033590Y024705D01*
X033641Y024664D01*
X033690Y024620D01*
X033736Y024573D01*
X033780Y024524D01*
X033820Y024472D01*
X033857Y024417D01*
X033891Y024361D01*
X033921Y024302D01*
X033948Y024242D01*
X033971Y024181D01*
X033990Y024118D01*
X034006Y024054D01*
X034018Y023989D01*
X034026Y023924D01*
X034030Y023858D01*
X034030Y023792D01*
X034026Y023726D01*
X034018Y023661D01*
X034006Y023596D01*
X033990Y023532D01*
X033971Y023469D01*
X033948Y023408D01*
X033921Y023348D01*
X033891Y023289D01*
X033857Y023233D01*
X033820Y023178D01*
X033780Y023126D01*
X033736Y023077D01*
X033690Y023030D01*
X033641Y022986D01*
X033590Y022945D01*
X033536Y022907D01*
X033480Y022872D01*
X033422Y022841D01*
X033362Y022814D01*
X033301Y022789D01*
X033238Y022769D01*
X033175Y022753D01*
X033110Y022740D01*
X033045Y022731D01*
X032979Y022726D01*
X032914Y022725D01*
X032848Y022728D01*
X032782Y022735D01*
X032717Y022746D01*
X032653Y022760D01*
X032590Y022779D01*
X032528Y022801D01*
X032468Y022827D01*
X032409Y022856D01*
X032352Y022889D01*
X032297Y022926D01*
X032244Y022965D01*
X032194Y023008D01*
X032146Y023053D01*
X032102Y023101D01*
X032060Y023152D01*
X032021Y023205D01*
X031986Y023261D01*
X031954Y023318D01*
X031925Y023378D01*
X031900Y023438D01*
X031879Y023501D01*
X031861Y023564D01*
X031848Y023629D01*
X031838Y023694D01*
X031832Y023759D01*
X031830Y023825D01*
X031650Y023953D02*
X031650Y024174D01*
X031356Y024174D01*
X031430Y024340D02*
X031430Y024487D01*
X031650Y024340D02*
X031210Y024340D01*
X031210Y024634D01*
X031356Y023880D02*
X031577Y023880D01*
X031650Y023953D01*
X031283Y023713D02*
X031577Y023420D01*
X031650Y023420D01*
X031650Y023179D02*
X031210Y023179D01*
X031430Y022959D01*
X031430Y023253D01*
X031210Y023420D02*
X031210Y023713D01*
X031283Y023713D01*
X032343Y025130D02*
X032490Y025130D01*
X032563Y025203D01*
X032730Y025203D02*
X032803Y025130D01*
X032950Y025130D01*
X033023Y025203D01*
X033023Y025277D01*
X032950Y025350D01*
X032877Y025350D01*
X032950Y025350D02*
X033023Y025424D01*
X033023Y025497D01*
X032950Y025570D01*
X032803Y025570D01*
X032730Y025497D01*
X032563Y025497D02*
X032490Y025570D01*
X032343Y025570D01*
X032269Y025497D01*
X032269Y025203D01*
X032343Y025130D01*
X033190Y025130D02*
X033484Y025424D01*
X033484Y025497D01*
X033410Y025570D01*
X033264Y025570D01*
X033190Y025497D01*
X033190Y025130D02*
X033484Y025130D01*
X039460Y027854D02*
X039753Y027854D01*
X039900Y028001D01*
X039753Y028148D01*
X039460Y028148D01*
X039533Y028314D02*
X039460Y028388D01*
X039460Y028535D01*
X039533Y028608D01*
X039827Y028608D01*
X039900Y028535D01*
X039900Y028388D01*
X039827Y028314D01*
X039680Y028388D02*
X039680Y028608D01*
X039606Y028775D02*
X039680Y028848D01*
X039680Y029068D01*
X039827Y029068D02*
X039533Y029068D01*
X039460Y028995D01*
X039460Y028848D01*
X039533Y028775D01*
X039606Y028775D01*
X039827Y028775D02*
X039900Y028848D01*
X039900Y028995D01*
X039827Y029068D01*
X039827Y029235D02*
X039900Y029309D01*
X039900Y029455D01*
X039827Y029529D01*
X039680Y029529D01*
X039606Y029455D01*
X039606Y029382D01*
X039680Y029235D01*
X039460Y029235D01*
X039460Y029529D01*
X039533Y029696D02*
X039460Y029769D01*
X039460Y029916D01*
X039533Y029989D01*
X039606Y029989D01*
X039680Y029916D01*
X039680Y029769D01*
X039606Y029696D01*
X039533Y029696D01*
X039680Y029769D02*
X039753Y029696D01*
X039827Y029696D01*
X039900Y029769D01*
X039900Y029916D01*
X039827Y029989D01*
X039753Y029989D01*
X039680Y029916D01*
X042013Y029897D02*
X042013Y029786D01*
X042069Y029730D01*
X042291Y029730D01*
X042347Y029786D01*
X042347Y029897D01*
X042291Y029953D01*
X042291Y030093D02*
X042347Y030148D01*
X042347Y030204D01*
X042291Y030260D01*
X042013Y030260D01*
X042013Y030315D02*
X042013Y030204D01*
X042013Y030455D02*
X042347Y030455D01*
X042347Y030678D01*
X042291Y030818D02*
X042347Y030873D01*
X042347Y030985D01*
X042291Y031040D01*
X042291Y030818D02*
X042069Y030818D01*
X042013Y030873D01*
X042013Y030985D01*
X042069Y031040D01*
X042069Y029953D02*
X042013Y029897D01*
X042347Y029590D02*
X042347Y029368D01*
X042013Y029368D01*
X042013Y029228D02*
X042013Y029116D01*
X042013Y029172D02*
X042291Y029172D01*
X042347Y029116D01*
X042347Y029061D01*
X042291Y029005D01*
X042291Y028865D02*
X042347Y028809D01*
X042347Y028698D01*
X042291Y028642D01*
X042069Y028642D01*
X042013Y028698D01*
X042013Y028809D01*
X042069Y028865D01*
X042347Y028503D02*
X042347Y028280D01*
X042013Y028280D01*
X042013Y028140D02*
X042013Y028029D01*
X042013Y028084D02*
X042291Y028084D01*
X042347Y028029D01*
X042347Y027973D01*
X042291Y027917D01*
X042291Y027778D02*
X042347Y027722D01*
X042347Y027611D01*
X042291Y027555D01*
X042069Y027555D01*
X042013Y027611D01*
X042013Y027722D01*
X042069Y027778D01*
X042347Y027415D02*
X042347Y027192D01*
X042013Y027192D01*
X042013Y027053D02*
X042013Y026941D01*
X042013Y026997D02*
X042291Y026997D01*
X042347Y026941D01*
X042347Y026886D01*
X042291Y026830D01*
X039680Y028388D02*
X039606Y028314D01*
X039533Y028314D01*
X044105Y031125D02*
X044105Y032425D01*
X044107Y032451D01*
X044112Y032477D01*
X044120Y032502D01*
X044132Y032525D01*
X044146Y032547D01*
X044164Y032566D01*
X044183Y032584D01*
X044205Y032598D01*
X044228Y032610D01*
X044253Y032618D01*
X044279Y032623D01*
X044305Y032625D01*
X044805Y032625D01*
X044831Y032623D01*
X044857Y032618D01*
X044882Y032610D01*
X044905Y032598D01*
X044927Y032584D01*
X044946Y032566D01*
X044964Y032547D01*
X044978Y032525D01*
X044990Y032502D01*
X044998Y032477D01*
X045003Y032451D01*
X045005Y032425D01*
X045005Y031125D01*
X045003Y031099D01*
X044998Y031073D01*
X044990Y031048D01*
X044978Y031025D01*
X044964Y031003D01*
X044946Y030984D01*
X044927Y030966D01*
X044905Y030952D01*
X044882Y030940D01*
X044857Y030932D01*
X044831Y030927D01*
X044805Y030925D01*
X044305Y030925D01*
X044279Y030927D01*
X044253Y030932D01*
X044228Y030940D01*
X044205Y030952D01*
X044183Y030966D01*
X044164Y030984D01*
X044146Y031003D01*
X044132Y031025D01*
X044120Y031048D01*
X044112Y031073D01*
X044107Y031099D01*
X044105Y031125D01*
X045205Y031775D02*
X045207Y031841D01*
X045213Y031906D01*
X045223Y031971D01*
X045236Y032036D01*
X045254Y032099D01*
X045275Y032162D01*
X045300Y032222D01*
X045329Y032282D01*
X045361Y032339D01*
X045396Y032395D01*
X045435Y032448D01*
X045477Y032499D01*
X045521Y032547D01*
X045569Y032592D01*
X045619Y032635D01*
X045672Y032674D01*
X045727Y032711D01*
X045784Y032744D01*
X045843Y032773D01*
X045903Y032799D01*
X045965Y032821D01*
X046028Y032840D01*
X046092Y032854D01*
X046157Y032865D01*
X046223Y032872D01*
X046289Y032875D01*
X046354Y032874D01*
X046420Y032869D01*
X046485Y032860D01*
X046550Y032847D01*
X046613Y032831D01*
X046676Y032811D01*
X046737Y032786D01*
X046797Y032759D01*
X046855Y032728D01*
X046911Y032693D01*
X046965Y032655D01*
X047016Y032614D01*
X047065Y032570D01*
X047111Y032523D01*
X047155Y032474D01*
X047195Y032422D01*
X047232Y032367D01*
X047266Y032311D01*
X047296Y032252D01*
X047323Y032192D01*
X047346Y032131D01*
X047365Y032068D01*
X047381Y032004D01*
X047393Y031939D01*
X047401Y031874D01*
X047405Y031808D01*
X047405Y031742D01*
X047401Y031676D01*
X047393Y031611D01*
X047381Y031546D01*
X047365Y031482D01*
X047346Y031419D01*
X047323Y031358D01*
X047296Y031298D01*
X047266Y031239D01*
X047232Y031183D01*
X047195Y031128D01*
X047155Y031076D01*
X047111Y031027D01*
X047065Y030980D01*
X047016Y030936D01*
X046965Y030895D01*
X046911Y030857D01*
X046855Y030822D01*
X046797Y030791D01*
X046737Y030764D01*
X046676Y030739D01*
X046613Y030719D01*
X046550Y030703D01*
X046485Y030690D01*
X046420Y030681D01*
X046354Y030676D01*
X046289Y030675D01*
X046223Y030678D01*
X046157Y030685D01*
X046092Y030696D01*
X046028Y030710D01*
X045965Y030729D01*
X045903Y030751D01*
X045843Y030777D01*
X045784Y030806D01*
X045727Y030839D01*
X045672Y030876D01*
X045619Y030915D01*
X045569Y030958D01*
X045521Y031003D01*
X045477Y031051D01*
X045435Y031102D01*
X045396Y031155D01*
X045361Y031211D01*
X045329Y031268D01*
X045300Y031328D01*
X045275Y031388D01*
X045254Y031451D01*
X045236Y031514D01*
X045223Y031579D01*
X045213Y031644D01*
X045207Y031709D01*
X045205Y031775D01*
X044702Y032864D02*
X044408Y032864D01*
X044335Y032938D01*
X044335Y033085D01*
X044408Y033158D01*
X044481Y033325D02*
X044335Y033472D01*
X044775Y033472D01*
X044775Y033618D02*
X044775Y033325D01*
X044702Y033158D02*
X044775Y033085D01*
X044775Y032938D01*
X044702Y032864D01*
X045710Y033203D02*
X045783Y033130D01*
X046077Y033130D01*
X046150Y033203D01*
X046150Y033350D01*
X046077Y033424D01*
X046077Y033590D02*
X046150Y033664D01*
X046150Y033811D01*
X046077Y033884D01*
X046003Y033884D01*
X045930Y033811D01*
X045930Y033737D01*
X045930Y033811D02*
X045856Y033884D01*
X045783Y033884D01*
X045710Y033811D01*
X045710Y033664D01*
X045783Y033590D01*
X045783Y033424D02*
X045710Y033350D01*
X045710Y033203D01*
X046460Y033350D02*
X046680Y033130D01*
X046680Y033424D01*
X046827Y033590D02*
X046900Y033590D01*
X046827Y033590D02*
X046533Y033884D01*
X046460Y033884D01*
X046460Y033590D01*
X046460Y033350D02*
X046900Y033350D01*
X046827Y034051D02*
X046900Y034124D01*
X046900Y034344D01*
X046606Y034344D01*
X046680Y034511D02*
X046680Y034658D01*
X046900Y034511D02*
X046460Y034511D01*
X046460Y034805D01*
X046077Y034344D02*
X046150Y034271D01*
X046150Y034124D01*
X046077Y034051D01*
X045930Y034198D02*
X045930Y034271D01*
X046003Y034344D01*
X046077Y034344D01*
X045930Y034271D02*
X045856Y034344D01*
X045783Y034344D01*
X045710Y034271D01*
X045710Y034124D01*
X045783Y034051D01*
X046606Y034051D02*
X046827Y034051D01*
X044775Y034005D02*
X044775Y033859D01*
X044702Y033785D01*
X044628Y033785D01*
X044555Y033859D01*
X044555Y034005D01*
X044628Y034079D01*
X044702Y034079D01*
X044775Y034005D01*
X044555Y034005D02*
X044481Y034079D01*
X044408Y034079D01*
X044335Y034005D01*
X044335Y033859D01*
X044408Y033785D01*
X044481Y033785D01*
X044555Y033859D01*
X046868Y032575D02*
X046868Y032425D01*
X047018Y032425D01*
X046868Y032425D02*
X046868Y032275D01*
X046868Y032425D02*
X046718Y032425D01*
X048210Y031524D02*
X048283Y031377D01*
X048430Y031230D01*
X048430Y031450D01*
X048503Y031524D01*
X048577Y031524D01*
X048650Y031450D01*
X048650Y031303D01*
X048577Y031230D01*
X048430Y031230D01*
X048430Y031063D02*
X048503Y030990D01*
X048503Y030770D01*
X048503Y030916D02*
X048650Y031063D01*
X048430Y031063D02*
X048283Y031063D01*
X048210Y030990D01*
X048210Y030770D01*
X048650Y030770D01*
X048780Y029225D02*
X048080Y029225D01*
X048063Y029223D01*
X048046Y029219D01*
X048030Y029212D01*
X048016Y029202D01*
X048003Y029189D01*
X047993Y029175D01*
X047986Y029159D01*
X047982Y029142D01*
X047980Y029125D01*
X047980Y028975D01*
X048030Y028925D01*
X048030Y027025D01*
X047980Y026975D01*
X047980Y026825D01*
X047982Y026808D01*
X047986Y026791D01*
X047993Y026775D01*
X048003Y026761D01*
X048016Y026748D01*
X048030Y026738D01*
X048046Y026731D01*
X048063Y026727D01*
X048080Y026725D01*
X048780Y026725D01*
X048797Y026727D01*
X048814Y026731D01*
X048830Y026738D01*
X048844Y026748D01*
X048857Y026761D01*
X048867Y026775D01*
X048874Y026791D01*
X048878Y026808D01*
X048880Y026825D01*
X048880Y026975D01*
X048830Y027025D01*
X048830Y028925D01*
X048880Y028975D01*
X048880Y029125D01*
X048878Y029142D01*
X048874Y029159D01*
X048867Y029175D01*
X048857Y029189D01*
X048844Y029202D01*
X048830Y029212D01*
X048814Y029219D01*
X048797Y029223D01*
X048780Y029225D01*
X048650Y028609D02*
X048503Y028389D01*
X048356Y028609D01*
X048210Y028389D02*
X048650Y028389D01*
X048577Y028222D02*
X048650Y028148D01*
X048650Y028002D01*
X048577Y027928D01*
X048577Y027771D02*
X048650Y027771D01*
X048650Y027698D01*
X048577Y027698D01*
X048577Y027771D01*
X048577Y027531D02*
X048650Y027458D01*
X048650Y027311D01*
X048577Y027238D01*
X048430Y027384D02*
X048430Y027458D01*
X048503Y027531D01*
X048577Y027531D01*
X048430Y027458D02*
X048356Y027531D01*
X048283Y027531D01*
X048210Y027458D01*
X048210Y027311D01*
X048283Y027238D01*
X048283Y027928D02*
X048210Y028002D01*
X048210Y028148D01*
X048283Y028222D01*
X048356Y028222D01*
X048430Y028148D01*
X048503Y028222D01*
X048577Y028222D01*
X048430Y028148D02*
X048430Y028075D01*
X054180Y027750D02*
X054180Y028450D01*
X054182Y028467D01*
X054186Y028484D01*
X054193Y028500D01*
X054203Y028514D01*
X054216Y028527D01*
X054230Y028537D01*
X054246Y028544D01*
X054263Y028548D01*
X054280Y028550D01*
X054430Y028550D01*
X054480Y028500D01*
X056380Y028500D01*
X056430Y028550D01*
X056580Y028550D01*
X056597Y028548D01*
X056614Y028544D01*
X056630Y028537D01*
X056644Y028527D01*
X056657Y028514D01*
X056667Y028500D01*
X056674Y028484D01*
X056678Y028467D01*
X056680Y028450D01*
X056680Y027750D01*
X056678Y027733D01*
X056674Y027716D01*
X056667Y027700D01*
X056657Y027686D01*
X056644Y027673D01*
X056630Y027663D01*
X056614Y027656D01*
X056597Y027652D01*
X056580Y027650D01*
X056430Y027650D01*
X056380Y027700D01*
X054480Y027700D01*
X054430Y027650D01*
X054280Y027650D01*
X054280Y027550D02*
X054430Y027550D01*
X054480Y027500D01*
X056380Y027500D01*
X056430Y027550D01*
X056580Y027550D01*
X056597Y027548D01*
X056614Y027544D01*
X056630Y027537D01*
X056644Y027527D01*
X056657Y027514D01*
X056667Y027500D01*
X056674Y027484D01*
X056678Y027467D01*
X056680Y027450D01*
X056680Y026750D01*
X056678Y026733D01*
X056674Y026716D01*
X056667Y026700D01*
X056657Y026686D01*
X056644Y026673D01*
X056630Y026663D01*
X056614Y026656D01*
X056597Y026652D01*
X056580Y026650D01*
X056430Y026650D01*
X056380Y026700D01*
X054480Y026700D01*
X054430Y026650D01*
X054280Y026650D01*
X054263Y026652D01*
X054246Y026656D01*
X054230Y026663D01*
X054216Y026673D01*
X054203Y026686D01*
X054193Y026700D01*
X054186Y026716D01*
X054182Y026733D01*
X054180Y026750D01*
X054180Y027450D01*
X054182Y027467D01*
X054186Y027484D01*
X054193Y027500D01*
X054203Y027514D01*
X054216Y027527D01*
X054230Y027537D01*
X054246Y027544D01*
X054263Y027548D01*
X054280Y027550D01*
X054280Y027650D02*
X054263Y027652D01*
X054246Y027656D01*
X054230Y027663D01*
X054216Y027673D01*
X054203Y027686D01*
X054193Y027700D01*
X054186Y027716D01*
X054182Y027733D01*
X054180Y027750D01*
X054779Y028100D02*
X055000Y028320D01*
X055000Y027880D01*
X055073Y028100D02*
X054779Y028100D01*
X055240Y027953D02*
X055240Y027880D01*
X055240Y027953D02*
X055533Y028247D01*
X055533Y028320D01*
X055240Y028320D01*
X055700Y028247D02*
X055700Y027953D01*
X055994Y028247D01*
X055994Y027953D01*
X055920Y027880D01*
X055774Y027880D01*
X055700Y027953D01*
X055700Y028247D02*
X055774Y028320D01*
X055920Y028320D01*
X055994Y028247D01*
X056430Y028650D02*
X056580Y028650D01*
X056597Y028652D01*
X056614Y028656D01*
X056630Y028663D01*
X056644Y028673D01*
X056657Y028686D01*
X056667Y028700D01*
X056674Y028716D01*
X056678Y028733D01*
X056680Y028750D01*
X056680Y029450D01*
X056678Y029467D01*
X056674Y029484D01*
X056667Y029500D01*
X056657Y029514D01*
X056644Y029527D01*
X056630Y029537D01*
X056614Y029544D01*
X056597Y029548D01*
X056580Y029550D01*
X056430Y029550D01*
X056380Y029500D01*
X054480Y029500D01*
X054430Y029550D01*
X054280Y029550D01*
X054263Y029548D01*
X054246Y029544D01*
X054230Y029537D01*
X054216Y029527D01*
X054203Y029514D01*
X054193Y029500D01*
X054186Y029484D01*
X054182Y029467D01*
X054180Y029450D01*
X054180Y028750D01*
X054182Y028733D01*
X054186Y028716D01*
X054193Y028700D01*
X054203Y028686D01*
X054216Y028673D01*
X054230Y028663D01*
X054246Y028656D01*
X054263Y028652D01*
X054280Y028650D01*
X054430Y028650D01*
X054480Y028700D01*
X056380Y028700D01*
X056430Y028650D01*
X055994Y028953D02*
X055994Y029247D01*
X055700Y028953D01*
X055774Y028880D01*
X055920Y028880D01*
X055994Y028953D01*
X055700Y028953D02*
X055700Y029247D01*
X055774Y029320D01*
X055920Y029320D01*
X055994Y029247D01*
X055533Y029247D02*
X055240Y028953D01*
X055240Y028880D01*
X055000Y028880D02*
X055000Y029320D01*
X054779Y029100D01*
X055073Y029100D01*
X055240Y029320D02*
X055533Y029320D01*
X055533Y029247D01*
X055460Y029755D02*
X055460Y029828D01*
X055754Y030122D01*
X055754Y030195D01*
X055460Y030195D01*
X055293Y030122D02*
X055293Y029975D01*
X055220Y029902D01*
X055000Y029902D01*
X055146Y029902D02*
X055293Y029755D01*
X055000Y029755D02*
X055000Y030195D01*
X055220Y030195D01*
X055293Y030122D01*
X058080Y029350D02*
X058080Y028850D01*
X058082Y028824D01*
X058087Y028798D01*
X058095Y028773D01*
X058107Y028750D01*
X058121Y028728D01*
X058139Y028709D01*
X058158Y028691D01*
X058180Y028677D01*
X058203Y028665D01*
X058228Y028657D01*
X058254Y028652D01*
X058280Y028650D01*
X059580Y028650D01*
X059580Y028550D02*
X058280Y028550D01*
X058254Y028548D01*
X058228Y028543D01*
X058203Y028535D01*
X058180Y028523D01*
X058158Y028509D01*
X058139Y028491D01*
X058121Y028472D01*
X058107Y028450D01*
X058095Y028427D01*
X058087Y028402D01*
X058082Y028376D01*
X058080Y028350D01*
X058080Y027850D01*
X058082Y027824D01*
X058087Y027798D01*
X058095Y027773D01*
X058107Y027750D01*
X058121Y027728D01*
X058139Y027709D01*
X058158Y027691D01*
X058180Y027677D01*
X058203Y027665D01*
X058228Y027657D01*
X058254Y027652D01*
X058280Y027650D01*
X059580Y027650D01*
X059580Y027550D02*
X058280Y027550D01*
X058254Y027548D01*
X058228Y027543D01*
X058203Y027535D01*
X058180Y027523D01*
X058158Y027509D01*
X058139Y027491D01*
X058121Y027472D01*
X058107Y027450D01*
X058095Y027427D01*
X058087Y027402D01*
X058082Y027376D01*
X058080Y027350D01*
X058080Y026850D01*
X058082Y026824D01*
X058087Y026798D01*
X058095Y026773D01*
X058107Y026750D01*
X058121Y026728D01*
X058139Y026709D01*
X058158Y026691D01*
X058180Y026677D01*
X058203Y026665D01*
X058228Y026657D01*
X058254Y026652D01*
X058280Y026650D01*
X059580Y026650D01*
X059580Y026550D02*
X058280Y026550D01*
X058254Y026548D01*
X058228Y026543D01*
X058203Y026535D01*
X058180Y026523D01*
X058158Y026509D01*
X058139Y026491D01*
X058121Y026472D01*
X058107Y026450D01*
X058095Y026427D01*
X058087Y026402D01*
X058082Y026376D01*
X058080Y026350D01*
X058080Y025850D01*
X058082Y025824D01*
X058087Y025798D01*
X058095Y025773D01*
X058107Y025750D01*
X058121Y025728D01*
X058139Y025709D01*
X058158Y025691D01*
X058180Y025677D01*
X058203Y025665D01*
X058228Y025657D01*
X058254Y025652D01*
X058280Y025650D01*
X059580Y025650D01*
X059606Y025652D01*
X059632Y025657D01*
X059657Y025665D01*
X059680Y025677D01*
X059702Y025691D01*
X059721Y025709D01*
X059739Y025728D01*
X059753Y025750D01*
X059765Y025773D01*
X059773Y025798D01*
X059778Y025824D01*
X059780Y025850D01*
X059780Y026350D01*
X059960Y026404D02*
X059960Y026110D01*
X060400Y026110D01*
X060327Y025943D02*
X060400Y025870D01*
X060400Y025650D01*
X060547Y025650D02*
X060106Y025650D01*
X060106Y025870D01*
X060180Y025943D01*
X060327Y025943D01*
X060180Y026110D02*
X060180Y026257D01*
X059780Y026350D02*
X059778Y026376D01*
X059773Y026402D01*
X059765Y026427D01*
X059753Y026450D01*
X059739Y026472D01*
X059721Y026491D01*
X059702Y026509D01*
X059680Y026523D01*
X059657Y026535D01*
X059632Y026543D01*
X059606Y026548D01*
X059580Y026550D01*
X059580Y026650D02*
X059606Y026652D01*
X059632Y026657D01*
X059657Y026665D01*
X059680Y026677D01*
X059702Y026691D01*
X059721Y026709D01*
X059739Y026728D01*
X059753Y026750D01*
X059765Y026773D01*
X059773Y026798D01*
X059778Y026824D01*
X059780Y026850D01*
X059780Y027350D01*
X059778Y027376D01*
X059773Y027402D01*
X059765Y027427D01*
X059753Y027450D01*
X059739Y027472D01*
X059721Y027491D01*
X059702Y027509D01*
X059680Y027523D01*
X059657Y027535D01*
X059632Y027543D01*
X059606Y027548D01*
X059580Y027550D01*
X059580Y027650D02*
X059606Y027652D01*
X059632Y027657D01*
X059657Y027665D01*
X059680Y027677D01*
X059702Y027691D01*
X059721Y027709D01*
X059739Y027728D01*
X059753Y027750D01*
X059765Y027773D01*
X059773Y027798D01*
X059778Y027824D01*
X059780Y027850D01*
X059780Y028350D01*
X059778Y028376D01*
X059773Y028402D01*
X059765Y028427D01*
X059753Y028450D01*
X059739Y028472D01*
X059721Y028491D01*
X059702Y028509D01*
X059680Y028523D01*
X059657Y028535D01*
X059632Y028543D01*
X059606Y028548D01*
X059580Y028550D01*
X059580Y028650D02*
X059606Y028652D01*
X059632Y028657D01*
X059657Y028665D01*
X059680Y028677D01*
X059702Y028691D01*
X059721Y028709D01*
X059739Y028728D01*
X059753Y028750D01*
X059765Y028773D01*
X059773Y028798D01*
X059778Y028824D01*
X059780Y028850D01*
X059780Y029350D01*
X059778Y029376D01*
X059773Y029402D01*
X059765Y029427D01*
X059753Y029450D01*
X059739Y029472D01*
X059721Y029491D01*
X059702Y029509D01*
X059680Y029523D01*
X059657Y029535D01*
X059632Y029543D01*
X059606Y029548D01*
X059580Y029550D01*
X058280Y029550D01*
X058254Y029548D01*
X058228Y029543D01*
X058203Y029535D01*
X058180Y029523D01*
X058158Y029509D01*
X058139Y029491D01*
X058121Y029472D01*
X058107Y029450D01*
X058095Y029427D01*
X058087Y029402D01*
X058082Y029376D01*
X058080Y029350D01*
X058343Y029755D02*
X058490Y029755D01*
X058563Y029828D01*
X058730Y029755D02*
X059023Y030049D01*
X059023Y030122D01*
X058950Y030195D01*
X058803Y030195D01*
X058730Y030122D01*
X058563Y030122D02*
X058490Y030195D01*
X058343Y030195D01*
X058269Y030122D01*
X058269Y029828D01*
X058343Y029755D01*
X058730Y029755D02*
X059023Y029755D01*
X059190Y029828D02*
X059264Y029755D01*
X059410Y029755D01*
X059484Y029828D01*
X059484Y029902D01*
X059410Y029975D01*
X059337Y029975D01*
X059410Y029975D02*
X059484Y030049D01*
X059484Y030122D01*
X059410Y030195D01*
X059264Y030195D01*
X059190Y030122D01*
X062519Y029820D02*
X062519Y029453D01*
X062593Y029380D01*
X062740Y029380D01*
X062813Y029453D01*
X062813Y029820D01*
X062980Y029674D02*
X063127Y029820D01*
X063127Y029380D01*
X063273Y029380D02*
X062980Y029380D01*
X063440Y029453D02*
X063440Y029527D01*
X063514Y029600D01*
X063660Y029600D01*
X063734Y029527D01*
X063734Y029453D01*
X063660Y029380D01*
X063514Y029380D01*
X063440Y029453D01*
X063514Y029600D02*
X063440Y029674D01*
X063440Y029747D01*
X063514Y029820D01*
X063660Y029820D01*
X063734Y029747D01*
X063734Y029674D01*
X063660Y029600D01*
X065460Y029475D02*
X065460Y029328D01*
X065533Y029255D01*
X065827Y029255D01*
X065900Y029328D01*
X065900Y029475D01*
X065827Y029549D01*
X065900Y029715D02*
X065606Y030009D01*
X065533Y030009D01*
X065460Y029936D01*
X065460Y029789D01*
X065533Y029715D01*
X065533Y029549D02*
X065460Y029475D01*
X065900Y029715D02*
X065900Y030009D01*
X065827Y030176D02*
X065900Y030249D01*
X065900Y030396D01*
X065827Y030469D01*
X065533Y030469D01*
X065460Y030396D01*
X065460Y030249D01*
X065533Y030176D01*
X065606Y030176D01*
X065680Y030249D01*
X065680Y030469D01*
X066085Y030636D02*
X066085Y030930D01*
X066305Y030783D02*
X066305Y030636D01*
X066305Y030469D02*
X066525Y030469D01*
X066525Y030636D02*
X066085Y030636D01*
X066305Y030469D02*
X066231Y030396D01*
X066231Y030176D01*
X066525Y030176D01*
X066452Y030009D02*
X066525Y029936D01*
X066525Y029789D01*
X066452Y029715D01*
X066158Y030009D01*
X066452Y030009D01*
X066452Y029715D02*
X066158Y029715D01*
X066085Y029789D01*
X066085Y029936D01*
X066158Y030009D01*
X066525Y029549D02*
X066525Y029255D01*
X066525Y029402D02*
X066085Y029402D01*
X066231Y029255D01*
X066210Y028670D02*
X066234Y028668D01*
X066258Y028663D01*
X066281Y028655D01*
X066302Y028643D01*
X066321Y028628D01*
X066338Y028611D01*
X066353Y028592D01*
X066365Y028571D01*
X066373Y028548D01*
X066378Y028524D01*
X066380Y028500D01*
X066380Y027200D01*
X066378Y027176D01*
X066373Y027152D01*
X066365Y027129D01*
X066353Y027108D01*
X066338Y027089D01*
X066321Y027072D01*
X066302Y027057D01*
X066281Y027045D01*
X066258Y027037D01*
X066234Y027032D01*
X066210Y027030D01*
X065650Y027030D02*
X065626Y027032D01*
X065602Y027037D01*
X065579Y027045D01*
X065558Y027057D01*
X065539Y027072D01*
X065522Y027089D01*
X065507Y027108D01*
X065495Y027129D01*
X065487Y027152D01*
X065482Y027176D01*
X065480Y027200D01*
X065480Y028500D01*
X065482Y028524D01*
X065487Y028548D01*
X065495Y028571D01*
X065507Y028592D01*
X065522Y028611D01*
X065539Y028628D01*
X065558Y028643D01*
X065579Y028655D01*
X065602Y028663D01*
X065626Y028668D01*
X065650Y028670D01*
X066705Y027350D02*
X066707Y027416D01*
X066713Y027481D01*
X066723Y027546D01*
X066736Y027611D01*
X066754Y027674D01*
X066775Y027737D01*
X066800Y027797D01*
X066829Y027857D01*
X066861Y027914D01*
X066896Y027970D01*
X066935Y028023D01*
X066977Y028074D01*
X067021Y028122D01*
X067069Y028167D01*
X067119Y028210D01*
X067172Y028249D01*
X067227Y028286D01*
X067284Y028319D01*
X067343Y028348D01*
X067403Y028374D01*
X067465Y028396D01*
X067528Y028415D01*
X067592Y028429D01*
X067657Y028440D01*
X067723Y028447D01*
X067789Y028450D01*
X067854Y028449D01*
X067920Y028444D01*
X067985Y028435D01*
X068050Y028422D01*
X068113Y028406D01*
X068176Y028386D01*
X068237Y028361D01*
X068297Y028334D01*
X068355Y028303D01*
X068411Y028268D01*
X068465Y028230D01*
X068516Y028189D01*
X068565Y028145D01*
X068611Y028098D01*
X068655Y028049D01*
X068695Y027997D01*
X068732Y027942D01*
X068766Y027886D01*
X068796Y027827D01*
X068823Y027767D01*
X068846Y027706D01*
X068865Y027643D01*
X068881Y027579D01*
X068893Y027514D01*
X068901Y027449D01*
X068905Y027383D01*
X068905Y027317D01*
X068901Y027251D01*
X068893Y027186D01*
X068881Y027121D01*
X068865Y027057D01*
X068846Y026994D01*
X068823Y026933D01*
X068796Y026873D01*
X068766Y026814D01*
X068732Y026758D01*
X068695Y026703D01*
X068655Y026651D01*
X068611Y026602D01*
X068565Y026555D01*
X068516Y026511D01*
X068465Y026470D01*
X068411Y026432D01*
X068355Y026397D01*
X068297Y026366D01*
X068237Y026339D01*
X068176Y026314D01*
X068113Y026294D01*
X068050Y026278D01*
X067985Y026265D01*
X067920Y026256D01*
X067854Y026251D01*
X067789Y026250D01*
X067723Y026253D01*
X067657Y026260D01*
X067592Y026271D01*
X067528Y026285D01*
X067465Y026304D01*
X067403Y026326D01*
X067343Y026352D01*
X067284Y026381D01*
X067227Y026414D01*
X067172Y026451D01*
X067119Y026490D01*
X067069Y026533D01*
X067021Y026578D01*
X066977Y026626D01*
X066935Y026677D01*
X066896Y026730D01*
X066861Y026786D01*
X066829Y026843D01*
X066800Y026903D01*
X066775Y026963D01*
X066754Y027026D01*
X066736Y027089D01*
X066723Y027154D01*
X066713Y027219D01*
X066707Y027284D01*
X066705Y027350D01*
X067243Y026850D02*
X067243Y026700D01*
X067093Y026700D01*
X067243Y026700D02*
X067393Y026700D01*
X067243Y026700D02*
X067243Y026550D01*
X068335Y025997D02*
X068335Y025703D01*
X068408Y025630D01*
X068555Y025630D01*
X068629Y025703D01*
X068795Y025703D02*
X068869Y025630D01*
X069016Y025630D01*
X069089Y025703D01*
X069089Y025777D01*
X069016Y025850D01*
X068942Y025850D01*
X069016Y025850D02*
X069089Y025924D01*
X069089Y025997D01*
X069016Y026070D01*
X068869Y026070D01*
X068795Y025997D01*
X068629Y025997D02*
X068555Y026070D01*
X068408Y026070D01*
X068335Y025997D01*
X068080Y025800D02*
X066780Y025800D01*
X066754Y025798D01*
X066728Y025793D01*
X066703Y025785D01*
X066680Y025773D01*
X066658Y025759D01*
X066639Y025741D01*
X066621Y025722D01*
X066607Y025700D01*
X066595Y025677D01*
X066587Y025652D01*
X066582Y025626D01*
X066580Y025600D01*
X066580Y025100D01*
X066582Y025074D01*
X066587Y025048D01*
X066595Y025023D01*
X066607Y025000D01*
X066621Y024978D01*
X066639Y024959D01*
X066658Y024941D01*
X066680Y024927D01*
X066703Y024915D01*
X066728Y024907D01*
X066754Y024902D01*
X066780Y024900D01*
X068080Y024900D01*
X067980Y024750D02*
X069880Y024750D01*
X069930Y024800D01*
X070080Y024800D01*
X070097Y024798D01*
X070114Y024794D01*
X070130Y024787D01*
X070144Y024777D01*
X070157Y024764D01*
X070167Y024750D01*
X070174Y024734D01*
X070178Y024717D01*
X070180Y024700D01*
X070180Y024000D01*
X070178Y023983D01*
X070174Y023966D01*
X070167Y023950D01*
X070157Y023936D01*
X070144Y023923D01*
X070130Y023913D01*
X070114Y023906D01*
X070097Y023902D01*
X070080Y023900D01*
X069930Y023900D01*
X069880Y023950D01*
X067980Y023950D01*
X067930Y023900D01*
X067780Y023900D01*
X067763Y023902D01*
X067746Y023906D01*
X067730Y023913D01*
X067716Y023923D01*
X067703Y023936D01*
X067693Y023950D01*
X067686Y023966D01*
X067682Y023983D01*
X067680Y024000D01*
X067680Y024700D01*
X067682Y024717D01*
X067686Y024734D01*
X067693Y024750D01*
X067703Y024764D01*
X067716Y024777D01*
X067730Y024787D01*
X067746Y024794D01*
X067763Y024798D01*
X067780Y024800D01*
X067930Y024800D01*
X067980Y024750D01*
X068080Y024900D02*
X068106Y024902D01*
X068132Y024907D01*
X068157Y024915D01*
X068180Y024927D01*
X068202Y024941D01*
X068221Y024959D01*
X068239Y024978D01*
X068253Y025000D01*
X068265Y025023D01*
X068273Y025048D01*
X068278Y025074D01*
X068280Y025100D01*
X068280Y025600D01*
X068394Y025445D02*
X068615Y025445D01*
X068688Y025372D01*
X068688Y025225D01*
X068615Y025152D01*
X068394Y025152D01*
X068394Y025005D02*
X068394Y025445D01*
X068541Y025152D02*
X068688Y025005D01*
X068855Y025005D02*
X069148Y025005D01*
X069002Y025005D02*
X069002Y025445D01*
X068855Y025299D01*
X069315Y025225D02*
X069315Y025078D01*
X069389Y025005D01*
X069535Y025005D01*
X069609Y025078D01*
X069609Y025152D01*
X069535Y025225D01*
X069315Y025225D01*
X069462Y025372D01*
X069609Y025445D01*
X069476Y025630D02*
X069329Y025630D01*
X069256Y025703D01*
X069549Y025997D01*
X069549Y025703D01*
X069476Y025630D01*
X069256Y025703D02*
X069256Y025997D01*
X069329Y026070D01*
X069476Y026070D01*
X069549Y025997D01*
X069930Y026459D02*
X069710Y026679D01*
X070150Y026679D01*
X069930Y026753D02*
X069930Y026459D01*
X070077Y026920D02*
X070150Y026920D01*
X070077Y026920D02*
X069783Y027213D01*
X069710Y027213D01*
X069710Y026920D01*
X069525Y026910D02*
X069452Y026983D01*
X069525Y026910D02*
X069525Y026763D01*
X069452Y026689D01*
X069158Y026689D01*
X069085Y026763D01*
X069085Y026910D01*
X069158Y026983D01*
X069158Y027150D02*
X069085Y027223D01*
X069085Y027370D01*
X069158Y027443D01*
X069231Y027443D01*
X069305Y027370D01*
X069378Y027443D01*
X069452Y027443D01*
X069525Y027370D01*
X069525Y027223D01*
X069452Y027150D01*
X069305Y027297D02*
X069305Y027370D01*
X069305Y027610D02*
X069305Y027830D01*
X069378Y027904D01*
X069452Y027904D01*
X069525Y027830D01*
X069525Y027684D01*
X069452Y027610D01*
X069305Y027610D01*
X069158Y027757D01*
X069085Y027904D01*
X069710Y027840D02*
X069710Y028134D01*
X069930Y027987D02*
X069930Y027840D01*
X069856Y027674D02*
X070150Y027674D01*
X070150Y027453D01*
X070077Y027380D01*
X069856Y027380D01*
X069710Y027840D02*
X070150Y027840D01*
X071500Y026445D02*
X071500Y026005D01*
X071793Y026005D01*
X071960Y026005D02*
X072254Y026005D01*
X072107Y026005D02*
X072107Y026445D01*
X071960Y026299D01*
X072880Y025750D02*
X070980Y025750D01*
X070930Y025800D01*
X070780Y025800D01*
X070763Y025798D01*
X070746Y025794D01*
X070730Y025787D01*
X070716Y025777D01*
X070703Y025764D01*
X070693Y025750D01*
X070686Y025734D01*
X070682Y025717D01*
X070680Y025700D01*
X070680Y025000D01*
X070682Y024983D01*
X070686Y024966D01*
X070693Y024950D01*
X070703Y024936D01*
X070716Y024923D01*
X070730Y024913D01*
X070746Y024906D01*
X070763Y024902D01*
X070780Y024900D01*
X070930Y024900D01*
X070980Y024950D01*
X072880Y024950D01*
X072930Y024900D01*
X073080Y024900D01*
X073097Y024902D01*
X073114Y024906D01*
X073130Y024913D01*
X073144Y024923D01*
X073157Y024936D01*
X073167Y024950D01*
X073174Y024966D01*
X073178Y024983D01*
X073180Y025000D01*
X073180Y025700D01*
X073178Y025717D01*
X073174Y025734D01*
X073167Y025750D01*
X073157Y025764D01*
X073144Y025777D01*
X073130Y025787D01*
X073114Y025794D01*
X073097Y025798D01*
X073080Y025800D01*
X072930Y025800D01*
X072880Y025750D01*
X075085Y023904D02*
X075158Y023904D01*
X075452Y023610D01*
X075525Y023610D01*
X075452Y023443D02*
X075525Y023370D01*
X075525Y023223D01*
X075452Y023150D01*
X075452Y022983D02*
X075525Y022910D01*
X075525Y022763D01*
X075452Y022689D01*
X075158Y022689D01*
X075085Y022763D01*
X075085Y022910D01*
X075158Y022983D01*
X075158Y023150D02*
X075085Y023223D01*
X075085Y023370D01*
X075158Y023443D01*
X075231Y023443D01*
X075305Y023370D01*
X075378Y023443D01*
X075452Y023443D01*
X075305Y023370D02*
X075305Y023297D01*
X075085Y023610D02*
X075085Y023904D01*
X074694Y022945D02*
X074401Y022945D01*
X074401Y022505D01*
X074234Y022505D02*
X074234Y022799D01*
X074401Y022725D02*
X074547Y022725D01*
X074234Y022505D02*
X074014Y022505D01*
X073940Y022578D01*
X073940Y022799D01*
X073773Y022872D02*
X073480Y022578D01*
X073553Y022505D01*
X073700Y022505D01*
X073773Y022578D01*
X073773Y022872D01*
X073700Y022945D01*
X073553Y022945D01*
X073480Y022872D01*
X073480Y022578D01*
X073313Y022505D02*
X073019Y022505D01*
X073313Y022799D01*
X073313Y022872D01*
X073240Y022945D01*
X073093Y022945D01*
X073019Y022872D01*
X072853Y022872D02*
X072779Y022945D01*
X072632Y022945D01*
X072559Y022872D01*
X072853Y022872D02*
X072853Y022799D01*
X072559Y022505D01*
X072853Y022505D01*
X072505Y023200D02*
X072505Y023500D01*
X072355Y023350D02*
X072655Y023350D01*
X072205Y023350D02*
X072207Y023423D01*
X072213Y023496D01*
X072223Y023568D01*
X072237Y023640D01*
X072254Y023711D01*
X072276Y023781D01*
X072301Y023850D01*
X072330Y023917D01*
X072362Y023982D01*
X072398Y024046D01*
X072438Y024108D01*
X072480Y024167D01*
X072526Y024224D01*
X072575Y024278D01*
X072627Y024330D01*
X072681Y024379D01*
X072738Y024425D01*
X072797Y024467D01*
X072859Y024507D01*
X072923Y024543D01*
X072988Y024575D01*
X073055Y024604D01*
X073124Y024629D01*
X073194Y024651D01*
X073265Y024668D01*
X073337Y024682D01*
X073409Y024692D01*
X073482Y024698D01*
X073555Y024700D01*
X073628Y024698D01*
X073701Y024692D01*
X073773Y024682D01*
X073845Y024668D01*
X073916Y024651D01*
X073986Y024629D01*
X074055Y024604D01*
X074122Y024575D01*
X074187Y024543D01*
X074251Y024507D01*
X074313Y024467D01*
X074372Y024425D01*
X074429Y024379D01*
X074483Y024330D01*
X074535Y024278D01*
X074584Y024224D01*
X074630Y024167D01*
X074672Y024108D01*
X074712Y024046D01*
X074748Y023982D01*
X074780Y023917D01*
X074809Y023850D01*
X074834Y023781D01*
X074856Y023711D01*
X074873Y023640D01*
X074887Y023568D01*
X074897Y023496D01*
X074903Y023423D01*
X074905Y023350D01*
X074903Y023277D01*
X074897Y023204D01*
X074887Y023132D01*
X074873Y023060D01*
X074856Y022989D01*
X074834Y022919D01*
X074809Y022850D01*
X074780Y022783D01*
X074748Y022718D01*
X074712Y022654D01*
X074672Y022592D01*
X074630Y022533D01*
X074584Y022476D01*
X074535Y022422D01*
X074483Y022370D01*
X074429Y022321D01*
X074372Y022275D01*
X074313Y022233D01*
X074251Y022193D01*
X074187Y022157D01*
X074122Y022125D01*
X074055Y022096D01*
X073986Y022071D01*
X073916Y022049D01*
X073845Y022032D01*
X073773Y022018D01*
X073701Y022008D01*
X073628Y022002D01*
X073555Y022000D01*
X073482Y022002D01*
X073409Y022008D01*
X073337Y022018D01*
X073265Y022032D01*
X073194Y022049D01*
X073124Y022071D01*
X073055Y022096D01*
X072988Y022125D01*
X072923Y022157D01*
X072859Y022193D01*
X072797Y022233D01*
X072738Y022275D01*
X072681Y022321D01*
X072627Y022370D01*
X072575Y022422D01*
X072526Y022476D01*
X072480Y022533D01*
X072438Y022592D01*
X072398Y022654D01*
X072362Y022718D01*
X072330Y022783D01*
X072301Y022850D01*
X072276Y022919D01*
X072254Y022989D01*
X072237Y023060D01*
X072223Y023132D01*
X072213Y023204D01*
X072207Y023277D01*
X072205Y023350D01*
X070180Y023000D02*
X070180Y023700D01*
X070178Y023717D01*
X070174Y023734D01*
X070167Y023750D01*
X070157Y023764D01*
X070144Y023777D01*
X070130Y023787D01*
X070114Y023794D01*
X070097Y023798D01*
X070080Y023800D01*
X069930Y023800D01*
X069880Y023750D01*
X067980Y023750D01*
X067930Y023800D01*
X067780Y023800D01*
X067763Y023798D01*
X067746Y023794D01*
X067730Y023787D01*
X067716Y023777D01*
X067703Y023764D01*
X067693Y023750D01*
X067686Y023734D01*
X067682Y023717D01*
X067680Y023700D01*
X067680Y023000D01*
X067682Y022983D01*
X067686Y022966D01*
X067693Y022950D01*
X067703Y022936D01*
X067716Y022923D01*
X067730Y022913D01*
X067746Y022906D01*
X067763Y022902D01*
X067780Y022900D01*
X067930Y022900D01*
X067980Y022950D01*
X069880Y022950D01*
X069930Y022900D01*
X070080Y022900D01*
X070080Y022800D02*
X069930Y022800D01*
X069880Y022750D01*
X067980Y022750D01*
X067930Y022800D01*
X067780Y022800D01*
X067763Y022798D01*
X067746Y022794D01*
X067730Y022787D01*
X067716Y022777D01*
X067703Y022764D01*
X067693Y022750D01*
X067686Y022734D01*
X067682Y022717D01*
X067680Y022700D01*
X067680Y022000D01*
X067682Y021983D01*
X067686Y021966D01*
X067693Y021950D01*
X067703Y021936D01*
X067716Y021923D01*
X067730Y021913D01*
X067746Y021906D01*
X067763Y021902D01*
X067780Y021900D01*
X067930Y021900D01*
X067980Y021950D01*
X069880Y021950D01*
X069930Y021900D01*
X070080Y021900D01*
X070097Y021902D01*
X070114Y021906D01*
X070130Y021913D01*
X070144Y021923D01*
X070157Y021936D01*
X070167Y021950D01*
X070174Y021966D01*
X070178Y021983D01*
X070180Y022000D01*
X070180Y022700D01*
X070178Y022717D01*
X070174Y022734D01*
X070167Y022750D01*
X070157Y022764D01*
X070144Y022777D01*
X070130Y022787D01*
X070114Y022794D01*
X070097Y022798D01*
X070080Y022800D01*
X070080Y022900D02*
X070097Y022902D01*
X070114Y022906D01*
X070130Y022913D01*
X070144Y022923D01*
X070157Y022936D01*
X070167Y022950D01*
X070174Y022966D01*
X070178Y022983D01*
X070180Y023000D01*
X069264Y023203D02*
X069190Y023130D01*
X069043Y023130D01*
X068970Y023203D01*
X068970Y023350D02*
X069117Y023424D01*
X069190Y023424D01*
X069264Y023350D01*
X069264Y023203D01*
X068970Y023350D02*
X068970Y023570D01*
X069264Y023570D01*
X068803Y023570D02*
X068803Y023497D01*
X068510Y023203D01*
X068510Y023130D01*
X068510Y023570D02*
X068803Y023570D01*
X069043Y024130D02*
X068970Y024203D01*
X069043Y024130D02*
X069190Y024130D01*
X069264Y024203D01*
X069264Y024350D01*
X069190Y024424D01*
X069117Y024424D01*
X068970Y024350D01*
X068970Y024570D01*
X069264Y024570D01*
X068803Y024570D02*
X068803Y024497D01*
X068510Y024203D01*
X068510Y024130D01*
X068510Y024570D02*
X068803Y024570D01*
X068280Y025600D02*
X068278Y025626D01*
X068273Y025652D01*
X068265Y025677D01*
X068253Y025700D01*
X068239Y025722D01*
X068221Y025741D01*
X068202Y025759D01*
X068180Y025773D01*
X068157Y025785D01*
X068132Y025793D01*
X068106Y025798D01*
X068080Y025800D01*
X066380Y024500D02*
X066380Y024350D01*
X066330Y024300D01*
X066330Y022400D01*
X066380Y022350D01*
X066380Y022200D01*
X066378Y022183D01*
X066374Y022166D01*
X066367Y022150D01*
X066357Y022136D01*
X066344Y022123D01*
X066330Y022113D01*
X066314Y022106D01*
X066297Y022102D01*
X066280Y022100D01*
X065580Y022100D01*
X065563Y022102D01*
X065546Y022106D01*
X065530Y022113D01*
X065516Y022123D01*
X065503Y022136D01*
X065493Y022150D01*
X065486Y022166D01*
X065482Y022183D01*
X065480Y022200D01*
X065480Y022350D01*
X065530Y022400D01*
X065530Y024300D01*
X065480Y024350D01*
X065480Y024500D01*
X065482Y024517D01*
X065486Y024534D01*
X065493Y024550D01*
X065503Y024564D01*
X065516Y024577D01*
X065530Y024587D01*
X065546Y024594D01*
X065563Y024598D01*
X065580Y024600D01*
X066280Y024600D01*
X066297Y024598D01*
X066314Y024594D01*
X066330Y024587D01*
X066344Y024577D01*
X066357Y024564D01*
X066367Y024550D01*
X066374Y024534D01*
X066378Y024517D01*
X066380Y024500D01*
X063400Y024592D02*
X063400Y024739D01*
X063327Y024812D01*
X063400Y024979D02*
X062960Y025273D01*
X063106Y025439D02*
X062960Y025586D01*
X063106Y025733D01*
X063400Y025733D01*
X063400Y025900D02*
X063106Y026193D01*
X063033Y026193D01*
X062960Y026120D01*
X062960Y025973D01*
X063033Y025900D01*
X063180Y025733D02*
X063180Y025439D01*
X063106Y025439D02*
X063400Y025439D01*
X063400Y025273D02*
X062960Y024979D01*
X063033Y024812D02*
X062960Y024739D01*
X062960Y024592D01*
X063033Y024519D01*
X063327Y024519D01*
X063400Y024592D01*
X063400Y025900D02*
X063400Y026193D01*
X063327Y026360D02*
X063033Y026654D01*
X063327Y026654D01*
X063400Y026580D01*
X063400Y026434D01*
X063327Y026360D01*
X063033Y026360D01*
X062960Y026434D01*
X062960Y026580D01*
X063033Y026654D01*
X062960Y026821D02*
X062960Y027114D01*
X063033Y027114D01*
X063327Y026821D01*
X063400Y026821D01*
X063327Y027281D02*
X063400Y027354D01*
X063400Y027501D01*
X063327Y027575D01*
X063180Y027575D01*
X063106Y027501D01*
X063106Y027428D01*
X063180Y027281D01*
X062960Y027281D01*
X062960Y027575D01*
X060400Y025410D02*
X060400Y025263D01*
X060327Y025189D01*
X060180Y025189D02*
X060106Y025336D01*
X060106Y025410D01*
X060180Y025483D01*
X060327Y025483D01*
X060400Y025410D01*
X060180Y025189D02*
X059960Y025189D01*
X059960Y025483D01*
X059484Y025445D02*
X059337Y025372D01*
X059190Y025225D01*
X059410Y025225D01*
X059484Y025152D01*
X059484Y025078D01*
X059410Y025005D01*
X059264Y025005D01*
X059190Y025078D01*
X059190Y025225D01*
X059023Y025299D02*
X059023Y025372D01*
X058950Y025445D01*
X058803Y025445D01*
X058730Y025372D01*
X058563Y025372D02*
X058490Y025445D01*
X058343Y025445D01*
X058269Y025372D01*
X058269Y025078D01*
X058343Y025005D01*
X058490Y025005D01*
X058563Y025078D01*
X058730Y025005D02*
X059023Y025299D01*
X059023Y025005D02*
X058730Y025005D01*
X058280Y024550D02*
X059580Y024550D01*
X059606Y024548D01*
X059632Y024543D01*
X059657Y024535D01*
X059680Y024523D01*
X059702Y024509D01*
X059721Y024491D01*
X059739Y024472D01*
X059753Y024450D01*
X059765Y024427D01*
X059773Y024402D01*
X059778Y024376D01*
X059780Y024350D01*
X059780Y023850D01*
X059778Y023824D01*
X059773Y023798D01*
X059765Y023773D01*
X059753Y023750D01*
X059739Y023728D01*
X059721Y023709D01*
X059702Y023691D01*
X059680Y023677D01*
X059657Y023665D01*
X059632Y023657D01*
X059606Y023652D01*
X059580Y023650D01*
X058280Y023650D01*
X058254Y023652D01*
X058228Y023657D01*
X058203Y023665D01*
X058180Y023677D01*
X058158Y023691D01*
X058139Y023709D01*
X058121Y023728D01*
X058107Y023750D01*
X058095Y023773D01*
X058087Y023798D01*
X058082Y023824D01*
X058080Y023850D01*
X058080Y024350D01*
X058082Y024376D01*
X058087Y024402D01*
X058095Y024427D01*
X058107Y024450D01*
X058121Y024472D01*
X058139Y024491D01*
X058158Y024509D01*
X058180Y024523D01*
X058203Y024535D01*
X058228Y024543D01*
X058254Y024548D01*
X058280Y024550D01*
X058343Y023445D02*
X058269Y023372D01*
X058269Y023078D01*
X058343Y023005D01*
X058490Y023005D01*
X058563Y023078D01*
X058730Y023005D02*
X059023Y023299D01*
X059023Y023372D01*
X058950Y023445D01*
X058803Y023445D01*
X058730Y023372D01*
X058563Y023372D02*
X058490Y023445D01*
X058343Y023445D01*
X058730Y023005D02*
X059023Y023005D01*
X059190Y023005D02*
X059190Y023078D01*
X059484Y023372D01*
X059484Y023445D01*
X059190Y023445D01*
X059960Y023588D02*
X059960Y023295D01*
X059960Y023054D02*
X060180Y022834D01*
X060180Y023128D01*
X060327Y023295D02*
X060400Y023295D01*
X060327Y023295D02*
X060033Y023588D01*
X059960Y023588D01*
X060106Y023755D02*
X060106Y023975D01*
X060180Y024049D01*
X060327Y024049D01*
X060400Y023975D01*
X060400Y023755D01*
X060547Y023755D02*
X060106Y023755D01*
X060180Y024215D02*
X060180Y024362D01*
X060400Y024215D02*
X059960Y024215D01*
X059960Y024509D01*
X059960Y023054D02*
X060400Y023054D01*
X060829Y022747D02*
X060829Y022453D01*
X060902Y022380D01*
X061049Y022380D01*
X061122Y022453D01*
X061289Y022380D02*
X061583Y022674D01*
X061583Y022747D01*
X061509Y022820D01*
X061363Y022820D01*
X061289Y022747D01*
X061122Y022747D02*
X061049Y022820D01*
X060902Y022820D01*
X060829Y022747D01*
X060902Y022195D02*
X061049Y022195D01*
X061122Y022122D01*
X060829Y021828D01*
X060902Y021755D01*
X061049Y021755D01*
X061122Y021828D01*
X061122Y022122D01*
X061289Y022049D02*
X061509Y022049D01*
X061583Y021975D01*
X061583Y021755D01*
X061750Y021755D02*
X061750Y022195D01*
X062043Y022195D01*
X061970Y022380D02*
X061823Y022380D01*
X061750Y022453D01*
X061750Y022527D01*
X061823Y022600D01*
X061970Y022600D01*
X062043Y022527D01*
X062043Y022453D01*
X061970Y022380D01*
X061970Y022600D02*
X062043Y022674D01*
X062043Y022747D01*
X061970Y022820D01*
X061823Y022820D01*
X061750Y022747D01*
X061750Y022674D01*
X061823Y022600D01*
X061583Y022380D02*
X061289Y022380D01*
X061289Y022049D02*
X061289Y021755D01*
X060829Y021828D02*
X060829Y022122D01*
X060902Y022195D01*
X060515Y022195D02*
X060515Y021755D01*
X060368Y021755D02*
X060662Y021755D01*
X060368Y022049D02*
X060515Y022195D01*
X061750Y021975D02*
X061896Y021975D01*
X062330Y022100D02*
X062330Y022600D01*
X062332Y022626D01*
X062337Y022652D01*
X062345Y022677D01*
X062357Y022700D01*
X062371Y022722D01*
X062389Y022741D01*
X062408Y022759D01*
X062430Y022773D01*
X062453Y022785D01*
X062478Y022793D01*
X062504Y022798D01*
X062530Y022800D01*
X063830Y022800D01*
X063856Y022798D01*
X063882Y022793D01*
X063907Y022785D01*
X063930Y022773D01*
X063952Y022759D01*
X063971Y022741D01*
X063989Y022722D01*
X064003Y022700D01*
X064015Y022677D01*
X064023Y022652D01*
X064028Y022626D01*
X064030Y022600D01*
X064030Y022100D01*
X064028Y022074D01*
X064023Y022048D01*
X064015Y022023D01*
X064003Y022000D01*
X063989Y021978D01*
X063971Y021959D01*
X063952Y021941D01*
X063930Y021927D01*
X063907Y021915D01*
X063882Y021907D01*
X063856Y021902D01*
X063830Y021900D01*
X062530Y021900D01*
X062504Y021902D01*
X062478Y021907D01*
X062453Y021915D01*
X062430Y021927D01*
X062408Y021941D01*
X062389Y021959D01*
X062371Y021978D01*
X062357Y022000D01*
X062345Y022023D01*
X062337Y022048D01*
X062332Y022074D01*
X062330Y022100D01*
X062530Y021313D02*
X062530Y021163D01*
X062680Y021163D01*
X062530Y021163D02*
X062530Y021013D01*
X062530Y021163D02*
X062380Y021163D01*
X061900Y021080D02*
X061900Y020934D01*
X061827Y020860D01*
X061680Y020860D02*
X061606Y021007D01*
X061606Y021080D01*
X061680Y021154D01*
X061827Y021154D01*
X061900Y021080D01*
X061680Y020860D02*
X061460Y020860D01*
X061460Y021154D01*
X061533Y020693D02*
X061606Y020693D01*
X061680Y020620D01*
X061753Y020693D01*
X061827Y020693D01*
X061900Y020620D01*
X061900Y020473D01*
X061827Y020400D01*
X061827Y020233D02*
X061900Y020160D01*
X061900Y020013D01*
X061827Y019939D01*
X061533Y019939D01*
X061460Y020013D01*
X061460Y020160D01*
X061533Y020233D01*
X061533Y020400D02*
X061460Y020473D01*
X061460Y020620D01*
X061533Y020693D01*
X061680Y020620D02*
X061680Y020547D01*
X062080Y020600D02*
X062082Y020666D01*
X062088Y020731D01*
X062098Y020796D01*
X062111Y020861D01*
X062129Y020924D01*
X062150Y020987D01*
X062175Y021047D01*
X062204Y021107D01*
X062236Y021164D01*
X062271Y021220D01*
X062310Y021273D01*
X062352Y021324D01*
X062396Y021372D01*
X062444Y021417D01*
X062494Y021460D01*
X062547Y021499D01*
X062602Y021536D01*
X062659Y021569D01*
X062718Y021598D01*
X062778Y021624D01*
X062840Y021646D01*
X062903Y021665D01*
X062967Y021679D01*
X063032Y021690D01*
X063098Y021697D01*
X063164Y021700D01*
X063229Y021699D01*
X063295Y021694D01*
X063360Y021685D01*
X063425Y021672D01*
X063488Y021656D01*
X063551Y021636D01*
X063612Y021611D01*
X063672Y021584D01*
X063730Y021553D01*
X063786Y021518D01*
X063840Y021480D01*
X063891Y021439D01*
X063940Y021395D01*
X063986Y021348D01*
X064030Y021299D01*
X064070Y021247D01*
X064107Y021192D01*
X064141Y021136D01*
X064171Y021077D01*
X064198Y021017D01*
X064221Y020956D01*
X064240Y020893D01*
X064256Y020829D01*
X064268Y020764D01*
X064276Y020699D01*
X064280Y020633D01*
X064280Y020567D01*
X064276Y020501D01*
X064268Y020436D01*
X064256Y020371D01*
X064240Y020307D01*
X064221Y020244D01*
X064198Y020183D01*
X064171Y020123D01*
X064141Y020064D01*
X064107Y020008D01*
X064070Y019953D01*
X064030Y019901D01*
X063986Y019852D01*
X063940Y019805D01*
X063891Y019761D01*
X063840Y019720D01*
X063786Y019682D01*
X063730Y019647D01*
X063672Y019616D01*
X063612Y019589D01*
X063551Y019564D01*
X063488Y019544D01*
X063425Y019528D01*
X063360Y019515D01*
X063295Y019506D01*
X063229Y019501D01*
X063164Y019500D01*
X063098Y019503D01*
X063032Y019510D01*
X062967Y019521D01*
X062903Y019535D01*
X062840Y019554D01*
X062778Y019576D01*
X062718Y019602D01*
X062659Y019631D01*
X062602Y019664D01*
X062547Y019701D01*
X062494Y019740D01*
X062444Y019783D01*
X062396Y019828D01*
X062352Y019876D01*
X062310Y019927D01*
X062271Y019980D01*
X062236Y020036D01*
X062204Y020093D01*
X062175Y020153D01*
X062150Y020213D01*
X062129Y020276D01*
X062111Y020339D01*
X062098Y020404D01*
X062088Y020469D01*
X062082Y020534D01*
X062080Y020600D01*
X062509Y019320D02*
X062289Y019100D01*
X062583Y019100D01*
X062750Y018953D02*
X062750Y018880D01*
X062750Y018953D02*
X063043Y019247D01*
X063043Y019320D01*
X062750Y019320D01*
X062509Y019320D02*
X062509Y018880D01*
X063210Y018953D02*
X063210Y019174D01*
X063210Y018953D02*
X063283Y018880D01*
X063504Y018880D01*
X063504Y019174D01*
X063670Y019100D02*
X063817Y019100D01*
X063670Y018880D02*
X063670Y019320D01*
X063964Y019320D01*
X067680Y021000D02*
X067680Y021700D01*
X067682Y021717D01*
X067686Y021734D01*
X067693Y021750D01*
X067703Y021764D01*
X067716Y021777D01*
X067730Y021787D01*
X067746Y021794D01*
X067763Y021798D01*
X067780Y021800D01*
X067930Y021800D01*
X067980Y021750D01*
X069880Y021750D01*
X069930Y021800D01*
X070080Y021800D01*
X070097Y021798D01*
X070114Y021794D01*
X070130Y021787D01*
X070144Y021777D01*
X070157Y021764D01*
X070167Y021750D01*
X070174Y021734D01*
X070178Y021717D01*
X070180Y021700D01*
X070180Y021000D01*
X070178Y020983D01*
X070174Y020966D01*
X070167Y020950D01*
X070157Y020936D01*
X070144Y020923D01*
X070130Y020913D01*
X070114Y020906D01*
X070097Y020902D01*
X070080Y020900D01*
X069930Y020900D01*
X069880Y020950D01*
X067980Y020950D01*
X067930Y020900D01*
X067780Y020900D01*
X067763Y020902D01*
X067746Y020906D01*
X067730Y020913D01*
X067716Y020923D01*
X067703Y020936D01*
X067693Y020950D01*
X067686Y020966D01*
X067682Y020983D01*
X067680Y021000D01*
X068179Y021130D02*
X068473Y021424D01*
X068473Y021497D01*
X068400Y021570D01*
X068253Y021570D01*
X068179Y021497D01*
X068179Y021130D02*
X068473Y021130D01*
X068640Y021350D02*
X068933Y021350D01*
X069100Y021203D02*
X069394Y021497D01*
X069394Y021203D01*
X069320Y021130D01*
X069174Y021130D01*
X069100Y021203D01*
X069100Y021497D01*
X069174Y021570D01*
X069320Y021570D01*
X069394Y021497D01*
X068860Y021570D02*
X068860Y021130D01*
X068640Y021350D02*
X068860Y021570D01*
X068730Y022130D02*
X068730Y022570D01*
X068510Y022350D01*
X068803Y022350D01*
X068970Y022203D02*
X069043Y022130D01*
X069190Y022130D01*
X069264Y022203D01*
X069264Y022277D01*
X069190Y022350D01*
X069117Y022350D01*
X069190Y022350D02*
X069264Y022424D01*
X069264Y022497D01*
X069190Y022570D01*
X069043Y022570D01*
X068970Y022497D01*
X068877Y020695D02*
X068877Y020255D01*
X069023Y020255D02*
X068730Y020255D01*
X068563Y020255D02*
X068416Y020402D01*
X068490Y020402D02*
X068269Y020402D01*
X068269Y020255D02*
X068269Y020695D01*
X068490Y020695D01*
X068563Y020622D01*
X068563Y020475D01*
X068490Y020402D01*
X068730Y020549D02*
X068877Y020695D01*
X069190Y020622D02*
X069190Y020549D01*
X069264Y020475D01*
X069484Y020475D01*
X069484Y020328D02*
X069484Y020622D01*
X069410Y020695D01*
X069264Y020695D01*
X069190Y020622D01*
X069190Y020328D02*
X069264Y020255D01*
X069410Y020255D01*
X069484Y020328D01*
X069880Y019500D02*
X069880Y019200D01*
X069730Y019350D02*
X070030Y019350D01*
X070007Y018945D02*
X069934Y018872D01*
X070007Y018945D02*
X070154Y018945D01*
X070228Y018872D01*
X070228Y018799D01*
X069934Y018505D01*
X070228Y018505D01*
X070394Y018505D02*
X070688Y018799D01*
X070688Y018872D01*
X070615Y018945D01*
X070468Y018945D01*
X070394Y018872D01*
X070394Y018505D02*
X070688Y018505D01*
X070855Y018578D02*
X071148Y018872D01*
X071148Y018578D01*
X071075Y018505D01*
X070928Y018505D01*
X070855Y018578D01*
X070855Y018872D01*
X070928Y018945D01*
X071075Y018945D01*
X071148Y018872D01*
X071315Y018799D02*
X071315Y018578D01*
X071389Y018505D01*
X071609Y018505D01*
X071609Y018799D01*
X071776Y018725D02*
X071922Y018725D01*
X071776Y018505D02*
X071776Y018945D01*
X072069Y018945D01*
X069580Y019350D02*
X069582Y019423D01*
X069588Y019496D01*
X069598Y019568D01*
X069612Y019640D01*
X069629Y019711D01*
X069651Y019781D01*
X069676Y019850D01*
X069705Y019917D01*
X069737Y019982D01*
X069773Y020046D01*
X069813Y020108D01*
X069855Y020167D01*
X069901Y020224D01*
X069950Y020278D01*
X070002Y020330D01*
X070056Y020379D01*
X070113Y020425D01*
X070172Y020467D01*
X070234Y020507D01*
X070298Y020543D01*
X070363Y020575D01*
X070430Y020604D01*
X070499Y020629D01*
X070569Y020651D01*
X070640Y020668D01*
X070712Y020682D01*
X070784Y020692D01*
X070857Y020698D01*
X070930Y020700D01*
X071003Y020698D01*
X071076Y020692D01*
X071148Y020682D01*
X071220Y020668D01*
X071291Y020651D01*
X071361Y020629D01*
X071430Y020604D01*
X071497Y020575D01*
X071562Y020543D01*
X071626Y020507D01*
X071688Y020467D01*
X071747Y020425D01*
X071804Y020379D01*
X071858Y020330D01*
X071910Y020278D01*
X071959Y020224D01*
X072005Y020167D01*
X072047Y020108D01*
X072087Y020046D01*
X072123Y019982D01*
X072155Y019917D01*
X072184Y019850D01*
X072209Y019781D01*
X072231Y019711D01*
X072248Y019640D01*
X072262Y019568D01*
X072272Y019496D01*
X072278Y019423D01*
X072280Y019350D01*
X072278Y019277D01*
X072272Y019204D01*
X072262Y019132D01*
X072248Y019060D01*
X072231Y018989D01*
X072209Y018919D01*
X072184Y018850D01*
X072155Y018783D01*
X072123Y018718D01*
X072087Y018654D01*
X072047Y018592D01*
X072005Y018533D01*
X071959Y018476D01*
X071910Y018422D01*
X071858Y018370D01*
X071804Y018321D01*
X071747Y018275D01*
X071688Y018233D01*
X071626Y018193D01*
X071562Y018157D01*
X071497Y018125D01*
X071430Y018096D01*
X071361Y018071D01*
X071291Y018049D01*
X071220Y018032D01*
X071148Y018018D01*
X071076Y018008D01*
X071003Y018002D01*
X070930Y018000D01*
X070857Y018002D01*
X070784Y018008D01*
X070712Y018018D01*
X070640Y018032D01*
X070569Y018049D01*
X070499Y018071D01*
X070430Y018096D01*
X070363Y018125D01*
X070298Y018157D01*
X070234Y018193D01*
X070172Y018233D01*
X070113Y018275D01*
X070056Y018321D01*
X070002Y018370D01*
X069950Y018422D01*
X069901Y018476D01*
X069855Y018533D01*
X069813Y018592D01*
X069773Y018654D01*
X069737Y018718D01*
X069705Y018783D01*
X069676Y018850D01*
X069651Y018919D01*
X069629Y018989D01*
X069612Y019060D01*
X069598Y019132D01*
X069588Y019204D01*
X069582Y019277D01*
X069580Y019350D01*
X070343Y017820D02*
X070269Y017747D01*
X070269Y017453D01*
X070343Y017380D01*
X070490Y017380D01*
X070563Y017453D01*
X070730Y017453D02*
X070803Y017380D01*
X070950Y017380D01*
X071023Y017453D01*
X071023Y017527D01*
X070950Y017600D01*
X070877Y017600D01*
X070950Y017600D02*
X071023Y017674D01*
X071023Y017747D01*
X070950Y017820D01*
X070803Y017820D01*
X070730Y017747D01*
X070563Y017747D02*
X070490Y017820D01*
X070343Y017820D01*
X071190Y017747D02*
X071190Y017674D01*
X071264Y017600D01*
X071484Y017600D01*
X071484Y017453D02*
X071484Y017747D01*
X071410Y017820D01*
X071264Y017820D01*
X071190Y017747D01*
X071190Y017453D02*
X071264Y017380D01*
X071410Y017380D01*
X071484Y017453D01*
X072559Y019630D02*
X072853Y019924D01*
X072853Y019997D01*
X072779Y020070D01*
X072632Y020070D01*
X072559Y019997D01*
X072505Y020325D02*
X072505Y020625D01*
X072355Y020475D02*
X072655Y020475D01*
X073093Y020070D02*
X073019Y019997D01*
X073093Y020070D02*
X073240Y020070D01*
X073313Y019997D01*
X073313Y019924D01*
X073019Y019630D01*
X073313Y019630D01*
X073480Y019703D02*
X073773Y019997D01*
X073773Y019703D01*
X073700Y019630D01*
X073553Y019630D01*
X073480Y019703D01*
X073480Y019997D01*
X073553Y020070D01*
X073700Y020070D01*
X073773Y019997D01*
X073940Y019924D02*
X073940Y019703D01*
X074014Y019630D01*
X074234Y019630D01*
X074234Y019924D01*
X074401Y019850D02*
X074547Y019850D01*
X074401Y019630D02*
X074401Y020070D01*
X074694Y020070D01*
X075085Y020035D02*
X075085Y019888D01*
X075158Y019814D01*
X075452Y019814D01*
X075525Y019888D01*
X075525Y020035D01*
X075452Y020108D01*
X075452Y020275D02*
X075525Y020348D01*
X075525Y020495D01*
X075452Y020568D01*
X075378Y020568D01*
X075305Y020495D01*
X075305Y020422D01*
X075305Y020495D02*
X075231Y020568D01*
X075158Y020568D01*
X075085Y020495D01*
X075085Y020348D01*
X075158Y020275D01*
X075158Y020108D02*
X075085Y020035D01*
X075158Y020735D02*
X075231Y020735D01*
X075305Y020809D01*
X075305Y020955D01*
X075378Y021029D01*
X075452Y021029D01*
X075525Y020955D01*
X075525Y020809D01*
X075452Y020735D01*
X075378Y020735D01*
X075305Y020809D01*
X075305Y020955D02*
X075231Y021029D01*
X075158Y021029D01*
X075085Y020955D01*
X075085Y020809D01*
X075158Y020735D01*
X072205Y020475D02*
X072207Y020548D01*
X072213Y020621D01*
X072223Y020693D01*
X072237Y020765D01*
X072254Y020836D01*
X072276Y020906D01*
X072301Y020975D01*
X072330Y021042D01*
X072362Y021107D01*
X072398Y021171D01*
X072438Y021233D01*
X072480Y021292D01*
X072526Y021349D01*
X072575Y021403D01*
X072627Y021455D01*
X072681Y021504D01*
X072738Y021550D01*
X072797Y021592D01*
X072859Y021632D01*
X072923Y021668D01*
X072988Y021700D01*
X073055Y021729D01*
X073124Y021754D01*
X073194Y021776D01*
X073265Y021793D01*
X073337Y021807D01*
X073409Y021817D01*
X073482Y021823D01*
X073555Y021825D01*
X073628Y021823D01*
X073701Y021817D01*
X073773Y021807D01*
X073845Y021793D01*
X073916Y021776D01*
X073986Y021754D01*
X074055Y021729D01*
X074122Y021700D01*
X074187Y021668D01*
X074251Y021632D01*
X074313Y021592D01*
X074372Y021550D01*
X074429Y021504D01*
X074483Y021455D01*
X074535Y021403D01*
X074584Y021349D01*
X074630Y021292D01*
X074672Y021233D01*
X074712Y021171D01*
X074748Y021107D01*
X074780Y021042D01*
X074809Y020975D01*
X074834Y020906D01*
X074856Y020836D01*
X074873Y020765D01*
X074887Y020693D01*
X074897Y020621D01*
X074903Y020548D01*
X074905Y020475D01*
X074903Y020402D01*
X074897Y020329D01*
X074887Y020257D01*
X074873Y020185D01*
X074856Y020114D01*
X074834Y020044D01*
X074809Y019975D01*
X074780Y019908D01*
X074748Y019843D01*
X074712Y019779D01*
X074672Y019717D01*
X074630Y019658D01*
X074584Y019601D01*
X074535Y019547D01*
X074483Y019495D01*
X074429Y019446D01*
X074372Y019400D01*
X074313Y019358D01*
X074251Y019318D01*
X074187Y019282D01*
X074122Y019250D01*
X074055Y019221D01*
X073986Y019196D01*
X073916Y019174D01*
X073845Y019157D01*
X073773Y019143D01*
X073701Y019133D01*
X073628Y019127D01*
X073555Y019125D01*
X073482Y019127D01*
X073409Y019133D01*
X073337Y019143D01*
X073265Y019157D01*
X073194Y019174D01*
X073124Y019196D01*
X073055Y019221D01*
X072988Y019250D01*
X072923Y019282D01*
X072859Y019318D01*
X072797Y019358D01*
X072738Y019400D01*
X072681Y019446D01*
X072627Y019495D01*
X072575Y019547D01*
X072526Y019601D01*
X072480Y019658D01*
X072438Y019717D01*
X072398Y019779D01*
X072362Y019843D01*
X072330Y019908D01*
X072301Y019975D01*
X072276Y020044D01*
X072254Y020114D01*
X072237Y020185D01*
X072223Y020257D01*
X072213Y020329D01*
X072207Y020402D01*
X072205Y020475D01*
X072559Y019630D02*
X072853Y019630D01*
X065275Y021630D02*
X064835Y021630D01*
X064835Y021850D01*
X064908Y021924D01*
X065055Y021924D01*
X065128Y021850D01*
X065128Y021630D01*
X065128Y021777D02*
X065275Y021924D01*
X065275Y022090D02*
X065275Y022384D01*
X065275Y022237D02*
X064835Y022237D01*
X064981Y022090D01*
X065055Y022551D02*
X064981Y022698D01*
X064981Y022771D01*
X065055Y022844D01*
X065202Y022844D01*
X065275Y022771D01*
X065275Y022624D01*
X065202Y022551D01*
X065055Y022551D02*
X064835Y022551D01*
X064835Y022844D01*
X056680Y022750D02*
X056680Y023450D01*
X056678Y023467D01*
X056674Y023484D01*
X056667Y023500D01*
X056657Y023514D01*
X056644Y023527D01*
X056630Y023537D01*
X056614Y023544D01*
X056597Y023548D01*
X056580Y023550D01*
X056430Y023550D01*
X056380Y023500D01*
X054480Y023500D01*
X054430Y023550D01*
X054280Y023550D01*
X054263Y023548D01*
X054246Y023544D01*
X054230Y023537D01*
X054216Y023527D01*
X054203Y023514D01*
X054193Y023500D01*
X054186Y023484D01*
X054182Y023467D01*
X054180Y023450D01*
X054180Y022750D01*
X054182Y022733D01*
X054186Y022716D01*
X054193Y022700D01*
X054203Y022686D01*
X054216Y022673D01*
X054230Y022663D01*
X054246Y022656D01*
X054263Y022652D01*
X054280Y022650D01*
X054430Y022650D01*
X054480Y022700D01*
X056380Y022700D01*
X056430Y022650D01*
X056580Y022650D01*
X056597Y022652D01*
X056614Y022656D01*
X056630Y022663D01*
X056644Y022673D01*
X056657Y022686D01*
X056667Y022700D01*
X056674Y022716D01*
X056678Y022733D01*
X056680Y022750D01*
X056580Y022550D02*
X056430Y022550D01*
X056380Y022500D01*
X054480Y022500D01*
X054430Y022550D01*
X054280Y022550D01*
X054263Y022548D01*
X054246Y022544D01*
X054230Y022537D01*
X054216Y022527D01*
X054203Y022514D01*
X054193Y022500D01*
X054186Y022484D01*
X054182Y022467D01*
X054180Y022450D01*
X054180Y021750D01*
X054182Y021733D01*
X054186Y021716D01*
X054193Y021700D01*
X054203Y021686D01*
X054216Y021673D01*
X054230Y021663D01*
X054246Y021656D01*
X054263Y021652D01*
X054280Y021650D01*
X054430Y021650D01*
X054480Y021700D01*
X056380Y021700D01*
X056430Y021650D01*
X056580Y021650D01*
X056597Y021652D01*
X056614Y021656D01*
X056630Y021663D01*
X056644Y021673D01*
X056657Y021686D01*
X056667Y021700D01*
X056674Y021716D01*
X056678Y021733D01*
X056680Y021750D01*
X056680Y022450D01*
X056678Y022467D01*
X056674Y022484D01*
X056667Y022500D01*
X056657Y022514D01*
X056644Y022527D01*
X056630Y022537D01*
X056614Y022544D01*
X056597Y022548D01*
X056580Y022550D01*
X056074Y022174D02*
X055854Y022027D01*
X056074Y021880D01*
X055854Y021880D02*
X055854Y022320D01*
X055687Y022247D02*
X055613Y022320D01*
X055467Y022320D01*
X055393Y022247D01*
X055687Y022247D02*
X055687Y022174D01*
X055393Y021880D01*
X055687Y021880D01*
X055236Y021880D02*
X055163Y021880D01*
X055163Y021953D01*
X055236Y021953D01*
X055236Y021880D01*
X054996Y021880D02*
X054703Y021880D01*
X054996Y022174D01*
X054996Y022247D01*
X054923Y022320D01*
X054776Y022320D01*
X054703Y022247D01*
X055293Y022880D02*
X055220Y022953D01*
X055513Y023247D01*
X055513Y022953D01*
X055440Y022880D01*
X055293Y022880D01*
X055220Y022953D02*
X055220Y023247D01*
X055293Y023320D01*
X055440Y023320D01*
X055513Y023247D01*
X056380Y023700D02*
X054480Y023700D01*
X054430Y023650D01*
X054280Y023650D01*
X054263Y023652D01*
X054246Y023656D01*
X054230Y023663D01*
X054216Y023673D01*
X054203Y023686D01*
X054193Y023700D01*
X054186Y023716D01*
X054182Y023733D01*
X054180Y023750D01*
X054180Y024450D01*
X054182Y024467D01*
X054186Y024484D01*
X054193Y024500D01*
X054203Y024514D01*
X054216Y024527D01*
X054230Y024537D01*
X054246Y024544D01*
X054263Y024548D01*
X054280Y024550D01*
X054430Y024550D01*
X054480Y024500D01*
X056380Y024500D01*
X056430Y024550D01*
X056580Y024550D01*
X056597Y024548D01*
X056614Y024544D01*
X056630Y024537D01*
X056644Y024527D01*
X056657Y024514D01*
X056667Y024500D01*
X056674Y024484D01*
X056678Y024467D01*
X056680Y024450D01*
X056680Y023750D01*
X056678Y023733D01*
X056674Y023716D01*
X056667Y023700D01*
X056657Y023686D01*
X056644Y023673D01*
X056630Y023663D01*
X056614Y023656D01*
X056597Y023652D01*
X056580Y023650D01*
X056430Y023650D01*
X056380Y023700D01*
X056074Y023880D02*
X055854Y024027D01*
X056074Y024174D01*
X055854Y024320D02*
X055854Y023880D01*
X055687Y023880D02*
X055393Y023880D01*
X055687Y024174D01*
X055687Y024247D01*
X055613Y024320D01*
X055467Y024320D01*
X055393Y024247D01*
X055236Y023953D02*
X055236Y023880D01*
X055163Y023880D01*
X055163Y023953D01*
X055236Y023953D01*
X054996Y023880D02*
X054703Y023880D01*
X054996Y024174D01*
X054996Y024247D01*
X054923Y024320D01*
X054776Y024320D01*
X054703Y024247D01*
X054430Y024650D02*
X054480Y024700D01*
X056380Y024700D01*
X056430Y024650D01*
X056580Y024650D01*
X056597Y024652D01*
X056614Y024656D01*
X056630Y024663D01*
X056644Y024673D01*
X056657Y024686D01*
X056667Y024700D01*
X056674Y024716D01*
X056678Y024733D01*
X056680Y024750D01*
X056680Y025450D01*
X056678Y025467D01*
X056674Y025484D01*
X056667Y025500D01*
X056657Y025514D01*
X056644Y025527D01*
X056630Y025537D01*
X056614Y025544D01*
X056597Y025548D01*
X056580Y025550D01*
X056430Y025550D01*
X056380Y025500D01*
X054480Y025500D01*
X054430Y025550D01*
X054280Y025550D01*
X054280Y025650D02*
X054430Y025650D01*
X054480Y025700D01*
X056380Y025700D01*
X056430Y025650D01*
X056580Y025650D01*
X056597Y025652D01*
X056614Y025656D01*
X056630Y025663D01*
X056644Y025673D01*
X056657Y025686D01*
X056667Y025700D01*
X056674Y025716D01*
X056678Y025733D01*
X056680Y025750D01*
X056680Y026450D01*
X056678Y026467D01*
X056674Y026484D01*
X056667Y026500D01*
X056657Y026514D01*
X056644Y026527D01*
X056630Y026537D01*
X056614Y026544D01*
X056597Y026548D01*
X056580Y026550D01*
X056430Y026550D01*
X056380Y026500D01*
X054480Y026500D01*
X054430Y026550D01*
X054280Y026550D01*
X054263Y026548D01*
X054246Y026544D01*
X054230Y026537D01*
X054216Y026527D01*
X054203Y026514D01*
X054193Y026500D01*
X054186Y026484D01*
X054182Y026467D01*
X054180Y026450D01*
X054180Y025750D01*
X054182Y025733D01*
X054186Y025716D01*
X054193Y025700D01*
X054203Y025686D01*
X054216Y025673D01*
X054230Y025663D01*
X054246Y025656D01*
X054263Y025652D01*
X054280Y025650D01*
X054280Y025550D02*
X054263Y025548D01*
X054246Y025544D01*
X054230Y025537D01*
X054216Y025527D01*
X054203Y025514D01*
X054193Y025500D01*
X054186Y025484D01*
X054182Y025467D01*
X054180Y025450D01*
X054180Y024750D01*
X054182Y024733D01*
X054186Y024716D01*
X054193Y024700D01*
X054203Y024686D01*
X054216Y024673D01*
X054230Y024663D01*
X054246Y024656D01*
X054263Y024652D01*
X054280Y024650D01*
X054430Y024650D01*
X054703Y024880D02*
X054996Y025174D01*
X054996Y025247D01*
X054923Y025320D01*
X054776Y025320D01*
X054703Y025247D01*
X054703Y024880D02*
X054996Y024880D01*
X055163Y024880D02*
X055236Y024880D01*
X055236Y024953D01*
X055163Y024953D01*
X055163Y024880D01*
X055393Y024880D02*
X055687Y025174D01*
X055687Y025247D01*
X055613Y025320D01*
X055467Y025320D01*
X055393Y025247D01*
X055393Y024880D02*
X055687Y024880D01*
X055854Y024880D02*
X055854Y025320D01*
X056074Y025174D02*
X055854Y025027D01*
X056074Y024880D01*
X055460Y025880D02*
X055313Y025880D01*
X055240Y025953D01*
X055533Y026247D01*
X055533Y025953D01*
X055460Y025880D01*
X055240Y025953D02*
X055240Y026247D01*
X055313Y026320D01*
X055460Y026320D01*
X055533Y026247D01*
X055774Y026880D02*
X055700Y026953D01*
X055994Y027247D01*
X055994Y026953D01*
X055920Y026880D01*
X055774Y026880D01*
X055700Y026953D02*
X055700Y027247D01*
X055774Y027320D01*
X055920Y027320D01*
X055994Y027247D01*
X055533Y027247D02*
X055240Y026953D01*
X055240Y026880D01*
X055000Y026880D02*
X055000Y027320D01*
X054779Y027100D01*
X055073Y027100D01*
X055240Y027320D02*
X055533Y027320D01*
X055533Y027247D01*
X046254Y024100D02*
X045960Y024100D01*
X046180Y024320D01*
X046180Y023880D01*
X045720Y023953D02*
X045720Y024320D01*
X045793Y024320D02*
X045646Y024320D01*
X045720Y023953D02*
X045646Y023880D01*
X045573Y023880D01*
X045500Y023953D01*
X054769Y021445D02*
X054769Y021005D01*
X054769Y021152D02*
X054990Y021152D01*
X055063Y021225D01*
X055063Y021372D01*
X054990Y021445D01*
X054769Y021445D01*
X054916Y021152D02*
X055063Y021005D01*
X055230Y021005D02*
X055523Y021005D01*
X055377Y021005D02*
X055377Y021445D01*
X055230Y021299D01*
X055690Y021225D02*
X055984Y021225D01*
X055910Y021005D02*
X055910Y021445D01*
X055690Y021225D01*
X052430Y015195D02*
X052210Y014975D01*
X052504Y014975D01*
X052430Y014755D02*
X052430Y015195D01*
X052043Y015122D02*
X052043Y014975D01*
X051970Y014902D01*
X051750Y014902D01*
X051896Y014902D02*
X052043Y014755D01*
X051750Y014755D02*
X051750Y015195D01*
X051970Y015195D01*
X052043Y015122D01*
X052553Y014320D02*
X052700Y014320D01*
X052773Y014247D01*
X052480Y013953D01*
X052553Y013880D01*
X052700Y013880D01*
X052773Y013953D01*
X052773Y014247D01*
X052553Y014320D02*
X052480Y014247D01*
X052480Y013953D01*
X053130Y013700D02*
X051230Y013700D01*
X051180Y013650D01*
X051030Y013650D01*
X051013Y013652D01*
X050996Y013656D01*
X050980Y013663D01*
X050966Y013673D01*
X050953Y013686D01*
X050943Y013700D01*
X050936Y013716D01*
X050932Y013733D01*
X050930Y013750D01*
X050930Y014450D01*
X050932Y014467D01*
X050936Y014484D01*
X050943Y014500D01*
X050953Y014514D01*
X050966Y014527D01*
X050980Y014537D01*
X050996Y014544D01*
X051013Y014548D01*
X051030Y014550D01*
X051180Y014550D01*
X051230Y014500D01*
X053130Y014500D01*
X053180Y014550D01*
X053330Y014550D01*
X053347Y014548D01*
X053364Y014544D01*
X053380Y014537D01*
X053394Y014527D01*
X053407Y014514D01*
X053417Y014500D01*
X053424Y014484D01*
X053428Y014467D01*
X053430Y014450D01*
X053430Y013750D01*
X053428Y013733D01*
X053424Y013716D01*
X053417Y013700D01*
X053407Y013686D01*
X053394Y013673D01*
X053380Y013663D01*
X053364Y013656D01*
X053347Y013652D01*
X053330Y013650D01*
X053180Y013650D01*
X053130Y013700D01*
X051680Y012750D02*
X051680Y012000D01*
X051719Y011998D01*
X051758Y011992D01*
X051796Y011983D01*
X051833Y011970D01*
X051869Y011953D01*
X051902Y011933D01*
X051934Y011909D01*
X051963Y011883D01*
X051989Y011854D01*
X052013Y011822D01*
X052033Y011789D01*
X052050Y011753D01*
X052063Y011716D01*
X052072Y011678D01*
X052078Y011639D01*
X052080Y011600D01*
X052078Y011561D01*
X052072Y011522D01*
X052063Y011484D01*
X052050Y011447D01*
X052033Y011411D01*
X052013Y011378D01*
X051989Y011346D01*
X051963Y011317D01*
X051934Y011291D01*
X051902Y011267D01*
X051869Y011247D01*
X051833Y011230D01*
X051796Y011217D01*
X051758Y011208D01*
X051719Y011202D01*
X051680Y011200D01*
X051680Y010450D01*
X058680Y010450D01*
X058680Y012750D01*
X051680Y012750D01*
X051130Y012250D02*
X051130Y010950D01*
X051128Y010924D01*
X051123Y010898D01*
X051115Y010873D01*
X051103Y010850D01*
X051089Y010828D01*
X051071Y010809D01*
X051052Y010791D01*
X051030Y010777D01*
X051007Y010765D01*
X050982Y010757D01*
X050956Y010752D01*
X050930Y010750D01*
X050430Y010750D01*
X050404Y010752D01*
X050378Y010757D01*
X050353Y010765D01*
X050330Y010777D01*
X050308Y010791D01*
X050289Y010809D01*
X050271Y010828D01*
X050257Y010850D01*
X050245Y010873D01*
X050237Y010898D01*
X050232Y010924D01*
X050230Y010950D01*
X050230Y012250D01*
X050232Y012276D01*
X050237Y012302D01*
X050245Y012327D01*
X050257Y012350D01*
X050271Y012372D01*
X050289Y012391D01*
X050308Y012409D01*
X050330Y012423D01*
X050353Y012435D01*
X050378Y012443D01*
X050404Y012448D01*
X050430Y012450D01*
X050930Y012450D01*
X050956Y012448D01*
X050982Y012443D01*
X051007Y012435D01*
X051030Y012423D01*
X051052Y012409D01*
X051071Y012391D01*
X051089Y012372D01*
X051103Y012350D01*
X051115Y012327D01*
X051123Y012302D01*
X051128Y012276D01*
X051130Y012250D01*
X049234Y010372D02*
X049160Y010445D01*
X049014Y010445D01*
X048940Y010372D01*
X048773Y010372D02*
X048773Y010225D01*
X048700Y010152D01*
X048480Y010152D01*
X048480Y010005D02*
X048480Y010445D01*
X048700Y010445D01*
X048773Y010372D01*
X048940Y010005D02*
X049234Y010299D01*
X049234Y010372D01*
X049234Y010005D02*
X048940Y010005D01*
X048240Y010078D02*
X048240Y010445D01*
X048313Y010445D02*
X048166Y010445D01*
X048240Y010078D02*
X048166Y010005D01*
X048093Y010005D01*
X048019Y010078D01*
X050019Y009953D02*
X050093Y009880D01*
X050240Y009880D01*
X050313Y009953D01*
X050480Y009880D02*
X050773Y009880D01*
X050627Y009880D02*
X050627Y010320D01*
X050480Y010174D01*
X050313Y010247D02*
X050240Y010320D01*
X050093Y010320D01*
X050019Y010247D01*
X050019Y009953D01*
X050940Y009953D02*
X051014Y009880D01*
X051160Y009880D01*
X051234Y009953D01*
X051234Y010027D01*
X051160Y010100D01*
X051087Y010100D01*
X051160Y010100D02*
X051234Y010174D01*
X051234Y010247D01*
X051160Y010320D01*
X051014Y010320D01*
X050940Y010247D01*
X048680Y008750D02*
X048680Y008000D01*
X048719Y007998D01*
X048758Y007992D01*
X048796Y007983D01*
X048833Y007970D01*
X048869Y007953D01*
X048902Y007933D01*
X048934Y007909D01*
X048963Y007883D01*
X048989Y007854D01*
X049013Y007822D01*
X049033Y007789D01*
X049050Y007753D01*
X049063Y007716D01*
X049072Y007678D01*
X049078Y007639D01*
X049080Y007600D01*
X049078Y007561D01*
X049072Y007522D01*
X049063Y007484D01*
X049050Y007447D01*
X049033Y007411D01*
X049013Y007378D01*
X048989Y007346D01*
X048963Y007317D01*
X048934Y007291D01*
X048902Y007267D01*
X048869Y007247D01*
X048833Y007230D01*
X048796Y007217D01*
X048758Y007208D01*
X048719Y007202D01*
X048680Y007200D01*
X048680Y006450D01*
X058680Y006450D01*
X058680Y008750D01*
X048680Y008750D01*
X048130Y008250D02*
X048130Y006950D01*
X048128Y006924D01*
X048123Y006898D01*
X048115Y006873D01*
X048103Y006850D01*
X048089Y006828D01*
X048071Y006809D01*
X048052Y006791D01*
X048030Y006777D01*
X048007Y006765D01*
X047982Y006757D01*
X047956Y006752D01*
X047930Y006750D01*
X047430Y006750D01*
X047404Y006752D01*
X047378Y006757D01*
X047353Y006765D01*
X047330Y006777D01*
X047308Y006791D01*
X047289Y006809D01*
X047271Y006828D01*
X047257Y006850D01*
X047245Y006873D01*
X047237Y006898D01*
X047232Y006924D01*
X047230Y006950D01*
X047230Y008250D01*
X047232Y008276D01*
X047237Y008302D01*
X047245Y008327D01*
X047257Y008350D01*
X047271Y008372D01*
X047289Y008391D01*
X047308Y008409D01*
X047330Y008423D01*
X047353Y008435D01*
X047378Y008443D01*
X047404Y008448D01*
X047430Y008450D01*
X047930Y008450D01*
X047956Y008448D01*
X047982Y008443D01*
X048007Y008435D01*
X048030Y008423D01*
X048052Y008409D01*
X048071Y008391D01*
X048089Y008372D01*
X048103Y008350D01*
X048115Y008327D01*
X048123Y008302D01*
X048128Y008276D01*
X048130Y008250D01*
X047025Y008080D02*
X047025Y007934D01*
X046952Y007860D01*
X046805Y007860D02*
X046731Y008007D01*
X046731Y008080D01*
X046805Y008154D01*
X046952Y008154D01*
X047025Y008080D01*
X046805Y007860D02*
X046585Y007860D01*
X046585Y008154D01*
X046585Y007547D02*
X047025Y007547D01*
X047025Y007693D02*
X047025Y007400D01*
X046952Y007233D02*
X047025Y007160D01*
X047025Y007013D01*
X046952Y006939D01*
X046658Y006939D01*
X046585Y007013D01*
X046585Y007160D01*
X046658Y007233D01*
X046731Y007400D02*
X046585Y007547D01*
X044680Y008950D02*
X044680Y009250D01*
X044830Y009100D02*
X044530Y009100D01*
X044660Y009880D02*
X044660Y010320D01*
X044440Y010100D01*
X044734Y010100D01*
X044273Y010027D02*
X044273Y009953D01*
X044200Y009880D01*
X044053Y009880D01*
X043980Y009953D01*
X043813Y009953D02*
X043740Y009880D01*
X043593Y009880D01*
X043519Y009953D01*
X043519Y010247D01*
X043593Y010320D01*
X043740Y010320D01*
X043813Y010247D01*
X043980Y010247D02*
X044053Y010320D01*
X044200Y010320D01*
X044273Y010247D01*
X044273Y010174D01*
X044200Y010100D01*
X044273Y010027D01*
X044200Y010100D02*
X044127Y010100D01*
X043180Y008467D02*
X043180Y008321D01*
X043106Y008154D02*
X043400Y008154D01*
X043400Y007934D01*
X043327Y007860D01*
X043106Y007860D01*
X043033Y007693D02*
X043327Y007400D01*
X043400Y007473D01*
X043400Y007620D01*
X043327Y007693D01*
X043033Y007693D01*
X042960Y007620D01*
X042960Y007473D01*
X043033Y007400D01*
X043327Y007400D01*
X043033Y007233D02*
X043327Y006939D01*
X043400Y006939D01*
X043400Y006699D02*
X042960Y006699D01*
X043180Y006479D01*
X043180Y006773D01*
X042960Y006939D02*
X042960Y007233D01*
X043033Y007233D01*
X042180Y007600D02*
X042182Y007698D01*
X042190Y007796D01*
X042202Y007893D01*
X042218Y007990D01*
X042240Y008086D01*
X042266Y008181D01*
X042297Y008274D01*
X042332Y008365D01*
X042372Y008455D01*
X042416Y008543D01*
X042465Y008628D01*
X042517Y008711D01*
X042574Y008791D01*
X042634Y008869D01*
X042698Y008943D01*
X042766Y009014D01*
X042837Y009082D01*
X042911Y009146D01*
X042989Y009206D01*
X043069Y009263D01*
X043152Y009315D01*
X043237Y009364D01*
X043325Y009408D01*
X043415Y009448D01*
X043506Y009483D01*
X043599Y009514D01*
X043694Y009540D01*
X043790Y009562D01*
X043887Y009578D01*
X043984Y009590D01*
X044082Y009598D01*
X044180Y009600D01*
X044278Y009598D01*
X044376Y009590D01*
X044473Y009578D01*
X044570Y009562D01*
X044666Y009540D01*
X044761Y009514D01*
X044854Y009483D01*
X044945Y009448D01*
X045035Y009408D01*
X045123Y009364D01*
X045208Y009315D01*
X045291Y009263D01*
X045371Y009206D01*
X045449Y009146D01*
X045523Y009082D01*
X045594Y009014D01*
X045662Y008943D01*
X045726Y008869D01*
X045786Y008791D01*
X045843Y008711D01*
X045895Y008628D01*
X045944Y008543D01*
X045988Y008455D01*
X046028Y008365D01*
X046063Y008274D01*
X046094Y008181D01*
X046120Y008086D01*
X046142Y007990D01*
X046158Y007893D01*
X046170Y007796D01*
X046178Y007698D01*
X046180Y007600D01*
X046178Y007502D01*
X046170Y007404D01*
X046158Y007307D01*
X046142Y007210D01*
X046120Y007114D01*
X046094Y007019D01*
X046063Y006926D01*
X046028Y006835D01*
X045988Y006745D01*
X045944Y006657D01*
X045895Y006572D01*
X045843Y006489D01*
X045786Y006409D01*
X045726Y006331D01*
X045662Y006257D01*
X045594Y006186D01*
X045523Y006118D01*
X045449Y006054D01*
X045371Y005994D01*
X045291Y005937D01*
X045208Y005885D01*
X045123Y005836D01*
X045035Y005792D01*
X044945Y005752D01*
X044854Y005717D01*
X044761Y005686D01*
X044666Y005660D01*
X044570Y005638D01*
X044473Y005622D01*
X044376Y005610D01*
X044278Y005602D01*
X044180Y005600D01*
X044082Y005602D01*
X043984Y005610D01*
X043887Y005622D01*
X043790Y005638D01*
X043694Y005660D01*
X043599Y005686D01*
X043506Y005717D01*
X043415Y005752D01*
X043325Y005792D01*
X043237Y005836D01*
X043152Y005885D01*
X043069Y005937D01*
X042989Y005994D01*
X042911Y006054D01*
X042837Y006118D01*
X042766Y006186D01*
X042698Y006257D01*
X042634Y006331D01*
X042574Y006409D01*
X042517Y006489D01*
X042465Y006572D01*
X042416Y006657D01*
X042372Y006745D01*
X042332Y006835D01*
X042297Y006926D01*
X042266Y007019D01*
X042240Y007114D01*
X042218Y007210D01*
X042202Y007307D01*
X042190Y007404D01*
X042182Y007502D01*
X042180Y007600D01*
X042960Y008321D02*
X042960Y008614D01*
X042960Y008321D02*
X043400Y008321D01*
X049210Y005620D02*
X049210Y005253D01*
X049283Y005180D01*
X049430Y005180D01*
X049504Y005253D01*
X049504Y005620D01*
X049670Y005474D02*
X049817Y005620D01*
X049817Y005180D01*
X049670Y005180D02*
X049964Y005180D01*
X050131Y005253D02*
X050204Y005180D01*
X050351Y005180D01*
X050424Y005253D01*
X050424Y005400D01*
X050351Y005474D01*
X050278Y005474D01*
X050131Y005400D01*
X050131Y005620D01*
X050424Y005620D01*
X052309Y007380D02*
X052309Y007453D01*
X052603Y007747D01*
X052603Y007820D01*
X052309Y007820D01*
X052769Y007600D02*
X053063Y007600D01*
X053230Y007747D02*
X053303Y007820D01*
X053450Y007820D01*
X053523Y007747D01*
X053523Y007674D01*
X053230Y007380D01*
X053523Y007380D01*
X053690Y007600D02*
X053984Y007600D01*
X054151Y007600D02*
X054444Y007600D01*
X054371Y007380D02*
X054371Y007820D01*
X054151Y007600D01*
X053910Y007380D02*
X053910Y007820D01*
X053690Y007600D01*
X052990Y007380D02*
X052990Y007820D01*
X052769Y007600D01*
X059230Y006950D02*
X059230Y008250D01*
X059232Y008276D01*
X059237Y008302D01*
X059245Y008327D01*
X059257Y008350D01*
X059271Y008372D01*
X059289Y008391D01*
X059308Y008409D01*
X059330Y008423D01*
X059353Y008435D01*
X059378Y008443D01*
X059404Y008448D01*
X059430Y008450D01*
X059930Y008450D01*
X059956Y008448D01*
X059982Y008443D01*
X060007Y008435D01*
X060030Y008423D01*
X060052Y008409D01*
X060071Y008391D01*
X060089Y008372D01*
X060103Y008350D01*
X060115Y008327D01*
X060123Y008302D01*
X060128Y008276D01*
X060130Y008250D01*
X060130Y006950D01*
X060128Y006924D01*
X060123Y006898D01*
X060115Y006873D01*
X060103Y006850D01*
X060089Y006828D01*
X060071Y006809D01*
X060052Y006791D01*
X060030Y006777D01*
X060007Y006765D01*
X059982Y006757D01*
X059956Y006752D01*
X059930Y006750D01*
X059430Y006750D01*
X059404Y006752D01*
X059378Y006757D01*
X059353Y006765D01*
X059330Y006777D01*
X059308Y006791D01*
X059289Y006809D01*
X059271Y006828D01*
X059257Y006850D01*
X059245Y006873D01*
X059237Y006898D01*
X059232Y006924D01*
X059230Y006950D01*
X059460Y006338D02*
X059533Y006191D01*
X059680Y006045D01*
X059680Y006265D01*
X059753Y006338D01*
X059827Y006338D01*
X059900Y006265D01*
X059900Y006118D01*
X059827Y006045D01*
X059680Y006045D01*
X059900Y005878D02*
X059900Y005584D01*
X059900Y005731D02*
X059460Y005731D01*
X059606Y005584D01*
X059533Y005417D02*
X059460Y005344D01*
X059460Y005197D01*
X059533Y005124D01*
X059827Y005124D01*
X059900Y005197D01*
X059900Y005344D01*
X059827Y005417D01*
X061210Y005570D02*
X061210Y005203D01*
X061283Y005130D01*
X061430Y005130D01*
X061504Y005203D01*
X061504Y005570D01*
X061670Y005424D02*
X061817Y005570D01*
X061817Y005130D01*
X061670Y005130D02*
X061964Y005130D01*
X062131Y005203D02*
X062204Y005130D01*
X062351Y005130D01*
X062424Y005203D01*
X062424Y005277D01*
X062351Y005350D01*
X062131Y005350D01*
X062131Y005203D01*
X062131Y005350D02*
X062278Y005497D01*
X062424Y005570D01*
X060680Y006450D02*
X060680Y007200D01*
X060719Y007202D01*
X060758Y007208D01*
X060796Y007217D01*
X060833Y007230D01*
X060869Y007247D01*
X060902Y007267D01*
X060934Y007291D01*
X060963Y007317D01*
X060989Y007346D01*
X061013Y007378D01*
X061033Y007411D01*
X061050Y007447D01*
X061063Y007484D01*
X061072Y007522D01*
X061078Y007561D01*
X061080Y007600D01*
X061078Y007639D01*
X061072Y007678D01*
X061063Y007716D01*
X061050Y007753D01*
X061033Y007789D01*
X061013Y007822D01*
X060989Y007854D01*
X060963Y007883D01*
X060934Y007909D01*
X060902Y007933D01*
X060869Y007953D01*
X060833Y007970D01*
X060796Y007983D01*
X060758Y007992D01*
X060719Y007998D01*
X060680Y008000D01*
X060680Y008750D01*
X070680Y008750D01*
X070680Y006450D01*
X060680Y006450D01*
X064559Y007380D02*
X064559Y007453D01*
X064853Y007747D01*
X064853Y007820D01*
X064559Y007820D01*
X065019Y007600D02*
X065313Y007600D01*
X065480Y007747D02*
X065553Y007820D01*
X065700Y007820D01*
X065773Y007747D01*
X065773Y007674D01*
X065480Y007380D01*
X065773Y007380D01*
X065940Y007600D02*
X066234Y007600D01*
X066401Y007600D02*
X066401Y007820D01*
X066694Y007820D01*
X066621Y007674D02*
X066694Y007600D01*
X066694Y007453D01*
X066621Y007380D01*
X066474Y007380D01*
X066401Y007453D01*
X066401Y007600D02*
X066547Y007674D01*
X066621Y007674D01*
X066160Y007820D02*
X065940Y007600D01*
X066160Y007380D02*
X066160Y007820D01*
X065240Y007820D02*
X065019Y007600D01*
X065240Y007380D02*
X065240Y007820D01*
X060680Y010450D02*
X060680Y011200D01*
X060719Y011202D01*
X060758Y011208D01*
X060796Y011217D01*
X060833Y011230D01*
X060869Y011247D01*
X060902Y011267D01*
X060934Y011291D01*
X060963Y011317D01*
X060989Y011346D01*
X061013Y011378D01*
X061033Y011411D01*
X061050Y011447D01*
X061063Y011484D01*
X061072Y011522D01*
X061078Y011561D01*
X061080Y011600D01*
X061078Y011639D01*
X061072Y011678D01*
X061063Y011716D01*
X061050Y011753D01*
X061033Y011789D01*
X061013Y011822D01*
X060989Y011854D01*
X060963Y011883D01*
X060934Y011909D01*
X060902Y011933D01*
X060869Y011953D01*
X060833Y011970D01*
X060796Y011983D01*
X060758Y011992D01*
X060719Y011998D01*
X060680Y012000D01*
X060680Y012750D01*
X070680Y012750D01*
X070680Y010450D01*
X060680Y010450D01*
X060130Y010950D02*
X060130Y012250D01*
X060128Y012276D01*
X060123Y012302D01*
X060115Y012327D01*
X060103Y012350D01*
X060089Y012372D01*
X060071Y012391D01*
X060052Y012409D01*
X060030Y012423D01*
X060007Y012435D01*
X059982Y012443D01*
X059956Y012448D01*
X059930Y012450D01*
X059430Y012450D01*
X059404Y012448D01*
X059378Y012443D01*
X059353Y012435D01*
X059330Y012423D01*
X059308Y012409D01*
X059289Y012391D01*
X059271Y012372D01*
X059257Y012350D01*
X059245Y012327D01*
X059237Y012302D01*
X059232Y012276D01*
X059230Y012250D01*
X059230Y010950D01*
X059232Y010924D01*
X059237Y010898D01*
X059245Y010873D01*
X059257Y010850D01*
X059271Y010828D01*
X059289Y010809D01*
X059308Y010791D01*
X059330Y010777D01*
X059353Y010765D01*
X059378Y010757D01*
X059404Y010752D01*
X059430Y010750D01*
X059930Y010750D01*
X059956Y010752D01*
X059982Y010757D01*
X060007Y010765D01*
X060030Y010777D01*
X060052Y010791D01*
X060071Y010809D01*
X060089Y010828D01*
X060103Y010850D01*
X060115Y010873D01*
X060123Y010898D01*
X060128Y010924D01*
X060130Y010950D01*
X059827Y012755D02*
X059533Y012755D01*
X059460Y012828D01*
X059460Y012975D01*
X059533Y013049D01*
X059606Y013215D02*
X059460Y013362D01*
X059900Y013362D01*
X059900Y013215D02*
X059900Y013509D01*
X059680Y013676D02*
X059680Y013969D01*
X059900Y013896D02*
X059460Y013896D01*
X059680Y013676D01*
X059827Y013049D02*
X059900Y012975D01*
X059900Y012828D01*
X059827Y012755D01*
X060830Y013750D02*
X060830Y014450D01*
X061530Y014450D01*
X061530Y013750D01*
X060830Y013750D01*
X060880Y013700D02*
X069480Y013700D01*
X069506Y013702D01*
X069532Y013707D01*
X069557Y013715D01*
X069580Y013727D01*
X069602Y013741D01*
X069621Y013759D01*
X069639Y013778D01*
X069653Y013800D01*
X069665Y013823D01*
X069673Y013848D01*
X069678Y013874D01*
X069680Y013900D01*
X069680Y014300D01*
X069678Y014326D01*
X069673Y014352D01*
X069665Y014377D01*
X069653Y014400D01*
X069639Y014422D01*
X069621Y014441D01*
X069602Y014459D01*
X069580Y014473D01*
X069557Y014485D01*
X069532Y014493D01*
X069506Y014498D01*
X069480Y014500D01*
X060880Y014500D01*
X060854Y014498D01*
X060828Y014493D01*
X060803Y014485D01*
X060780Y014473D01*
X060758Y014459D01*
X060739Y014441D01*
X060721Y014422D01*
X060707Y014400D01*
X060695Y014377D01*
X060687Y014352D01*
X060682Y014326D01*
X060680Y014300D01*
X060680Y013900D01*
X060682Y013874D01*
X060687Y013848D01*
X060695Y013823D01*
X060707Y013800D01*
X060721Y013778D01*
X060739Y013759D01*
X060758Y013741D01*
X060780Y013727D01*
X060803Y013715D01*
X060828Y013707D01*
X060854Y013702D01*
X060880Y013700D01*
X061210Y014630D02*
X061210Y015070D01*
X061430Y015070D01*
X061504Y014997D01*
X061504Y014850D01*
X061430Y014777D01*
X061210Y014777D01*
X061357Y014777D02*
X061504Y014630D01*
X061670Y014630D02*
X061670Y015070D01*
X061964Y014630D01*
X061964Y015070D01*
X062131Y014924D02*
X062278Y015070D01*
X062278Y014630D01*
X062424Y014630D02*
X062131Y014630D01*
X064443Y014703D02*
X064516Y014630D01*
X064663Y014630D01*
X064736Y014703D01*
X064736Y014777D01*
X064663Y014850D01*
X064589Y014850D01*
X064663Y014850D02*
X064736Y014924D01*
X064736Y014997D01*
X064663Y015070D01*
X064516Y015070D01*
X064443Y014997D01*
X064903Y014703D02*
X064976Y014703D01*
X064976Y014630D01*
X064903Y014630D01*
X064903Y014703D01*
X065133Y014703D02*
X065207Y014630D01*
X065353Y014630D01*
X065427Y014703D01*
X065427Y014777D01*
X065353Y014850D01*
X065280Y014850D01*
X065353Y014850D02*
X065427Y014924D01*
X065427Y014997D01*
X065353Y015070D01*
X065207Y015070D01*
X065133Y014997D01*
X065594Y015070D02*
X065594Y014630D01*
X065594Y014777D02*
X065814Y014630D01*
X065594Y014777D02*
X065814Y014924D01*
X069960Y014896D02*
X070180Y014676D01*
X070180Y014969D01*
X070400Y014896D02*
X069960Y014896D01*
X069960Y014362D02*
X070400Y014362D01*
X070400Y014215D02*
X070400Y014509D01*
X070106Y014215D02*
X069960Y014362D01*
X069960Y014049D02*
X070327Y014049D01*
X070400Y013975D01*
X070400Y013828D01*
X070327Y013755D01*
X069960Y013755D01*
X071605Y012750D02*
X071605Y012600D01*
X071655Y012550D01*
X071655Y010650D01*
X071605Y010600D01*
X071605Y010450D01*
X071607Y010433D01*
X071611Y010416D01*
X071618Y010400D01*
X071628Y010386D01*
X071641Y010373D01*
X071655Y010363D01*
X071671Y010356D01*
X071688Y010352D01*
X071705Y010350D01*
X072405Y010350D01*
X072422Y010352D01*
X072439Y010356D01*
X072455Y010363D01*
X072469Y010373D01*
X072482Y010386D01*
X072492Y010400D01*
X072499Y010416D01*
X072503Y010433D01*
X072505Y010450D01*
X072505Y010600D01*
X072455Y010650D01*
X072455Y012550D01*
X072505Y012600D01*
X072505Y012750D01*
X072503Y012767D01*
X072499Y012784D01*
X072492Y012800D01*
X072482Y012814D01*
X072469Y012827D01*
X072455Y012837D01*
X072439Y012844D01*
X072422Y012848D01*
X072405Y012850D01*
X071705Y012850D01*
X071688Y012848D01*
X071671Y012844D01*
X071655Y012837D01*
X071641Y012827D01*
X071628Y012814D01*
X071618Y012800D01*
X071611Y012784D01*
X071607Y012767D01*
X071605Y012750D01*
X071908Y011693D02*
X072202Y011400D01*
X072275Y011473D01*
X072275Y011620D01*
X072202Y011693D01*
X071908Y011693D01*
X071835Y011620D01*
X071835Y011473D01*
X071908Y011400D01*
X072202Y011400D01*
X072710Y011390D02*
X072710Y011170D01*
X073150Y011170D01*
X073003Y011170D02*
X073003Y011390D01*
X072930Y011463D01*
X072783Y011463D01*
X072710Y011390D01*
X072710Y011630D02*
X072930Y011630D01*
X072856Y011777D01*
X072856Y011850D01*
X072930Y011924D01*
X073077Y011924D01*
X073150Y011850D01*
X073150Y011703D01*
X073077Y011630D01*
X073150Y011463D02*
X073003Y011316D01*
X072710Y011630D02*
X072710Y011924D01*
X072305Y009195D02*
X072158Y009195D01*
X072085Y009122D01*
X071918Y009122D02*
X071918Y008828D01*
X071845Y008755D01*
X071698Y008755D01*
X071625Y008828D01*
X071625Y009122D01*
X071698Y009195D01*
X071845Y009195D01*
X071918Y009122D01*
X071771Y008902D02*
X071918Y008755D01*
X072085Y008755D02*
X072379Y009049D01*
X072379Y009122D01*
X072305Y009195D01*
X072379Y008755D02*
X072085Y008755D01*
X073335Y008844D02*
X073408Y008698D01*
X073555Y008551D01*
X073555Y008771D01*
X073628Y008844D01*
X073702Y008844D01*
X073775Y008771D01*
X073775Y008624D01*
X073702Y008551D01*
X073555Y008551D01*
X073702Y008384D02*
X073775Y008311D01*
X073775Y008164D01*
X073702Y008090D01*
X073408Y008384D01*
X073702Y008384D01*
X073702Y008090D02*
X073408Y008090D01*
X073335Y008164D01*
X073335Y008311D01*
X073408Y008384D01*
X073775Y007924D02*
X073775Y007630D01*
X073775Y007777D02*
X073335Y007777D01*
X073481Y007630D01*
X073481Y007463D02*
X073408Y007463D01*
X073335Y007390D01*
X073335Y007243D01*
X073408Y007170D01*
X073335Y007003D02*
X073775Y007003D01*
X073335Y006709D01*
X073775Y006709D01*
X073628Y006542D02*
X073335Y006542D01*
X073335Y006249D02*
X073628Y006249D01*
X073775Y006396D01*
X073628Y006542D01*
X073775Y007170D02*
X073481Y007463D01*
X073775Y007463D02*
X073775Y007170D01*
X075585Y008402D02*
X075585Y008549D01*
X075585Y008475D02*
X075952Y008475D01*
X076025Y008402D01*
X076025Y008328D01*
X075952Y008255D01*
X076025Y008715D02*
X076025Y009009D01*
X076025Y008862D02*
X075585Y008862D01*
X075731Y008715D01*
X073160Y005570D02*
X073014Y005570D01*
X072940Y005497D01*
X072773Y005497D02*
X072773Y005350D01*
X072700Y005277D01*
X072480Y005277D01*
X072480Y005130D02*
X072480Y005570D01*
X072700Y005570D01*
X072773Y005497D01*
X072940Y005203D02*
X073014Y005130D01*
X073160Y005130D01*
X073234Y005203D01*
X073234Y005277D01*
X073160Y005350D01*
X073087Y005350D01*
X073160Y005350D02*
X073234Y005424D01*
X073234Y005497D01*
X073160Y005570D01*
X072313Y005570D02*
X072166Y005570D01*
X072240Y005570D02*
X072240Y005203D01*
X072166Y005130D01*
X072093Y005130D01*
X072019Y005203D01*
X066621Y011380D02*
X066621Y011820D01*
X066401Y011600D01*
X066694Y011600D01*
X066234Y011747D02*
X065940Y011453D01*
X065940Y011380D01*
X065773Y011453D02*
X065700Y011380D01*
X065553Y011380D01*
X065480Y011453D01*
X065480Y011600D02*
X065627Y011674D01*
X065700Y011674D01*
X065773Y011600D01*
X065773Y011453D01*
X065480Y011600D02*
X065480Y011820D01*
X065773Y011820D01*
X065940Y011820D02*
X066234Y011820D01*
X066234Y011747D01*
X065313Y011600D02*
X065019Y011600D01*
X065240Y011820D01*
X065240Y011380D01*
X064853Y011747D02*
X064559Y011453D01*
X064559Y011380D01*
X064559Y011820D02*
X064853Y011820D01*
X064853Y011747D01*
X058400Y013828D02*
X058400Y013975D01*
X058327Y014049D01*
X057960Y014049D01*
X058106Y014215D02*
X057960Y014362D01*
X058400Y014362D01*
X058400Y014215D02*
X058400Y014509D01*
X058327Y014676D02*
X058400Y014749D01*
X058400Y014896D01*
X058327Y014969D01*
X058253Y014969D01*
X058180Y014896D01*
X058180Y014823D01*
X058180Y014896D02*
X058106Y014969D01*
X058033Y014969D01*
X057960Y014896D01*
X057960Y014749D01*
X058033Y014676D01*
X058400Y013828D02*
X058327Y013755D01*
X057960Y013755D01*
X055964Y011747D02*
X055891Y011820D01*
X055744Y011820D01*
X055670Y011747D01*
X055504Y011747D02*
X055504Y011674D01*
X055430Y011600D01*
X055504Y011527D01*
X055504Y011453D01*
X055430Y011380D01*
X055283Y011380D01*
X055210Y011453D01*
X055357Y011600D02*
X055430Y011600D01*
X055504Y011747D02*
X055430Y011820D01*
X055283Y011820D01*
X055210Y011747D01*
X055043Y011600D02*
X054750Y011600D01*
X054970Y011820D01*
X054970Y011380D01*
X054583Y011747D02*
X054289Y011453D01*
X054289Y011380D01*
X054289Y011820D02*
X054583Y011820D01*
X054583Y011747D01*
X055670Y011380D02*
X055964Y011674D01*
X055964Y011747D01*
X055964Y011380D02*
X055670Y011380D01*
X049924Y014703D02*
X049924Y014777D01*
X049851Y014850D01*
X049631Y014850D01*
X049631Y014703D01*
X049704Y014630D01*
X049851Y014630D01*
X049924Y014703D01*
X049631Y014850D02*
X049778Y014997D01*
X049924Y015070D01*
X049464Y014997D02*
X049170Y014703D01*
X049244Y014630D01*
X049391Y014630D01*
X049464Y014703D01*
X049464Y014997D01*
X049391Y015070D01*
X049244Y015070D01*
X049170Y014997D01*
X049170Y014703D01*
X049004Y014630D02*
X048710Y014630D01*
X048857Y014630D02*
X048857Y015070D01*
X048710Y014924D01*
X048543Y014924D02*
X048543Y014997D01*
X048470Y015070D01*
X048323Y015070D01*
X048250Y014997D01*
X048083Y015070D02*
X048083Y014630D01*
X047789Y015070D01*
X047789Y014630D01*
X047622Y014777D02*
X047476Y014630D01*
X047329Y014777D01*
X047329Y015070D01*
X047622Y015070D02*
X047622Y014777D01*
X048250Y014630D02*
X048543Y014924D01*
X048543Y014630D02*
X048250Y014630D01*
X047400Y013674D02*
X047400Y013380D01*
X047400Y013527D02*
X046960Y013527D01*
X047106Y013380D01*
X047033Y013213D02*
X047327Y013213D01*
X047400Y013140D01*
X047400Y012993D01*
X047327Y012920D01*
X047033Y012920D01*
X046960Y012993D01*
X046960Y013140D01*
X047033Y013213D01*
X047253Y013066D02*
X047400Y013213D01*
X040234Y016897D02*
X039940Y016603D01*
X039940Y016530D01*
X039773Y016530D02*
X039480Y016530D01*
X039627Y016530D02*
X039627Y016970D01*
X039480Y016824D01*
X039313Y016970D02*
X039313Y016603D01*
X039240Y016530D01*
X039093Y016530D01*
X039019Y016603D01*
X039019Y016970D01*
X039940Y016970D02*
X040234Y016970D01*
X040234Y016897D01*
X035450Y016923D02*
X035450Y017217D01*
X035450Y017070D02*
X035010Y017070D01*
X035156Y016923D01*
X035156Y016757D02*
X035083Y016757D01*
X035010Y016683D01*
X035010Y016536D01*
X035083Y016463D01*
X035156Y016757D02*
X035450Y016463D01*
X035450Y016757D01*
X035450Y017384D02*
X035450Y017457D01*
X035377Y017457D01*
X035377Y017384D01*
X035450Y017384D01*
X034100Y016174D02*
X034100Y015880D01*
X033806Y016174D01*
X033733Y016174D01*
X033660Y016100D01*
X033660Y015953D01*
X033733Y015880D01*
X033733Y015713D02*
X033660Y015713D01*
X033733Y015713D02*
X033880Y015566D01*
X034100Y015566D01*
X033880Y015566D02*
X033733Y015420D01*
X033660Y015420D01*
X032547Y015755D02*
X032106Y015755D01*
X032106Y015975D01*
X032180Y016049D01*
X032327Y016049D01*
X032400Y015975D01*
X032400Y015755D01*
X032400Y015588D02*
X032400Y015295D01*
X032106Y015588D01*
X032033Y015588D01*
X031960Y015515D01*
X031960Y015368D01*
X032033Y015295D01*
X032033Y015128D02*
X031960Y015054D01*
X031960Y014908D01*
X032033Y014834D01*
X032033Y015128D02*
X032106Y015128D01*
X032400Y014834D01*
X032400Y015128D01*
X032400Y016215D02*
X031960Y016215D01*
X031960Y016509D01*
X032180Y016362D02*
X032180Y016215D01*
X026580Y020150D02*
X025280Y020150D01*
X025254Y020152D01*
X025228Y020157D01*
X025203Y020165D01*
X025180Y020177D01*
X025158Y020191D01*
X025139Y020209D01*
X025121Y020228D01*
X025107Y020250D01*
X025095Y020273D01*
X025087Y020298D01*
X025082Y020324D01*
X025080Y020350D01*
X025080Y020850D01*
X025082Y020876D01*
X025087Y020902D01*
X025095Y020927D01*
X025107Y020950D01*
X025121Y020972D01*
X025139Y020991D01*
X025158Y021009D01*
X025180Y021023D01*
X025203Y021035D01*
X025228Y021043D01*
X025254Y021048D01*
X025280Y021050D01*
X026580Y021050D01*
X026606Y021048D01*
X026632Y021043D01*
X026657Y021035D01*
X026680Y021023D01*
X026702Y021009D01*
X026721Y020991D01*
X026739Y020972D01*
X026753Y020950D01*
X026765Y020927D01*
X026773Y020902D01*
X026778Y020876D01*
X026780Y020850D01*
X026780Y020350D01*
X026778Y020324D01*
X026773Y020298D01*
X026765Y020273D01*
X026753Y020250D01*
X026739Y020228D01*
X026721Y020209D01*
X026702Y020191D01*
X026680Y020177D01*
X026657Y020165D01*
X026632Y020157D01*
X026606Y020152D01*
X026580Y020150D01*
X026484Y021255D02*
X026190Y021255D01*
X026484Y021549D01*
X026484Y021622D01*
X026410Y021695D01*
X026264Y021695D01*
X026190Y021622D01*
X026023Y021622D02*
X025950Y021695D01*
X025803Y021695D01*
X025730Y021622D01*
X025563Y021622D02*
X025490Y021695D01*
X025343Y021695D01*
X025269Y021622D01*
X025269Y021328D01*
X025343Y021255D01*
X025490Y021255D01*
X025563Y021328D01*
X025730Y021255D02*
X026023Y021549D01*
X026023Y021622D01*
X026023Y021255D02*
X025730Y021255D01*
X023680Y020950D02*
X023680Y020250D01*
X023678Y020233D01*
X023674Y020216D01*
X023667Y020200D01*
X023657Y020186D01*
X023644Y020173D01*
X023630Y020163D01*
X023614Y020156D01*
X023597Y020152D01*
X023580Y020150D01*
X023430Y020150D01*
X023380Y020200D01*
X021480Y020200D01*
X021430Y020150D01*
X021280Y020150D01*
X021263Y020152D01*
X021246Y020156D01*
X021230Y020163D01*
X021216Y020173D01*
X021203Y020186D01*
X021193Y020200D01*
X021186Y020216D01*
X021182Y020233D01*
X021180Y020250D01*
X021180Y020950D01*
X021182Y020967D01*
X021186Y020984D01*
X021193Y021000D01*
X021203Y021014D01*
X021216Y021027D01*
X021230Y021037D01*
X021246Y021044D01*
X021263Y021048D01*
X021280Y021050D01*
X021430Y021050D01*
X021480Y021000D01*
X023380Y021000D01*
X023430Y021050D01*
X023580Y021050D01*
X023597Y021048D01*
X023614Y021044D01*
X023630Y021037D01*
X023644Y021027D01*
X023657Y021014D01*
X023667Y021000D01*
X023674Y020984D01*
X023678Y020967D01*
X023680Y020950D01*
X023064Y020674D02*
X022844Y020527D01*
X023064Y020380D01*
X022844Y020380D02*
X022844Y020820D01*
X022677Y020747D02*
X022677Y020674D01*
X022603Y020600D01*
X022677Y020527D01*
X022677Y020453D01*
X022603Y020380D01*
X022457Y020380D01*
X022383Y020453D01*
X022226Y020453D02*
X022226Y020380D01*
X022153Y020380D01*
X022153Y020453D01*
X022226Y020453D01*
X021986Y020453D02*
X021913Y020380D01*
X021766Y020380D01*
X021693Y020453D01*
X021839Y020600D02*
X021913Y020600D01*
X021986Y020527D01*
X021986Y020453D01*
X021913Y020600D02*
X021986Y020674D01*
X021986Y020747D01*
X021913Y020820D01*
X021766Y020820D01*
X021693Y020747D01*
X022383Y020747D02*
X022457Y020820D01*
X022603Y020820D01*
X022677Y020747D01*
X022603Y020600D02*
X022530Y020600D01*
X022460Y021255D02*
X022754Y021255D01*
X022607Y021255D02*
X022607Y021695D01*
X022460Y021549D01*
X022293Y021622D02*
X022293Y021475D01*
X022220Y021402D01*
X022000Y021402D01*
X022146Y021402D02*
X022293Y021255D01*
X022000Y021255D02*
X022000Y021695D01*
X022220Y021695D01*
X022293Y021622D01*
X021680Y026755D02*
X021533Y026755D01*
X021460Y026828D01*
X021460Y026975D02*
X021607Y027049D01*
X021680Y027049D01*
X021754Y026975D01*
X021754Y026828D01*
X021680Y026755D01*
X021460Y026975D02*
X021460Y027195D01*
X021754Y027195D01*
X022080Y027400D02*
X020780Y027400D01*
X020754Y027402D01*
X020728Y027407D01*
X020703Y027415D01*
X020680Y027427D01*
X020658Y027441D01*
X020639Y027459D01*
X020621Y027478D01*
X020607Y027500D01*
X020595Y027523D01*
X020587Y027548D01*
X020582Y027574D01*
X020580Y027600D01*
X020580Y028100D01*
X020582Y028126D01*
X020587Y028152D01*
X020595Y028177D01*
X020607Y028200D01*
X020621Y028222D01*
X020639Y028241D01*
X020658Y028259D01*
X020680Y028273D01*
X020703Y028285D01*
X020728Y028293D01*
X020754Y028298D01*
X020780Y028300D01*
X022080Y028300D01*
X022106Y028298D01*
X022132Y028293D01*
X022157Y028285D01*
X022180Y028273D01*
X022202Y028259D01*
X022221Y028241D01*
X022239Y028222D01*
X022253Y028200D01*
X022265Y028177D01*
X022273Y028152D01*
X022278Y028126D01*
X022280Y028100D01*
X022280Y027600D01*
X022278Y027574D01*
X022273Y027548D01*
X022265Y027523D01*
X022253Y027500D01*
X022239Y027478D01*
X022221Y027459D01*
X022202Y027441D01*
X022180Y027427D01*
X022157Y027415D01*
X022132Y027407D01*
X022106Y027402D01*
X022080Y027400D01*
X021293Y027122D02*
X021220Y027195D01*
X021073Y027195D01*
X021000Y027122D01*
X021000Y026828D01*
X021073Y026755D01*
X021220Y026755D01*
X021293Y026828D01*
X018280Y027600D02*
X018280Y028100D01*
X018278Y028126D01*
X018273Y028152D01*
X018265Y028177D01*
X018253Y028200D01*
X018239Y028222D01*
X018221Y028241D01*
X018202Y028259D01*
X018180Y028273D01*
X018157Y028285D01*
X018132Y028293D01*
X018106Y028298D01*
X018080Y028300D01*
X016780Y028300D01*
X016754Y028298D01*
X016728Y028293D01*
X016703Y028285D01*
X016680Y028273D01*
X016658Y028259D01*
X016639Y028241D01*
X016621Y028222D01*
X016607Y028200D01*
X016595Y028177D01*
X016587Y028152D01*
X016582Y028126D01*
X016580Y028100D01*
X016580Y027600D01*
X016582Y027574D01*
X016587Y027548D01*
X016595Y027523D01*
X016607Y027500D01*
X016621Y027478D01*
X016639Y027459D01*
X016658Y027441D01*
X016680Y027427D01*
X016703Y027415D01*
X016728Y027407D01*
X016754Y027402D01*
X016780Y027400D01*
X018080Y027400D01*
X018106Y027402D01*
X018132Y027407D01*
X018157Y027415D01*
X018180Y027427D01*
X018202Y027441D01*
X018221Y027459D01*
X018239Y027478D01*
X018253Y027500D01*
X018265Y027523D01*
X018273Y027548D01*
X018278Y027574D01*
X018280Y027600D01*
X017680Y027195D02*
X017460Y026975D01*
X017754Y026975D01*
X017680Y026755D02*
X017680Y027195D01*
X017293Y027122D02*
X017220Y027195D01*
X017073Y027195D01*
X017000Y027122D01*
X017000Y026828D01*
X017073Y026755D01*
X017220Y026755D01*
X017293Y026828D01*
X014280Y027600D02*
X014280Y028100D01*
X014278Y028126D01*
X014273Y028152D01*
X014265Y028177D01*
X014253Y028200D01*
X014239Y028222D01*
X014221Y028241D01*
X014202Y028259D01*
X014180Y028273D01*
X014157Y028285D01*
X014132Y028293D01*
X014106Y028298D01*
X014080Y028300D01*
X012780Y028300D01*
X012754Y028298D01*
X012728Y028293D01*
X012703Y028285D01*
X012680Y028273D01*
X012658Y028259D01*
X012639Y028241D01*
X012621Y028222D01*
X012607Y028200D01*
X012595Y028177D01*
X012587Y028152D01*
X012582Y028126D01*
X012580Y028100D01*
X012580Y027600D01*
X012582Y027574D01*
X012587Y027548D01*
X012595Y027523D01*
X012607Y027500D01*
X012621Y027478D01*
X012639Y027459D01*
X012658Y027441D01*
X012680Y027427D01*
X012703Y027415D01*
X012728Y027407D01*
X012754Y027402D01*
X012780Y027400D01*
X014080Y027400D01*
X014106Y027402D01*
X014132Y027407D01*
X014157Y027415D01*
X014180Y027427D01*
X014202Y027441D01*
X014221Y027459D01*
X014239Y027478D01*
X014253Y027500D01*
X014265Y027523D01*
X014273Y027548D01*
X014278Y027574D01*
X014280Y027600D01*
X013754Y027122D02*
X013754Y027049D01*
X013680Y026975D01*
X013754Y026902D01*
X013754Y026828D01*
X013680Y026755D01*
X013533Y026755D01*
X013460Y026828D01*
X013293Y026828D02*
X013220Y026755D01*
X013073Y026755D01*
X013000Y026828D01*
X013000Y027122D01*
X013073Y027195D01*
X013220Y027195D01*
X013293Y027122D01*
X013460Y027122D02*
X013533Y027195D01*
X013680Y027195D01*
X013754Y027122D01*
X013680Y026975D02*
X013607Y026975D01*
X014580Y028850D02*
X012280Y028850D01*
X012280Y037850D01*
X013030Y037850D01*
X013073Y038130D02*
X013220Y038130D01*
X013293Y038203D01*
X013293Y038570D01*
X013460Y038497D02*
X013533Y038570D01*
X013680Y038570D01*
X013754Y038497D01*
X013754Y038424D01*
X013680Y038350D01*
X013754Y038277D01*
X013754Y038203D01*
X013680Y038130D01*
X013533Y038130D01*
X013460Y038203D01*
X013607Y038350D02*
X013680Y038350D01*
X013830Y037850D02*
X014580Y037850D01*
X014580Y028850D01*
X016280Y028850D02*
X018580Y028850D01*
X018580Y037850D01*
X017830Y037850D01*
X017680Y038130D02*
X017680Y038570D01*
X017460Y038350D01*
X017754Y038350D01*
X017293Y038203D02*
X017293Y038570D01*
X017000Y038570D02*
X017000Y038203D01*
X017073Y038130D01*
X017220Y038130D01*
X017293Y038203D01*
X017030Y037850D02*
X017032Y037811D01*
X017038Y037772D01*
X017047Y037734D01*
X017060Y037697D01*
X017077Y037661D01*
X017097Y037628D01*
X017121Y037596D01*
X017147Y037567D01*
X017176Y037541D01*
X017208Y037517D01*
X017241Y037497D01*
X017277Y037480D01*
X017314Y037467D01*
X017352Y037458D01*
X017391Y037452D01*
X017430Y037450D01*
X017469Y037452D01*
X017508Y037458D01*
X017546Y037467D01*
X017583Y037480D01*
X017619Y037497D01*
X017652Y037517D01*
X017684Y037541D01*
X017713Y037567D01*
X017739Y037596D01*
X017763Y037628D01*
X017783Y037661D01*
X017800Y037697D01*
X017813Y037734D01*
X017822Y037772D01*
X017828Y037811D01*
X017830Y037850D01*
X017030Y037850D02*
X016280Y037850D01*
X016280Y028850D01*
X020280Y028850D02*
X022580Y028850D01*
X022580Y037850D01*
X021830Y037850D01*
X021680Y038130D02*
X021533Y038130D01*
X021460Y038203D01*
X021460Y038350D02*
X021607Y038424D01*
X021680Y038424D01*
X021754Y038350D01*
X021754Y038203D01*
X021680Y038130D01*
X021460Y038350D02*
X021460Y038570D01*
X021754Y038570D01*
X021293Y038570D02*
X021293Y038203D01*
X021220Y038130D01*
X021073Y038130D01*
X021000Y038203D01*
X021000Y038570D01*
X021030Y037850D02*
X020280Y037850D01*
X020280Y028850D01*
X024280Y028850D02*
X026580Y028850D01*
X026580Y037850D01*
X025830Y037850D01*
X025680Y038130D02*
X025754Y038203D01*
X025754Y038277D01*
X025680Y038350D01*
X025460Y038350D01*
X025460Y038203D01*
X025533Y038130D01*
X025680Y038130D01*
X025460Y038350D02*
X025607Y038497D01*
X025754Y038570D01*
X025293Y038570D02*
X025293Y038203D01*
X025220Y038130D01*
X025073Y038130D01*
X025000Y038203D01*
X025000Y038570D01*
X025030Y037850D02*
X024280Y037850D01*
X024280Y028850D01*
X024780Y028300D02*
X026080Y028300D01*
X026106Y028298D01*
X026132Y028293D01*
X026157Y028285D01*
X026180Y028273D01*
X026202Y028259D01*
X026221Y028241D01*
X026239Y028222D01*
X026253Y028200D01*
X026265Y028177D01*
X026273Y028152D01*
X026278Y028126D01*
X026280Y028100D01*
X026280Y027600D01*
X026278Y027574D01*
X026273Y027548D01*
X026265Y027523D01*
X026253Y027500D01*
X026239Y027478D01*
X026221Y027459D01*
X026202Y027441D01*
X026180Y027427D01*
X026157Y027415D01*
X026132Y027407D01*
X026106Y027402D01*
X026080Y027400D01*
X024780Y027400D01*
X024754Y027402D01*
X024728Y027407D01*
X024703Y027415D01*
X024680Y027427D01*
X024658Y027441D01*
X024639Y027459D01*
X024621Y027478D01*
X024607Y027500D01*
X024595Y027523D01*
X024587Y027548D01*
X024582Y027574D01*
X024580Y027600D01*
X024580Y028100D01*
X024582Y028126D01*
X024587Y028152D01*
X024595Y028177D01*
X024607Y028200D01*
X024621Y028222D01*
X024639Y028241D01*
X024658Y028259D01*
X024680Y028273D01*
X024703Y028285D01*
X024728Y028293D01*
X024754Y028298D01*
X024780Y028300D01*
X025073Y027195D02*
X025000Y027122D01*
X025000Y026828D01*
X025073Y026755D01*
X025220Y026755D01*
X025293Y026828D01*
X025460Y026828D02*
X025533Y026755D01*
X025680Y026755D01*
X025754Y026828D01*
X025754Y026902D01*
X025680Y026975D01*
X025460Y026975D01*
X025460Y026828D01*
X025460Y026975D02*
X025607Y027122D01*
X025754Y027195D01*
X025293Y027122D02*
X025220Y027195D01*
X025073Y027195D01*
X025430Y032229D02*
X025210Y032449D01*
X025650Y032449D01*
X025430Y032523D02*
X025430Y032229D01*
X025356Y032689D02*
X025210Y032836D01*
X025650Y032836D01*
X025650Y032689D02*
X025650Y032983D01*
X025430Y033150D02*
X025430Y033443D01*
X025430Y033610D02*
X025430Y033830D01*
X025503Y033904D01*
X025577Y033904D01*
X025650Y033830D01*
X025650Y033684D01*
X025577Y033610D01*
X025430Y033610D01*
X025283Y033757D01*
X025210Y033904D01*
X025430Y034071D02*
X025210Y034291D01*
X025650Y034291D01*
X025430Y034364D02*
X025430Y034071D01*
X025650Y033370D02*
X025210Y033370D01*
X025430Y033150D01*
X021650Y032983D02*
X021650Y032689D01*
X021650Y032836D02*
X021210Y032836D01*
X021356Y032689D01*
X021430Y032523D02*
X021430Y032229D01*
X021210Y032449D01*
X021650Y032449D01*
X021430Y033150D02*
X021430Y033443D01*
X021430Y033610D02*
X021430Y033830D01*
X021503Y033904D01*
X021577Y033904D01*
X021650Y033830D01*
X021650Y033684D01*
X021577Y033610D01*
X021430Y033610D01*
X021283Y033757D01*
X021210Y033904D01*
X021430Y034071D02*
X021430Y034364D01*
X021650Y034291D02*
X021210Y034291D01*
X021430Y034071D01*
X021650Y033370D02*
X021210Y033370D01*
X021430Y033150D01*
X017650Y032983D02*
X017650Y032689D01*
X017650Y032836D02*
X017210Y032836D01*
X017356Y032689D01*
X017430Y032523D02*
X017430Y032229D01*
X017210Y032449D01*
X017650Y032449D01*
X017430Y033150D02*
X017430Y033443D01*
X017430Y033610D02*
X017430Y033830D01*
X017503Y033904D01*
X017577Y033904D01*
X017650Y033830D01*
X017650Y033684D01*
X017577Y033610D01*
X017430Y033610D01*
X017283Y033757D01*
X017210Y033904D01*
X017430Y034071D02*
X017430Y034364D01*
X017650Y034291D02*
X017210Y034291D01*
X017430Y034071D01*
X017650Y033370D02*
X017210Y033370D01*
X017430Y033150D01*
X013650Y032983D02*
X013650Y032689D01*
X013650Y032836D02*
X013210Y032836D01*
X013356Y032689D01*
X013430Y032523D02*
X013430Y032229D01*
X013210Y032449D01*
X013650Y032449D01*
X013430Y033150D02*
X013430Y033443D01*
X013430Y033610D02*
X013430Y033830D01*
X013503Y033904D01*
X013577Y033904D01*
X013650Y033830D01*
X013650Y033684D01*
X013577Y033610D01*
X013430Y033610D01*
X013283Y033757D01*
X013210Y033904D01*
X013430Y034071D02*
X013430Y034364D01*
X013650Y034291D02*
X013210Y034291D01*
X013430Y034071D01*
X013650Y033370D02*
X013210Y033370D01*
X013430Y033150D01*
X009650Y032983D02*
X009650Y032689D01*
X009650Y032836D02*
X009210Y032836D01*
X009356Y032689D01*
X009430Y032523D02*
X009430Y032229D01*
X009210Y032449D01*
X009650Y032449D01*
X009430Y033150D02*
X009430Y033443D01*
X009430Y033610D02*
X009430Y033830D01*
X009503Y033904D01*
X009577Y033904D01*
X009650Y033830D01*
X009650Y033684D01*
X009577Y033610D01*
X009430Y033610D01*
X009283Y033757D01*
X009210Y033904D01*
X009430Y034071D02*
X009210Y034291D01*
X009650Y034291D01*
X009430Y034364D02*
X009430Y034071D01*
X009650Y033370D02*
X009210Y033370D01*
X009430Y033150D01*
X005650Y032983D02*
X005650Y032689D01*
X005650Y032836D02*
X005210Y032836D01*
X005356Y032689D01*
X005430Y032523D02*
X005430Y032229D01*
X005210Y032449D01*
X005650Y032449D01*
X005430Y033150D02*
X005430Y033443D01*
X005430Y033610D02*
X005430Y033830D01*
X005503Y033904D01*
X005577Y033904D01*
X005650Y033830D01*
X005650Y033684D01*
X005577Y033610D01*
X005430Y033610D01*
X005283Y033757D01*
X005210Y033904D01*
X005430Y034071D02*
X005430Y034364D01*
X005650Y034291D02*
X005210Y034291D01*
X005430Y034071D01*
X005650Y033370D02*
X005210Y033370D01*
X005430Y033150D01*
X006580Y028850D02*
X004280Y028850D01*
X004280Y037850D01*
X005030Y037850D01*
X005073Y038130D02*
X005000Y038203D01*
X005000Y038570D01*
X005293Y038570D02*
X005293Y038203D01*
X005220Y038130D01*
X005073Y038130D01*
X005460Y038130D02*
X005754Y038130D01*
X005607Y038130D02*
X005607Y038570D01*
X005460Y038424D01*
X005830Y037850D02*
X005828Y037811D01*
X005822Y037772D01*
X005813Y037734D01*
X005800Y037697D01*
X005783Y037661D01*
X005763Y037628D01*
X005739Y037596D01*
X005713Y037567D01*
X005684Y037541D01*
X005652Y037517D01*
X005619Y037497D01*
X005583Y037480D01*
X005546Y037467D01*
X005508Y037458D01*
X005469Y037452D01*
X005430Y037450D01*
X005391Y037452D01*
X005352Y037458D01*
X005314Y037467D01*
X005277Y037480D01*
X005241Y037497D01*
X005208Y037517D01*
X005176Y037541D01*
X005147Y037567D01*
X005121Y037596D01*
X005097Y037628D01*
X005077Y037661D01*
X005060Y037697D01*
X005047Y037734D01*
X005038Y037772D01*
X005032Y037811D01*
X005030Y037850D01*
X005830Y037850D02*
X006580Y037850D01*
X006580Y028850D01*
X006080Y028300D02*
X004780Y028300D01*
X004754Y028298D01*
X004728Y028293D01*
X004703Y028285D01*
X004680Y028273D01*
X004658Y028259D01*
X004639Y028241D01*
X004621Y028222D01*
X004607Y028200D01*
X004595Y028177D01*
X004587Y028152D01*
X004582Y028126D01*
X004580Y028100D01*
X004580Y027600D01*
X004582Y027574D01*
X004587Y027548D01*
X004595Y027523D01*
X004607Y027500D01*
X004621Y027478D01*
X004639Y027459D01*
X004658Y027441D01*
X004680Y027427D01*
X004703Y027415D01*
X004728Y027407D01*
X004754Y027402D01*
X004780Y027400D01*
X006080Y027400D01*
X006106Y027402D01*
X006132Y027407D01*
X006157Y027415D01*
X006180Y027427D01*
X006202Y027441D01*
X006221Y027459D01*
X006239Y027478D01*
X006253Y027500D01*
X006265Y027523D01*
X006273Y027548D01*
X006278Y027574D01*
X006280Y027600D01*
X006280Y028100D01*
X006278Y028126D01*
X006273Y028152D01*
X006265Y028177D01*
X006253Y028200D01*
X006239Y028222D01*
X006221Y028241D01*
X006202Y028259D01*
X006180Y028273D01*
X006157Y028285D01*
X006132Y028293D01*
X006106Y028298D01*
X006080Y028300D01*
X006330Y027350D02*
X006332Y027416D01*
X006338Y027481D01*
X006348Y027546D01*
X006361Y027611D01*
X006379Y027674D01*
X006400Y027737D01*
X006425Y027797D01*
X006454Y027857D01*
X006486Y027914D01*
X006521Y027970D01*
X006560Y028023D01*
X006602Y028074D01*
X006646Y028122D01*
X006694Y028167D01*
X006744Y028210D01*
X006797Y028249D01*
X006852Y028286D01*
X006909Y028319D01*
X006968Y028348D01*
X007028Y028374D01*
X007090Y028396D01*
X007153Y028415D01*
X007217Y028429D01*
X007282Y028440D01*
X007348Y028447D01*
X007414Y028450D01*
X007479Y028449D01*
X007545Y028444D01*
X007610Y028435D01*
X007675Y028422D01*
X007738Y028406D01*
X007801Y028386D01*
X007862Y028361D01*
X007922Y028334D01*
X007980Y028303D01*
X008036Y028268D01*
X008090Y028230D01*
X008141Y028189D01*
X008190Y028145D01*
X008236Y028098D01*
X008280Y028049D01*
X008320Y027997D01*
X008357Y027942D01*
X008391Y027886D01*
X008421Y027827D01*
X008448Y027767D01*
X008471Y027706D01*
X008490Y027643D01*
X008506Y027579D01*
X008518Y027514D01*
X008526Y027449D01*
X008530Y027383D01*
X008530Y027317D01*
X008526Y027251D01*
X008518Y027186D01*
X008506Y027121D01*
X008490Y027057D01*
X008471Y026994D01*
X008448Y026933D01*
X008421Y026873D01*
X008391Y026814D01*
X008357Y026758D01*
X008320Y026703D01*
X008280Y026651D01*
X008236Y026602D01*
X008190Y026555D01*
X008141Y026511D01*
X008090Y026470D01*
X008036Y026432D01*
X007980Y026397D01*
X007922Y026366D01*
X007862Y026339D01*
X007801Y026314D01*
X007738Y026294D01*
X007675Y026278D01*
X007610Y026265D01*
X007545Y026256D01*
X007479Y026251D01*
X007414Y026250D01*
X007348Y026253D01*
X007282Y026260D01*
X007217Y026271D01*
X007153Y026285D01*
X007090Y026304D01*
X007028Y026326D01*
X006968Y026352D01*
X006909Y026381D01*
X006852Y026414D01*
X006797Y026451D01*
X006744Y026490D01*
X006694Y026533D01*
X006646Y026578D01*
X006602Y026626D01*
X006560Y026677D01*
X006521Y026730D01*
X006486Y026786D01*
X006454Y026843D01*
X006425Y026903D01*
X006400Y026963D01*
X006379Y027026D01*
X006361Y027089D01*
X006348Y027154D01*
X006338Y027219D01*
X006332Y027284D01*
X006330Y027350D01*
X005607Y027195D02*
X005607Y026755D01*
X005460Y026755D02*
X005754Y026755D01*
X005460Y027049D02*
X005607Y027195D01*
X005293Y027122D02*
X005220Y027195D01*
X005073Y027195D01*
X005000Y027122D01*
X005000Y026828D01*
X005073Y026755D01*
X005220Y026755D01*
X005293Y026828D01*
X006769Y025997D02*
X006769Y025703D01*
X006843Y025630D01*
X006990Y025630D01*
X007063Y025703D01*
X007230Y025703D02*
X007303Y025630D01*
X007450Y025630D01*
X007523Y025703D01*
X007523Y025777D01*
X007450Y025850D01*
X007377Y025850D01*
X007450Y025850D02*
X007523Y025924D01*
X007523Y025997D01*
X007450Y026070D01*
X007303Y026070D01*
X007230Y025997D01*
X007063Y025997D02*
X006990Y026070D01*
X006843Y026070D01*
X006769Y025997D01*
X007690Y025924D02*
X007837Y026070D01*
X007837Y025630D01*
X007690Y025630D02*
X007984Y025630D01*
X007920Y025320D02*
X008214Y025320D01*
X008067Y025100D02*
X007920Y025100D01*
X007754Y025174D02*
X007754Y024880D01*
X007533Y024880D01*
X007460Y024953D01*
X007460Y025174D01*
X007293Y025247D02*
X007000Y024953D01*
X007000Y024880D01*
X006759Y024880D02*
X006759Y025320D01*
X006539Y025100D01*
X006833Y025100D01*
X007000Y025320D02*
X007293Y025320D01*
X007293Y025247D01*
X007920Y025320D02*
X007920Y024880D01*
X009073Y026755D02*
X009220Y026755D01*
X009293Y026828D01*
X009460Y026755D02*
X009754Y027049D01*
X009754Y027122D01*
X009680Y027195D01*
X009533Y027195D01*
X009460Y027122D01*
X009293Y027122D02*
X009220Y027195D01*
X009073Y027195D01*
X009000Y027122D01*
X009000Y026828D01*
X009073Y026755D01*
X009460Y026755D02*
X009754Y026755D01*
X010080Y027400D02*
X008780Y027400D01*
X008754Y027402D01*
X008728Y027407D01*
X008703Y027415D01*
X008680Y027427D01*
X008658Y027441D01*
X008639Y027459D01*
X008621Y027478D01*
X008607Y027500D01*
X008595Y027523D01*
X008587Y027548D01*
X008582Y027574D01*
X008580Y027600D01*
X008580Y028100D01*
X008582Y028126D01*
X008587Y028152D01*
X008595Y028177D01*
X008607Y028200D01*
X008621Y028222D01*
X008639Y028241D01*
X008658Y028259D01*
X008680Y028273D01*
X008703Y028285D01*
X008728Y028293D01*
X008754Y028298D01*
X008780Y028300D01*
X010080Y028300D01*
X010106Y028298D01*
X010132Y028293D01*
X010157Y028285D01*
X010180Y028273D01*
X010202Y028259D01*
X010221Y028241D01*
X010239Y028222D01*
X010253Y028200D01*
X010265Y028177D01*
X010273Y028152D01*
X010278Y028126D01*
X010280Y028100D01*
X010280Y027600D01*
X010278Y027574D01*
X010273Y027548D01*
X010265Y027523D01*
X010253Y027500D01*
X010239Y027478D01*
X010221Y027459D01*
X010202Y027441D01*
X010180Y027427D01*
X010157Y027415D01*
X010132Y027407D01*
X010106Y027402D01*
X010080Y027400D01*
X008143Y028000D02*
X007993Y028000D01*
X007993Y027850D01*
X007993Y028000D02*
X007843Y028000D01*
X007993Y028000D02*
X007993Y028150D01*
X008280Y028850D02*
X010580Y028850D01*
X010580Y037850D01*
X009830Y037850D01*
X009754Y038130D02*
X009460Y038130D01*
X009754Y038424D01*
X009754Y038497D01*
X009680Y038570D01*
X009533Y038570D01*
X009460Y038497D01*
X009293Y038570D02*
X009293Y038203D01*
X009220Y038130D01*
X009073Y038130D01*
X009000Y038203D01*
X009000Y038570D01*
X009030Y037850D02*
X008280Y037850D01*
X008280Y028850D01*
X009030Y037850D02*
X009032Y037811D01*
X009038Y037772D01*
X009047Y037734D01*
X009060Y037697D01*
X009077Y037661D01*
X009097Y037628D01*
X009121Y037596D01*
X009147Y037567D01*
X009176Y037541D01*
X009208Y037517D01*
X009241Y037497D01*
X009277Y037480D01*
X009314Y037467D01*
X009352Y037458D01*
X009391Y037452D01*
X009430Y037450D01*
X009469Y037452D01*
X009508Y037458D01*
X009546Y037467D01*
X009583Y037480D01*
X009619Y037497D01*
X009652Y037517D01*
X009684Y037541D01*
X009713Y037567D01*
X009739Y037596D01*
X009763Y037628D01*
X009783Y037661D01*
X009800Y037697D01*
X009813Y037734D01*
X009822Y037772D01*
X009828Y037811D01*
X009830Y037850D01*
X013000Y038203D02*
X013073Y038130D01*
X013000Y038203D02*
X013000Y038570D01*
X013030Y037850D02*
X013032Y037811D01*
X013038Y037772D01*
X013047Y037734D01*
X013060Y037697D01*
X013077Y037661D01*
X013097Y037628D01*
X013121Y037596D01*
X013147Y037567D01*
X013176Y037541D01*
X013208Y037517D01*
X013241Y037497D01*
X013277Y037480D01*
X013314Y037467D01*
X013352Y037458D01*
X013391Y037452D01*
X013430Y037450D01*
X013469Y037452D01*
X013508Y037458D01*
X013546Y037467D01*
X013583Y037480D01*
X013619Y037497D01*
X013652Y037517D01*
X013684Y037541D01*
X013713Y037567D01*
X013739Y037596D01*
X013763Y037628D01*
X013783Y037661D01*
X013800Y037697D01*
X013813Y037734D01*
X013822Y037772D01*
X013828Y037811D01*
X013830Y037850D01*
X021030Y037850D02*
X021032Y037811D01*
X021038Y037772D01*
X021047Y037734D01*
X021060Y037697D01*
X021077Y037661D01*
X021097Y037628D01*
X021121Y037596D01*
X021147Y037567D01*
X021176Y037541D01*
X021208Y037517D01*
X021241Y037497D01*
X021277Y037480D01*
X021314Y037467D01*
X021352Y037458D01*
X021391Y037452D01*
X021430Y037450D01*
X021469Y037452D01*
X021508Y037458D01*
X021546Y037467D01*
X021583Y037480D01*
X021619Y037497D01*
X021652Y037517D01*
X021684Y037541D01*
X021713Y037567D01*
X021739Y037596D01*
X021763Y037628D01*
X021783Y037661D01*
X021800Y037697D01*
X021813Y037734D01*
X021822Y037772D01*
X021828Y037811D01*
X021830Y037850D01*
X025030Y037850D02*
X025032Y037811D01*
X025038Y037772D01*
X025047Y037734D01*
X025060Y037697D01*
X025077Y037661D01*
X025097Y037628D01*
X025121Y037596D01*
X025147Y037567D01*
X025176Y037541D01*
X025208Y037517D01*
X025241Y037497D01*
X025277Y037480D01*
X025314Y037467D01*
X025352Y037458D01*
X025391Y037452D01*
X025430Y037450D01*
X025469Y037452D01*
X025508Y037458D01*
X025546Y037467D01*
X025583Y037480D01*
X025619Y037497D01*
X025652Y037517D01*
X025684Y037541D01*
X025713Y037567D01*
X025739Y037596D01*
X025763Y037628D01*
X025783Y037661D01*
X025800Y037697D01*
X025813Y037734D01*
X025822Y037772D01*
X025828Y037811D01*
X025830Y037850D01*
X033835Y038763D02*
X033908Y038689D01*
X034202Y038689D01*
X034275Y038763D01*
X034275Y038910D01*
X034202Y038983D01*
X034275Y039150D02*
X034275Y039443D01*
X034275Y039297D02*
X033835Y039297D01*
X033981Y039150D01*
X033908Y038983D02*
X033835Y038910D01*
X033835Y038763D01*
X034480Y038700D02*
X034480Y040000D01*
X034482Y040026D01*
X034487Y040052D01*
X034495Y040077D01*
X034507Y040100D01*
X034521Y040122D01*
X034539Y040141D01*
X034558Y040159D01*
X034580Y040173D01*
X034603Y040185D01*
X034628Y040193D01*
X034654Y040198D01*
X034680Y040200D01*
X035180Y040200D01*
X035206Y040198D01*
X035232Y040193D01*
X035257Y040185D01*
X035280Y040173D01*
X035302Y040159D01*
X035321Y040141D01*
X035339Y040122D01*
X035353Y040100D01*
X035365Y040077D01*
X035373Y040052D01*
X035378Y040026D01*
X035380Y040000D01*
X035380Y038700D01*
X035378Y038674D01*
X035373Y038648D01*
X035365Y038623D01*
X035353Y038600D01*
X035339Y038578D01*
X035321Y038559D01*
X035302Y038541D01*
X035280Y038527D01*
X035257Y038515D01*
X035232Y038507D01*
X035206Y038502D01*
X035180Y038500D01*
X034680Y038500D01*
X034654Y038502D01*
X034628Y038507D01*
X034603Y038515D01*
X034580Y038527D01*
X034558Y038541D01*
X034539Y038559D01*
X034521Y038578D01*
X034507Y038600D01*
X034495Y038623D01*
X034487Y038648D01*
X034482Y038674D01*
X034480Y038700D01*
X034202Y039610D02*
X034275Y039684D01*
X034275Y039830D01*
X034202Y039904D01*
X033908Y039904D01*
X033835Y039830D01*
X033835Y039684D01*
X033908Y039610D01*
X033981Y039610D01*
X034055Y039684D01*
X034055Y039904D01*
X049000Y034828D02*
X049073Y034755D01*
X049146Y034755D01*
X049220Y034828D01*
X049220Y035195D01*
X049293Y035195D02*
X049146Y035195D01*
X049460Y035195D02*
X049460Y034975D01*
X049607Y035049D01*
X049680Y035049D01*
X049754Y034975D01*
X049754Y034828D01*
X049680Y034755D01*
X049533Y034755D01*
X049460Y034828D01*
X049460Y035195D02*
X049754Y035195D01*
X067375Y032078D02*
X067448Y032005D01*
X067521Y032005D01*
X067595Y032078D01*
X067595Y032445D01*
X067668Y032445D02*
X067521Y032445D01*
X067835Y032372D02*
X067908Y032445D01*
X068055Y032445D01*
X068129Y032372D01*
X068129Y032299D01*
X068055Y032225D01*
X068129Y032152D01*
X068129Y032078D01*
X068055Y032005D01*
X067908Y032005D01*
X067835Y032078D01*
X067982Y032225D02*
X068055Y032225D01*
X075408Y015259D02*
X075335Y015186D01*
X075335Y015039D01*
X075408Y014965D01*
X075335Y014799D02*
X075335Y014652D01*
X075335Y014725D02*
X075702Y014725D01*
X075775Y014652D01*
X075775Y014578D01*
X075702Y014505D01*
X075775Y014965D02*
X075481Y015259D01*
X075408Y015259D01*
X075775Y015259D02*
X075775Y014965D01*
D12*
X057930Y022725D02*
X057930Y024475D01*
X057680Y024475D01*
X057680Y024725D02*
X057930Y024725D01*
X057930Y026475D01*
X057680Y026475D01*
X053180Y026475D02*
X052930Y026475D01*
X052930Y024725D01*
X053180Y024725D01*
X053180Y024475D02*
X052930Y024475D01*
X052930Y022725D01*
X053180Y022725D01*
X057680Y022725D02*
X057930Y022725D01*
X029530Y019450D02*
X029530Y015250D01*
X029528Y015206D01*
X029522Y015163D01*
X029513Y015121D01*
X029500Y015079D01*
X029483Y015039D01*
X029463Y015000D01*
X029440Y014963D01*
X029413Y014929D01*
X029384Y014896D01*
X029351Y014867D01*
X029317Y014840D01*
X029280Y014817D01*
X029241Y014797D01*
X029201Y014780D01*
X029159Y014767D01*
X029117Y014758D01*
X029074Y014752D01*
X029030Y014750D01*
X024330Y014750D01*
X024330Y019450D01*
X024332Y019494D01*
X024338Y019537D01*
X024347Y019579D01*
X024360Y019621D01*
X024377Y019661D01*
X024397Y019700D01*
X024420Y019737D01*
X024447Y019771D01*
X024476Y019804D01*
X024509Y019833D01*
X024543Y019860D01*
X024580Y019883D01*
X024619Y019903D01*
X024659Y019920D01*
X024701Y019933D01*
X024743Y019942D01*
X024786Y019948D01*
X024830Y019950D01*
X029030Y019950D01*
X029074Y019948D01*
X029117Y019942D01*
X029159Y019933D01*
X029201Y019920D01*
X029241Y019903D01*
X029280Y019883D01*
X029317Y019860D01*
X029351Y019833D01*
X029384Y019804D01*
X029413Y019771D01*
X029440Y019737D01*
X029463Y019700D01*
X029483Y019661D01*
X029500Y019621D01*
X029513Y019579D01*
X029522Y019537D01*
X029528Y019494D01*
X029530Y019450D01*
D13*
X044353Y004580D02*
X044353Y004120D01*
X044200Y004120D02*
X044507Y004120D01*
X044200Y004427D02*
X044353Y004580D01*
X075700Y004350D02*
X075700Y004197D01*
X075777Y004120D01*
X075930Y004120D01*
X076007Y004197D01*
X076007Y004273D01*
X075930Y004350D01*
X075700Y004350D01*
X075853Y004504D01*
X076007Y004580D01*
X076160Y004427D02*
X076314Y004580D01*
X076314Y004120D01*
X076467Y004120D02*
X076160Y004120D01*
D14*
X074180Y003850D02*
X074180Y004850D01*
X071180Y004850D01*
X071180Y003850D01*
X074180Y003850D01*
X071955Y006555D02*
X071955Y006713D01*
X071405Y006775D02*
X071405Y008425D01*
X071955Y008487D02*
X071955Y008645D01*
X071955Y007713D02*
X071955Y007487D01*
X071405Y008425D02*
X071453Y008460D01*
X071503Y008493D01*
X071555Y008524D01*
X071609Y008551D01*
X071664Y008575D01*
X071721Y008595D01*
X071778Y008613D01*
X071836Y008627D01*
X071895Y008638D01*
X071955Y008645D01*
X072017Y008649D01*
X072080Y008650D01*
X072142Y008646D01*
X072204Y008639D01*
X072265Y008629D01*
X072326Y008614D01*
X072386Y008596D01*
X072445Y008575D01*
X072502Y008550D01*
X072557Y008522D01*
X072611Y008491D01*
X072663Y008456D01*
X072713Y008418D01*
X072760Y008378D01*
X072805Y008334D01*
X072848Y008289D01*
X072887Y008240D01*
X072924Y008190D01*
X072957Y008137D01*
X072988Y008083D01*
X073015Y008026D01*
X073038Y007969D01*
X073058Y007910D01*
X073058Y007290D02*
X073038Y007230D01*
X073014Y007171D01*
X072986Y007114D01*
X072955Y007059D01*
X072920Y007005D01*
X072883Y006954D01*
X072842Y006905D01*
X072798Y006859D01*
X072752Y006815D01*
X072703Y006774D01*
X072652Y006736D01*
X072599Y006702D01*
X072543Y006670D01*
X072486Y006643D01*
X072427Y006618D01*
X072367Y006598D01*
X072306Y006580D01*
X072244Y006567D01*
X072181Y006558D01*
X072118Y006552D01*
X072054Y006550D01*
X071990Y006552D01*
X071927Y006558D01*
X071864Y006567D01*
X071802Y006581D01*
X071741Y006598D01*
X071681Y006619D01*
X071622Y006643D01*
X071565Y006671D01*
X071509Y006703D01*
X071456Y006738D01*
X071405Y006775D01*
X076243Y008256D02*
X076243Y012194D01*
X076440Y012194D01*
X077916Y012194D02*
X079786Y012194D01*
X077905Y014469D02*
X076004Y014469D01*
X076004Y019981D01*
X077905Y019981D01*
X068305Y028725D02*
X067305Y028725D01*
X067305Y031725D01*
X068305Y031725D01*
X068305Y028725D01*
X062355Y028600D02*
X062357Y028628D01*
X062363Y028655D01*
X062372Y028681D01*
X062385Y028706D01*
X062402Y028729D01*
X062421Y028749D01*
X062443Y028766D01*
X062467Y028780D01*
X062493Y028790D01*
X062520Y028797D01*
X062548Y028800D01*
X062576Y028799D01*
X062603Y028794D01*
X062630Y028785D01*
X062655Y028773D01*
X062678Y028758D01*
X062699Y028739D01*
X062717Y028718D01*
X062732Y028694D01*
X062743Y028668D01*
X062751Y028642D01*
X062755Y028614D01*
X062755Y028586D01*
X062751Y028558D01*
X062743Y028532D01*
X062732Y028506D01*
X062717Y028482D01*
X062699Y028461D01*
X062678Y028442D01*
X062655Y028427D01*
X062630Y028415D01*
X062603Y028406D01*
X062576Y028401D01*
X062548Y028400D01*
X062520Y028403D01*
X062493Y028410D01*
X062467Y028420D01*
X062443Y028434D01*
X062421Y028451D01*
X062402Y028471D01*
X062385Y028494D01*
X062372Y028519D01*
X062363Y028545D01*
X062357Y028572D01*
X062355Y028600D01*
X049930Y026475D02*
X048930Y026475D01*
X048930Y034475D01*
X049930Y034475D01*
X049930Y026475D01*
X046930Y024475D02*
X044930Y024475D01*
X044930Y030475D01*
X046930Y030475D01*
X046930Y024475D01*
X043026Y017420D02*
X040180Y017420D01*
X039680Y017920D02*
X039636Y017918D01*
X039593Y017912D01*
X039551Y017903D01*
X039509Y017890D01*
X039469Y017873D01*
X039430Y017853D01*
X039393Y017830D01*
X039359Y017803D01*
X039326Y017774D01*
X039297Y017741D01*
X039270Y017707D01*
X039247Y017670D01*
X039227Y017631D01*
X039210Y017591D01*
X039197Y017549D01*
X039188Y017507D01*
X039182Y017464D01*
X039180Y017420D01*
X036334Y017420D01*
X036334Y040530D01*
X043026Y040530D01*
X043026Y017420D01*
X040180Y017420D02*
X040178Y017464D01*
X040172Y017507D01*
X040163Y017549D01*
X040150Y017591D01*
X040133Y017631D01*
X040113Y017670D01*
X040090Y017707D01*
X040063Y017741D01*
X040034Y017774D01*
X040001Y017803D01*
X039967Y017830D01*
X039930Y017853D01*
X039891Y017873D01*
X039851Y017890D01*
X039809Y017903D01*
X039767Y017912D01*
X039724Y017918D01*
X039680Y017920D01*
X047635Y013250D02*
X047793Y013250D01*
X047855Y012700D02*
X049505Y012700D01*
X049567Y013250D02*
X049725Y013250D01*
X048793Y013250D02*
X048567Y013250D01*
X047855Y012700D02*
X047820Y012748D01*
X047787Y012798D01*
X047756Y012850D01*
X047729Y012904D01*
X047705Y012959D01*
X047685Y013016D01*
X047667Y013073D01*
X047653Y013131D01*
X047642Y013190D01*
X047635Y013250D01*
X047631Y013312D01*
X047630Y013375D01*
X047634Y013437D01*
X047641Y013499D01*
X047651Y013560D01*
X047666Y013621D01*
X047684Y013681D01*
X047705Y013740D01*
X047730Y013797D01*
X047758Y013852D01*
X047789Y013906D01*
X047824Y013958D01*
X047862Y014008D01*
X047902Y014055D01*
X047946Y014100D01*
X047991Y014143D01*
X048040Y014182D01*
X048090Y014219D01*
X048143Y014252D01*
X048197Y014283D01*
X048254Y014310D01*
X048311Y014333D01*
X048370Y014353D01*
X048990Y014353D02*
X049050Y014333D01*
X049109Y014309D01*
X049166Y014281D01*
X049221Y014250D01*
X049275Y014215D01*
X049326Y014178D01*
X049375Y014137D01*
X049421Y014093D01*
X049465Y014047D01*
X049506Y013998D01*
X049544Y013947D01*
X049578Y013894D01*
X049610Y013838D01*
X049637Y013781D01*
X049662Y013722D01*
X049682Y013662D01*
X049700Y013601D01*
X049713Y013539D01*
X049722Y013476D01*
X049728Y013413D01*
X049730Y013349D01*
X049728Y013285D01*
X049722Y013222D01*
X049713Y013159D01*
X049699Y013097D01*
X049682Y013036D01*
X049661Y012976D01*
X049637Y012917D01*
X049609Y012860D01*
X049577Y012804D01*
X049542Y012751D01*
X049505Y012700D01*
X049680Y011600D02*
X047680Y011600D01*
X047680Y010600D01*
X049680Y010600D01*
X049680Y011600D01*
X045680Y004600D02*
X044680Y004600D01*
X045180Y003600D01*
X045680Y004600D01*
X045658Y004555D02*
X044702Y004555D01*
X044727Y004507D02*
X045633Y004507D01*
X045609Y004458D02*
X044751Y004458D01*
X044775Y004410D02*
X045585Y004410D01*
X045561Y004361D02*
X044799Y004361D01*
X044824Y004313D02*
X045536Y004313D01*
X045512Y004264D02*
X044848Y004264D01*
X044872Y004216D02*
X045488Y004216D01*
X045464Y004167D02*
X044896Y004167D01*
X044921Y004119D02*
X045439Y004119D01*
X045415Y004070D02*
X044945Y004070D01*
X044969Y004022D02*
X045391Y004022D01*
X045367Y003973D02*
X044993Y003973D01*
X045018Y003925D02*
X045342Y003925D01*
X045318Y003876D02*
X045042Y003876D01*
X045066Y003828D02*
X045294Y003828D01*
X045270Y003779D02*
X045090Y003779D01*
X045115Y003731D02*
X045245Y003731D01*
X045221Y003682D02*
X045139Y003682D01*
X045163Y003634D02*
X045197Y003634D01*
X076243Y008256D02*
X076440Y008256D01*
X077916Y008256D02*
X079786Y008256D01*
X010430Y012850D02*
X010430Y013850D01*
X008430Y013850D01*
X008430Y012850D01*
X010430Y012850D01*
D15*
X007350Y013350D03*
X004510Y013350D03*
X014510Y013350D03*
X017350Y013350D03*
X021010Y020600D03*
X023850Y020600D03*
X050760Y014100D03*
X053600Y014100D03*
X067510Y021350D03*
X067510Y022350D03*
X067510Y023350D03*
X067510Y024350D03*
X070350Y024350D03*
X070510Y025350D03*
X073350Y025350D03*
X070350Y023350D03*
X070350Y022350D03*
X070350Y021350D03*
X056850Y022100D03*
X056850Y023100D03*
X056850Y024100D03*
X056850Y025100D03*
X056850Y026100D03*
X056850Y027100D03*
X056850Y028100D03*
X056850Y029100D03*
X054010Y029100D03*
X054010Y028100D03*
X054010Y027100D03*
X054010Y026100D03*
X054010Y025100D03*
X054010Y024100D03*
X054010Y023100D03*
X054010Y022100D03*
D16*
X048430Y026555D03*
X048430Y029395D03*
X065930Y024770D03*
X065930Y021930D03*
X072055Y013020D03*
X072055Y010180D03*
M02*
